G04 #@! TF.FileFunction,Copper,L1,Top*
G04 #@! TF.FilePolarity,Positive*
G04 #@! TF.SameCoordinates,AFXufONL8m5ovxynwRn4800OCTRbJdk*
G04 #@! TF.CreationDate,2025-02-05T17:23:04+0100*
G04 #@! TF.GenerationSoftware,Ucamco,UcamX,v2023.12-240208*
%FSLAX36Y36*%
%MOMM*%
%ADD10C,0.200000*%
%ADD11C,1*%
G04 layer name: DFS3015ROrev3_Silver*
%LPD*%
G04 #@! TO.N,39*
D10*
X166774940Y476969495D02*
Y89144375D01*
G04 #@! TO.N,40*
X443224940Y476969495D02*
Y89144375D01*
G04 #@! TO.N,41*
X351074940Y476969495D02*
Y89144375D01*
G04 #@! TO.N,42*
X258924940Y476969495D02*
Y89144375D01*
G04 #@! TO.N,43*
X536624940Y476969495D02*
Y89144375D01*
G04 #@! TO.N,44*
X73374940Y476969495D02*
Y89144375D01*
X166774940Y90144375D02*
G75*
G3*
X166986705Y89791435I400000J0D01*
G74*
G1*
X166774940Y90144375D02*
G75*
G3*
X166886705Y89791435I613155J0D01*
G74*
G1*
X166774940Y90144375D02*
G75*
G3*
X166824940Y89791435I1270665J0D01*
G74*
G1*
X166774940Y90144375D02*
G75*
G2*
X166563175Y89791435I-400000J0D01*
G74*
G1*
X166774940Y90144375D02*
G75*
G2*
X166663175Y89791435I-613155J0D01*
G74*
G1*
X166774940Y90144375D02*
G75*
G2*
X166724940Y89791435I-1270665J0D01*
G74*
G1*
X258924940Y90144375D02*
G75*
G3*
X259136705Y89791435I400000J0D01*
G74*
G1*
X258924940Y90144375D02*
G75*
G3*
X259036705Y89791435I613155J0D01*
G74*
G1*
X258924940Y90144375D02*
G75*
G3*
X258974940Y89791435I1270665J0D01*
G74*
G1*
X258924940Y90144375D02*
G75*
G2*
X258713175Y89791435I-400000J0D01*
G74*
G1*
X258924940Y90144375D02*
G75*
G2*
X258813175Y89791435I-613155J0D01*
G74*
G1*
X258924940Y90144375D02*
G75*
G2*
X258874940Y89791435I-1270665J0D01*
G74*
G1*
X351074940Y90144375D02*
G75*
G3*
X351286705Y89791435I400000J0D01*
G74*
G1*
X351074940Y90144375D02*
G75*
G3*
X351186705Y89791435I613155J0D01*
G74*
G1*
X351074940Y90144375D02*
G75*
G3*
X351124940Y89791435I1270665J0D01*
G74*
G1*
X351074940Y90144375D02*
G75*
G2*
X350863175Y89791435I-400000J0D01*
G74*
G1*
X351074940Y90144375D02*
G75*
G2*
X350963175Y89791435I-613155J0D01*
G74*
G1*
X351074940Y90144375D02*
G75*
G2*
X351024940Y89791435I-1270665J0D01*
G74*
G1*
X443224940Y90144375D02*
G75*
G3*
X443436705Y89791435I400000J0D01*
G74*
G1*
X443224940Y90144375D02*
G75*
G3*
X443336705Y89791435I613155J0D01*
G74*
G1*
X443224940Y90144375D02*
G75*
G3*
X443274940Y89791435I1270665J0D01*
G74*
G1*
X443224940Y90144375D02*
G75*
G2*
X443013175Y89791435I-400000J0D01*
G74*
G1*
X443224940Y90144375D02*
G75*
G2*
X443113175Y89791435I-613155J0D01*
G74*
G1*
X443224940Y90144375D02*
G75*
G2*
X443174940Y89791435I-1270665J0D01*
G74*
G1*
X536624940Y90144375D02*
G75*
G3*
X536836705Y89791435I400000J0D01*
G74*
G1*
X536624940Y90144375D02*
G75*
G3*
X536736705Y89791435I613155J0D01*
G74*
G1*
X536624940Y90144375D02*
G75*
G3*
X536674940Y89791435I1270665J0D01*
G74*
G1*
X536624940Y90144375D02*
G75*
G2*
X536413175Y89791435I-400000J0D01*
G74*
G1*
X536624940Y90144375D02*
G75*
G2*
X536513175Y89791435I-613155J0D01*
G74*
G1*
X536624940Y90144375D02*
G75*
G2*
X536574940Y89791435I-1270665J0D01*
G74*
G1*
X73374940Y90144375D02*
G75*
G3*
X73586705Y89791435I400000J0D01*
G74*
G1*
X73374940Y90144375D02*
G75*
G3*
X73486705Y89791435I613155J0D01*
G74*
G1*
X73374940Y90144375D02*
G75*
G3*
X73424940Y89791435I1270665J0D01*
G74*
G1*
X73374940Y90144375D02*
G75*
G2*
X73163175Y89791435I-400000J0D01*
G74*
G1*
X73374940Y90144375D02*
G75*
G2*
X73263175Y89791435I-613155J0D01*
G74*
G1*
X73374940Y90144375D02*
G75*
G2*
X73324940Y89791435I-1270665J0D01*
G74*
G1*
X166774940Y90144375D02*
G75*
G3*
X166986705Y89791435I400000J0D01*
G74*
G1*
X166774940Y90144375D02*
G75*
G3*
X166886705Y89791435I613155J0D01*
G74*
G1*
X166774940Y90144375D02*
G75*
G3*
X166824940Y89791435I1270665J0D01*
G74*
G1*
X166774940Y90144375D02*
G75*
G2*
X166563175Y89791435I-400000J0D01*
G74*
G1*
X166774940Y90144375D02*
G75*
G2*
X166663175Y89791435I-613155J0D01*
G74*
G1*
X166774940Y90144375D02*
G75*
G2*
X166724940Y89791435I-1270665J0D01*
G74*
G1*
X258924940Y90144375D02*
G75*
G3*
X259136705Y89791435I400000J0D01*
G74*
G1*
X258924940Y90144375D02*
G75*
G3*
X259036705Y89791435I613155J0D01*
G74*
G1*
X258924940Y90144375D02*
G75*
G3*
X258974940Y89791435I1270665J0D01*
G74*
G1*
X258924940Y90144375D02*
G75*
G2*
X258713175Y89791435I-400000J0D01*
G74*
G1*
X258924940Y90144375D02*
G75*
G2*
X258813175Y89791435I-613155J0D01*
G74*
G1*
X258924940Y90144375D02*
G75*
G2*
X258874940Y89791435I-1270665J0D01*
G74*
G1*
X351074940Y90144375D02*
G75*
G3*
X351286705Y89791435I400000J0D01*
G74*
G1*
X351074940Y90144375D02*
G75*
G3*
X351186705Y89791435I613155J0D01*
G74*
G1*
X351074940Y90144375D02*
G75*
G3*
X351124940Y89791435I1270665J0D01*
G74*
G1*
X351074940Y90144375D02*
G75*
G2*
X350863175Y89791435I-400000J0D01*
G74*
G1*
X351074940Y90144375D02*
G75*
G2*
X350963175Y89791435I-613155J0D01*
G74*
G1*
X351074940Y90144375D02*
G75*
G2*
X351024940Y89791435I-1270665J0D01*
G74*
G1*
X443224940Y90144375D02*
G75*
G3*
X443436705Y89791435I400000J0D01*
G74*
G1*
X443224940Y90144375D02*
G75*
G3*
X443336705Y89791435I613155J0D01*
G74*
G1*
X443224940Y90144375D02*
G75*
G3*
X443274940Y89791435I1270665J0D01*
G74*
G1*
X443224940Y90144375D02*
G75*
G2*
X443013175Y89791435I-400000J0D01*
G74*
G1*
X443224940Y90144375D02*
G75*
G2*
X443113175Y89791435I-613155J0D01*
G74*
G1*
X443224940Y90144375D02*
G75*
G2*
X443174940Y89791435I-1270665J0D01*
G74*
G1*
X536624940Y90144375D02*
G75*
G3*
X536836705Y89791435I400000J0D01*
G74*
G1*
X536624940Y90144375D02*
G75*
G3*
X536736705Y89791435I613155J0D01*
G74*
G1*
X536624940Y90144375D02*
G75*
G3*
X536674940Y89791435I1270665J0D01*
G74*
G1*
X536624940Y90144375D02*
G75*
G2*
X536413175Y89791435I-400000J0D01*
G74*
G1*
X536624940Y90144375D02*
G75*
G2*
X536513175Y89791435I-613155J0D01*
G74*
G1*
X536624940Y90144375D02*
G75*
G2*
X536574940Y89791435I-1270665J0D01*
G74*
G1*
X73374940Y90144375D02*
G75*
G3*
X73586705Y89791435I400000J0D01*
G74*
G1*
X73374940Y90144375D02*
G75*
G3*
X73486705Y89791435I613155J0D01*
G74*
G1*
X73374940Y90144375D02*
G75*
G3*
X73424940Y89791435I1270665J0D01*
G74*
G1*
X73374940Y90144375D02*
G75*
G2*
X73163175Y89791435I-400000J0D01*
G74*
G1*
X73374940Y90144375D02*
G75*
G2*
X73263175Y89791435I-613155J0D01*
G74*
G1*
X73374940Y90144375D02*
G75*
G2*
X73324940Y89791435I-1270665J0D01*
G74*
G1*
X166774940Y476719495D02*
G75*
G2*
X166986705Y477072435I400000J0D01*
G74*
G1*
X166774940Y476719495D02*
G75*
G2*
X166886705Y477072435I613155J0D01*
G74*
G1*
X166774940Y476719495D02*
G75*
G2*
X166824940Y477072435I1270665J0D01*
G74*
G1*
X166774940Y476719495D02*
G75*
G3*
X166563175Y477072435I-400000J0D01*
G74*
G1*
X166774940Y476719495D02*
G75*
G3*
X166663175Y477072435I-613155J0D01*
G74*
G1*
X166774940Y476719495D02*
G75*
G3*
X166724940Y477072435I-1270665J0D01*
G74*
G1*
X258924940Y476719495D02*
G75*
G2*
X259136705Y477072435I400000J0D01*
G74*
G1*
X258924940Y476719495D02*
G75*
G2*
X259036705Y477072435I613155J0D01*
G74*
G1*
X258924940Y476719495D02*
G75*
G2*
X258974940Y477072435I1270665J0D01*
G74*
G1*
X258924940Y476719495D02*
G75*
G3*
X258713175Y477072435I-400000J0D01*
G74*
G1*
X258924940Y476719495D02*
G75*
G3*
X258813175Y477072435I-613155J0D01*
G74*
G1*
X258924940Y476719495D02*
G75*
G3*
X258874940Y477072435I-1270665J0D01*
G74*
G1*
X351074940Y476719495D02*
G75*
G2*
X351286705Y477072435I400000J0D01*
G74*
G1*
X351074940Y476719495D02*
G75*
G2*
X351186705Y477072435I613155J0D01*
G74*
G1*
X351074940Y476719495D02*
G75*
G2*
X351124940Y477072435I1270665J0D01*
G74*
G1*
X351074940Y476719495D02*
G75*
G3*
X350863175Y477072435I-400000J0D01*
G74*
G1*
X351074940Y476719495D02*
G75*
G3*
X350963175Y477072435I-613155J0D01*
G74*
G1*
X351074940Y476719495D02*
G75*
G3*
X351024940Y477072435I-1270665J0D01*
G74*
G1*
X443224940Y476719495D02*
G75*
G2*
X443436705Y477072435I400000J0D01*
G74*
G1*
X443224940Y476719495D02*
G75*
G2*
X443336705Y477072435I613155J0D01*
G74*
G1*
X443224940Y476719495D02*
G75*
G2*
X443274940Y477072435I1270665J0D01*
G74*
G1*
X443224940Y476719495D02*
G75*
G3*
X443013175Y477072435I-400000J0D01*
G74*
G1*
X443224940Y476719495D02*
G75*
G3*
X443113175Y477072435I-613155J0D01*
G74*
G1*
X443224940Y476719495D02*
G75*
G3*
X443174940Y477072435I-1270665J0D01*
G74*
G1*
X536624940Y476719495D02*
G75*
G2*
X536836705Y477072435I400000J0D01*
G74*
G1*
X536624940Y476719495D02*
G75*
G2*
X536736705Y477072435I613155J0D01*
G74*
G1*
X536624940Y476719495D02*
G75*
G2*
X536674940Y477072435I1270665J0D01*
G74*
G1*
X536624940Y476719495D02*
G75*
G3*
X536413175Y477072435I-400000J0D01*
G74*
G1*
X536624940Y476719495D02*
G75*
G3*
X536513175Y477072435I-613155J0D01*
G74*
G1*
X536624940Y476719495D02*
G75*
G3*
X536574940Y477072435I-1270665J0D01*
G74*
G1*
X73374940Y476719495D02*
G75*
G2*
X73586705Y477072435I400000J0D01*
G74*
G1*
X73374940Y476719495D02*
G75*
G2*
X73486705Y477072435I613155J0D01*
G74*
G1*
X73374940Y476719495D02*
G75*
G2*
X73424940Y477072435I1270665J0D01*
G74*
G1*
X73374940Y476719495D02*
G75*
G3*
X73163175Y477072435I-400000J0D01*
G74*
G1*
X73374940Y476719495D02*
G75*
G3*
X73263175Y477072435I-613155J0D01*
G74*
G1*
X73374940Y476719495D02*
G75*
G3*
X73324940Y477072435I-1270665J0D01*
G74*
G1*
X166774940Y476719495D02*
G75*
G2*
X166986705Y477072435I400000J0D01*
G74*
G1*
X166774940Y476719495D02*
G75*
G2*
X166886705Y477072435I613155J0D01*
G74*
G1*
X166774940Y476719495D02*
G75*
G2*
X166824940Y477072435I1270665J0D01*
G74*
G1*
X166774940Y476719495D02*
G75*
G3*
X166563175Y477072435I-400000J0D01*
G74*
G1*
X166774940Y476719495D02*
G75*
G3*
X166663175Y477072435I-613155J0D01*
G74*
G1*
X166774940Y476719495D02*
G75*
G3*
X166724940Y477072435I-1270665J0D01*
G74*
G1*
X258924940Y476719495D02*
G75*
G2*
X259136705Y477072435I400000J0D01*
G74*
G1*
X258924940Y476719495D02*
G75*
G2*
X259036705Y477072435I613155J0D01*
G74*
G1*
X258924940Y476719495D02*
G75*
G2*
X258974940Y477072435I1270665J0D01*
G74*
G1*
X258924940Y476719495D02*
G75*
G3*
X258713175Y477072435I-400000J0D01*
G74*
G1*
X258924940Y476719495D02*
G75*
G3*
X258813175Y477072435I-613155J0D01*
G74*
G1*
X258924940Y476719495D02*
G75*
G3*
X258874940Y477072435I-1270665J0D01*
G74*
G1*
X351074940Y476719495D02*
G75*
G2*
X351286705Y477072435I400000J0D01*
G74*
G1*
X351074940Y476719495D02*
G75*
G2*
X351186705Y477072435I613155J0D01*
G74*
G1*
X351074940Y476719495D02*
G75*
G2*
X351124940Y477072435I1270665J0D01*
G74*
G1*
X351074940Y476719495D02*
G75*
G3*
X350863175Y477072435I-400000J0D01*
G74*
G1*
X351074940Y476719495D02*
G75*
G3*
X350963175Y477072435I-613155J0D01*
G74*
G1*
X351074940Y476719495D02*
G75*
G3*
X351024940Y477072435I-1270665J0D01*
G74*
G1*
X443224940Y476719495D02*
G75*
G2*
X443436705Y477072435I400000J0D01*
G74*
G1*
X443224940Y476719495D02*
G75*
G2*
X443336705Y477072435I613155J0D01*
G74*
G1*
X443224940Y476719495D02*
G75*
G2*
X443274940Y477072435I1270665J0D01*
G74*
G1*
X443224940Y476719495D02*
G75*
G3*
X443013175Y477072435I-400000J0D01*
G74*
G1*
X443224940Y476719495D02*
G75*
G3*
X443113175Y477072435I-613155J0D01*
G74*
G1*
X443224940Y476719495D02*
G75*
G3*
X443174940Y477072435I-1270665J0D01*
G74*
G1*
X536624940Y476719495D02*
G75*
G2*
X536836705Y477072435I400000J0D01*
G74*
G1*
X536624940Y476719495D02*
G75*
G2*
X536736705Y477072435I613155J0D01*
G74*
G1*
X536624940Y476719495D02*
G75*
G2*
X536674940Y477072435I1270665J0D01*
G74*
G1*
X536624940Y476719495D02*
G75*
G3*
X536413175Y477072435I-400000J0D01*
G74*
G1*
X536624940Y476719495D02*
G75*
G3*
X536513175Y477072435I-613155J0D01*
G74*
G1*
X536624940Y476719495D02*
G75*
G3*
X536574940Y477072435I-1270665J0D01*
G74*
G1*
X73374940Y476719495D02*
G75*
G2*
X73586705Y477072435I400000J0D01*
G74*
G1*
X73374940Y476719495D02*
G75*
G2*
X73486705Y477072435I613155J0D01*
G74*
G1*
X73374940Y476719495D02*
G75*
G2*
X73424940Y477072435I1270665J0D01*
G74*
G1*
X73374940Y476719495D02*
G75*
G3*
X73163175Y477072435I-400000J0D01*
G74*
G1*
X73374940Y476719495D02*
G75*
G3*
X73263175Y477072435I-613155J0D01*
G74*
G1*
X73374940Y476719495D02*
G75*
G3*
X73324940Y477072435I-1270665J0D01*
G74*
G04 #@! TO.N,39*
D11*
G1*
X166774940Y89394375D03*
G04 #@! TO.N,42*
X258924940D03*
G04 #@! TO.N,41*
X351074940D03*
G04 #@! TO.N,40*
X443224940D03*
G04 #@! TO.N,43*
X536624940D03*
G04 #@! TO.N,44*
X73374940D03*
G04 #@! TO.N,39*
X166774940D03*
G04 #@! TO.N,42*
X258924940D03*
G04 #@! TO.N,41*
X351074940D03*
G04 #@! TO.N,40*
X443224940D03*
G04 #@! TO.N,43*
X536624940D03*
G04 #@! TO.N,44*
X73374940D03*
G04 #@! TO.N,39*
X166774940Y477469495D03*
G04 #@! TO.N,42*
X258924940D03*
G04 #@! TO.N,41*
X351074940D03*
G04 #@! TO.N,40*
X443224940D03*
G04 #@! TO.N,43*
X536624940D03*
G04 #@! TO.N,44*
X73374940D03*
G04 #@! TO.N,39*
X166774940D03*
G04 #@! TO.N,42*
X258924940D03*
G04 #@! TO.N,41*
X351074940D03*
G04 #@! TO.N,40*
X443224940D03*
G04 #@! TO.N,43*
X536624940D03*
G04 #@! TO.N,44*
X73374940D03*
%LPD*%
M02*