G04 #@! TF.FileFunction,Other,rout*
G04 #@! TF.FilePolarity,Positive*
G04 #@! TF.SameCoordinates,AFXufONL8m5ovxynwRn4800OCTRbJdk*
G04 #@! TF.CreationDate,2025-02-05T17:23:22+0100*
G04 #@! TF.GenerationSoftware,Ucamco,UcamX,v2023.12-240208*
%FSLAX36Y36*%
%MOMM*%
%ADD10C,4*%
%ADD11C,4.050000*%
%ADD12C,2*%
G04 layer name: DFS3015ROrev3_det*
%LPD*%
D10*
X20000000Y530000000D03*
Y20000000D03*
X590000000D03*
Y530000000D03*
Y495000000D03*
D11*
X447500000Y20000000D03*
Y530000000D03*
X305000000Y20000000D03*
Y530000000D03*
X162500000Y20000000D03*
Y530000000D03*
X20000000Y147500000D03*
X590000000D03*
X20000000Y275000000D03*
X590000000D03*
X20000000Y402500000D03*
X590000000D03*
D12*
X302800000Y525730490D02*
X165562210D01*
X23924415Y399128900D02*
Y276927310D01*
X161162210Y525730490D02*
X94743315D01*
X90343315Y525730490D02*
X23924415D01*
Y466829695D01*
X23924415Y462429695D02*
Y403528900D01*
X23924415Y272527310D02*
Y150325720D01*
X23924415Y145925720D02*
Y87024925D01*
X23924415Y82624925D02*
Y23724130D01*
X165562210Y23724130D02*
X302800000D01*
X23924415Y23724130D02*
X90343315D01*
X94743315Y23724130D02*
X161162210D01*
X307200000Y23724130D02*
X444437795D01*
X448837795Y23724130D02*
X515256690D01*
X519656690Y23724130D02*
X586075585D01*
X586075585Y150325720D02*
Y272527310D01*
X586075585Y23724130D02*
Y82624925D01*
X586075585Y87024925D02*
Y145925720D01*
X586075585Y276927310D02*
Y399128900D01*
X586075585Y403528900D02*
Y462429695D01*
X586075585Y466829695D02*
Y525730490D01*
X444437795Y525730490D02*
X307200000D01*
X586075585Y525730490D02*
X519656690D01*
X515256690Y525730490D02*
X448837795D01*
X307000000Y525730490D02*
X303000000D01*
X165362210Y525730490D02*
X161362210D01*
X23924415Y276727310D02*
Y272727310D01*
X23924415Y403328900D02*
Y399328900D01*
X94543315Y525730490D02*
X90543315D01*
X23924415Y466629695D02*
Y462629695D01*
X23924415Y150125720D02*
Y146125720D01*
X23924415Y86824925D02*
Y82824925D01*
X303000000Y23724130D02*
X307000000D01*
X161362210Y23724130D02*
X165362210D01*
X90543315Y23724130D02*
X94543315D01*
X444637795Y23724130D02*
X448637795D01*
X515456690Y23724130D02*
X519456690D01*
X586075585Y272727310D02*
Y276727310D01*
X586075585Y146125720D02*
Y150125720D01*
X586075585Y82824925D02*
Y86824925D01*
X586075585Y399328900D02*
Y403328900D01*
X586075585Y462629695D02*
Y466629695D01*
X448637795Y525730490D02*
X444637795D01*
X519456690Y525730490D02*
X515456690D01*
%LPD*%
M02*