G04 #@! TF.FileFunction,Plated,2,9,PTH*
G04 #@! TF.FilePolarity,Positive*
G04 #@! TF.SameCoordinates,AFXufONL8m5ovxynwRn4800OCTRbJdk*
G04 #@! TF.CreationDate,2025-02-05T17:23:15+0100*
G04 #@! TF.GenerationSoftware,Ucamco,UcamX,v2023.12-240208*
%FSLAX36Y36*%
%MOMM*%
%ADD10C,0.500000*%
%ADD11C,0.400000*%
G04 layer name: DFS3015ROrev3_pla*
%LPD*%
D10*
X28000000Y18000000D03*
Y20000000D03*
Y22000000D03*
Y528000000D03*
Y530000000D03*
Y532000000D03*
X30000000D03*
Y530000000D03*
Y528000000D03*
X32000000D03*
Y530000000D03*
Y532000000D03*
X573000000D03*
X575000000D03*
X577000000D03*
Y530000000D03*
X575000000D03*
X573000000D03*
Y528000000D03*
X575000000D03*
X577000000D03*
X578000000Y22000000D03*
Y20000000D03*
X580000000D03*
Y22000000D03*
X582000000D03*
Y20000000D03*
Y18000000D03*
X580000000D03*
X578000000D03*
X32000000D03*
Y20000000D03*
Y22000000D03*
X30000000D03*
Y20000000D03*
Y18000000D03*
D11*
X290475540Y518165440D03*
X289475540Y519165440D03*
X289975540Y520253465D03*
X290975540D03*
X291975540D03*
X292975540D03*
X293975540D03*
X294975540D03*
X295975540D03*
X296975540D03*
X297975540D03*
X298975540D03*
X299975540D03*
X300975540D03*
X301975540D03*
X302975540D03*
X303975540D03*
X304975540D03*
X305975540D03*
X306975540D03*
X307975540D03*
X308975540D03*
X309975540D03*
X310975540D03*
X311975540D03*
X312975540D03*
X313975540D03*
X314975540D03*
X315975540D03*
X316975540D03*
X317975540D03*
X318975540D03*
X319975540D03*
X320975540D03*
X326731260Y522249025D03*
Y519709025D03*
Y516749165D03*
Y514208910D03*
X436675010Y522249025D03*
Y519709025D03*
X436666880Y516746370D03*
Y514206370D03*
X443075620Y509291170D03*
X445075620D03*
X447075620D03*
X449075620D03*
X451075620D03*
X453075620D03*
X452075620Y507291170D03*
X454075620D03*
X456075620D03*
X455075620Y509291170D03*
X457075620D03*
X459075620D03*
X458075620Y507291170D03*
X458575620Y505171170D03*
X456575620D03*
X454575620D03*
X452575620D03*
X450575620D03*
X450075620Y507291170D03*
X448075620D03*
X448575620Y505171170D03*
X446575620D03*
X446075620Y507291170D03*
X444075620D03*
X444575620Y505171170D03*
X442575620D03*
X443575620Y503171170D03*
X445575620D03*
X447575620D03*
X449575620D03*
X451575620D03*
X453575620D03*
X455575620D03*
X457575620D03*
X459575620D03*
X461575620D03*
X463575620D03*
X465575620D03*
X467575620D03*
X469575620D03*
X471575620D03*
X473575620D03*
X472575620Y505171170D03*
X470575620D03*
X468575620D03*
X466575620D03*
X464575620D03*
X462575620D03*
X460575620D03*
X460075620Y507291170D03*
X462075620D03*
X461075620Y509291170D03*
X463075620D03*
X465075620D03*
X464075620Y507291170D03*
X466075620D03*
X468075620D03*
X467075620Y509291170D03*
X469075620D03*
X471075620D03*
X470075620Y507291170D03*
X472075620D03*
X474075620D03*
X473075620Y509291170D03*
X474075540Y518165440D03*
X473075540Y519165440D03*
X472075540Y518165440D03*
X471075540Y519165440D03*
X470075540Y518165440D03*
X469075540Y519165440D03*
X468075540Y518165440D03*
X467075540Y519165440D03*
X466075540Y518165440D03*
X465075540Y519165440D03*
X464075540Y518165440D03*
X463075540Y519165440D03*
X462075540Y518165440D03*
X461075540Y519165440D03*
X460075540Y518165440D03*
X459075540Y519165440D03*
X458075540Y518165440D03*
X457075540Y519165440D03*
X456075540Y518165440D03*
X455075540Y519165440D03*
X454075540Y518165440D03*
X453075540Y519165440D03*
X452075540Y518165440D03*
X451075540Y519165440D03*
X450075540Y518165440D03*
X449075540Y519165440D03*
X448075540Y518165440D03*
X447075540Y519165440D03*
X446075540Y518165440D03*
X445075540Y519165440D03*
X444075540Y518165440D03*
X443075540Y519165440D03*
X443575540Y520253465D03*
X444575540D03*
X445575540D03*
X446575540D03*
X447575540D03*
X448575540D03*
X449575540D03*
X450575540D03*
X451575540D03*
X452575540D03*
X453575540D03*
X454575540D03*
X455575540D03*
X456575540D03*
X457575540D03*
X458575540D03*
X459575540D03*
X460575540D03*
X461575540D03*
X462575540D03*
X463575540D03*
X464575540D03*
X465575540D03*
X466575540D03*
X467575540D03*
X468575540D03*
X469575540D03*
X470575540D03*
X471575540D03*
X472575540D03*
X473575540D03*
X474575540D03*
X480331260Y522249025D03*
Y519709025D03*
Y516749165D03*
Y514208910D03*
X582596555Y420116585D03*
X580056555D03*
X577093900Y420124715D03*
X574553900D03*
X568633760Y413730535D03*
Y411730535D03*
Y409730535D03*
Y407730535D03*
X566633760Y408730535D03*
Y406730535D03*
Y404730535D03*
X568633760Y405730535D03*
Y403730535D03*
Y401730535D03*
X566633760Y402730535D03*
Y400730535D03*
X564513760Y400230535D03*
Y402230535D03*
Y404230535D03*
Y406230535D03*
Y408230535D03*
Y410230535D03*
X566633760Y410730535D03*
Y412730535D03*
X564513760Y412230535D03*
Y414230535D03*
X562513760Y413230535D03*
Y411230535D03*
Y409230535D03*
Y407230535D03*
Y405230535D03*
Y403230535D03*
Y401230535D03*
Y399230535D03*
Y397230535D03*
X564513760Y398230535D03*
Y396230535D03*
Y394230535D03*
X562513760Y395230535D03*
Y393230535D03*
Y391230535D03*
Y389230535D03*
Y387230535D03*
Y385230535D03*
Y383230535D03*
X564513760Y384230535D03*
Y386230535D03*
Y388230535D03*
X566633760Y388730535D03*
Y390730535D03*
X564513760Y390230535D03*
Y392230535D03*
X566633760Y392730535D03*
Y394730535D03*
Y396730535D03*
Y398730535D03*
X568633760Y399730535D03*
Y397730535D03*
Y395730535D03*
Y393730535D03*
Y391730535D03*
Y389730535D03*
Y387730535D03*
Y385730535D03*
X566633760Y386730535D03*
Y384730535D03*
Y382730535D03*
X568633760Y383730535D03*
X578510535Y382730535D03*
X579510535Y383730535D03*
X578510535Y384730535D03*
X579510535Y385730535D03*
X578510535Y386730535D03*
X579510535Y387730535D03*
X578510535Y388730535D03*
X579510535Y389730535D03*
X578510535Y390730535D03*
X579510535Y391730535D03*
X578510535Y392730535D03*
X579510535Y393730535D03*
X578510535Y394730535D03*
X579510535Y395730535D03*
X578510535Y396730535D03*
X579510535Y397730535D03*
X578510535Y398730535D03*
X579510535Y399730535D03*
X578510535Y400730535D03*
X579510535Y401730535D03*
X578510535Y402730535D03*
X579510535Y403730535D03*
X578510535Y404730535D03*
X579510535Y405730535D03*
X578510535Y406730535D03*
X579510535Y407730535D03*
X578510535Y408730535D03*
X579510535Y409730535D03*
X578510535Y410730535D03*
X579510535Y411730535D03*
X578510535Y412730535D03*
X579510535Y413730535D03*
X580598560Y413230535D03*
Y412230535D03*
Y411230535D03*
Y410230535D03*
Y409230535D03*
Y408230535D03*
Y407230535D03*
Y406230535D03*
Y405230535D03*
Y404230535D03*
Y403230535D03*
Y402230535D03*
Y401230535D03*
Y400230535D03*
Y399230535D03*
Y398230535D03*
Y397230535D03*
Y396230535D03*
Y395230535D03*
Y394230535D03*
Y393230535D03*
Y392230535D03*
Y391230535D03*
Y390230535D03*
Y389230535D03*
Y388230535D03*
Y387230535D03*
Y386230535D03*
Y385230535D03*
Y384230535D03*
Y383230535D03*
Y382230535D03*
X582596555Y376460335D03*
X580056555D03*
X577096695D03*
X574556440D03*
X582596555Y266516585D03*
X580056555D03*
X577093900Y266524715D03*
X574553900D03*
X568633760Y260130535D03*
Y258130535D03*
X566633760Y259130535D03*
Y257130535D03*
Y255130535D03*
X568633760Y256130535D03*
Y254130535D03*
Y252130535D03*
Y250130535D03*
Y248130535D03*
Y246130535D03*
X566633760Y247130535D03*
Y249130535D03*
Y251130535D03*
Y253130535D03*
X564513760Y252630535D03*
Y254630535D03*
Y256630535D03*
Y258630535D03*
Y260630535D03*
X562513760Y259630535D03*
Y257630535D03*
Y255630535D03*
Y253630535D03*
Y251630535D03*
Y249630535D03*
X564513760Y250630535D03*
Y248630535D03*
Y246630535D03*
X562513760Y247630535D03*
Y245630535D03*
Y243630535D03*
Y241630535D03*
Y239630535D03*
Y237630535D03*
Y235630535D03*
Y233630535D03*
Y231630535D03*
Y229630535D03*
X564513760Y230630535D03*
Y232630535D03*
Y234630535D03*
X566633760Y235130535D03*
Y237130535D03*
X564513760Y236630535D03*
Y238630535D03*
X566633760Y239130535D03*
Y241130535D03*
X564513760Y240630535D03*
Y242630535D03*
Y244630535D03*
X566633760Y245130535D03*
Y243130535D03*
X568633760Y244130535D03*
Y242130535D03*
Y240130535D03*
Y238130535D03*
Y236130535D03*
Y234130535D03*
Y232130535D03*
X566633760Y233130535D03*
Y231130535D03*
Y229130535D03*
X568633760Y230130535D03*
X578510535Y229130535D03*
X579510535Y230130535D03*
X578510535Y231130535D03*
X579510535Y232130535D03*
X578510535Y233130535D03*
X579510535Y234130535D03*
X578510535Y235130535D03*
X579510535Y236130535D03*
X578510535Y237130535D03*
X579510535Y238130535D03*
X578510535Y239130535D03*
X579510535Y240130535D03*
X578510535Y241130535D03*
X579510535Y242130535D03*
X578510535Y243130535D03*
X579510535Y244130535D03*
X578510535Y245130535D03*
X579510535Y246130535D03*
X578510535Y247130535D03*
X579510535Y248130535D03*
X578510535Y249130535D03*
X579510535Y250130535D03*
X578510535Y251130535D03*
X579510535Y252130535D03*
X578510535Y253130535D03*
X579510535Y254130535D03*
X578510535Y255130535D03*
X579510535Y256130535D03*
X578510535Y257130535D03*
X579510535Y258130535D03*
X578510535Y259130535D03*
X579510535Y260130535D03*
X580598560Y259630535D03*
Y258630535D03*
Y257630535D03*
Y256630535D03*
Y255630535D03*
Y254630535D03*
Y253630535D03*
Y252630535D03*
Y251630535D03*
Y250630535D03*
Y249630535D03*
Y248630535D03*
Y247630535D03*
Y246630535D03*
Y245630535D03*
Y244630535D03*
Y243630535D03*
Y242630535D03*
Y241630535D03*
Y240630535D03*
Y239630535D03*
Y238630535D03*
Y237630535D03*
Y236630535D03*
Y235630535D03*
Y234630535D03*
Y233630535D03*
Y232630535D03*
Y231630535D03*
Y230630535D03*
Y229630535D03*
Y228630535D03*
X582596555Y222860335D03*
X580056555D03*
X577096695D03*
X574556440D03*
X582596555Y112916585D03*
X580056555D03*
X577093900Y112924715D03*
X574553900D03*
X568633760Y106530535D03*
Y104530535D03*
Y102530535D03*
Y100530535D03*
X566633760Y101530535D03*
Y99530535D03*
X564513760Y99030535D03*
Y101030535D03*
Y103030535D03*
X566633760Y103530535D03*
Y105530535D03*
X564513760Y105030535D03*
Y107030535D03*
X562513760Y106030535D03*
Y104030535D03*
Y102030535D03*
Y100030535D03*
Y98030535D03*
Y96030535D03*
Y94030535D03*
Y92030535D03*
X564513760Y93030535D03*
Y95030535D03*
Y97030535D03*
X566633760Y97530535D03*
X568633760Y98530535D03*
Y96530535D03*
Y94530535D03*
X566633760Y95530535D03*
Y93530535D03*
Y91530535D03*
X568633760Y92530535D03*
X578510535Y91530535D03*
X579510535Y92530535D03*
X578510535Y93530535D03*
X579510535Y94530535D03*
X578510535Y95530535D03*
X579510535Y96530535D03*
X578510535Y97530535D03*
X579510535Y98530535D03*
X578510535Y99530535D03*
X579510535Y100530535D03*
X578510535Y101530535D03*
X579510535Y102530535D03*
X578510535Y103530535D03*
X579510535Y104530535D03*
X578510535Y105530535D03*
X579510535Y106530535D03*
X580598560Y106030535D03*
Y105030535D03*
Y104030535D03*
Y103030535D03*
Y102030535D03*
Y101030535D03*
Y100030535D03*
Y99030535D03*
Y98030535D03*
Y97030535D03*
Y96030535D03*
Y95030535D03*
Y94030535D03*
Y93030535D03*
Y92030535D03*
Y91030535D03*
X582596555Y69260335D03*
X580056555D03*
X577096695D03*
X574556440D03*
X277800495Y40159980D03*
X129475010Y522249025D03*
Y519709025D03*
X129466880Y516746370D03*
Y514206370D03*
X135875620Y509291170D03*
X137875620D03*
X139875620D03*
X141875620D03*
X140875620Y507291170D03*
X142875620D03*
X144875620D03*
X143875620Y509291170D03*
X145875620D03*
X147875620D03*
X146875620Y507291170D03*
X148875620D03*
X150875620D03*
X149875620Y509291170D03*
X151875620D03*
X153875620D03*
X155875620D03*
X157875620D03*
X159875620D03*
X161875620D03*
X163875620D03*
X162875620Y507291170D03*
X160875620D03*
X158875620D03*
X156875620D03*
X157375620Y505171170D03*
X155375620D03*
X154875620Y507291170D03*
X152875620D03*
X153375620Y505171170D03*
X151375620D03*
X149375620D03*
X147375620D03*
X145375620D03*
X143375620D03*
X141375620D03*
X139375620D03*
X138875620Y507291170D03*
X136875620D03*
X137375620Y505171170D03*
X135375620D03*
X136375620Y503171170D03*
X138375620D03*
X140375620D03*
X142375620D03*
X144375620D03*
X146375620D03*
X148375620D03*
X150375620D03*
X152375620D03*
X154375620D03*
X156375620D03*
X158375620D03*
X160375620D03*
X159375620Y505171170D03*
X161375620D03*
X163375620D03*
X162375620Y503171170D03*
X164375620D03*
X166375620D03*
X165375620Y505171170D03*
X164875620Y507291170D03*
X166875620D03*
X165875620Y509291170D03*
X166875540Y518165440D03*
X165875540Y519165440D03*
X164875540Y518165440D03*
X163875540Y519165440D03*
X162875540Y518165440D03*
X161875540Y519165440D03*
X160875540Y518165440D03*
X159875540Y519165440D03*
X158875540Y518165440D03*
X157875540Y519165440D03*
X156875540Y518165440D03*
X155875540Y519165440D03*
X154875540Y518165440D03*
X153875540Y519165440D03*
X152875540Y518165440D03*
X151875540Y519165440D03*
X150875540Y518165440D03*
X149875540Y519165440D03*
X148875540Y518165440D03*
X147875540Y519165440D03*
X146875540Y518165440D03*
X145875540Y519165440D03*
X144875540Y518165440D03*
X143875540Y519165440D03*
X142875540Y518165440D03*
X141875540Y519165440D03*
X140875540Y518165440D03*
X139875540Y519165440D03*
X138875540Y518165440D03*
X137875540Y519165440D03*
X136875540Y518165440D03*
X135875540Y519165440D03*
X136375540Y520253465D03*
X137375540D03*
X138375540D03*
X139375540D03*
X140375540D03*
X141375540D03*
X142375540D03*
X143375540D03*
X144375540D03*
X145375540D03*
X146375540D03*
X147375540D03*
X148375540D03*
X149375540D03*
X150375540D03*
X151375540D03*
X152375540D03*
X153375540D03*
X154375540D03*
X155375540D03*
X156375540D03*
X157375540D03*
X158375540D03*
X159375540D03*
X160375540D03*
X161375540D03*
X162375540D03*
X163375540D03*
X164375540D03*
X165375540D03*
X166375540D03*
X167375540D03*
X173131260Y522249025D03*
Y519709025D03*
Y516749165D03*
Y514208910D03*
X283075010Y522249025D03*
Y519709025D03*
X283066880Y516746370D03*
Y514206370D03*
X289475620Y509291170D03*
X291475620D03*
X290475620Y507291170D03*
X290975620Y505171170D03*
X288975620D03*
X289975620Y503171170D03*
X291975620D03*
X293975620D03*
X295975620D03*
X297975620D03*
X299975620D03*
X298975620Y505171170D03*
X300975620D03*
X302975620D03*
X301975620Y503171170D03*
X303975620D03*
X305975620D03*
X307975620D03*
X309975620D03*
X311975620D03*
X313975620D03*
X315975620D03*
X317975620D03*
X319975620D03*
X318975620Y505171170D03*
X316975620D03*
X314975620D03*
X312975620D03*
X310975620D03*
X308975620D03*
X308475620Y507291170D03*
X306475620D03*
X306975620Y505171170D03*
X304975620D03*
X304475620Y507291170D03*
X302475620D03*
X300475620D03*
X298475620D03*
X296475620D03*
X296975620Y505171170D03*
X294975620D03*
X292975620D03*
X292475620Y507291170D03*
X294475620D03*
X293475620Y509291170D03*
X295475620D03*
X297475620D03*
X299475620D03*
X301475620D03*
X303475620D03*
X305475620D03*
X307475620D03*
X309475620D03*
X311475620D03*
X310475620Y507291170D03*
X312475620D03*
X314475620D03*
X313475620Y509291170D03*
X315475620D03*
X317475620D03*
X316475620Y507291170D03*
X318475620D03*
X320475620D03*
X319475620Y509291170D03*
X320475540Y518165440D03*
X319475540Y519165440D03*
X318475540Y518165440D03*
X317475540Y519165440D03*
X316475540Y518165440D03*
X315475540Y519165440D03*
X314475540Y518165440D03*
X313475540Y519165440D03*
X312475540Y518165440D03*
X311475540Y519165440D03*
X310475540Y518165440D03*
X309475540Y519165440D03*
X308475540Y518165440D03*
X307475540Y519165440D03*
X306475540Y518165440D03*
X305475540Y519165440D03*
X304475540Y518165440D03*
X303475540Y519165440D03*
X302475540Y518165440D03*
X301475540Y519165440D03*
X300475540Y518165440D03*
X299475540Y519165440D03*
X298475540Y518165440D03*
X297475540Y519165440D03*
X296475540Y518165440D03*
X295475540Y519165440D03*
X294475540Y518165440D03*
X293475540Y519165440D03*
X292475540Y518165440D03*
X291475540Y519165440D03*
%LPD*%
M02*