G04 #@! TF.FileFunction,Plated,6,9,Buried*
G04 #@! TF.FilePolarity,Positive*
G04 #@! TF.SameCoordinates,tov5NBzOuLjLKJ3u1y1mtdWK4NcwDON*
G04 #@! TF.CreationDate,2023-05-25T08:52:34+0200*
G04 #@! TF.GenerationSoftware,Ucamco,UcamX,v2022.09-221024*
%FSLAX26Y26*%
%MOIN*%
%ADD10C,0.015748*%
%ADD11C,0.016142*%
%ADD12C,0.016535*%
%ADD13C,0.016929*%
%SRX1Y1I0.000000J0.000000*%
G04 layer name: DFS2946_PCB-pla2-5*
%LPD*%
G04 #@! TO.N,65*
D10*
X358268Y19685D03*
G04 #@! TO.N,66*
Y59055D03*
G04 #@! TO.N,67*
Y98425D03*
G04 #@! TO.N,68*
Y137795D03*
G04 #@! TO.N,69*
Y177165D03*
G04 #@! TO.N,70*
Y216535D03*
G04 #@! TO.N,71*
Y255906D03*
G04 #@! TO.N,72*
Y295276D03*
G04 #@! TO.N,73*
Y334646D03*
G04 #@! TO.N,74*
Y374016D03*
G04 #@! TO.N,75*
Y413386D03*
G04 #@! TO.N,76*
Y807087D03*
G04 #@! TO.N,77*
Y846457D03*
G04 #@! TO.N,78*
Y885827D03*
G04 #@! TO.N,79*
Y925197D03*
G04 #@! TO.N,80*
Y964567D03*
G04 #@! TO.N,81*
Y1003937D03*
G04 #@! TO.N,82*
Y1043307D03*
G04 #@! TO.N,83*
Y1082677D03*
G04 #@! TO.N,84*
Y1122047D03*
G04 #@! TO.N,85*
Y1161417D03*
G04 #@! TO.N,86*
Y1200787D03*
G04 #@! TO.N,87*
Y1240157D03*
G04 #@! TO.N,88*
X43307Y19685D03*
G04 #@! TO.N,89*
Y59055D03*
G04 #@! TO.N,90*
Y98425D03*
G04 #@! TO.N,91*
Y137795D03*
G04 #@! TO.N,92*
Y177165D03*
G04 #@! TO.N,93*
Y216535D03*
G04 #@! TO.N,94*
Y255906D03*
G04 #@! TO.N,95*
Y295276D03*
G04 #@! TO.N,96*
Y334646D03*
G04 #@! TO.N,97*
Y374016D03*
G04 #@! TO.N,98*
Y413386D03*
G04 #@! TO.N,99*
Y807087D03*
G04 #@! TO.N,100*
Y846457D03*
G04 #@! TO.N,101*
Y885827D03*
G04 #@! TO.N,102*
Y925197D03*
G04 #@! TO.N,103*
Y964567D03*
G04 #@! TO.N,104*
Y1003937D03*
G04 #@! TO.N,105*
Y1043307D03*
G04 #@! TO.N,106*
Y1082677D03*
G04 #@! TO.N,107*
Y1122047D03*
G04 #@! TO.N,108*
Y1161417D03*
G04 #@! TO.N,109*
Y1200787D03*
G04 #@! TO.N,110*
Y1240157D03*
G04 #@! TO.N,111*
X358268Y649606D03*
G04 #@! TO.N,112*
Y688976D03*
G04 #@! TO.N,113*
Y728346D03*
G04 #@! TO.N,114*
Y767717D03*
G04 #@! TO.N,115*
X43307Y649606D03*
G04 #@! TO.N,116*
Y688976D03*
G04 #@! TO.N,117*
Y728346D03*
G04 #@! TO.N,118*
Y767717D03*
G04 #@! TO.N,119*
X358268Y492126D03*
G04 #@! TO.N,120*
Y531496D03*
G04 #@! TO.N,121*
Y570866D03*
G04 #@! TO.N,122*
Y610236D03*
G04 #@! TO.N,123*
X43307Y492126D03*
G04 #@! TO.N,124*
Y531496D03*
G04 #@! TO.N,125*
Y570866D03*
G04 #@! TO.N,126*
Y610236D03*
G04 #@! TO.N,127*
X358268Y452756D03*
G04 #@! TO.N,128*
X43307D03*
G04 #@! TO.N,86*
X587193Y1594488D03*
G04 #@! TO.N,85*
X508453Y1555118D03*
G04 #@! TO.N,87*
Y1633858D03*
G04 #@! TO.N,84*
X587193Y1515748D03*
G04 #@! TO.N,82*
Y1437008D03*
G04 #@! TO.N,81*
X508453Y1397638D03*
G04 #@! TO.N,83*
Y1476378D03*
G04 #@! TO.N,80*
X587193Y1358268D03*
G04 #@! TO.N,78*
Y1279528D03*
G04 #@! TO.N,77*
X508453Y1240157D03*
G04 #@! TO.N,79*
Y1318898D03*
G04 #@! TO.N,76*
X587193Y1200787D03*
G04 #@! TO.N,113*
Y1122047D03*
G04 #@! TO.N,112*
X508453Y1082677D03*
G04 #@! TO.N,114*
Y1161417D03*
G04 #@! TO.N,111*
X587193Y1043307D03*
G04 #@! TO.N,121*
Y964567D03*
G04 #@! TO.N,120*
X508453Y925197D03*
G04 #@! TO.N,122*
Y1003937D03*
G04 #@! TO.N,119*
X587193Y885827D03*
G04 #@! TO.N,75*
Y807087D03*
G04 #@! TO.N,74*
X508453Y767717D03*
G04 #@! TO.N,127*
Y846457D03*
G04 #@! TO.N,73*
X587193Y728346D03*
G04 #@! TO.N,71*
Y649606D03*
G04 #@! TO.N,70*
X508453Y610236D03*
G04 #@! TO.N,72*
Y688976D03*
G04 #@! TO.N,69*
X587193Y570866D03*
G04 #@! TO.N,67*
Y492126D03*
G04 #@! TO.N,66*
X508453Y452756D03*
G04 #@! TO.N,68*
Y531496D03*
G04 #@! TO.N,65*
X587193Y413386D03*
G04 #@! TO.N,109*
X306878Y1574803D03*
G04 #@! TO.N,108*
X228138Y1535433D03*
G04 #@! TO.N,110*
Y1614173D03*
G04 #@! TO.N,107*
X306878Y1496063D03*
G04 #@! TO.N,105*
Y1417323D03*
G04 #@! TO.N,104*
X228138Y1377953D03*
G04 #@! TO.N,106*
Y1456693D03*
G04 #@! TO.N,103*
X306878Y1338583D03*
G04 #@! TO.N,101*
Y1259843D03*
G04 #@! TO.N,100*
X228138Y1220472D03*
G04 #@! TO.N,102*
Y1299213D03*
G04 #@! TO.N,99*
X306878Y1181102D03*
G04 #@! TO.N,117*
Y1102362D03*
G04 #@! TO.N,116*
X228138Y1062992D03*
G04 #@! TO.N,118*
Y1141732D03*
G04 #@! TO.N,115*
X306878Y1023622D03*
G04 #@! TO.N,125*
Y944882D03*
G04 #@! TO.N,124*
X228138Y905512D03*
G04 #@! TO.N,126*
Y984252D03*
G04 #@! TO.N,123*
X306878Y866142D03*
G04 #@! TO.N,98*
Y787402D03*
G04 #@! TO.N,97*
X228138Y748031D03*
G04 #@! TO.N,128*
Y826772D03*
G04 #@! TO.N,96*
X306878Y708661D03*
G04 #@! TO.N,94*
Y629921D03*
G04 #@! TO.N,93*
X228138Y590551D03*
G04 #@! TO.N,95*
Y669291D03*
G04 #@! TO.N,92*
X306878Y551181D03*
G04 #@! TO.N,90*
Y472441D03*
G04 #@! TO.N,89*
X228138Y433071D03*
G04 #@! TO.N,91*
Y511811D03*
G04 #@! TO.N,88*
X306878Y393701D03*
G04 #@! TO.N,33*
X1263779Y19685D03*
G04 #@! TO.N,34*
Y59055D03*
G04 #@! TO.N,35*
Y98425D03*
G04 #@! TO.N,36*
Y137795D03*
G04 #@! TO.N,37*
Y177165D03*
G04 #@! TO.N,38*
Y216535D03*
G04 #@! TO.N,39*
Y255906D03*
G04 #@! TO.N,40*
Y295276D03*
G04 #@! TO.N,41*
Y334646D03*
G04 #@! TO.N,42*
Y374016D03*
G04 #@! TO.N,43*
Y413386D03*
G04 #@! TO.N,53*
Y807087D03*
G04 #@! TO.N,54*
Y846457D03*
G04 #@! TO.N,55*
Y885827D03*
G04 #@! TO.N,56*
Y925197D03*
G04 #@! TO.N,57*
Y964567D03*
G04 #@! TO.N,58*
Y1003937D03*
G04 #@! TO.N,59*
Y1043307D03*
G04 #@! TO.N,60*
Y1082677D03*
G04 #@! TO.N,61*
Y1122047D03*
G04 #@! TO.N,62*
Y1161417D03*
G04 #@! TO.N,63*
Y1200787D03*
G04 #@! TO.N,64*
Y1240157D03*
G04 #@! TO.N,1*
X948819Y19685D03*
G04 #@! TO.N,2*
Y59055D03*
G04 #@! TO.N,3*
Y98425D03*
G04 #@! TO.N,4*
Y137795D03*
G04 #@! TO.N,5*
Y177165D03*
G04 #@! TO.N,6*
Y216535D03*
G04 #@! TO.N,7*
Y255906D03*
G04 #@! TO.N,8*
Y295276D03*
G04 #@! TO.N,9*
Y334646D03*
G04 #@! TO.N,10*
Y374016D03*
G04 #@! TO.N,11*
Y413386D03*
G04 #@! TO.N,21*
Y807087D03*
G04 #@! TO.N,22*
Y846457D03*
G04 #@! TO.N,23*
Y885827D03*
G04 #@! TO.N,24*
Y925197D03*
G04 #@! TO.N,25*
Y964567D03*
G04 #@! TO.N,26*
Y1003937D03*
G04 #@! TO.N,27*
Y1043307D03*
G04 #@! TO.N,28*
Y1082677D03*
G04 #@! TO.N,29*
Y1122047D03*
G04 #@! TO.N,30*
Y1161417D03*
G04 #@! TO.N,31*
Y1200787D03*
G04 #@! TO.N,32*
Y1240157D03*
G04 #@! TO.N,49*
X1263779Y649606D03*
G04 #@! TO.N,50*
Y688976D03*
G04 #@! TO.N,51*
Y728346D03*
G04 #@! TO.N,52*
Y767717D03*
G04 #@! TO.N,17*
X948819Y649606D03*
G04 #@! TO.N,18*
Y688976D03*
G04 #@! TO.N,19*
Y728346D03*
G04 #@! TO.N,20*
Y767717D03*
G04 #@! TO.N,45*
X1263779Y492126D03*
G04 #@! TO.N,46*
Y531496D03*
G04 #@! TO.N,47*
Y570866D03*
G04 #@! TO.N,48*
Y610236D03*
G04 #@! TO.N,13*
X948819Y492126D03*
G04 #@! TO.N,14*
Y531496D03*
G04 #@! TO.N,15*
Y570866D03*
G04 #@! TO.N,16*
Y610236D03*
G04 #@! TO.N,44*
X1263779Y452756D03*
G04 #@! TO.N,12*
X948819D03*
G04 #@! TO.N,63*
X1492705Y1594488D03*
G04 #@! TO.N,62*
X1413965Y1555118D03*
G04 #@! TO.N,64*
Y1633858D03*
G04 #@! TO.N,61*
X1492705Y1515748D03*
G04 #@! TO.N,59*
Y1437008D03*
G04 #@! TO.N,58*
X1413965Y1397638D03*
G04 #@! TO.N,60*
Y1476378D03*
G04 #@! TO.N,57*
X1492705Y1358268D03*
G04 #@! TO.N,55*
Y1279528D03*
G04 #@! TO.N,54*
X1413965Y1240157D03*
G04 #@! TO.N,56*
Y1318898D03*
G04 #@! TO.N,53*
X1492705Y1200787D03*
G04 #@! TO.N,51*
Y1122047D03*
G04 #@! TO.N,50*
X1413965Y1082677D03*
G04 #@! TO.N,52*
Y1161417D03*
G04 #@! TO.N,49*
X1492705Y1043307D03*
G04 #@! TO.N,47*
Y964567D03*
G04 #@! TO.N,46*
X1413965Y925197D03*
G04 #@! TO.N,48*
Y1003937D03*
G04 #@! TO.N,45*
X1492705Y885827D03*
G04 #@! TO.N,43*
Y807087D03*
G04 #@! TO.N,42*
X1413965Y767717D03*
G04 #@! TO.N,44*
Y846457D03*
G04 #@! TO.N,41*
X1492705Y728346D03*
G04 #@! TO.N,39*
Y649606D03*
G04 #@! TO.N,38*
X1413965Y610236D03*
G04 #@! TO.N,40*
Y688976D03*
G04 #@! TO.N,37*
X1492705Y570866D03*
G04 #@! TO.N,35*
Y492126D03*
G04 #@! TO.N,34*
X1413965Y452756D03*
G04 #@! TO.N,36*
Y531496D03*
G04 #@! TO.N,33*
X1492705Y413386D03*
G04 #@! TO.N,31*
X1212390Y1574803D03*
G04 #@! TO.N,30*
X1133650Y1535433D03*
G04 #@! TO.N,32*
Y1614173D03*
G04 #@! TO.N,29*
X1212390Y1496063D03*
G04 #@! TO.N,27*
Y1417323D03*
G04 #@! TO.N,26*
X1133650Y1377953D03*
G04 #@! TO.N,28*
Y1456693D03*
G04 #@! TO.N,25*
X1212390Y1338583D03*
G04 #@! TO.N,23*
Y1259843D03*
G04 #@! TO.N,22*
X1133650Y1220472D03*
G04 #@! TO.N,24*
Y1299213D03*
G04 #@! TO.N,21*
X1212390Y1181102D03*
G04 #@! TO.N,19*
Y1102362D03*
G04 #@! TO.N,18*
X1133650Y1062992D03*
G04 #@! TO.N,20*
Y1141732D03*
G04 #@! TO.N,17*
X1212390Y1023622D03*
G04 #@! TO.N,15*
Y944882D03*
G04 #@! TO.N,14*
X1133650Y905512D03*
G04 #@! TO.N,16*
Y984252D03*
G04 #@! TO.N,13*
X1212390Y866142D03*
G04 #@! TO.N,11*
Y787402D03*
G04 #@! TO.N,10*
X1133650Y748031D03*
G04 #@! TO.N,12*
Y826772D03*
G04 #@! TO.N,9*
X1212390Y708661D03*
G04 #@! TO.N,7*
Y629921D03*
G04 #@! TO.N,6*
X1133650Y590551D03*
G04 #@! TO.N,8*
Y669291D03*
G04 #@! TO.N,5*
X1212390Y551181D03*
G04 #@! TO.N,3*
Y472441D03*
G04 #@! TO.N,2*
X1133650Y433071D03*
G04 #@! TO.N,4*
Y511811D03*
G04 #@! TO.N,1*
X1212390Y393701D03*
G04 #@! TO.N,193*
X358268Y-19685D03*
G04 #@! TO.N,194*
Y-59055D03*
G04 #@! TO.N,195*
Y-98425D03*
G04 #@! TO.N,196*
Y-137795D03*
G04 #@! TO.N,197*
Y-177165D03*
G04 #@! TO.N,198*
Y-216535D03*
G04 #@! TO.N,199*
Y-255906D03*
G04 #@! TO.N,200*
Y-295276D03*
G04 #@! TO.N,201*
Y-334646D03*
G04 #@! TO.N,202*
Y-374016D03*
G04 #@! TO.N,203*
Y-413386D03*
G04 #@! TO.N,204*
Y-807087D03*
G04 #@! TO.N,205*
Y-846457D03*
G04 #@! TO.N,206*
Y-885827D03*
G04 #@! TO.N,207*
Y-925197D03*
G04 #@! TO.N,208*
Y-964567D03*
G04 #@! TO.N,209*
Y-1003937D03*
G04 #@! TO.N,210*
Y-1043307D03*
G04 #@! TO.N,211*
Y-1082677D03*
G04 #@! TO.N,212*
Y-1122047D03*
G04 #@! TO.N,213*
Y-1161417D03*
G04 #@! TO.N,214*
Y-1200787D03*
G04 #@! TO.N,215*
Y-1240157D03*
G04 #@! TO.N,216*
X43307Y-19685D03*
G04 #@! TO.N,217*
Y-59055D03*
G04 #@! TO.N,218*
Y-98425D03*
G04 #@! TO.N,219*
Y-137795D03*
G04 #@! TO.N,220*
Y-177165D03*
G04 #@! TO.N,221*
Y-216535D03*
G04 #@! TO.N,222*
Y-255906D03*
G04 #@! TO.N,223*
Y-295276D03*
G04 #@! TO.N,224*
Y-334646D03*
G04 #@! TO.N,225*
Y-374016D03*
G04 #@! TO.N,226*
Y-413386D03*
G04 #@! TO.N,227*
Y-807087D03*
G04 #@! TO.N,228*
Y-846457D03*
G04 #@! TO.N,229*
Y-885827D03*
G04 #@! TO.N,230*
Y-925197D03*
G04 #@! TO.N,231*
Y-964567D03*
G04 #@! TO.N,232*
Y-1003937D03*
G04 #@! TO.N,233*
Y-1043307D03*
G04 #@! TO.N,234*
Y-1082677D03*
G04 #@! TO.N,235*
Y-1122047D03*
G04 #@! TO.N,236*
Y-1161417D03*
G04 #@! TO.N,237*
Y-1200787D03*
G04 #@! TO.N,238*
Y-1240157D03*
G04 #@! TO.N,239*
X358268Y-649606D03*
G04 #@! TO.N,240*
Y-688976D03*
G04 #@! TO.N,241*
Y-728346D03*
G04 #@! TO.N,242*
Y-767717D03*
G04 #@! TO.N,243*
X43307Y-649606D03*
G04 #@! TO.N,244*
Y-688976D03*
G04 #@! TO.N,245*
Y-728346D03*
G04 #@! TO.N,246*
Y-767717D03*
G04 #@! TO.N,247*
X358268Y-492126D03*
G04 #@! TO.N,248*
Y-531496D03*
G04 #@! TO.N,249*
Y-570866D03*
G04 #@! TO.N,250*
Y-610236D03*
G04 #@! TO.N,251*
X43307Y-492126D03*
G04 #@! TO.N,252*
Y-531496D03*
G04 #@! TO.N,253*
Y-570866D03*
G04 #@! TO.N,254*
Y-610236D03*
G04 #@! TO.N,255*
X358268Y-452756D03*
G04 #@! TO.N,256*
X43307D03*
G04 #@! TO.N,214*
X587193Y-1594488D03*
G04 #@! TO.N,213*
X508453Y-1555118D03*
G04 #@! TO.N,215*
Y-1633858D03*
G04 #@! TO.N,212*
X587193Y-1515748D03*
G04 #@! TO.N,210*
Y-1437008D03*
G04 #@! TO.N,209*
X508453Y-1397638D03*
G04 #@! TO.N,211*
Y-1476378D03*
G04 #@! TO.N,208*
X587193Y-1358268D03*
G04 #@! TO.N,206*
Y-1279528D03*
G04 #@! TO.N,205*
X508453Y-1240157D03*
G04 #@! TO.N,207*
Y-1318898D03*
G04 #@! TO.N,204*
X587193Y-1200787D03*
G04 #@! TO.N,241*
Y-1122047D03*
G04 #@! TO.N,240*
X508453Y-1082677D03*
G04 #@! TO.N,242*
Y-1161417D03*
G04 #@! TO.N,239*
X587193Y-1043307D03*
G04 #@! TO.N,249*
Y-964567D03*
G04 #@! TO.N,248*
X508453Y-925197D03*
G04 #@! TO.N,250*
Y-1003937D03*
G04 #@! TO.N,247*
X587193Y-885827D03*
G04 #@! TO.N,203*
Y-807087D03*
G04 #@! TO.N,202*
X508453Y-767717D03*
G04 #@! TO.N,255*
Y-846457D03*
G04 #@! TO.N,201*
X587193Y-728346D03*
G04 #@! TO.N,199*
Y-649606D03*
G04 #@! TO.N,198*
X508453Y-610236D03*
G04 #@! TO.N,200*
Y-688976D03*
G04 #@! TO.N,197*
X587193Y-570866D03*
G04 #@! TO.N,195*
Y-492126D03*
G04 #@! TO.N,194*
X508453Y-452756D03*
G04 #@! TO.N,196*
Y-531496D03*
G04 #@! TO.N,193*
X587193Y-413386D03*
G04 #@! TO.N,237*
X306878Y-1574803D03*
G04 #@! TO.N,236*
X228138Y-1535433D03*
G04 #@! TO.N,238*
Y-1614173D03*
G04 #@! TO.N,235*
X306878Y-1496063D03*
G04 #@! TO.N,233*
Y-1417323D03*
G04 #@! TO.N,232*
X228138Y-1377953D03*
G04 #@! TO.N,234*
Y-1456693D03*
G04 #@! TO.N,231*
X306878Y-1338583D03*
G04 #@! TO.N,229*
Y-1259843D03*
G04 #@! TO.N,228*
X228138Y-1220472D03*
G04 #@! TO.N,230*
Y-1299213D03*
G04 #@! TO.N,227*
X306878Y-1181102D03*
G04 #@! TO.N,245*
Y-1102362D03*
G04 #@! TO.N,244*
X228138Y-1062992D03*
G04 #@! TO.N,246*
Y-1141732D03*
G04 #@! TO.N,243*
X306878Y-1023622D03*
G04 #@! TO.N,253*
Y-944882D03*
G04 #@! TO.N,252*
X228138Y-905512D03*
G04 #@! TO.N,254*
Y-984252D03*
G04 #@! TO.N,251*
X306878Y-866142D03*
G04 #@! TO.N,226*
Y-787402D03*
G04 #@! TO.N,225*
X228138Y-748031D03*
G04 #@! TO.N,256*
Y-826772D03*
G04 #@! TO.N,224*
X306878Y-708661D03*
G04 #@! TO.N,222*
Y-629921D03*
G04 #@! TO.N,221*
X228138Y-590551D03*
G04 #@! TO.N,223*
Y-669291D03*
G04 #@! TO.N,220*
X306878Y-551181D03*
G04 #@! TO.N,218*
Y-472441D03*
G04 #@! TO.N,217*
X228138Y-433071D03*
G04 #@! TO.N,219*
Y-511811D03*
G04 #@! TO.N,216*
X306878Y-393701D03*
G04 #@! TO.N,161*
X1263779Y-19685D03*
G04 #@! TO.N,162*
Y-59055D03*
G04 #@! TO.N,163*
Y-98425D03*
G04 #@! TO.N,164*
Y-137795D03*
G04 #@! TO.N,165*
Y-177165D03*
G04 #@! TO.N,166*
Y-216535D03*
G04 #@! TO.N,167*
Y-255906D03*
G04 #@! TO.N,168*
Y-295276D03*
G04 #@! TO.N,169*
Y-334646D03*
G04 #@! TO.N,170*
Y-374016D03*
G04 #@! TO.N,171*
Y-413386D03*
G04 #@! TO.N,181*
Y-807087D03*
G04 #@! TO.N,182*
Y-846457D03*
G04 #@! TO.N,183*
Y-885827D03*
G04 #@! TO.N,184*
Y-925197D03*
G04 #@! TO.N,185*
Y-964567D03*
G04 #@! TO.N,186*
Y-1003937D03*
G04 #@! TO.N,187*
Y-1043307D03*
G04 #@! TO.N,188*
Y-1082677D03*
G04 #@! TO.N,189*
Y-1122047D03*
G04 #@! TO.N,190*
Y-1161417D03*
G04 #@! TO.N,191*
Y-1200787D03*
G04 #@! TO.N,192*
Y-1240157D03*
G04 #@! TO.N,129*
X948819Y-19685D03*
G04 #@! TO.N,130*
Y-59055D03*
G04 #@! TO.N,131*
Y-98425D03*
G04 #@! TO.N,132*
Y-137795D03*
G04 #@! TO.N,133*
Y-177165D03*
G04 #@! TO.N,134*
Y-216535D03*
G04 #@! TO.N,135*
Y-255906D03*
G04 #@! TO.N,136*
Y-295276D03*
G04 #@! TO.N,137*
Y-334646D03*
G04 #@! TO.N,138*
Y-374016D03*
G04 #@! TO.N,139*
Y-413386D03*
G04 #@! TO.N,149*
Y-807087D03*
G04 #@! TO.N,150*
Y-846457D03*
G04 #@! TO.N,151*
Y-885827D03*
G04 #@! TO.N,152*
Y-925197D03*
G04 #@! TO.N,153*
Y-964567D03*
G04 #@! TO.N,154*
Y-1003937D03*
G04 #@! TO.N,155*
Y-1043307D03*
G04 #@! TO.N,156*
Y-1082677D03*
G04 #@! TO.N,157*
Y-1122047D03*
G04 #@! TO.N,158*
Y-1161417D03*
G04 #@! TO.N,159*
Y-1200787D03*
G04 #@! TO.N,160*
Y-1240157D03*
G04 #@! TO.N,177*
X1263779Y-649606D03*
G04 #@! TO.N,178*
Y-688976D03*
G04 #@! TO.N,179*
Y-728346D03*
G04 #@! TO.N,180*
Y-767717D03*
G04 #@! TO.N,145*
X948819Y-649606D03*
G04 #@! TO.N,146*
Y-688976D03*
G04 #@! TO.N,147*
Y-728346D03*
G04 #@! TO.N,148*
Y-767717D03*
G04 #@! TO.N,173*
X1263779Y-492126D03*
G04 #@! TO.N,174*
Y-531496D03*
G04 #@! TO.N,175*
Y-570866D03*
G04 #@! TO.N,176*
Y-610236D03*
G04 #@! TO.N,141*
X948819Y-492126D03*
G04 #@! TO.N,142*
Y-531496D03*
G04 #@! TO.N,143*
Y-570866D03*
G04 #@! TO.N,144*
Y-610236D03*
G04 #@! TO.N,172*
X1263779Y-452756D03*
G04 #@! TO.N,140*
X948819D03*
G04 #@! TO.N,191*
X1492705Y-1594488D03*
G04 #@! TO.N,190*
X1413965Y-1555118D03*
G04 #@! TO.N,192*
Y-1633858D03*
G04 #@! TO.N,189*
X1492705Y-1515748D03*
G04 #@! TO.N,187*
Y-1437008D03*
G04 #@! TO.N,186*
X1413965Y-1397638D03*
G04 #@! TO.N,188*
Y-1476378D03*
G04 #@! TO.N,185*
X1492705Y-1358268D03*
G04 #@! TO.N,183*
Y-1279528D03*
G04 #@! TO.N,182*
X1413965Y-1240157D03*
G04 #@! TO.N,184*
Y-1318898D03*
G04 #@! TO.N,181*
X1492705Y-1200787D03*
G04 #@! TO.N,179*
Y-1122047D03*
G04 #@! TO.N,178*
X1413965Y-1082677D03*
G04 #@! TO.N,180*
Y-1161417D03*
G04 #@! TO.N,177*
X1492705Y-1043307D03*
G04 #@! TO.N,175*
Y-964567D03*
G04 #@! TO.N,174*
X1413965Y-925197D03*
G04 #@! TO.N,176*
Y-1003937D03*
G04 #@! TO.N,173*
X1492705Y-885827D03*
G04 #@! TO.N,171*
Y-807087D03*
G04 #@! TO.N,170*
X1413965Y-767717D03*
G04 #@! TO.N,172*
Y-846457D03*
G04 #@! TO.N,169*
X1492705Y-728346D03*
G04 #@! TO.N,167*
Y-649606D03*
G04 #@! TO.N,166*
X1413965Y-610236D03*
G04 #@! TO.N,168*
Y-688976D03*
G04 #@! TO.N,165*
X1492705Y-570866D03*
G04 #@! TO.N,163*
Y-492126D03*
G04 #@! TO.N,162*
X1413965Y-452756D03*
G04 #@! TO.N,164*
Y-531496D03*
G04 #@! TO.N,161*
X1492705Y-413386D03*
G04 #@! TO.N,159*
X1212390Y-1574803D03*
G04 #@! TO.N,158*
X1133650Y-1535433D03*
G04 #@! TO.N,160*
Y-1614173D03*
G04 #@! TO.N,157*
X1212390Y-1496063D03*
G04 #@! TO.N,155*
Y-1417323D03*
G04 #@! TO.N,154*
X1133650Y-1377953D03*
G04 #@! TO.N,156*
Y-1456693D03*
G04 #@! TO.N,153*
X1212390Y-1338583D03*
G04 #@! TO.N,151*
Y-1259843D03*
G04 #@! TO.N,150*
X1133650Y-1220472D03*
G04 #@! TO.N,152*
Y-1299213D03*
G04 #@! TO.N,149*
X1212390Y-1181102D03*
G04 #@! TO.N,147*
Y-1102362D03*
G04 #@! TO.N,146*
X1133650Y-1062992D03*
G04 #@! TO.N,148*
Y-1141732D03*
G04 #@! TO.N,145*
X1212390Y-1023622D03*
G04 #@! TO.N,143*
Y-944882D03*
G04 #@! TO.N,142*
X1133650Y-905512D03*
G04 #@! TO.N,144*
Y-984252D03*
G04 #@! TO.N,141*
X1212390Y-866142D03*
G04 #@! TO.N,139*
Y-787402D03*
G04 #@! TO.N,138*
X1133650Y-748031D03*
G04 #@! TO.N,140*
Y-826772D03*
G04 #@! TO.N,137*
X1212390Y-708661D03*
G04 #@! TO.N,135*
Y-629921D03*
G04 #@! TO.N,134*
X1133650Y-590551D03*
G04 #@! TO.N,136*
Y-669291D03*
G04 #@! TO.N,133*
X1212390Y-551181D03*
G04 #@! TO.N,131*
Y-472441D03*
G04 #@! TO.N,130*
X1133650Y-433071D03*
G04 #@! TO.N,132*
Y-511811D03*
G04 #@! TO.N,129*
X1212390Y-393701D03*
G04 #@! TO.N,321*
X-358268Y-19685D03*
G04 #@! TO.N,322*
Y-59055D03*
G04 #@! TO.N,323*
Y-98425D03*
G04 #@! TO.N,324*
Y-137795D03*
G04 #@! TO.N,325*
Y-177165D03*
G04 #@! TO.N,326*
Y-216535D03*
G04 #@! TO.N,327*
Y-255906D03*
G04 #@! TO.N,328*
Y-295276D03*
G04 #@! TO.N,329*
Y-334646D03*
G04 #@! TO.N,330*
Y-374016D03*
G04 #@! TO.N,331*
Y-413386D03*
G04 #@! TO.N,332*
Y-807087D03*
G04 #@! TO.N,333*
Y-846457D03*
G04 #@! TO.N,334*
Y-885827D03*
G04 #@! TO.N,335*
Y-925197D03*
G04 #@! TO.N,336*
Y-964567D03*
G04 #@! TO.N,337*
Y-1003937D03*
G04 #@! TO.N,338*
Y-1043307D03*
G04 #@! TO.N,339*
Y-1082677D03*
G04 #@! TO.N,340*
Y-1122047D03*
G04 #@! TO.N,341*
Y-1161417D03*
G04 #@! TO.N,342*
Y-1200787D03*
G04 #@! TO.N,343*
Y-1240157D03*
G04 #@! TO.N,344*
X-43307Y-19685D03*
G04 #@! TO.N,345*
Y-59055D03*
G04 #@! TO.N,346*
Y-98425D03*
G04 #@! TO.N,347*
Y-137795D03*
G04 #@! TO.N,348*
Y-177165D03*
G04 #@! TO.N,349*
Y-216535D03*
G04 #@! TO.N,350*
Y-255906D03*
G04 #@! TO.N,351*
Y-295276D03*
G04 #@! TO.N,352*
Y-334646D03*
G04 #@! TO.N,353*
Y-374016D03*
G04 #@! TO.N,354*
Y-413386D03*
G04 #@! TO.N,355*
Y-807087D03*
G04 #@! TO.N,356*
Y-846457D03*
G04 #@! TO.N,357*
Y-885827D03*
G04 #@! TO.N,358*
Y-925197D03*
G04 #@! TO.N,359*
Y-964567D03*
G04 #@! TO.N,360*
Y-1003937D03*
G04 #@! TO.N,361*
Y-1043307D03*
G04 #@! TO.N,362*
Y-1082677D03*
G04 #@! TO.N,363*
Y-1122047D03*
G04 #@! TO.N,364*
Y-1161417D03*
G04 #@! TO.N,365*
Y-1200787D03*
G04 #@! TO.N,366*
Y-1240157D03*
G04 #@! TO.N,367*
X-358268Y-649606D03*
G04 #@! TO.N,368*
Y-688976D03*
G04 #@! TO.N,369*
Y-728346D03*
G04 #@! TO.N,370*
Y-767717D03*
G04 #@! TO.N,371*
X-43307Y-649606D03*
G04 #@! TO.N,372*
Y-688976D03*
G04 #@! TO.N,373*
Y-728346D03*
G04 #@! TO.N,374*
Y-767717D03*
G04 #@! TO.N,375*
X-358268Y-492126D03*
G04 #@! TO.N,376*
Y-531496D03*
G04 #@! TO.N,377*
Y-570866D03*
G04 #@! TO.N,378*
Y-610236D03*
G04 #@! TO.N,379*
X-43307Y-492126D03*
G04 #@! TO.N,380*
Y-531496D03*
G04 #@! TO.N,381*
Y-570866D03*
G04 #@! TO.N,382*
Y-610236D03*
G04 #@! TO.N,383*
X-358268Y-452756D03*
G04 #@! TO.N,384*
X-43307D03*
G04 #@! TO.N,342*
X-587193Y-1594488D03*
G04 #@! TO.N,341*
X-508453Y-1555118D03*
G04 #@! TO.N,343*
Y-1633858D03*
G04 #@! TO.N,340*
X-587193Y-1515748D03*
G04 #@! TO.N,338*
Y-1437008D03*
G04 #@! TO.N,337*
X-508453Y-1397638D03*
G04 #@! TO.N,339*
Y-1476378D03*
G04 #@! TO.N,336*
X-587193Y-1358268D03*
G04 #@! TO.N,334*
Y-1279528D03*
G04 #@! TO.N,333*
X-508453Y-1240157D03*
G04 #@! TO.N,335*
Y-1318898D03*
G04 #@! TO.N,332*
X-587193Y-1200787D03*
G04 #@! TO.N,369*
Y-1122047D03*
G04 #@! TO.N,368*
X-508453Y-1082677D03*
G04 #@! TO.N,370*
Y-1161417D03*
G04 #@! TO.N,367*
X-587193Y-1043307D03*
G04 #@! TO.N,377*
Y-964567D03*
G04 #@! TO.N,376*
X-508453Y-925197D03*
G04 #@! TO.N,378*
Y-1003937D03*
G04 #@! TO.N,375*
X-587193Y-885827D03*
G04 #@! TO.N,331*
Y-807087D03*
G04 #@! TO.N,330*
X-508453Y-767717D03*
G04 #@! TO.N,383*
Y-846457D03*
G04 #@! TO.N,329*
X-587193Y-728346D03*
G04 #@! TO.N,327*
Y-649606D03*
G04 #@! TO.N,326*
X-508453Y-610236D03*
G04 #@! TO.N,328*
Y-688976D03*
G04 #@! TO.N,325*
X-587193Y-570866D03*
G04 #@! TO.N,323*
Y-492126D03*
G04 #@! TO.N,322*
X-508453Y-452756D03*
G04 #@! TO.N,324*
Y-531496D03*
G04 #@! TO.N,321*
X-587193Y-413386D03*
G04 #@! TO.N,365*
X-306878Y-1574803D03*
G04 #@! TO.N,364*
X-228138Y-1535433D03*
G04 #@! TO.N,366*
Y-1614173D03*
G04 #@! TO.N,363*
X-306878Y-1496063D03*
G04 #@! TO.N,361*
Y-1417323D03*
G04 #@! TO.N,360*
X-228138Y-1377953D03*
G04 #@! TO.N,362*
Y-1456693D03*
G04 #@! TO.N,359*
X-306878Y-1338583D03*
G04 #@! TO.N,357*
Y-1259843D03*
G04 #@! TO.N,356*
X-228138Y-1220472D03*
G04 #@! TO.N,358*
Y-1299213D03*
G04 #@! TO.N,355*
X-306878Y-1181102D03*
G04 #@! TO.N,373*
Y-1102362D03*
G04 #@! TO.N,372*
X-228138Y-1062992D03*
G04 #@! TO.N,374*
Y-1141732D03*
G04 #@! TO.N,371*
X-306878Y-1023622D03*
G04 #@! TO.N,381*
Y-944882D03*
G04 #@! TO.N,380*
X-228138Y-905512D03*
G04 #@! TO.N,382*
Y-984252D03*
G04 #@! TO.N,379*
X-306878Y-866142D03*
G04 #@! TO.N,354*
Y-787402D03*
G04 #@! TO.N,353*
X-228138Y-748031D03*
G04 #@! TO.N,384*
Y-826772D03*
G04 #@! TO.N,352*
X-306878Y-708661D03*
G04 #@! TO.N,350*
Y-629921D03*
G04 #@! TO.N,349*
X-228138Y-590551D03*
G04 #@! TO.N,351*
Y-669291D03*
G04 #@! TO.N,348*
X-306878Y-551181D03*
G04 #@! TO.N,346*
Y-472441D03*
G04 #@! TO.N,345*
X-228138Y-433071D03*
G04 #@! TO.N,347*
Y-511811D03*
G04 #@! TO.N,344*
X-306878Y-393701D03*
G04 #@! TO.N,289*
X-1263779Y-19685D03*
G04 #@! TO.N,290*
Y-59055D03*
G04 #@! TO.N,291*
Y-98425D03*
G04 #@! TO.N,292*
Y-137795D03*
G04 #@! TO.N,293*
Y-177165D03*
G04 #@! TO.N,294*
Y-216535D03*
G04 #@! TO.N,295*
Y-255906D03*
G04 #@! TO.N,296*
Y-295276D03*
G04 #@! TO.N,297*
Y-334646D03*
G04 #@! TO.N,298*
Y-374016D03*
G04 #@! TO.N,299*
Y-413386D03*
G04 #@! TO.N,309*
Y-807087D03*
G04 #@! TO.N,310*
Y-846457D03*
G04 #@! TO.N,311*
Y-885827D03*
G04 #@! TO.N,312*
Y-925197D03*
G04 #@! TO.N,313*
Y-964567D03*
G04 #@! TO.N,314*
Y-1003937D03*
G04 #@! TO.N,315*
Y-1043307D03*
G04 #@! TO.N,316*
Y-1082677D03*
G04 #@! TO.N,317*
Y-1122047D03*
G04 #@! TO.N,318*
Y-1161417D03*
G04 #@! TO.N,319*
Y-1200787D03*
G04 #@! TO.N,320*
Y-1240157D03*
G04 #@! TO.N,257*
X-948819Y-19685D03*
G04 #@! TO.N,258*
Y-59055D03*
G04 #@! TO.N,259*
Y-98425D03*
G04 #@! TO.N,260*
Y-137795D03*
G04 #@! TO.N,261*
Y-177165D03*
G04 #@! TO.N,262*
Y-216535D03*
G04 #@! TO.N,263*
Y-255906D03*
G04 #@! TO.N,264*
Y-295276D03*
G04 #@! TO.N,265*
Y-334646D03*
G04 #@! TO.N,266*
Y-374016D03*
G04 #@! TO.N,267*
Y-413386D03*
G04 #@! TO.N,277*
Y-807087D03*
G04 #@! TO.N,278*
Y-846457D03*
G04 #@! TO.N,279*
Y-885827D03*
G04 #@! TO.N,280*
Y-925197D03*
G04 #@! TO.N,281*
Y-964567D03*
G04 #@! TO.N,282*
Y-1003937D03*
G04 #@! TO.N,283*
Y-1043307D03*
G04 #@! TO.N,284*
Y-1082677D03*
G04 #@! TO.N,285*
Y-1122047D03*
G04 #@! TO.N,286*
Y-1161417D03*
G04 #@! TO.N,287*
Y-1200787D03*
G04 #@! TO.N,288*
Y-1240157D03*
G04 #@! TO.N,305*
X-1263779Y-649606D03*
G04 #@! TO.N,306*
Y-688976D03*
G04 #@! TO.N,307*
Y-728346D03*
G04 #@! TO.N,308*
Y-767717D03*
G04 #@! TO.N,273*
X-948819Y-649606D03*
G04 #@! TO.N,274*
Y-688976D03*
G04 #@! TO.N,275*
Y-728346D03*
G04 #@! TO.N,276*
Y-767717D03*
G04 #@! TO.N,301*
X-1263779Y-492126D03*
G04 #@! TO.N,302*
Y-531496D03*
G04 #@! TO.N,303*
Y-570866D03*
G04 #@! TO.N,304*
Y-610236D03*
G04 #@! TO.N,269*
X-948819Y-492126D03*
G04 #@! TO.N,270*
Y-531496D03*
G04 #@! TO.N,271*
Y-570866D03*
G04 #@! TO.N,272*
Y-610236D03*
G04 #@! TO.N,300*
X-1263779Y-452756D03*
G04 #@! TO.N,268*
X-948819D03*
G04 #@! TO.N,319*
X-1492705Y-1594488D03*
G04 #@! TO.N,318*
X-1413965Y-1555118D03*
G04 #@! TO.N,320*
Y-1633858D03*
G04 #@! TO.N,317*
X-1492705Y-1515748D03*
G04 #@! TO.N,315*
Y-1437008D03*
G04 #@! TO.N,314*
X-1413965Y-1397638D03*
G04 #@! TO.N,316*
Y-1476378D03*
G04 #@! TO.N,313*
X-1492705Y-1358268D03*
G04 #@! TO.N,311*
Y-1279528D03*
G04 #@! TO.N,310*
X-1413965Y-1240157D03*
G04 #@! TO.N,312*
Y-1318898D03*
G04 #@! TO.N,309*
X-1492705Y-1200787D03*
G04 #@! TO.N,307*
Y-1122047D03*
G04 #@! TO.N,306*
X-1413965Y-1082677D03*
G04 #@! TO.N,308*
Y-1161417D03*
G04 #@! TO.N,305*
X-1492705Y-1043307D03*
G04 #@! TO.N,303*
Y-964567D03*
G04 #@! TO.N,302*
X-1413965Y-925197D03*
G04 #@! TO.N,304*
Y-1003937D03*
G04 #@! TO.N,301*
X-1492705Y-885827D03*
G04 #@! TO.N,299*
Y-807087D03*
G04 #@! TO.N,298*
X-1413965Y-767717D03*
G04 #@! TO.N,300*
Y-846457D03*
G04 #@! TO.N,297*
X-1492705Y-728346D03*
G04 #@! TO.N,295*
Y-649606D03*
G04 #@! TO.N,294*
X-1413965Y-610236D03*
G04 #@! TO.N,296*
Y-688976D03*
G04 #@! TO.N,293*
X-1492705Y-570866D03*
G04 #@! TO.N,291*
Y-492126D03*
G04 #@! TO.N,290*
X-1413965Y-452756D03*
G04 #@! TO.N,292*
Y-531496D03*
G04 #@! TO.N,289*
X-1492705Y-413386D03*
G04 #@! TO.N,287*
X-1212390Y-1574803D03*
G04 #@! TO.N,286*
X-1133650Y-1535433D03*
G04 #@! TO.N,288*
Y-1614173D03*
G04 #@! TO.N,285*
X-1212390Y-1496063D03*
G04 #@! TO.N,283*
Y-1417323D03*
G04 #@! TO.N,282*
X-1133650Y-1377953D03*
G04 #@! TO.N,284*
Y-1456693D03*
G04 #@! TO.N,281*
X-1212390Y-1338583D03*
G04 #@! TO.N,279*
Y-1259843D03*
G04 #@! TO.N,278*
X-1133650Y-1220472D03*
G04 #@! TO.N,280*
Y-1299213D03*
G04 #@! TO.N,277*
X-1212390Y-1181102D03*
G04 #@! TO.N,275*
Y-1102362D03*
G04 #@! TO.N,274*
X-1133650Y-1062992D03*
G04 #@! TO.N,276*
Y-1141732D03*
G04 #@! TO.N,273*
X-1212390Y-1023622D03*
G04 #@! TO.N,271*
Y-944882D03*
G04 #@! TO.N,270*
X-1133650Y-905512D03*
G04 #@! TO.N,272*
Y-984252D03*
G04 #@! TO.N,269*
X-1212390Y-866142D03*
G04 #@! TO.N,267*
Y-787402D03*
G04 #@! TO.N,266*
X-1133650Y-748031D03*
G04 #@! TO.N,268*
Y-826772D03*
G04 #@! TO.N,265*
X-1212390Y-708661D03*
G04 #@! TO.N,263*
Y-629921D03*
G04 #@! TO.N,262*
X-1133650Y-590551D03*
G04 #@! TO.N,264*
Y-669291D03*
G04 #@! TO.N,261*
X-1212390Y-551181D03*
G04 #@! TO.N,259*
Y-472441D03*
G04 #@! TO.N,258*
X-1133650Y-433071D03*
G04 #@! TO.N,260*
Y-511811D03*
G04 #@! TO.N,257*
X-1212390Y-393701D03*
G04 #@! TO.N,449*
X-358268Y19685D03*
G04 #@! TO.N,450*
Y59055D03*
G04 #@! TO.N,451*
Y98425D03*
G04 #@! TO.N,452*
Y137795D03*
G04 #@! TO.N,453*
Y177165D03*
G04 #@! TO.N,454*
Y216535D03*
G04 #@! TO.N,455*
Y255906D03*
G04 #@! TO.N,456*
Y295276D03*
G04 #@! TO.N,457*
Y334646D03*
G04 #@! TO.N,458*
Y374016D03*
G04 #@! TO.N,459*
Y413386D03*
G04 #@! TO.N,460*
Y807087D03*
G04 #@! TO.N,461*
Y846457D03*
G04 #@! TO.N,462*
Y885827D03*
G04 #@! TO.N,463*
Y925197D03*
G04 #@! TO.N,464*
Y964567D03*
G04 #@! TO.N,465*
Y1003937D03*
G04 #@! TO.N,466*
Y1043307D03*
G04 #@! TO.N,467*
Y1082677D03*
G04 #@! TO.N,468*
Y1122047D03*
G04 #@! TO.N,469*
Y1161417D03*
G04 #@! TO.N,470*
Y1200787D03*
G04 #@! TO.N,471*
Y1240157D03*
G04 #@! TO.N,472*
X-43307Y19685D03*
G04 #@! TO.N,473*
Y59055D03*
G04 #@! TO.N,474*
Y98425D03*
G04 #@! TO.N,475*
Y137795D03*
G04 #@! TO.N,476*
Y177165D03*
G04 #@! TO.N,477*
Y216535D03*
G04 #@! TO.N,478*
Y255906D03*
G04 #@! TO.N,479*
Y295276D03*
G04 #@! TO.N,480*
Y334646D03*
G04 #@! TO.N,481*
Y374016D03*
G04 #@! TO.N,482*
Y413386D03*
G04 #@! TO.N,483*
Y807087D03*
G04 #@! TO.N,484*
Y846457D03*
G04 #@! TO.N,485*
Y885827D03*
G04 #@! TO.N,486*
Y925197D03*
G04 #@! TO.N,487*
Y964567D03*
G04 #@! TO.N,488*
Y1003937D03*
G04 #@! TO.N,489*
Y1043307D03*
G04 #@! TO.N,490*
Y1082677D03*
G04 #@! TO.N,491*
Y1122047D03*
G04 #@! TO.N,492*
Y1161417D03*
G04 #@! TO.N,493*
Y1200787D03*
G04 #@! TO.N,494*
Y1240157D03*
G04 #@! TO.N,495*
X-358268Y649606D03*
G04 #@! TO.N,496*
Y688976D03*
G04 #@! TO.N,497*
Y728346D03*
G04 #@! TO.N,498*
Y767717D03*
G04 #@! TO.N,499*
X-43307Y649606D03*
G04 #@! TO.N,500*
Y688976D03*
G04 #@! TO.N,501*
Y728346D03*
G04 #@! TO.N,502*
Y767717D03*
G04 #@! TO.N,503*
X-358268Y492126D03*
G04 #@! TO.N,504*
Y531496D03*
G04 #@! TO.N,505*
Y570866D03*
G04 #@! TO.N,506*
Y610236D03*
G04 #@! TO.N,507*
X-43307Y492126D03*
G04 #@! TO.N,508*
Y531496D03*
G04 #@! TO.N,509*
Y570866D03*
G04 #@! TO.N,510*
Y610236D03*
G04 #@! TO.N,511*
X-358268Y452756D03*
G04 #@! TO.N,512*
X-43307D03*
G04 #@! TO.N,470*
X-587193Y1594488D03*
G04 #@! TO.N,469*
X-508453Y1555118D03*
G04 #@! TO.N,471*
Y1633858D03*
G04 #@! TO.N,468*
X-587193Y1515748D03*
G04 #@! TO.N,466*
Y1437008D03*
G04 #@! TO.N,465*
X-508453Y1397638D03*
G04 #@! TO.N,467*
Y1476378D03*
G04 #@! TO.N,464*
X-587193Y1358268D03*
G04 #@! TO.N,462*
Y1279528D03*
G04 #@! TO.N,461*
X-508453Y1240157D03*
G04 #@! TO.N,463*
Y1318898D03*
G04 #@! TO.N,460*
X-587193Y1200787D03*
G04 #@! TO.N,497*
Y1122047D03*
G04 #@! TO.N,496*
X-508453Y1082677D03*
G04 #@! TO.N,498*
Y1161417D03*
G04 #@! TO.N,495*
X-587193Y1043307D03*
G04 #@! TO.N,505*
Y964567D03*
G04 #@! TO.N,504*
X-508453Y925197D03*
G04 #@! TO.N,506*
Y1003937D03*
G04 #@! TO.N,503*
X-587193Y885827D03*
G04 #@! TO.N,459*
Y807087D03*
G04 #@! TO.N,458*
X-508453Y767717D03*
G04 #@! TO.N,511*
Y846457D03*
G04 #@! TO.N,457*
X-587193Y728346D03*
G04 #@! TO.N,455*
Y649606D03*
G04 #@! TO.N,454*
X-508453Y610236D03*
G04 #@! TO.N,456*
Y688976D03*
G04 #@! TO.N,453*
X-587193Y570866D03*
G04 #@! TO.N,451*
Y492126D03*
G04 #@! TO.N,450*
X-508453Y452756D03*
G04 #@! TO.N,452*
Y531496D03*
G04 #@! TO.N,449*
X-587193Y413386D03*
G04 #@! TO.N,493*
X-306878Y1574803D03*
G04 #@! TO.N,492*
X-228138Y1535433D03*
G04 #@! TO.N,494*
Y1614173D03*
G04 #@! TO.N,491*
X-306878Y1496063D03*
G04 #@! TO.N,489*
Y1417323D03*
G04 #@! TO.N,488*
X-228138Y1377953D03*
G04 #@! TO.N,490*
Y1456693D03*
G04 #@! TO.N,487*
X-306878Y1338583D03*
G04 #@! TO.N,485*
Y1259843D03*
G04 #@! TO.N,484*
X-228138Y1220472D03*
G04 #@! TO.N,486*
Y1299213D03*
G04 #@! TO.N,483*
X-306878Y1181102D03*
G04 #@! TO.N,501*
Y1102362D03*
G04 #@! TO.N,500*
X-228138Y1062992D03*
G04 #@! TO.N,502*
Y1141732D03*
G04 #@! TO.N,499*
X-306878Y1023622D03*
G04 #@! TO.N,509*
Y944882D03*
G04 #@! TO.N,508*
X-228138Y905512D03*
G04 #@! TO.N,510*
Y984252D03*
G04 #@! TO.N,507*
X-306878Y866142D03*
G04 #@! TO.N,482*
Y787402D03*
G04 #@! TO.N,481*
X-228138Y748031D03*
G04 #@! TO.N,512*
Y826772D03*
G04 #@! TO.N,480*
X-306878Y708661D03*
G04 #@! TO.N,478*
Y629921D03*
G04 #@! TO.N,477*
X-228138Y590551D03*
G04 #@! TO.N,479*
Y669291D03*
G04 #@! TO.N,476*
X-306878Y551181D03*
G04 #@! TO.N,474*
Y472441D03*
G04 #@! TO.N,473*
X-228138Y433071D03*
G04 #@! TO.N,475*
Y511811D03*
G04 #@! TO.N,472*
X-306878Y393701D03*
G04 #@! TO.N,417*
X-1263779Y19685D03*
G04 #@! TO.N,418*
Y59055D03*
G04 #@! TO.N,419*
Y98425D03*
G04 #@! TO.N,420*
Y137795D03*
G04 #@! TO.N,421*
Y177165D03*
G04 #@! TO.N,422*
Y216535D03*
G04 #@! TO.N,423*
Y255906D03*
G04 #@! TO.N,424*
Y295276D03*
G04 #@! TO.N,425*
Y334646D03*
G04 #@! TO.N,426*
Y374016D03*
G04 #@! TO.N,427*
Y413386D03*
G04 #@! TO.N,437*
Y807087D03*
G04 #@! TO.N,438*
Y846457D03*
G04 #@! TO.N,439*
Y885827D03*
G04 #@! TO.N,440*
Y925197D03*
G04 #@! TO.N,441*
Y964567D03*
G04 #@! TO.N,442*
Y1003937D03*
G04 #@! TO.N,443*
Y1043307D03*
G04 #@! TO.N,444*
Y1082677D03*
G04 #@! TO.N,445*
Y1122047D03*
G04 #@! TO.N,446*
Y1161417D03*
G04 #@! TO.N,447*
Y1200787D03*
G04 #@! TO.N,448*
Y1240157D03*
G04 #@! TO.N,385*
X-948819Y19685D03*
G04 #@! TO.N,386*
Y59055D03*
G04 #@! TO.N,387*
Y98425D03*
G04 #@! TO.N,388*
Y137795D03*
G04 #@! TO.N,389*
Y177165D03*
G04 #@! TO.N,390*
Y216535D03*
G04 #@! TO.N,391*
Y255906D03*
G04 #@! TO.N,392*
Y295276D03*
G04 #@! TO.N,393*
Y334646D03*
G04 #@! TO.N,394*
Y374016D03*
G04 #@! TO.N,395*
Y413386D03*
G04 #@! TO.N,405*
Y807087D03*
G04 #@! TO.N,406*
Y846457D03*
G04 #@! TO.N,407*
Y885827D03*
G04 #@! TO.N,408*
Y925197D03*
G04 #@! TO.N,409*
Y964567D03*
G04 #@! TO.N,410*
Y1003937D03*
G04 #@! TO.N,411*
Y1043307D03*
G04 #@! TO.N,412*
Y1082677D03*
G04 #@! TO.N,413*
Y1122047D03*
G04 #@! TO.N,414*
Y1161417D03*
G04 #@! TO.N,415*
Y1200787D03*
G04 #@! TO.N,416*
Y1240157D03*
G04 #@! TO.N,433*
X-1263779Y649606D03*
G04 #@! TO.N,434*
Y688976D03*
G04 #@! TO.N,435*
Y728346D03*
G04 #@! TO.N,436*
Y767717D03*
G04 #@! TO.N,401*
X-948819Y649606D03*
G04 #@! TO.N,402*
Y688976D03*
G04 #@! TO.N,403*
Y728346D03*
G04 #@! TO.N,404*
Y767717D03*
G04 #@! TO.N,429*
X-1263779Y492126D03*
G04 #@! TO.N,430*
Y531496D03*
G04 #@! TO.N,431*
Y570866D03*
G04 #@! TO.N,432*
Y610236D03*
G04 #@! TO.N,397*
X-948819Y492126D03*
G04 #@! TO.N,398*
Y531496D03*
G04 #@! TO.N,399*
Y570866D03*
G04 #@! TO.N,400*
Y610236D03*
G04 #@! TO.N,428*
X-1263779Y452756D03*
G04 #@! TO.N,396*
X-948819D03*
G04 #@! TO.N,447*
X-1492705Y1594488D03*
G04 #@! TO.N,446*
X-1413965Y1555118D03*
G04 #@! TO.N,448*
Y1633858D03*
G04 #@! TO.N,445*
X-1492705Y1515748D03*
G04 #@! TO.N,443*
Y1437008D03*
G04 #@! TO.N,442*
X-1413965Y1397638D03*
G04 #@! TO.N,444*
Y1476378D03*
G04 #@! TO.N,441*
X-1492705Y1358268D03*
G04 #@! TO.N,439*
Y1279528D03*
G04 #@! TO.N,438*
X-1413965Y1240157D03*
G04 #@! TO.N,440*
Y1318898D03*
G04 #@! TO.N,437*
X-1492705Y1200787D03*
G04 #@! TO.N,435*
Y1122047D03*
G04 #@! TO.N,434*
X-1413965Y1082677D03*
G04 #@! TO.N,436*
Y1161417D03*
G04 #@! TO.N,433*
X-1492705Y1043307D03*
G04 #@! TO.N,431*
Y964567D03*
G04 #@! TO.N,430*
X-1413965Y925197D03*
G04 #@! TO.N,432*
Y1003937D03*
G04 #@! TO.N,429*
X-1492705Y885827D03*
G04 #@! TO.N,427*
Y807087D03*
G04 #@! TO.N,426*
X-1413965Y767717D03*
G04 #@! TO.N,428*
Y846457D03*
G04 #@! TO.N,425*
X-1492705Y728346D03*
G04 #@! TO.N,423*
Y649606D03*
G04 #@! TO.N,422*
X-1413965Y610236D03*
G04 #@! TO.N,424*
Y688976D03*
G04 #@! TO.N,421*
X-1492705Y570866D03*
G04 #@! TO.N,419*
Y492126D03*
G04 #@! TO.N,418*
X-1413965Y452756D03*
G04 #@! TO.N,420*
Y531496D03*
G04 #@! TO.N,417*
X-1492705Y413386D03*
G04 #@! TO.N,415*
X-1212390Y1574803D03*
G04 #@! TO.N,414*
X-1133650Y1535433D03*
G04 #@! TO.N,416*
Y1614173D03*
G04 #@! TO.N,413*
X-1212390Y1496063D03*
G04 #@! TO.N,411*
Y1417323D03*
G04 #@! TO.N,410*
X-1133650Y1377953D03*
G04 #@! TO.N,412*
Y1456693D03*
G04 #@! TO.N,409*
X-1212390Y1338583D03*
G04 #@! TO.N,407*
Y1259843D03*
G04 #@! TO.N,406*
X-1133650Y1220472D03*
G04 #@! TO.N,408*
Y1299213D03*
G04 #@! TO.N,405*
X-1212390Y1181102D03*
G04 #@! TO.N,403*
Y1102362D03*
G04 #@! TO.N,402*
X-1133650Y1062992D03*
G04 #@! TO.N,404*
Y1141732D03*
G04 #@! TO.N,401*
X-1212390Y1023622D03*
G04 #@! TO.N,399*
Y944882D03*
G04 #@! TO.N,398*
X-1133650Y905512D03*
G04 #@! TO.N,400*
Y984252D03*
G04 #@! TO.N,397*
X-1212390Y866142D03*
G04 #@! TO.N,395*
Y787402D03*
G04 #@! TO.N,394*
X-1133650Y748031D03*
G04 #@! TO.N,396*
Y826772D03*
G04 #@! TO.N,393*
X-1212390Y708661D03*
G04 #@! TO.N,391*
Y629921D03*
G04 #@! TO.N,390*
X-1133650Y590551D03*
G04 #@! TO.N,392*
Y669291D03*
G04 #@! TO.N,389*
X-1212390Y551181D03*
G04 #@! TO.N,387*
Y472441D03*
G04 #@! TO.N,386*
X-1133650Y433071D03*
G04 #@! TO.N,388*
Y511811D03*
G04 #@! TO.N,385*
X-1212390Y393701D03*
G04 #@! TO.N,515*
D11*
X4389563Y6353752D03*
G04 #@! TO.N,513*
X4310823D03*
G04 #@! TO.N,518*
X4547043D03*
G04 #@! TO.N,517*
X4468303D03*
G04 #@! TO.N,522*
X4704524D03*
G04 #@! TO.N,520*
X4625783D03*
G04 #@! TO.N,524*
X4783264D03*
G04 #@! TO.N,526*
X5019484D03*
G04 #@! TO.N,525*
X4940744D03*
G04 #@! TO.N,530*
X5176965D03*
G04 #@! TO.N,528*
X5098224D03*
G04 #@! TO.N,533*
X5334445D03*
G04 #@! TO.N,532*
X5255705D03*
G04 #@! TO.N,633*
X5491925D03*
G04 #@! TO.N,535*
X5413185D03*
G04 #@! TO.N,546*
X4330508Y6712807D03*
G04 #@! TO.N,545*
X4369878Y6634067D03*
G04 #@! TO.N,547*
X4291138D03*
G04 #@! TO.N,544*
X4409248Y6712807D03*
G04 #@! TO.N,542*
X4487988D03*
G04 #@! TO.N,541*
X4527358Y6634067D03*
G04 #@! TO.N,543*
X4448618D03*
G04 #@! TO.N,540*
X4566728Y6712807D03*
G04 #@! TO.N,538*
X4645469D03*
G04 #@! TO.N,537*
X4684839Y6634067D03*
G04 #@! TO.N,539*
X4606098D03*
G04 #@! TO.N,572*
X4724209Y6712807D03*
G04 #@! TO.N,570*
X4802949D03*
G04 #@! TO.N,569*
X4842319Y6634067D03*
G04 #@! TO.N,571*
X4763579D03*
G04 #@! TO.N,568*
X4881689Y6712807D03*
G04 #@! TO.N,578*
X4960429D03*
G04 #@! TO.N,577*
X4999799Y6634067D03*
G04 #@! TO.N,573*
X4921059D03*
G04 #@! TO.N,576*
X5039169Y6712807D03*
G04 #@! TO.N,574*
X5117909D03*
G04 #@! TO.N,634*
X5157280Y6634067D03*
G04 #@! TO.N,575*
X5078539D03*
G04 #@! TO.N,560*
X5196650Y6712807D03*
G04 #@! TO.N,558*
X5275390D03*
G04 #@! TO.N,557*
X5314760Y6634067D03*
G04 #@! TO.N,559*
X5236020D03*
G04 #@! TO.N,556*
X5354130Y6712807D03*
G04 #@! TO.N,554*
X5432870D03*
G04 #@! TO.N,553*
X5472240Y6634067D03*
G04 #@! TO.N,555*
X5393500D03*
G04 #@! TO.N,552*
X5511610Y6712807D03*
G04 #@! TO.N,514*
X4350193Y6511232D03*
G04 #@! TO.N,516*
X4428933D03*
G04 #@! TO.N,548*
X4507673D03*
G04 #@! TO.N,519*
X4586413D03*
G04 #@! TO.N,521*
X4665154D03*
G04 #@! TO.N,523*
X4743894D03*
G04 #@! TO.N,549*
X4901374D03*
G04 #@! TO.N,527*
X5058854D03*
G04 #@! TO.N,529*
X5137594D03*
G04 #@! TO.N,531*
X5216335D03*
G04 #@! TO.N,550*
X5295075D03*
G04 #@! TO.N,534*
X5373815D03*
G04 #@! TO.N,536*
X5452555D03*
G04 #@! TO.N,551*
X5531295D03*
G04 #@! TO.N,600*
X5491925Y7361626D03*
G04 #@! TO.N,601*
X5452555Y7440366D03*
G04 #@! TO.N,599*
X5531295D03*
G04 #@! TO.N,602*
X5413185Y7361626D03*
G04 #@! TO.N,598*
X5334445D03*
G04 #@! TO.N,604*
X5295075Y7440366D03*
G04 #@! TO.N,603*
X5373815D03*
G04 #@! TO.N,605*
X5255705Y7361626D03*
G04 #@! TO.N,607*
X5176965D03*
G04 #@! TO.N,608*
X5137594Y7440366D03*
G04 #@! TO.N,606*
X5216335D03*
G04 #@! TO.N,636*
X5098224Y7361626D03*
G04 #@! TO.N,583*
X5019484D03*
G04 #@! TO.N,581*
X4980114Y7440366D03*
G04 #@! TO.N,635*
X5058854D03*
G04 #@! TO.N,579*
X4940744Y7361626D03*
G04 #@! TO.N,566*
X4862004D03*
G04 #@! TO.N,564*
X4822634Y7440366D03*
G04 #@! TO.N,597*
X4901374D03*
G04 #@! TO.N,562*
X4783264Y7361626D03*
G04 #@! TO.N,586*
X4704524D03*
G04 #@! TO.N,587*
X4665154Y7440366D03*
G04 #@! TO.N,585*
X4743894D03*
G04 #@! TO.N,588*
X4625783Y7361626D03*
G04 #@! TO.N,596*
X4547043D03*
G04 #@! TO.N,590*
X4507673Y7440366D03*
G04 #@! TO.N,589*
X4586413D03*
G04 #@! TO.N,591*
X4468303Y7361626D03*
G04 #@! TO.N,593*
X4389563D03*
G04 #@! TO.N,594*
X4350193Y7440366D03*
G04 #@! TO.N,592*
X4428933D03*
G04 #@! TO.N,595*
X4310823Y7361626D03*
G04 #@! TO.N,625*
X5432870Y7720681D03*
G04 #@! TO.N,623*
X5511610D03*
G04 #@! TO.N,629*
X5275390D03*
G04 #@! TO.N,627*
X5354130D03*
G04 #@! TO.N,637*
X5117909D03*
G04 #@! TO.N,631*
X5196650D03*
G04 #@! TO.N,580*
X4960429D03*
G04 #@! TO.N,584*
X5039169D03*
G04 #@! TO.N,563*
X4802949D03*
G04 #@! TO.N,567*
X4881689D03*
G04 #@! TO.N,611*
X4645469D03*
G04 #@! TO.N,609*
X4724209D03*
G04 #@! TO.N,614*
X4487988D03*
G04 #@! TO.N,613*
X4566728D03*
G04 #@! TO.N,618*
X4330508D03*
G04 #@! TO.N,616*
X4409248D03*
G04 #@! TO.N,624*
X5472240Y7539578D03*
G04 #@! TO.N,626*
X5393500D03*
G04 #@! TO.N,622*
X5314760D03*
G04 #@! TO.N,628*
X5236020D03*
G04 #@! TO.N,630*
X5157280D03*
G04 #@! TO.N,632*
X5078539D03*
G04 #@! TO.N,582*
X4999799D03*
G04 #@! TO.N,621*
X4921059D03*
G04 #@! TO.N,565*
X4842319D03*
G04 #@! TO.N,561*
X4763579D03*
G04 #@! TO.N,610*
X4684839D03*
G04 #@! TO.N,612*
X4606098D03*
G04 #@! TO.N,620*
X4527358D03*
G04 #@! TO.N,615*
X4448618D03*
G04 #@! TO.N,617*
X4369878D03*
G04 #@! TO.N,619*
X4291138D03*
G04 #@! TO.N,513*
X196850Y6062992D03*
G04 #@! TO.N,514*
X590551D03*
G04 #@! TO.N,515*
X984252D03*
G04 #@! TO.N,516*
X1377953D03*
G04 #@! TO.N,517*
X1771653D03*
G04 #@! TO.N,518*
X2165354D03*
G04 #@! TO.N,519*
X2559055D03*
G04 #@! TO.N,520*
X2952756D03*
G04 #@! TO.N,521*
X3346456D03*
G04 #@! TO.N,522*
X3740157D03*
G04 #@! TO.N,523*
X4133858D03*
G04 #@! TO.N,524*
X4527559D03*
G04 #@! TO.N,525*
X4921260D03*
G04 #@! TO.N,526*
X5314960D03*
G04 #@! TO.N,527*
X5708661D03*
G04 #@! TO.N,528*
X6102362D03*
G04 #@! TO.N,529*
X6496063D03*
G04 #@! TO.N,530*
X6889764D03*
G04 #@! TO.N,531*
X7283464D03*
G04 #@! TO.N,532*
X7677165D03*
G04 #@! TO.N,533*
X8070866D03*
G04 #@! TO.N,534*
X8464567D03*
G04 #@! TO.N,535*
X8858268D03*
G04 #@! TO.N,536*
X9251968D03*
G04 #@! TO.N,537*
X196850Y6456693D03*
G04 #@! TO.N,538*
X590551D03*
G04 #@! TO.N,539*
X984252D03*
G04 #@! TO.N,540*
X1377953D03*
G04 #@! TO.N,541*
X1771653D03*
G04 #@! TO.N,542*
X2165354D03*
G04 #@! TO.N,543*
X2559055D03*
G04 #@! TO.N,544*
X2952756D03*
G04 #@! TO.N,545*
X3346456D03*
G04 #@! TO.N,546*
X3740157D03*
G04 #@! TO.N,547*
X4133858D03*
G04 #@! TO.N,548*
X4527559D03*
G04 #@! TO.N,549*
X4921260D03*
G04 #@! TO.N,550*
X5314960D03*
G04 #@! TO.N,551*
X5708661D03*
G04 #@! TO.N,552*
X6102362D03*
G04 #@! TO.N,553*
X6496063D03*
G04 #@! TO.N,554*
X6889764D03*
G04 #@! TO.N,555*
X7283464D03*
G04 #@! TO.N,556*
X7677165D03*
G04 #@! TO.N,557*
X8070866D03*
G04 #@! TO.N,558*
X8464567D03*
G04 #@! TO.N,559*
X8858268D03*
G04 #@! TO.N,560*
X9251968D03*
G04 #@! TO.N,561*
X196850Y6850394D03*
G04 #@! TO.N,562*
X590551D03*
G04 #@! TO.N,563*
X984252D03*
G04 #@! TO.N,564*
X1377953D03*
G04 #@! TO.N,565*
X1771653D03*
G04 #@! TO.N,566*
X2165354D03*
G04 #@! TO.N,567*
X2559055D03*
G04 #@! TO.N,568*
X2952756D03*
G04 #@! TO.N,569*
X3346456D03*
G04 #@! TO.N,570*
X3740157D03*
G04 #@! TO.N,571*
X4133858D03*
G04 #@! TO.N,572*
X4527559D03*
G04 #@! TO.N,573*
X4921260D03*
G04 #@! TO.N,574*
X5314960D03*
G04 #@! TO.N,575*
X5708661D03*
G04 #@! TO.N,576*
X6102362D03*
G04 #@! TO.N,577*
X6496063D03*
G04 #@! TO.N,578*
X6889764D03*
G04 #@! TO.N,579*
X7283464D03*
G04 #@! TO.N,580*
X7677165D03*
G04 #@! TO.N,581*
X8070866D03*
G04 #@! TO.N,582*
X8464567D03*
G04 #@! TO.N,583*
X8858268D03*
G04 #@! TO.N,584*
X9251968D03*
G04 #@! TO.N,585*
X196850Y7244094D03*
G04 #@! TO.N,586*
X590551D03*
G04 #@! TO.N,587*
X984252D03*
G04 #@! TO.N,588*
X1377953D03*
G04 #@! TO.N,589*
X1771653D03*
G04 #@! TO.N,590*
X2165354D03*
G04 #@! TO.N,591*
X2559055D03*
G04 #@! TO.N,592*
X2952756D03*
G04 #@! TO.N,593*
X3346456D03*
G04 #@! TO.N,594*
X3740157D03*
G04 #@! TO.N,595*
X4133858D03*
G04 #@! TO.N,596*
X4527559D03*
G04 #@! TO.N,597*
X4921260D03*
G04 #@! TO.N,598*
X5314960D03*
G04 #@! TO.N,599*
X5708661D03*
G04 #@! TO.N,600*
X6102362D03*
G04 #@! TO.N,601*
X6496063D03*
G04 #@! TO.N,602*
X6889764D03*
G04 #@! TO.N,603*
X7283464D03*
G04 #@! TO.N,604*
X7677165D03*
G04 #@! TO.N,605*
X8070866D03*
G04 #@! TO.N,606*
X8464567D03*
G04 #@! TO.N,607*
X8858268D03*
G04 #@! TO.N,608*
X9251968D03*
G04 #@! TO.N,609*
X196850Y7637795D03*
G04 #@! TO.N,610*
X590551D03*
G04 #@! TO.N,611*
X984252D03*
G04 #@! TO.N,612*
X1377953D03*
G04 #@! TO.N,613*
X1771653D03*
G04 #@! TO.N,614*
X2165354D03*
G04 #@! TO.N,615*
X2559055D03*
G04 #@! TO.N,616*
X2952756D03*
G04 #@! TO.N,617*
X3346456D03*
G04 #@! TO.N,618*
X3740157D03*
G04 #@! TO.N,619*
X4133858D03*
G04 #@! TO.N,620*
X4527559D03*
G04 #@! TO.N,621*
X4921260D03*
G04 #@! TO.N,622*
X5314960D03*
G04 #@! TO.N,623*
X5708661D03*
G04 #@! TO.N,624*
X6102362D03*
G04 #@! TO.N,625*
X6496063D03*
G04 #@! TO.N,626*
X6889764D03*
G04 #@! TO.N,627*
X7283464D03*
G04 #@! TO.N,628*
X7677165D03*
G04 #@! TO.N,629*
X8070866D03*
G04 #@! TO.N,630*
X8464567D03*
G04 #@! TO.N,631*
X8858268D03*
G04 #@! TO.N,632*
X9251968D03*
G04 #@! TO.N,633*
X9645669Y6062992D03*
G04 #@! TO.N,634*
Y6456693D03*
G04 #@! TO.N,635*
Y6850394D03*
G04 #@! TO.N,636*
Y7244094D03*
G04 #@! TO.N,637*
Y7637795D03*
G04 #@! TO.N,672*
X6554917Y4385248D03*
G04 #@! TO.N,676*
X6476177D03*
G04 #@! TO.N,664*
X6712398D03*
G04 #@! TO.N,668*
X6633657D03*
G04 #@! TO.N,654*
X6869878D03*
G04 #@! TO.N,650*
X6791138D03*
G04 #@! TO.N,644*
X7027358D03*
G04 #@! TO.N,648*
X6948618D03*
G04 #@! TO.N,640*
X7106098D03*
G04 #@! TO.N,660*
X7342319D03*
G04 #@! TO.N,758*
X7263579D03*
G04 #@! TO.N,685*
X7499799D03*
G04 #@! TO.N,658*
X7421059D03*
G04 #@! TO.N,681*
X7657280D03*
G04 #@! TO.N,683*
X7578539D03*
G04 #@! TO.N,678*
X6495862Y4744303D03*
G04 #@! TO.N,675*
X6535232Y4665563D03*
G04 #@! TO.N,677*
X6456492D03*
G04 #@! TO.N,673*
X6574602Y4744303D03*
G04 #@! TO.N,669*
X6653343D03*
G04 #@! TO.N,667*
X6692713Y4665563D03*
G04 #@! TO.N,671*
X6613972D03*
G04 #@! TO.N,665*
X6732083Y4744303D03*
G04 #@! TO.N,651*
X6810823D03*
G04 #@! TO.N,653*
X6850193Y4665563D03*
G04 #@! TO.N,663*
X6771453D03*
G04 #@! TO.N,649*
X6968303Y4744303D03*
G04 #@! TO.N,647*
X7007673Y4665563D03*
G04 #@! TO.N,655*
X6928933D03*
G04 #@! TO.N,645*
X7047043Y4744303D03*
G04 #@! TO.N,641*
X7125783D03*
G04 #@! TO.N,639*
X7165154Y4665563D03*
G04 #@! TO.N,643*
X7086413D03*
G04 #@! TO.N,704*
X7283264Y4744303D03*
G04 #@! TO.N,703*
X7322634Y4665563D03*
G04 #@! TO.N,680*
X7243894D03*
G04 #@! TO.N,702*
X7362004Y4744303D03*
G04 #@! TO.N,700*
X7440744D03*
G04 #@! TO.N,699*
X7480114Y4665563D03*
G04 #@! TO.N,701*
X7401374D03*
G04 #@! TO.N,698*
X7519484Y4744303D03*
G04 #@! TO.N,696*
X7598224D03*
G04 #@! TO.N,695*
X7637594Y4665563D03*
G04 #@! TO.N,697*
X7558854D03*
G04 #@! TO.N,694*
X7676965Y4744303D03*
G04 #@! TO.N,674*
X6515547Y4542728D03*
G04 #@! TO.N,670*
X6594287D03*
G04 #@! TO.N,666*
X6673028D03*
G04 #@! TO.N,662*
X6751768D03*
G04 #@! TO.N,652*
X6830508D03*
G04 #@! TO.N,679*
X6909248D03*
G04 #@! TO.N,646*
X6987988D03*
G04 #@! TO.N,642*
X7066728D03*
G04 #@! TO.N,638*
X7145469D03*
G04 #@! TO.N,656*
X7224209D03*
G04 #@! TO.N,661*
X7302949D03*
G04 #@! TO.N,659*
X7381689D03*
G04 #@! TO.N,657*
X7460429D03*
G04 #@! TO.N,759*
X7539169D03*
G04 #@! TO.N,684*
X7617909D03*
G04 #@! TO.N,682*
X7696650D03*
G04 #@! TO.N,731*
X7657280Y5393122D03*
G04 #@! TO.N,732*
X7617909Y5471862D03*
G04 #@! TO.N,730*
X7696650D03*
G04 #@! TO.N,733*
X7578539Y5393122D03*
G04 #@! TO.N,729*
X7499799D03*
G04 #@! TO.N,709*
X7460429Y5471862D03*
G04 #@! TO.N,761*
X7539169D03*
G04 #@! TO.N,760*
X7421059Y5393122D03*
G04 #@! TO.N,708*
X7342319D03*
G04 #@! TO.N,705*
X7302949Y5471862D03*
G04 #@! TO.N,707*
X7381689D03*
G04 #@! TO.N,706*
X7263579Y5393122D03*
G04 #@! TO.N,692*
X7184839D03*
G04 #@! TO.N,693*
X7145469Y5471862D03*
G04 #@! TO.N,728*
X7224209D03*
G04 #@! TO.N,690*
X7106098Y5393122D03*
G04 #@! TO.N,688*
X7027358D03*
G04 #@! TO.N,689*
X6987988Y5471862D03*
G04 #@! TO.N,691*
X7066728D03*
G04 #@! TO.N,686*
X6948618Y5393122D03*
G04 #@! TO.N,727*
X6869878D03*
G04 #@! TO.N,717*
X6830508Y5471862D03*
G04 #@! TO.N,687*
X6909248D03*
G04 #@! TO.N,718*
X6791138Y5393122D03*
G04 #@! TO.N,720*
X6712398D03*
G04 #@! TO.N,721*
X6673028Y5471862D03*
G04 #@! TO.N,719*
X6751768D03*
G04 #@! TO.N,722*
X6633657Y5393122D03*
G04 #@! TO.N,724*
X6554917D03*
G04 #@! TO.N,725*
X6515547Y5471862D03*
G04 #@! TO.N,723*
X6594287D03*
G04 #@! TO.N,726*
X6476177Y5393122D03*
G04 #@! TO.N,755*
X7598224Y5752177D03*
G04 #@! TO.N,753*
X7676965D03*
G04 #@! TO.N,734*
X7440744D03*
G04 #@! TO.N,757*
X7519484D03*
G04 #@! TO.N,738*
X7283264D03*
G04 #@! TO.N,736*
X7362004D03*
G04 #@! TO.N,742*
X7125783D03*
G04 #@! TO.N,740*
X7204524D03*
G04 #@! TO.N,746*
X6968303D03*
G04 #@! TO.N,744*
X7047043D03*
G04 #@! TO.N,752*
X6810823D03*
G04 #@! TO.N,748*
X6889563D03*
G04 #@! TO.N,712*
X6653343D03*
G04 #@! TO.N,750*
X6732083D03*
G04 #@! TO.N,710*
X6495862D03*
G04 #@! TO.N,711*
X6574602D03*
G04 #@! TO.N,754*
X7637594Y5571074D03*
G04 #@! TO.N,756*
X7558854D03*
G04 #@! TO.N,762*
X7480114D03*
G04 #@! TO.N,735*
X7401374D03*
G04 #@! TO.N,737*
X7322634D03*
G04 #@! TO.N,739*
X7243894D03*
G04 #@! TO.N,741*
X7165154D03*
G04 #@! TO.N,743*
X7086413D03*
G04 #@! TO.N,745*
X7007673D03*
G04 #@! TO.N,747*
X6928933D03*
G04 #@! TO.N,751*
X6850193D03*
G04 #@! TO.N,749*
X6771453D03*
G04 #@! TO.N,716*
X6692713D03*
G04 #@! TO.N,715*
X6613972D03*
G04 #@! TO.N,714*
X6535232D03*
G04 #@! TO.N,713*
X6456492D03*
G04 #@! TO.N,638*
X196850Y4094488D03*
G04 #@! TO.N,639*
X590551D03*
G04 #@! TO.N,640*
X984252D03*
G04 #@! TO.N,641*
X1377953D03*
G04 #@! TO.N,642*
X1771653D03*
G04 #@! TO.N,643*
X2165354D03*
G04 #@! TO.N,644*
X2559055D03*
G04 #@! TO.N,645*
X2952756D03*
G04 #@! TO.N,646*
X3346456D03*
G04 #@! TO.N,647*
X3740157D03*
G04 #@! TO.N,648*
X4133858D03*
G04 #@! TO.N,649*
X4527559D03*
G04 #@! TO.N,650*
X4921260D03*
G04 #@! TO.N,651*
X5314960D03*
G04 #@! TO.N,652*
X5708661D03*
G04 #@! TO.N,653*
X6102362D03*
G04 #@! TO.N,654*
X6496063D03*
G04 #@! TO.N,655*
X6889764D03*
G04 #@! TO.N,656*
X7283464D03*
G04 #@! TO.N,657*
X7677165D03*
G04 #@! TO.N,658*
X8070866D03*
G04 #@! TO.N,659*
X8464567D03*
G04 #@! TO.N,660*
X8858268D03*
G04 #@! TO.N,661*
X9251968D03*
G04 #@! TO.N,662*
X196850Y4488189D03*
G04 #@! TO.N,663*
X590551D03*
G04 #@! TO.N,664*
X984252D03*
G04 #@! TO.N,665*
X1377953D03*
G04 #@! TO.N,666*
X1771653D03*
G04 #@! TO.N,667*
X2165354D03*
G04 #@! TO.N,668*
X2559055D03*
G04 #@! TO.N,669*
X2952756D03*
G04 #@! TO.N,670*
X3346456D03*
G04 #@! TO.N,671*
X3740157D03*
G04 #@! TO.N,672*
X4133858D03*
G04 #@! TO.N,673*
X4527559D03*
G04 #@! TO.N,674*
X4921260D03*
G04 #@! TO.N,675*
X5314960D03*
G04 #@! TO.N,676*
X5708661D03*
G04 #@! TO.N,677*
X6102362D03*
G04 #@! TO.N,678*
X6496063D03*
G04 #@! TO.N,679*
X6889764D03*
G04 #@! TO.N,680*
X7283464D03*
G04 #@! TO.N,681*
X7677165D03*
G04 #@! TO.N,682*
X8070866D03*
G04 #@! TO.N,683*
X8464567D03*
G04 #@! TO.N,684*
X8858268D03*
G04 #@! TO.N,685*
X9251968D03*
G04 #@! TO.N,686*
X196850Y4881890D03*
G04 #@! TO.N,687*
X590551D03*
G04 #@! TO.N,688*
X984252D03*
G04 #@! TO.N,689*
X1377953D03*
G04 #@! TO.N,690*
X1771653D03*
G04 #@! TO.N,691*
X2165354D03*
G04 #@! TO.N,692*
X2559055D03*
G04 #@! TO.N,693*
X2952756D03*
G04 #@! TO.N,694*
X3346456D03*
G04 #@! TO.N,695*
X3740157D03*
G04 #@! TO.N,696*
X4133858D03*
G04 #@! TO.N,697*
X4527559D03*
G04 #@! TO.N,698*
X4921260D03*
G04 #@! TO.N,699*
X5314960D03*
G04 #@! TO.N,700*
X5708661D03*
G04 #@! TO.N,701*
X6102362D03*
G04 #@! TO.N,702*
X6496063D03*
G04 #@! TO.N,703*
X6889764D03*
G04 #@! TO.N,704*
X7283464D03*
G04 #@! TO.N,705*
X7677165D03*
G04 #@! TO.N,706*
X8070866D03*
G04 #@! TO.N,707*
X8464567D03*
G04 #@! TO.N,708*
X8858268D03*
G04 #@! TO.N,709*
X9251968D03*
G04 #@! TO.N,710*
X196850Y5275591D03*
G04 #@! TO.N,711*
X590551D03*
G04 #@! TO.N,712*
X984252D03*
G04 #@! TO.N,713*
X1377953D03*
G04 #@! TO.N,714*
X1771653D03*
G04 #@! TO.N,715*
X2165354D03*
G04 #@! TO.N,716*
X2559055D03*
G04 #@! TO.N,717*
X2952756D03*
G04 #@! TO.N,718*
X3346456D03*
G04 #@! TO.N,719*
X3740157D03*
G04 #@! TO.N,720*
X4133858D03*
G04 #@! TO.N,721*
X4527559D03*
G04 #@! TO.N,722*
X4921260D03*
G04 #@! TO.N,723*
X5314960D03*
G04 #@! TO.N,724*
X5708661D03*
G04 #@! TO.N,725*
X6102362D03*
G04 #@! TO.N,726*
X6496063D03*
G04 #@! TO.N,727*
X6889764D03*
G04 #@! TO.N,728*
X7283464D03*
G04 #@! TO.N,729*
X7677165D03*
G04 #@! TO.N,730*
X8070866D03*
G04 #@! TO.N,731*
X8464567D03*
G04 #@! TO.N,732*
X8858268D03*
G04 #@! TO.N,733*
X9251968D03*
G04 #@! TO.N,734*
X196850Y5669291D03*
G04 #@! TO.N,735*
X590551D03*
G04 #@! TO.N,736*
X984252D03*
G04 #@! TO.N,737*
X1377953D03*
G04 #@! TO.N,738*
X1771653D03*
G04 #@! TO.N,739*
X2165354D03*
G04 #@! TO.N,740*
X2559055D03*
G04 #@! TO.N,741*
X2952756D03*
G04 #@! TO.N,742*
X3346456D03*
G04 #@! TO.N,743*
X3740157D03*
G04 #@! TO.N,744*
X4133858D03*
G04 #@! TO.N,745*
X4527559D03*
G04 #@! TO.N,746*
X4921260D03*
G04 #@! TO.N,747*
X5314960D03*
G04 #@! TO.N,748*
X5708661D03*
G04 #@! TO.N,749*
X6102362D03*
G04 #@! TO.N,750*
X6496063D03*
G04 #@! TO.N,751*
X6889764D03*
G04 #@! TO.N,752*
X7283464D03*
G04 #@! TO.N,753*
X7677165D03*
G04 #@! TO.N,754*
X8070866D03*
G04 #@! TO.N,755*
X8464567D03*
G04 #@! TO.N,756*
X8858268D03*
G04 #@! TO.N,757*
X9251968D03*
G04 #@! TO.N,758*
X9645669Y4094488D03*
G04 #@! TO.N,759*
Y4488189D03*
G04 #@! TO.N,760*
Y4881890D03*
G04 #@! TO.N,761*
Y5275591D03*
G04 #@! TO.N,762*
Y5669291D03*
G04 #@! TO.N,765*
X5452956Y1520264D03*
G04 #@! TO.N,763*
X5531696D03*
G04 #@! TO.N,768*
X5295476D03*
G04 #@! TO.N,767*
X5374216D03*
G04 #@! TO.N,772*
X5137996D03*
G04 #@! TO.N,770*
X5216736D03*
G04 #@! TO.N,774*
X5059256D03*
G04 #@! TO.N,776*
X4823035D03*
G04 #@! TO.N,775*
X4901775D03*
G04 #@! TO.N,780*
X4665555D03*
G04 #@! TO.N,778*
X4744295D03*
G04 #@! TO.N,783*
X4508074D03*
G04 #@! TO.N,782*
X4586815D03*
G04 #@! TO.N,877*
X4350594D03*
G04 #@! TO.N,785*
X4429334D03*
G04 #@! TO.N,796*
X5512011Y1161209D03*
G04 #@! TO.N,795*
X5472641Y1239949D03*
G04 #@! TO.N,797*
X5551381D03*
G04 #@! TO.N,794*
X5433271Y1161209D03*
G04 #@! TO.N,792*
X5354531D03*
G04 #@! TO.N,791*
X5315161Y1239949D03*
G04 #@! TO.N,793*
X5393901D03*
G04 #@! TO.N,790*
X5275791Y1161209D03*
G04 #@! TO.N,788*
X5197051D03*
G04 #@! TO.N,787*
X5157681Y1239949D03*
G04 #@! TO.N,789*
X5236421D03*
G04 #@! TO.N,822*
X5118311Y1161209D03*
G04 #@! TO.N,820*
X5039570D03*
G04 #@! TO.N,819*
X5000200Y1239949D03*
G04 #@! TO.N,821*
X5078941D03*
G04 #@! TO.N,818*
X4960830Y1161209D03*
G04 #@! TO.N,828*
X4882090D03*
G04 #@! TO.N,827*
X4842720Y1239949D03*
G04 #@! TO.N,823*
X4921460D03*
G04 #@! TO.N,826*
X4803350Y1161209D03*
G04 #@! TO.N,824*
X4724610D03*
G04 #@! TO.N,878*
X4685240Y1239949D03*
G04 #@! TO.N,825*
X4763980D03*
G04 #@! TO.N,810*
X4645870Y1161209D03*
G04 #@! TO.N,808*
X4567130D03*
G04 #@! TO.N,807*
X4527759Y1239949D03*
G04 #@! TO.N,809*
X4606500D03*
G04 #@! TO.N,806*
X4488389Y1161209D03*
G04 #@! TO.N,804*
X4409649D03*
G04 #@! TO.N,803*
X4370279Y1239949D03*
G04 #@! TO.N,805*
X4449019D03*
G04 #@! TO.N,802*
X4330909Y1161209D03*
G04 #@! TO.N,764*
X5492326Y1362784D03*
G04 #@! TO.N,766*
X5413586D03*
G04 #@! TO.N,798*
X5334846D03*
G04 #@! TO.N,769*
X5256106D03*
G04 #@! TO.N,771*
X5177366D03*
G04 #@! TO.N,773*
X5098626D03*
G04 #@! TO.N,799*
X4941145D03*
G04 #@! TO.N,777*
X4783665D03*
G04 #@! TO.N,779*
X4704925D03*
G04 #@! TO.N,781*
X4626185D03*
G04 #@! TO.N,800*
X4547444D03*
G04 #@! TO.N,784*
X4468704D03*
G04 #@! TO.N,786*
X4389964D03*
G04 #@! TO.N,801*
X4311224D03*
G04 #@! TO.N,848*
X4350594Y512390D03*
G04 #@! TO.N,849*
X4389964Y433650D03*
G04 #@! TO.N,847*
X4311224D03*
G04 #@! TO.N,850*
X4429334Y512390D03*
G04 #@! TO.N,846*
X4508074D03*
G04 #@! TO.N,852*
X4547444Y433650D03*
G04 #@! TO.N,851*
X4468704D03*
G04 #@! TO.N,853*
X4586815Y512390D03*
G04 #@! TO.N,854*
X4626185Y433650D03*
G04 #@! TO.N,831*
X4862405D03*
G04 #@! TO.N,829*
X4901775Y512390D03*
G04 #@! TO.N,816*
X4980515D03*
G04 #@! TO.N,814*
X5019885Y433650D03*
G04 #@! TO.N,845*
X4941145D03*
G04 #@! TO.N,812*
X5059256Y512390D03*
G04 #@! TO.N,834*
X5137996D03*
G04 #@! TO.N,835*
X5177366Y433650D03*
G04 #@! TO.N,833*
X5098626D03*
G04 #@! TO.N,836*
X5216736Y512390D03*
G04 #@! TO.N,844*
X5295476D03*
G04 #@! TO.N,838*
X5334846Y433650D03*
G04 #@! TO.N,837*
X5256106D03*
G04 #@! TO.N,839*
X5374216Y512390D03*
G04 #@! TO.N,841*
X5452956D03*
G04 #@! TO.N,842*
X5492326Y433650D03*
G04 #@! TO.N,840*
X5413586D03*
G04 #@! TO.N,843*
X5531696Y512390D03*
G04 #@! TO.N,871*
X4409649Y153335D03*
G04 #@! TO.N,869*
X4330909D03*
G04 #@! TO.N,875*
X4567130D03*
G04 #@! TO.N,873*
X4488389D03*
G04 #@! TO.N,830*
X4882090D03*
G04 #@! TO.N,813*
X5039570D03*
G04 #@! TO.N,817*
X4960830D03*
G04 #@! TO.N,857*
X5197051D03*
G04 #@! TO.N,855*
X5118311D03*
G04 #@! TO.N,860*
X5354531D03*
G04 #@! TO.N,859*
X5275791D03*
G04 #@! TO.N,864*
X5512011D03*
G04 #@! TO.N,862*
X5433271D03*
G04 #@! TO.N,870*
X4370279Y334437D03*
G04 #@! TO.N,872*
X4449019D03*
G04 #@! TO.N,868*
X4527759D03*
G04 #@! TO.N,874*
X4606500D03*
G04 #@! TO.N,876*
X4685240D03*
G04 #@! TO.N,832*
X4842720D03*
G04 #@! TO.N,867*
X4921460D03*
G04 #@! TO.N,815*
X5000200D03*
G04 #@! TO.N,811*
X5078941D03*
G04 #@! TO.N,856*
X5157681D03*
G04 #@! TO.N,858*
X5236421D03*
G04 #@! TO.N,866*
X5315161D03*
G04 #@! TO.N,861*
X5393901D03*
G04 #@! TO.N,863*
X5472641D03*
G04 #@! TO.N,865*
X5551381D03*
G04 #@! TO.N,763*
X9645669Y1811024D03*
G04 #@! TO.N,764*
X9251968D03*
G04 #@! TO.N,765*
X8858268D03*
G04 #@! TO.N,766*
X8464567D03*
G04 #@! TO.N,767*
X8070866D03*
G04 #@! TO.N,768*
X7677165D03*
G04 #@! TO.N,769*
X7283464D03*
G04 #@! TO.N,770*
X6889764D03*
G04 #@! TO.N,771*
X6496063D03*
G04 #@! TO.N,772*
X6102362D03*
G04 #@! TO.N,773*
X5708661D03*
G04 #@! TO.N,774*
X5314960D03*
G04 #@! TO.N,775*
X4921260D03*
G04 #@! TO.N,776*
X4527559D03*
G04 #@! TO.N,777*
X4133858D03*
G04 #@! TO.N,778*
X3740157D03*
G04 #@! TO.N,779*
X3346456D03*
G04 #@! TO.N,780*
X2952756D03*
G04 #@! TO.N,781*
X2559055D03*
G04 #@! TO.N,782*
X2165354D03*
G04 #@! TO.N,783*
X1771653D03*
G04 #@! TO.N,784*
X1377953D03*
G04 #@! TO.N,785*
X984252D03*
G04 #@! TO.N,786*
X590551D03*
G04 #@! TO.N,787*
X9645669Y1417323D03*
G04 #@! TO.N,788*
X9251968D03*
G04 #@! TO.N,789*
X8858268D03*
G04 #@! TO.N,790*
X8464567D03*
G04 #@! TO.N,791*
X8070866D03*
G04 #@! TO.N,792*
X7677165D03*
G04 #@! TO.N,793*
X7283464D03*
G04 #@! TO.N,794*
X6889764D03*
G04 #@! TO.N,795*
X6496063D03*
G04 #@! TO.N,796*
X6102362D03*
G04 #@! TO.N,797*
X5708661D03*
G04 #@! TO.N,798*
X5314960D03*
G04 #@! TO.N,799*
X4921260D03*
G04 #@! TO.N,800*
X4527559D03*
G04 #@! TO.N,801*
X4133858D03*
G04 #@! TO.N,802*
X3740157D03*
G04 #@! TO.N,803*
X3346456D03*
G04 #@! TO.N,804*
X2952756D03*
G04 #@! TO.N,805*
X2559055D03*
G04 #@! TO.N,806*
X2165354D03*
G04 #@! TO.N,807*
X1771653D03*
G04 #@! TO.N,811*
X9645669Y1023622D03*
G04 #@! TO.N,812*
X9251968D03*
G04 #@! TO.N,813*
X8858268D03*
G04 #@! TO.N,814*
X8464567D03*
G04 #@! TO.N,815*
X8070866D03*
G04 #@! TO.N,816*
X7677165D03*
G04 #@! TO.N,817*
X7283464D03*
G04 #@! TO.N,818*
X6889764D03*
G04 #@! TO.N,819*
X6496063D03*
G04 #@! TO.N,820*
X6102362D03*
G04 #@! TO.N,821*
X5708661D03*
G04 #@! TO.N,822*
X5314960D03*
G04 #@! TO.N,823*
X4921260D03*
G04 #@! TO.N,824*
X4527559D03*
G04 #@! TO.N,825*
X4133858D03*
G04 #@! TO.N,826*
X3740157D03*
G04 #@! TO.N,827*
X3346456D03*
G04 #@! TO.N,828*
X2952756D03*
G04 #@! TO.N,829*
X2559055D03*
G04 #@! TO.N,830*
X2165354D03*
G04 #@! TO.N,831*
X1771653D03*
G04 #@! TO.N,833*
X9645669Y629921D03*
G04 #@! TO.N,834*
X9251968D03*
G04 #@! TO.N,835*
X8858268D03*
G04 #@! TO.N,836*
X8464567D03*
G04 #@! TO.N,837*
X8070866D03*
G04 #@! TO.N,838*
X7677165D03*
G04 #@! TO.N,839*
X7283464D03*
G04 #@! TO.N,840*
X6889764D03*
G04 #@! TO.N,841*
X6496063D03*
G04 #@! TO.N,842*
X6102362D03*
G04 #@! TO.N,843*
X5708661D03*
G04 #@! TO.N,844*
X5314960D03*
G04 #@! TO.N,845*
X4921260D03*
G04 #@! TO.N,846*
X4527559D03*
G04 #@! TO.N,847*
X4133858D03*
G04 #@! TO.N,848*
X3740157D03*
G04 #@! TO.N,849*
X3346456D03*
G04 #@! TO.N,850*
X2952756D03*
G04 #@! TO.N,851*
X2559055D03*
G04 #@! TO.N,852*
X2165354D03*
G04 #@! TO.N,853*
X1771653D03*
G04 #@! TO.N,855*
X9645669Y236220D03*
G04 #@! TO.N,856*
X9251968D03*
G04 #@! TO.N,857*
X8858268D03*
G04 #@! TO.N,858*
X8464567D03*
G04 #@! TO.N,859*
X8070866D03*
G04 #@! TO.N,860*
X7677165D03*
G04 #@! TO.N,861*
X7283464D03*
G04 #@! TO.N,862*
X6889764D03*
G04 #@! TO.N,863*
X6496063D03*
G04 #@! TO.N,864*
X6102362D03*
G04 #@! TO.N,865*
X5708661D03*
G04 #@! TO.N,866*
X5314960D03*
G04 #@! TO.N,867*
X4921260D03*
G04 #@! TO.N,868*
X4527559D03*
G04 #@! TO.N,869*
X4133858D03*
G04 #@! TO.N,870*
X3740157D03*
G04 #@! TO.N,871*
X3346456D03*
G04 #@! TO.N,872*
X2952756D03*
G04 #@! TO.N,873*
X2559055D03*
G04 #@! TO.N,874*
X2165354D03*
G04 #@! TO.N,875*
X1771653D03*
G04 #@! TO.N,877*
X196850Y1811024D03*
G04 #@! TO.N,913*
X3287602Y3488768D03*
G04 #@! TO.N,917*
X3366342D03*
G04 #@! TO.N,905*
X3130122D03*
G04 #@! TO.N,909*
X3208862D03*
G04 #@! TO.N,895*
X2972641D03*
G04 #@! TO.N,891*
X3051381D03*
G04 #@! TO.N,885*
X2815161D03*
G04 #@! TO.N,889*
X2893901D03*
G04 #@! TO.N,881*
X2736421D03*
G04 #@! TO.N,901*
X2500200D03*
G04 #@! TO.N,999*
X2578941D03*
G04 #@! TO.N,926*
X2342720D03*
G04 #@! TO.N,899*
X2421460D03*
G04 #@! TO.N,922*
X2185240D03*
G04 #@! TO.N,924*
X2263980D03*
G04 #@! TO.N,919*
X3346657Y3129713D03*
G04 #@! TO.N,916*
X3307287Y3208453D03*
G04 #@! TO.N,918*
X3386027D03*
G04 #@! TO.N,914*
X3267917Y3129713D03*
G04 #@! TO.N,910*
X3189177D03*
G04 #@! TO.N,908*
X3149807Y3208453D03*
G04 #@! TO.N,912*
X3228547D03*
G04 #@! TO.N,906*
X3110437Y3129713D03*
G04 #@! TO.N,892*
X3031696D03*
G04 #@! TO.N,894*
X2992326Y3208453D03*
G04 #@! TO.N,904*
X3071067D03*
G04 #@! TO.N,890*
X2874216Y3129713D03*
G04 #@! TO.N,888*
X2834846Y3208453D03*
G04 #@! TO.N,896*
X2913586D03*
G04 #@! TO.N,886*
X2795476Y3129713D03*
G04 #@! TO.N,882*
X2716736D03*
G04 #@! TO.N,880*
X2677366Y3208453D03*
G04 #@! TO.N,884*
X2756106D03*
G04 #@! TO.N,945*
X2559256Y3129713D03*
G04 #@! TO.N,944*
X2519885Y3208453D03*
G04 #@! TO.N,921*
X2598626D03*
G04 #@! TO.N,943*
X2480515Y3129713D03*
G04 #@! TO.N,941*
X2401775D03*
G04 #@! TO.N,940*
X2362405Y3208453D03*
G04 #@! TO.N,942*
X2441145D03*
G04 #@! TO.N,939*
X2323035Y3129713D03*
G04 #@! TO.N,937*
X2244295D03*
G04 #@! TO.N,936*
X2204925Y3208453D03*
G04 #@! TO.N,938*
X2283665D03*
G04 #@! TO.N,935*
X2165555Y3129713D03*
G04 #@! TO.N,915*
X3326972Y3331288D03*
G04 #@! TO.N,911*
X3248232D03*
G04 #@! TO.N,907*
X3169492D03*
G04 #@! TO.N,903*
X3090752D03*
G04 #@! TO.N,893*
X3012011D03*
G04 #@! TO.N,920*
X2933271D03*
G04 #@! TO.N,887*
X2854531D03*
G04 #@! TO.N,883*
X2775791D03*
G04 #@! TO.N,879*
X2697051D03*
G04 #@! TO.N,897*
X2618311D03*
G04 #@! TO.N,902*
X2539570D03*
G04 #@! TO.N,900*
X2460830D03*
G04 #@! TO.N,898*
X2382090D03*
G04 #@! TO.N,1000*
X2303350D03*
G04 #@! TO.N,925*
X2224610D03*
G04 #@! TO.N,923*
X2145870D03*
G04 #@! TO.N,972*
X2185240Y2480894D03*
G04 #@! TO.N,973*
X2224610Y2402154D03*
G04 #@! TO.N,971*
X2145870D03*
G04 #@! TO.N,974*
X2263980Y2480894D03*
G04 #@! TO.N,970*
X2342720D03*
G04 #@! TO.N,950*
X2382090Y2402154D03*
G04 #@! TO.N,1002*
X2303350D03*
G04 #@! TO.N,1001*
X2421460Y2480894D03*
G04 #@! TO.N,949*
X2500200D03*
G04 #@! TO.N,946*
X2539570Y2402154D03*
G04 #@! TO.N,948*
X2460830D03*
G04 #@! TO.N,947*
X2578941Y2480894D03*
G04 #@! TO.N,933*
X2657681D03*
G04 #@! TO.N,934*
X2697051Y2402154D03*
G04 #@! TO.N,969*
X2618311D03*
G04 #@! TO.N,931*
X2736421Y2480894D03*
G04 #@! TO.N,929*
X2815161D03*
G04 #@! TO.N,930*
X2854531Y2402154D03*
G04 #@! TO.N,932*
X2775791D03*
G04 #@! TO.N,927*
X2893901Y2480894D03*
G04 #@! TO.N,968*
X2972641D03*
G04 #@! TO.N,958*
X3012011Y2402154D03*
G04 #@! TO.N,928*
X2933271D03*
G04 #@! TO.N,959*
X3051381Y2480894D03*
G04 #@! TO.N,961*
X3130122D03*
G04 #@! TO.N,962*
X3169492Y2402154D03*
G04 #@! TO.N,960*
X3090752D03*
G04 #@! TO.N,963*
X3208862Y2480894D03*
G04 #@! TO.N,965*
X3287602D03*
G04 #@! TO.N,966*
X3326972Y2402154D03*
G04 #@! TO.N,964*
X3248232D03*
G04 #@! TO.N,967*
X3366342Y2480894D03*
G04 #@! TO.N,996*
X2244295Y2121839D03*
G04 #@! TO.N,994*
X2165555D03*
G04 #@! TO.N,975*
X2401775D03*
G04 #@! TO.N,998*
X2323035D03*
G04 #@! TO.N,979*
X2559256D03*
G04 #@! TO.N,977*
X2480515D03*
G04 #@! TO.N,983*
X2716736D03*
G04 #@! TO.N,981*
X2637996D03*
G04 #@! TO.N,987*
X2874216D03*
G04 #@! TO.N,985*
X2795476D03*
G04 #@! TO.N,993*
X3031696D03*
G04 #@! TO.N,989*
X2952956D03*
G04 #@! TO.N,953*
X3189177D03*
G04 #@! TO.N,991*
X3110437D03*
G04 #@! TO.N,951*
X3346657D03*
G04 #@! TO.N,952*
X3267917D03*
G04 #@! TO.N,995*
X2204925Y2302941D03*
G04 #@! TO.N,997*
X2283665D03*
G04 #@! TO.N,1003*
X2362405D03*
G04 #@! TO.N,976*
X2441145D03*
G04 #@! TO.N,978*
X2519885D03*
G04 #@! TO.N,980*
X2598626D03*
G04 #@! TO.N,982*
X2677366D03*
G04 #@! TO.N,984*
X2756106D03*
G04 #@! TO.N,986*
X2834846D03*
G04 #@! TO.N,988*
X2913586D03*
G04 #@! TO.N,992*
X2992326D03*
G04 #@! TO.N,990*
X3071067D03*
G04 #@! TO.N,957*
X3149807D03*
G04 #@! TO.N,956*
X3228547D03*
G04 #@! TO.N,955*
X3307287D03*
G04 #@! TO.N,954*
X3386027D03*
G04 #@! TO.N,879*
X9645669Y3779528D03*
G04 #@! TO.N,880*
X9251968D03*
G04 #@! TO.N,881*
X8858268D03*
G04 #@! TO.N,882*
X8464567D03*
G04 #@! TO.N,883*
X8070866D03*
G04 #@! TO.N,884*
X7677165D03*
G04 #@! TO.N,885*
X7283464D03*
G04 #@! TO.N,886*
X6889764D03*
G04 #@! TO.N,887*
X6496063D03*
G04 #@! TO.N,888*
X6102362D03*
G04 #@! TO.N,889*
X5708661D03*
G04 #@! TO.N,890*
X5314960D03*
G04 #@! TO.N,891*
X4921260D03*
G04 #@! TO.N,892*
X4527559D03*
G04 #@! TO.N,893*
X4133858D03*
G04 #@! TO.N,894*
X3740157D03*
G04 #@! TO.N,895*
X3346456D03*
G04 #@! TO.N,896*
X2952756D03*
G04 #@! TO.N,897*
X2559055D03*
G04 #@! TO.N,898*
X2165354D03*
G04 #@! TO.N,899*
X1771653D03*
G04 #@! TO.N,900*
X1377953D03*
G04 #@! TO.N,901*
X984252D03*
G04 #@! TO.N,902*
X590551D03*
G04 #@! TO.N,903*
X9645669Y3385827D03*
G04 #@! TO.N,904*
X9251968D03*
G04 #@! TO.N,905*
X8858268D03*
G04 #@! TO.N,906*
X8464567D03*
G04 #@! TO.N,907*
X8070866D03*
G04 #@! TO.N,908*
X7677165D03*
G04 #@! TO.N,909*
X7283464D03*
G04 #@! TO.N,910*
X6889764D03*
G04 #@! TO.N,911*
X6496063D03*
G04 #@! TO.N,912*
X6102362D03*
G04 #@! TO.N,913*
X5708661D03*
G04 #@! TO.N,914*
X5314960D03*
G04 #@! TO.N,915*
X4921260D03*
G04 #@! TO.N,916*
X4527559D03*
G04 #@! TO.N,917*
X4133858D03*
G04 #@! TO.N,918*
X3740157D03*
G04 #@! TO.N,919*
X3346456D03*
G04 #@! TO.N,920*
X2952756D03*
G04 #@! TO.N,921*
X2559055D03*
G04 #@! TO.N,922*
X2165354D03*
G04 #@! TO.N,923*
X1771653D03*
G04 #@! TO.N,924*
X1377953D03*
G04 #@! TO.N,925*
X984252D03*
G04 #@! TO.N,926*
X590551D03*
G04 #@! TO.N,927*
X9645669Y2992126D03*
G04 #@! TO.N,928*
X9251968D03*
G04 #@! TO.N,929*
X8858268D03*
G04 #@! TO.N,930*
X8464567D03*
G04 #@! TO.N,931*
X8070866D03*
G04 #@! TO.N,932*
X7677165D03*
G04 #@! TO.N,933*
X7283464D03*
G04 #@! TO.N,934*
X6889764D03*
G04 #@! TO.N,935*
X6496063D03*
G04 #@! TO.N,936*
X6102362D03*
G04 #@! TO.N,937*
X5708661D03*
G04 #@! TO.N,938*
X5314960D03*
G04 #@! TO.N,939*
X4921260D03*
G04 #@! TO.N,940*
X4527559D03*
G04 #@! TO.N,941*
X4133858D03*
G04 #@! TO.N,942*
X3740157D03*
G04 #@! TO.N,943*
X3346456D03*
G04 #@! TO.N,944*
X2952756D03*
G04 #@! TO.N,945*
X2559055D03*
G04 #@! TO.N,946*
X2165354D03*
G04 #@! TO.N,947*
X1771653D03*
G04 #@! TO.N,948*
X1377953D03*
G04 #@! TO.N,949*
X984252D03*
G04 #@! TO.N,950*
X590551D03*
G04 #@! TO.N,951*
X9645669Y2598425D03*
G04 #@! TO.N,952*
X9251968D03*
G04 #@! TO.N,953*
X8858268D03*
G04 #@! TO.N,954*
X8464567D03*
G04 #@! TO.N,955*
X8070866D03*
G04 #@! TO.N,956*
X7677165D03*
G04 #@! TO.N,957*
X7283464D03*
G04 #@! TO.N,958*
X6889764D03*
G04 #@! TO.N,959*
X6496063D03*
G04 #@! TO.N,960*
X6102362D03*
G04 #@! TO.N,961*
X5708661D03*
G04 #@! TO.N,962*
X5314960D03*
G04 #@! TO.N,963*
X4921260D03*
G04 #@! TO.N,964*
X4527559D03*
G04 #@! TO.N,965*
X4133858D03*
G04 #@! TO.N,966*
X3740157D03*
G04 #@! TO.N,967*
X3346456D03*
G04 #@! TO.N,968*
X2952756D03*
G04 #@! TO.N,969*
X2559055D03*
G04 #@! TO.N,970*
X2165354D03*
G04 #@! TO.N,971*
X1771653D03*
G04 #@! TO.N,972*
X1377953D03*
G04 #@! TO.N,973*
X984252D03*
G04 #@! TO.N,974*
X590551D03*
G04 #@! TO.N,975*
X9645669Y2204724D03*
G04 #@! TO.N,976*
X9251968D03*
G04 #@! TO.N,977*
X8858268D03*
G04 #@! TO.N,978*
X8464567D03*
G04 #@! TO.N,979*
X8070866D03*
G04 #@! TO.N,980*
X7677165D03*
G04 #@! TO.N,981*
X7283464D03*
G04 #@! TO.N,982*
X6889764D03*
G04 #@! TO.N,983*
X6496063D03*
G04 #@! TO.N,984*
X6102362D03*
G04 #@! TO.N,985*
X5708661D03*
G04 #@! TO.N,986*
X5314960D03*
G04 #@! TO.N,987*
X4921260D03*
G04 #@! TO.N,988*
X4527559D03*
G04 #@! TO.N,989*
X4133858D03*
G04 #@! TO.N,990*
X3740157D03*
G04 #@! TO.N,991*
X3346456D03*
G04 #@! TO.N,992*
X2952756D03*
G04 #@! TO.N,993*
X2559055D03*
G04 #@! TO.N,994*
X2165354D03*
G04 #@! TO.N,995*
X1771653D03*
G04 #@! TO.N,996*
X1377953D03*
G04 #@! TO.N,997*
X984252D03*
G04 #@! TO.N,998*
X590551D03*
G04 #@! TO.N,999*
X196850Y3779528D03*
G04 #@! TO.N,1000*
Y3385827D03*
G04 #@! TO.N,1001*
Y2992126D03*
G04 #@! TO.N,1002*
Y2598425D03*
G04 #@! TO.N,1003*
Y2204724D03*
G04 #@! TO.N,808*
X1545275Y1417323D03*
G04 #@! TO.N,809*
X984252D03*
G04 #@! TO.N,810*
X757874D03*
G04 #@! TO.N,832*
X1545275Y1023622D03*
G04 #@! TO.N,854*
Y629921D03*
G04 #@! TO.N,876*
Y236220D03*
G04 #@! TO.N,878*
X364173Y1417323D03*
G04 #@! TO.N,1006*
X4389563Y-6353752D03*
G04 #@! TO.N,1004*
X4310823D03*
G04 #@! TO.N,1009*
X4547043D03*
G04 #@! TO.N,1008*
X4468303D03*
G04 #@! TO.N,1013*
X4704524D03*
G04 #@! TO.N,1011*
X4625783D03*
G04 #@! TO.N,1015*
X4783264D03*
G04 #@! TO.N,1017*
X5019484D03*
G04 #@! TO.N,1016*
X4940744D03*
G04 #@! TO.N,1021*
X5176965D03*
G04 #@! TO.N,1019*
X5098224D03*
G04 #@! TO.N,1024*
X5334445D03*
G04 #@! TO.N,1023*
X5255705D03*
G04 #@! TO.N,1124*
X5491925D03*
G04 #@! TO.N,1026*
X5413185D03*
G04 #@! TO.N,1037*
X4330508Y-6712807D03*
G04 #@! TO.N,1036*
X4369878Y-6634067D03*
G04 #@! TO.N,1038*
X4291138D03*
G04 #@! TO.N,1035*
X4409248Y-6712807D03*
G04 #@! TO.N,1033*
X4487988D03*
G04 #@! TO.N,1032*
X4527358Y-6634067D03*
G04 #@! TO.N,1034*
X4448618D03*
G04 #@! TO.N,1031*
X4566728Y-6712807D03*
G04 #@! TO.N,1029*
X4645469D03*
G04 #@! TO.N,1028*
X4684839Y-6634067D03*
G04 #@! TO.N,1030*
X4606098D03*
G04 #@! TO.N,1063*
X4724209Y-6712807D03*
G04 #@! TO.N,1061*
X4802949D03*
G04 #@! TO.N,1060*
X4842319Y-6634067D03*
G04 #@! TO.N,1062*
X4763579D03*
G04 #@! TO.N,1059*
X4881689Y-6712807D03*
G04 #@! TO.N,1069*
X4960429D03*
G04 #@! TO.N,1068*
X4999799Y-6634067D03*
G04 #@! TO.N,1064*
X4921059D03*
G04 #@! TO.N,1067*
X5039169Y-6712807D03*
G04 #@! TO.N,1065*
X5117909D03*
G04 #@! TO.N,1125*
X5157280Y-6634067D03*
G04 #@! TO.N,1066*
X5078539D03*
G04 #@! TO.N,1051*
X5196650Y-6712807D03*
G04 #@! TO.N,1049*
X5275390D03*
G04 #@! TO.N,1048*
X5314760Y-6634067D03*
G04 #@! TO.N,1050*
X5236020D03*
G04 #@! TO.N,1047*
X5354130Y-6712807D03*
G04 #@! TO.N,1045*
X5432870D03*
G04 #@! TO.N,1044*
X5472240Y-6634067D03*
G04 #@! TO.N,1046*
X5393500D03*
G04 #@! TO.N,1043*
X5511610Y-6712807D03*
G04 #@! TO.N,1005*
X4350193Y-6511232D03*
G04 #@! TO.N,1007*
X4428933D03*
G04 #@! TO.N,1039*
X4507673D03*
G04 #@! TO.N,1010*
X4586413D03*
G04 #@! TO.N,1012*
X4665154D03*
G04 #@! TO.N,1014*
X4743894D03*
G04 #@! TO.N,1040*
X4901374D03*
G04 #@! TO.N,1018*
X5058854D03*
G04 #@! TO.N,1020*
X5137594D03*
G04 #@! TO.N,1022*
X5216335D03*
G04 #@! TO.N,1041*
X5295075D03*
G04 #@! TO.N,1025*
X5373815D03*
G04 #@! TO.N,1027*
X5452555D03*
G04 #@! TO.N,1042*
X5531295D03*
G04 #@! TO.N,1091*
X5491925Y-7361626D03*
G04 #@! TO.N,1092*
X5452555Y-7440366D03*
G04 #@! TO.N,1090*
X5531295D03*
G04 #@! TO.N,1093*
X5413185Y-7361626D03*
G04 #@! TO.N,1089*
X5334445D03*
G04 #@! TO.N,1095*
X5295075Y-7440366D03*
G04 #@! TO.N,1094*
X5373815D03*
G04 #@! TO.N,1096*
X5255705Y-7361626D03*
G04 #@! TO.N,1098*
X5176965D03*
G04 #@! TO.N,1099*
X5137594Y-7440366D03*
G04 #@! TO.N,1097*
X5216335D03*
G04 #@! TO.N,1127*
X5098224Y-7361626D03*
G04 #@! TO.N,1074*
X5019484D03*
G04 #@! TO.N,1072*
X4980114Y-7440366D03*
G04 #@! TO.N,1126*
X5058854D03*
G04 #@! TO.N,1070*
X4940744Y-7361626D03*
G04 #@! TO.N,1057*
X4862004D03*
G04 #@! TO.N,1055*
X4822634Y-7440366D03*
G04 #@! TO.N,1088*
X4901374D03*
G04 #@! TO.N,1053*
X4783264Y-7361626D03*
G04 #@! TO.N,1077*
X4704524D03*
G04 #@! TO.N,1078*
X4665154Y-7440366D03*
G04 #@! TO.N,1076*
X4743894D03*
G04 #@! TO.N,1079*
X4625783Y-7361626D03*
G04 #@! TO.N,1087*
X4547043D03*
G04 #@! TO.N,1081*
X4507673Y-7440366D03*
G04 #@! TO.N,1080*
X4586413D03*
G04 #@! TO.N,1082*
X4468303Y-7361626D03*
G04 #@! TO.N,1084*
X4389563D03*
G04 #@! TO.N,1085*
X4350193Y-7440366D03*
G04 #@! TO.N,1083*
X4428933D03*
G04 #@! TO.N,1086*
X4310823Y-7361626D03*
G04 #@! TO.N,1116*
X5432870Y-7720681D03*
G04 #@! TO.N,1114*
X5511610D03*
G04 #@! TO.N,1120*
X5275390D03*
G04 #@! TO.N,1118*
X5354130D03*
G04 #@! TO.N,1128*
X5117909D03*
G04 #@! TO.N,1122*
X5196650D03*
G04 #@! TO.N,1071*
X4960429D03*
G04 #@! TO.N,1075*
X5039169D03*
G04 #@! TO.N,1054*
X4802949D03*
G04 #@! TO.N,1058*
X4881689D03*
G04 #@! TO.N,1102*
X4645469D03*
G04 #@! TO.N,1100*
X4724209D03*
G04 #@! TO.N,1105*
X4487988D03*
G04 #@! TO.N,1104*
X4566728D03*
G04 #@! TO.N,1109*
X4330508D03*
G04 #@! TO.N,1107*
X4409248D03*
G04 #@! TO.N,1115*
X5472240Y-7539578D03*
G04 #@! TO.N,1117*
X5393500D03*
G04 #@! TO.N,1113*
X5314760D03*
G04 #@! TO.N,1119*
X5236020D03*
G04 #@! TO.N,1121*
X5157280D03*
G04 #@! TO.N,1123*
X5078539D03*
G04 #@! TO.N,1073*
X4999799D03*
G04 #@! TO.N,1112*
X4921059D03*
G04 #@! TO.N,1056*
X4842319D03*
G04 #@! TO.N,1052*
X4763579D03*
G04 #@! TO.N,1101*
X4684839D03*
G04 #@! TO.N,1103*
X4606098D03*
G04 #@! TO.N,1111*
X4527358D03*
G04 #@! TO.N,1106*
X4448618D03*
G04 #@! TO.N,1108*
X4369878D03*
G04 #@! TO.N,1110*
X4291138D03*
G04 #@! TO.N,1004*
X196850Y-6062992D03*
G04 #@! TO.N,1005*
X590551D03*
G04 #@! TO.N,1006*
X984252D03*
G04 #@! TO.N,1007*
X1377953D03*
G04 #@! TO.N,1008*
X1771653D03*
G04 #@! TO.N,1009*
X2165354D03*
G04 #@! TO.N,1010*
X2559055D03*
G04 #@! TO.N,1011*
X2952756D03*
G04 #@! TO.N,1012*
X3346456D03*
G04 #@! TO.N,1013*
X3740157D03*
G04 #@! TO.N,1014*
X4133858D03*
G04 #@! TO.N,1015*
X4527559D03*
G04 #@! TO.N,1016*
X4921260D03*
G04 #@! TO.N,1017*
X5314960D03*
G04 #@! TO.N,1018*
X5708661D03*
G04 #@! TO.N,1019*
X6102362D03*
G04 #@! TO.N,1020*
X6496063D03*
G04 #@! TO.N,1021*
X6889764D03*
G04 #@! TO.N,1022*
X7283464D03*
G04 #@! TO.N,1023*
X7677165D03*
G04 #@! TO.N,1024*
X8070866D03*
G04 #@! TO.N,1025*
X8464567D03*
G04 #@! TO.N,1026*
X8858268D03*
G04 #@! TO.N,1027*
X9251968D03*
G04 #@! TO.N,1028*
X196850Y-6456693D03*
G04 #@! TO.N,1029*
X590551D03*
G04 #@! TO.N,1030*
X984252D03*
G04 #@! TO.N,1031*
X1377953D03*
G04 #@! TO.N,1032*
X1771653D03*
G04 #@! TO.N,1033*
X2165354D03*
G04 #@! TO.N,1034*
X2559055D03*
G04 #@! TO.N,1035*
X2952756D03*
G04 #@! TO.N,1036*
X3346456D03*
G04 #@! TO.N,1037*
X3740157D03*
G04 #@! TO.N,1038*
X4133858D03*
G04 #@! TO.N,1039*
X4527559D03*
G04 #@! TO.N,1040*
X4921260D03*
G04 #@! TO.N,1041*
X5314960D03*
G04 #@! TO.N,1042*
X5708661D03*
G04 #@! TO.N,1043*
X6102362D03*
G04 #@! TO.N,1044*
X6496063D03*
G04 #@! TO.N,1045*
X6889764D03*
G04 #@! TO.N,1046*
X7283464D03*
G04 #@! TO.N,1047*
X7677165D03*
G04 #@! TO.N,1048*
X8070866D03*
G04 #@! TO.N,1049*
X8464567D03*
G04 #@! TO.N,1050*
X8858268D03*
G04 #@! TO.N,1051*
X9251968D03*
G04 #@! TO.N,1052*
X196850Y-6850394D03*
G04 #@! TO.N,1053*
X590551D03*
G04 #@! TO.N,1054*
X984252D03*
G04 #@! TO.N,1055*
X1377953D03*
G04 #@! TO.N,1056*
X1771653D03*
G04 #@! TO.N,1057*
X2165354D03*
G04 #@! TO.N,1058*
X2559055D03*
G04 #@! TO.N,1059*
X2952756D03*
G04 #@! TO.N,1060*
X3346456D03*
G04 #@! TO.N,1061*
X3740157D03*
G04 #@! TO.N,1062*
X4133858D03*
G04 #@! TO.N,1063*
X4527559D03*
G04 #@! TO.N,1064*
X4921260D03*
G04 #@! TO.N,1065*
X5314960D03*
G04 #@! TO.N,1066*
X5708661D03*
G04 #@! TO.N,1067*
X6102362D03*
G04 #@! TO.N,1068*
X6496063D03*
G04 #@! TO.N,1069*
X6889764D03*
G04 #@! TO.N,1070*
X7283464D03*
G04 #@! TO.N,1071*
X7677165D03*
G04 #@! TO.N,1072*
X8070866D03*
G04 #@! TO.N,1073*
X8464567D03*
G04 #@! TO.N,1074*
X8858268D03*
G04 #@! TO.N,1075*
X9251968D03*
G04 #@! TO.N,1076*
X196850Y-7244094D03*
G04 #@! TO.N,1077*
X590551D03*
G04 #@! TO.N,1078*
X984252D03*
G04 #@! TO.N,1079*
X1377953D03*
G04 #@! TO.N,1080*
X1771653D03*
G04 #@! TO.N,1081*
X2165354D03*
G04 #@! TO.N,1082*
X2559055D03*
G04 #@! TO.N,1083*
X2952756D03*
G04 #@! TO.N,1084*
X3346456D03*
G04 #@! TO.N,1085*
X3740157D03*
G04 #@! TO.N,1086*
X4133858D03*
G04 #@! TO.N,1087*
X4527559D03*
G04 #@! TO.N,1088*
X4921260D03*
G04 #@! TO.N,1089*
X5314960D03*
G04 #@! TO.N,1090*
X5708661D03*
G04 #@! TO.N,1091*
X6102362D03*
G04 #@! TO.N,1092*
X6496063D03*
G04 #@! TO.N,1093*
X6889764D03*
G04 #@! TO.N,1094*
X7283464D03*
G04 #@! TO.N,1095*
X7677165D03*
G04 #@! TO.N,1096*
X8070866D03*
G04 #@! TO.N,1097*
X8464567D03*
G04 #@! TO.N,1098*
X8858268D03*
G04 #@! TO.N,1099*
X9251968D03*
G04 #@! TO.N,1100*
X196850Y-7637795D03*
G04 #@! TO.N,1101*
X590551D03*
G04 #@! TO.N,1102*
X984252D03*
G04 #@! TO.N,1103*
X1377953D03*
G04 #@! TO.N,1104*
X1771653D03*
G04 #@! TO.N,1105*
X2165354D03*
G04 #@! TO.N,1106*
X2559055D03*
G04 #@! TO.N,1107*
X2952756D03*
G04 #@! TO.N,1108*
X3346456D03*
G04 #@! TO.N,1109*
X3740157D03*
G04 #@! TO.N,1110*
X4133858D03*
G04 #@! TO.N,1111*
X4527559D03*
G04 #@! TO.N,1112*
X4921260D03*
G04 #@! TO.N,1113*
X5314960D03*
G04 #@! TO.N,1114*
X5708661D03*
G04 #@! TO.N,1115*
X6102362D03*
G04 #@! TO.N,1116*
X6496063D03*
G04 #@! TO.N,1117*
X6889764D03*
G04 #@! TO.N,1118*
X7283464D03*
G04 #@! TO.N,1119*
X7677165D03*
G04 #@! TO.N,1120*
X8070866D03*
G04 #@! TO.N,1121*
X8464567D03*
G04 #@! TO.N,1122*
X8858268D03*
G04 #@! TO.N,1123*
X9251968D03*
G04 #@! TO.N,1124*
X9645669Y-6062992D03*
G04 #@! TO.N,1125*
Y-6456693D03*
G04 #@! TO.N,1126*
Y-6850394D03*
G04 #@! TO.N,1127*
Y-7244094D03*
G04 #@! TO.N,1128*
Y-7637795D03*
G04 #@! TO.N,1163*
X6554917Y-4385248D03*
G04 #@! TO.N,1167*
X6476177D03*
G04 #@! TO.N,1155*
X6712398D03*
G04 #@! TO.N,1159*
X6633657D03*
G04 #@! TO.N,1145*
X6869878D03*
G04 #@! TO.N,1141*
X6791138D03*
G04 #@! TO.N,1135*
X7027358D03*
G04 #@! TO.N,1139*
X6948618D03*
G04 #@! TO.N,1131*
X7106098D03*
G04 #@! TO.N,1151*
X7342319D03*
G04 #@! TO.N,1249*
X7263579D03*
G04 #@! TO.N,1176*
X7499799D03*
G04 #@! TO.N,1149*
X7421059D03*
G04 #@! TO.N,1172*
X7657280D03*
G04 #@! TO.N,1174*
X7578539D03*
G04 #@! TO.N,1169*
X6495862Y-4744303D03*
G04 #@! TO.N,1166*
X6535232Y-4665563D03*
G04 #@! TO.N,1168*
X6456492D03*
G04 #@! TO.N,1164*
X6574602Y-4744303D03*
G04 #@! TO.N,1160*
X6653343D03*
G04 #@! TO.N,1158*
X6692713Y-4665563D03*
G04 #@! TO.N,1162*
X6613972D03*
G04 #@! TO.N,1156*
X6732083Y-4744303D03*
G04 #@! TO.N,1142*
X6810823D03*
G04 #@! TO.N,1144*
X6850193Y-4665563D03*
G04 #@! TO.N,1154*
X6771453D03*
G04 #@! TO.N,1140*
X6968303Y-4744303D03*
G04 #@! TO.N,1138*
X7007673Y-4665563D03*
G04 #@! TO.N,1146*
X6928933D03*
G04 #@! TO.N,1136*
X7047043Y-4744303D03*
G04 #@! TO.N,1132*
X7125783D03*
G04 #@! TO.N,1130*
X7165154Y-4665563D03*
G04 #@! TO.N,1134*
X7086413D03*
G04 #@! TO.N,1195*
X7283264Y-4744303D03*
G04 #@! TO.N,1194*
X7322634Y-4665563D03*
G04 #@! TO.N,1171*
X7243894D03*
G04 #@! TO.N,1193*
X7362004Y-4744303D03*
G04 #@! TO.N,1191*
X7440744D03*
G04 #@! TO.N,1190*
X7480114Y-4665563D03*
G04 #@! TO.N,1192*
X7401374D03*
G04 #@! TO.N,1189*
X7519484Y-4744303D03*
G04 #@! TO.N,1187*
X7598224D03*
G04 #@! TO.N,1186*
X7637594Y-4665563D03*
G04 #@! TO.N,1188*
X7558854D03*
G04 #@! TO.N,1185*
X7676965Y-4744303D03*
G04 #@! TO.N,1165*
X6515547Y-4542728D03*
G04 #@! TO.N,1161*
X6594287D03*
G04 #@! TO.N,1157*
X6673028D03*
G04 #@! TO.N,1153*
X6751768D03*
G04 #@! TO.N,1143*
X6830508D03*
G04 #@! TO.N,1170*
X6909248D03*
G04 #@! TO.N,1137*
X6987988D03*
G04 #@! TO.N,1133*
X7066728D03*
G04 #@! TO.N,1129*
X7145469D03*
G04 #@! TO.N,1147*
X7224209D03*
G04 #@! TO.N,1152*
X7302949D03*
G04 #@! TO.N,1150*
X7381689D03*
G04 #@! TO.N,1148*
X7460429D03*
G04 #@! TO.N,1250*
X7539169D03*
G04 #@! TO.N,1175*
X7617909D03*
G04 #@! TO.N,1173*
X7696650D03*
G04 #@! TO.N,1222*
X7657280Y-5393122D03*
G04 #@! TO.N,1223*
X7617909Y-5471862D03*
G04 #@! TO.N,1221*
X7696650D03*
G04 #@! TO.N,1224*
X7578539Y-5393122D03*
G04 #@! TO.N,1220*
X7499799D03*
G04 #@! TO.N,1200*
X7460429Y-5471862D03*
G04 #@! TO.N,1252*
X7539169D03*
G04 #@! TO.N,1251*
X7421059Y-5393122D03*
G04 #@! TO.N,1199*
X7342319D03*
G04 #@! TO.N,1196*
X7302949Y-5471862D03*
G04 #@! TO.N,1198*
X7381689D03*
G04 #@! TO.N,1197*
X7263579Y-5393122D03*
G04 #@! TO.N,1183*
X7184839D03*
G04 #@! TO.N,1184*
X7145469Y-5471862D03*
G04 #@! TO.N,1219*
X7224209D03*
G04 #@! TO.N,1181*
X7106098Y-5393122D03*
G04 #@! TO.N,1179*
X7027358D03*
G04 #@! TO.N,1180*
X6987988Y-5471862D03*
G04 #@! TO.N,1182*
X7066728D03*
G04 #@! TO.N,1177*
X6948618Y-5393122D03*
G04 #@! TO.N,1218*
X6869878D03*
G04 #@! TO.N,1208*
X6830508Y-5471862D03*
G04 #@! TO.N,1178*
X6909248D03*
G04 #@! TO.N,1209*
X6791138Y-5393122D03*
G04 #@! TO.N,1211*
X6712398D03*
G04 #@! TO.N,1212*
X6673028Y-5471862D03*
G04 #@! TO.N,1210*
X6751768D03*
G04 #@! TO.N,1213*
X6633657Y-5393122D03*
G04 #@! TO.N,1215*
X6554917D03*
G04 #@! TO.N,1216*
X6515547Y-5471862D03*
G04 #@! TO.N,1214*
X6594287D03*
G04 #@! TO.N,1217*
X6476177Y-5393122D03*
G04 #@! TO.N,1246*
X7598224Y-5752177D03*
G04 #@! TO.N,1244*
X7676965D03*
G04 #@! TO.N,1225*
X7440744D03*
G04 #@! TO.N,1248*
X7519484D03*
G04 #@! TO.N,1229*
X7283264D03*
G04 #@! TO.N,1227*
X7362004D03*
G04 #@! TO.N,1233*
X7125783D03*
G04 #@! TO.N,1231*
X7204524D03*
G04 #@! TO.N,1237*
X6968303D03*
G04 #@! TO.N,1235*
X7047043D03*
G04 #@! TO.N,1243*
X6810823D03*
G04 #@! TO.N,1239*
X6889563D03*
G04 #@! TO.N,1203*
X6653343D03*
G04 #@! TO.N,1241*
X6732083D03*
G04 #@! TO.N,1201*
X6495862D03*
G04 #@! TO.N,1202*
X6574602D03*
G04 #@! TO.N,1245*
X7637594Y-5571074D03*
G04 #@! TO.N,1247*
X7558854D03*
G04 #@! TO.N,1253*
X7480114D03*
G04 #@! TO.N,1226*
X7401374D03*
G04 #@! TO.N,1228*
X7322634D03*
G04 #@! TO.N,1230*
X7243894D03*
G04 #@! TO.N,1232*
X7165154D03*
G04 #@! TO.N,1234*
X7086413D03*
G04 #@! TO.N,1236*
X7007673D03*
G04 #@! TO.N,1238*
X6928933D03*
G04 #@! TO.N,1242*
X6850193D03*
G04 #@! TO.N,1240*
X6771453D03*
G04 #@! TO.N,1207*
X6692713D03*
G04 #@! TO.N,1206*
X6613972D03*
G04 #@! TO.N,1205*
X6535232D03*
G04 #@! TO.N,1204*
X6456492D03*
G04 #@! TO.N,1129*
X196850Y-4094488D03*
G04 #@! TO.N,1130*
X590551D03*
G04 #@! TO.N,1131*
X984252D03*
G04 #@! TO.N,1132*
X1377953D03*
G04 #@! TO.N,1133*
X1771653D03*
G04 #@! TO.N,1134*
X2165354D03*
G04 #@! TO.N,1135*
X2559055D03*
G04 #@! TO.N,1136*
X2952756D03*
G04 #@! TO.N,1137*
X3346456D03*
G04 #@! TO.N,1138*
X3740157D03*
G04 #@! TO.N,1139*
X4133858D03*
G04 #@! TO.N,1140*
X4527559D03*
G04 #@! TO.N,1141*
X4921260D03*
G04 #@! TO.N,1142*
X5314960D03*
G04 #@! TO.N,1143*
X5708661D03*
G04 #@! TO.N,1144*
X6102362D03*
G04 #@! TO.N,1145*
X6496063D03*
G04 #@! TO.N,1146*
X6889764D03*
G04 #@! TO.N,1147*
X7283464D03*
G04 #@! TO.N,1148*
X7677165D03*
G04 #@! TO.N,1149*
X8070866D03*
G04 #@! TO.N,1150*
X8464567D03*
G04 #@! TO.N,1151*
X8858268D03*
G04 #@! TO.N,1152*
X9251968D03*
G04 #@! TO.N,1153*
X196850Y-4488189D03*
G04 #@! TO.N,1154*
X590551D03*
G04 #@! TO.N,1155*
X984252D03*
G04 #@! TO.N,1156*
X1377953D03*
G04 #@! TO.N,1157*
X1771653D03*
G04 #@! TO.N,1158*
X2165354D03*
G04 #@! TO.N,1159*
X2559055D03*
G04 #@! TO.N,1160*
X2952756D03*
G04 #@! TO.N,1161*
X3346456D03*
G04 #@! TO.N,1162*
X3740157D03*
G04 #@! TO.N,1163*
X4133858D03*
G04 #@! TO.N,1164*
X4527559D03*
G04 #@! TO.N,1165*
X4921260D03*
G04 #@! TO.N,1166*
X5314960D03*
G04 #@! TO.N,1167*
X5708661D03*
G04 #@! TO.N,1168*
X6102362D03*
G04 #@! TO.N,1169*
X6496063D03*
G04 #@! TO.N,1170*
X6889764D03*
G04 #@! TO.N,1171*
X7283464D03*
G04 #@! TO.N,1172*
X7677165D03*
G04 #@! TO.N,1173*
X8070866D03*
G04 #@! TO.N,1174*
X8464567D03*
G04 #@! TO.N,1175*
X8858268D03*
G04 #@! TO.N,1176*
X9251968D03*
G04 #@! TO.N,1177*
X196850Y-4881890D03*
G04 #@! TO.N,1178*
X590551D03*
G04 #@! TO.N,1179*
X984252D03*
G04 #@! TO.N,1180*
X1377953D03*
G04 #@! TO.N,1181*
X1771653D03*
G04 #@! TO.N,1182*
X2165354D03*
G04 #@! TO.N,1183*
X2559055D03*
G04 #@! TO.N,1184*
X2952756D03*
G04 #@! TO.N,1185*
X3346456D03*
G04 #@! TO.N,1186*
X3740157D03*
G04 #@! TO.N,1187*
X4133858D03*
G04 #@! TO.N,1188*
X4527559D03*
G04 #@! TO.N,1189*
X4921260D03*
G04 #@! TO.N,1190*
X5314960D03*
G04 #@! TO.N,1191*
X5708661D03*
G04 #@! TO.N,1192*
X6102362D03*
G04 #@! TO.N,1193*
X6496063D03*
G04 #@! TO.N,1194*
X6889764D03*
G04 #@! TO.N,1195*
X7283464D03*
G04 #@! TO.N,1196*
X7677165D03*
G04 #@! TO.N,1197*
X8070866D03*
G04 #@! TO.N,1198*
X8464567D03*
G04 #@! TO.N,1199*
X8858268D03*
G04 #@! TO.N,1200*
X9251968D03*
G04 #@! TO.N,1201*
X196850Y-5275591D03*
G04 #@! TO.N,1202*
X590551D03*
G04 #@! TO.N,1203*
X984252D03*
G04 #@! TO.N,1204*
X1377953D03*
G04 #@! TO.N,1205*
X1771653D03*
G04 #@! TO.N,1206*
X2165354D03*
G04 #@! TO.N,1207*
X2559055D03*
G04 #@! TO.N,1208*
X2952756D03*
G04 #@! TO.N,1209*
X3346456D03*
G04 #@! TO.N,1210*
X3740157D03*
G04 #@! TO.N,1211*
X4133858D03*
G04 #@! TO.N,1212*
X4527559D03*
G04 #@! TO.N,1213*
X4921260D03*
G04 #@! TO.N,1214*
X5314960D03*
G04 #@! TO.N,1215*
X5708661D03*
G04 #@! TO.N,1216*
X6102362D03*
G04 #@! TO.N,1217*
X6496063D03*
G04 #@! TO.N,1218*
X6889764D03*
G04 #@! TO.N,1219*
X7283464D03*
G04 #@! TO.N,1220*
X7677165D03*
G04 #@! TO.N,1221*
X8070866D03*
G04 #@! TO.N,1222*
X8464567D03*
G04 #@! TO.N,1223*
X8858268D03*
G04 #@! TO.N,1224*
X9251968D03*
G04 #@! TO.N,1225*
X196850Y-5669291D03*
G04 #@! TO.N,1226*
X590551D03*
G04 #@! TO.N,1227*
X984252D03*
G04 #@! TO.N,1228*
X1377953D03*
G04 #@! TO.N,1229*
X1771653D03*
G04 #@! TO.N,1230*
X2165354D03*
G04 #@! TO.N,1231*
X2559055D03*
G04 #@! TO.N,1232*
X2952756D03*
G04 #@! TO.N,1233*
X3346456D03*
G04 #@! TO.N,1234*
X3740157D03*
G04 #@! TO.N,1235*
X4133858D03*
G04 #@! TO.N,1236*
X4527559D03*
G04 #@! TO.N,1237*
X4921260D03*
G04 #@! TO.N,1238*
X5314960D03*
G04 #@! TO.N,1239*
X5708661D03*
G04 #@! TO.N,1240*
X6102362D03*
G04 #@! TO.N,1241*
X6496063D03*
G04 #@! TO.N,1242*
X6889764D03*
G04 #@! TO.N,1243*
X7283464D03*
G04 #@! TO.N,1244*
X7677165D03*
G04 #@! TO.N,1245*
X8070866D03*
G04 #@! TO.N,1246*
X8464567D03*
G04 #@! TO.N,1247*
X8858268D03*
G04 #@! TO.N,1248*
X9251968D03*
G04 #@! TO.N,1249*
X9645669Y-4094488D03*
G04 #@! TO.N,1250*
Y-4488189D03*
G04 #@! TO.N,1251*
Y-4881890D03*
G04 #@! TO.N,1252*
Y-5275591D03*
G04 #@! TO.N,1253*
Y-5669291D03*
G04 #@! TO.N,1256*
X5452956Y-1520264D03*
G04 #@! TO.N,1254*
X5531696D03*
G04 #@! TO.N,1259*
X5295476D03*
G04 #@! TO.N,1258*
X5374216D03*
G04 #@! TO.N,1263*
X5137996D03*
G04 #@! TO.N,1261*
X5216736D03*
G04 #@! TO.N,1265*
X5059256D03*
G04 #@! TO.N,1267*
X4823035D03*
G04 #@! TO.N,1266*
X4901775D03*
G04 #@! TO.N,1271*
X4665555D03*
G04 #@! TO.N,1269*
X4744295D03*
G04 #@! TO.N,1274*
X4508074D03*
G04 #@! TO.N,1273*
X4586815D03*
G04 #@! TO.N,1368*
X4350594D03*
G04 #@! TO.N,1276*
X4429334D03*
G04 #@! TO.N,1287*
X5512011Y-1161209D03*
G04 #@! TO.N,1286*
X5472641Y-1239949D03*
G04 #@! TO.N,1288*
X5551381D03*
G04 #@! TO.N,1285*
X5433271Y-1161209D03*
G04 #@! TO.N,1283*
X5354531D03*
G04 #@! TO.N,1282*
X5315161Y-1239949D03*
G04 #@! TO.N,1284*
X5393901D03*
G04 #@! TO.N,1281*
X5275791Y-1161209D03*
G04 #@! TO.N,1279*
X5197051D03*
G04 #@! TO.N,1278*
X5157681Y-1239949D03*
G04 #@! TO.N,1280*
X5236421D03*
G04 #@! TO.N,1313*
X5118311Y-1161209D03*
G04 #@! TO.N,1311*
X5039570D03*
G04 #@! TO.N,1310*
X5000200Y-1239949D03*
G04 #@! TO.N,1312*
X5078941D03*
G04 #@! TO.N,1309*
X4960830Y-1161209D03*
G04 #@! TO.N,1319*
X4882090D03*
G04 #@! TO.N,1318*
X4842720Y-1239949D03*
G04 #@! TO.N,1314*
X4921460D03*
G04 #@! TO.N,1317*
X4803350Y-1161209D03*
G04 #@! TO.N,1315*
X4724610D03*
G04 #@! TO.N,1369*
X4685240Y-1239949D03*
G04 #@! TO.N,1316*
X4763980D03*
G04 #@! TO.N,1301*
X4645870Y-1161209D03*
G04 #@! TO.N,1299*
X4567130D03*
G04 #@! TO.N,1298*
X4527759Y-1239949D03*
G04 #@! TO.N,1300*
X4606500D03*
G04 #@! TO.N,1297*
X4488389Y-1161209D03*
G04 #@! TO.N,1295*
X4409649D03*
G04 #@! TO.N,1294*
X4370279Y-1239949D03*
G04 #@! TO.N,1296*
X4449019D03*
G04 #@! TO.N,1293*
X4330909Y-1161209D03*
G04 #@! TO.N,1255*
X5492326Y-1362784D03*
G04 #@! TO.N,1257*
X5413586D03*
G04 #@! TO.N,1289*
X5334846D03*
G04 #@! TO.N,1260*
X5256106D03*
G04 #@! TO.N,1262*
X5177366D03*
G04 #@! TO.N,1264*
X5098626D03*
G04 #@! TO.N,1290*
X4941145D03*
G04 #@! TO.N,1268*
X4783665D03*
G04 #@! TO.N,1270*
X4704925D03*
G04 #@! TO.N,1272*
X4626185D03*
G04 #@! TO.N,1291*
X4547444D03*
G04 #@! TO.N,1275*
X4468704D03*
G04 #@! TO.N,1277*
X4389964D03*
G04 #@! TO.N,1292*
X4311224D03*
G04 #@! TO.N,1339*
X4350594Y-512390D03*
G04 #@! TO.N,1340*
X4389964Y-433650D03*
G04 #@! TO.N,1338*
X4311224D03*
G04 #@! TO.N,1341*
X4429334Y-512390D03*
G04 #@! TO.N,1337*
X4508074D03*
G04 #@! TO.N,1343*
X4547444Y-433650D03*
G04 #@! TO.N,1342*
X4468704D03*
G04 #@! TO.N,1344*
X4586815Y-512390D03*
G04 #@! TO.N,1345*
X4626185Y-433650D03*
G04 #@! TO.N,1322*
X4862405D03*
G04 #@! TO.N,1320*
X4901775Y-512390D03*
G04 #@! TO.N,1307*
X4980515D03*
G04 #@! TO.N,1305*
X5019885Y-433650D03*
G04 #@! TO.N,1336*
X4941145D03*
G04 #@! TO.N,1303*
X5059256Y-512390D03*
G04 #@! TO.N,1325*
X5137996D03*
G04 #@! TO.N,1326*
X5177366Y-433650D03*
G04 #@! TO.N,1324*
X5098626D03*
G04 #@! TO.N,1327*
X5216736Y-512390D03*
G04 #@! TO.N,1335*
X5295476D03*
G04 #@! TO.N,1329*
X5334846Y-433650D03*
G04 #@! TO.N,1328*
X5256106D03*
G04 #@! TO.N,1330*
X5374216Y-512390D03*
G04 #@! TO.N,1332*
X5452956D03*
G04 #@! TO.N,1333*
X5492326Y-433650D03*
G04 #@! TO.N,1331*
X5413586D03*
G04 #@! TO.N,1334*
X5531696Y-512390D03*
G04 #@! TO.N,1362*
X4409649Y-153335D03*
G04 #@! TO.N,1360*
X4330909D03*
G04 #@! TO.N,1366*
X4567130D03*
G04 #@! TO.N,1364*
X4488389D03*
G04 #@! TO.N,1321*
X4882090D03*
G04 #@! TO.N,1304*
X5039570D03*
G04 #@! TO.N,1308*
X4960830D03*
G04 #@! TO.N,1348*
X5197051D03*
G04 #@! TO.N,1346*
X5118311D03*
G04 #@! TO.N,1351*
X5354531D03*
G04 #@! TO.N,1350*
X5275791D03*
G04 #@! TO.N,1355*
X5512011D03*
G04 #@! TO.N,1353*
X5433271D03*
G04 #@! TO.N,1361*
X4370279Y-334437D03*
G04 #@! TO.N,1363*
X4449019D03*
G04 #@! TO.N,1359*
X4527759D03*
G04 #@! TO.N,1365*
X4606500D03*
G04 #@! TO.N,1367*
X4685240D03*
G04 #@! TO.N,1323*
X4842720D03*
G04 #@! TO.N,1358*
X4921460D03*
G04 #@! TO.N,1306*
X5000200D03*
G04 #@! TO.N,1302*
X5078941D03*
G04 #@! TO.N,1347*
X5157681D03*
G04 #@! TO.N,1349*
X5236421D03*
G04 #@! TO.N,1357*
X5315161D03*
G04 #@! TO.N,1352*
X5393901D03*
G04 #@! TO.N,1354*
X5472641D03*
G04 #@! TO.N,1356*
X5551381D03*
G04 #@! TO.N,1254*
X9645669Y-1811024D03*
G04 #@! TO.N,1255*
X9251968D03*
G04 #@! TO.N,1256*
X8858268D03*
G04 #@! TO.N,1257*
X8464567D03*
G04 #@! TO.N,1258*
X8070866D03*
G04 #@! TO.N,1259*
X7677165D03*
G04 #@! TO.N,1260*
X7283464D03*
G04 #@! TO.N,1261*
X6889764D03*
G04 #@! TO.N,1262*
X6496063D03*
G04 #@! TO.N,1263*
X6102362D03*
G04 #@! TO.N,1264*
X5708661D03*
G04 #@! TO.N,1265*
X5314960D03*
G04 #@! TO.N,1266*
X4921260D03*
G04 #@! TO.N,1267*
X4527559D03*
G04 #@! TO.N,1268*
X4133858D03*
G04 #@! TO.N,1269*
X3740157D03*
G04 #@! TO.N,1270*
X3346456D03*
G04 #@! TO.N,1271*
X2952756D03*
G04 #@! TO.N,1272*
X2559055D03*
G04 #@! TO.N,1273*
X2165354D03*
G04 #@! TO.N,1274*
X1771653D03*
G04 #@! TO.N,1275*
X1377953D03*
G04 #@! TO.N,1276*
X984252D03*
G04 #@! TO.N,1277*
X590551D03*
G04 #@! TO.N,1278*
X9645669Y-1417323D03*
G04 #@! TO.N,1279*
X9251968D03*
G04 #@! TO.N,1280*
X8858268D03*
G04 #@! TO.N,1281*
X8464567D03*
G04 #@! TO.N,1282*
X8070866D03*
G04 #@! TO.N,1283*
X7677165D03*
G04 #@! TO.N,1284*
X7283464D03*
G04 #@! TO.N,1285*
X6889764D03*
G04 #@! TO.N,1286*
X6496063D03*
G04 #@! TO.N,1287*
X6102362D03*
G04 #@! TO.N,1288*
X5708661D03*
G04 #@! TO.N,1289*
X5314960D03*
G04 #@! TO.N,1290*
X4921260D03*
G04 #@! TO.N,1291*
X4527559D03*
G04 #@! TO.N,1292*
X4133858D03*
G04 #@! TO.N,1293*
X3740157D03*
G04 #@! TO.N,1294*
X3346456D03*
G04 #@! TO.N,1295*
X2952756D03*
G04 #@! TO.N,1296*
X2559055D03*
G04 #@! TO.N,1297*
X2165354D03*
G04 #@! TO.N,1298*
X1771653D03*
G04 #@! TO.N,1302*
X9645669Y-1023622D03*
G04 #@! TO.N,1303*
X9251968D03*
G04 #@! TO.N,1304*
X8858268D03*
G04 #@! TO.N,1305*
X8464567D03*
G04 #@! TO.N,1306*
X8070866D03*
G04 #@! TO.N,1307*
X7677165D03*
G04 #@! TO.N,1308*
X7283464D03*
G04 #@! TO.N,1309*
X6889764D03*
G04 #@! TO.N,1310*
X6496063D03*
G04 #@! TO.N,1311*
X6102362D03*
G04 #@! TO.N,1312*
X5708661D03*
G04 #@! TO.N,1313*
X5314960D03*
G04 #@! TO.N,1314*
X4921260D03*
G04 #@! TO.N,1315*
X4527559D03*
G04 #@! TO.N,1316*
X4133858D03*
G04 #@! TO.N,1317*
X3740157D03*
G04 #@! TO.N,1318*
X3346456D03*
G04 #@! TO.N,1319*
X2952756D03*
G04 #@! TO.N,1320*
X2559055D03*
G04 #@! TO.N,1321*
X2165354D03*
G04 #@! TO.N,1322*
X1771653D03*
G04 #@! TO.N,1324*
X9645669Y-629921D03*
G04 #@! TO.N,1325*
X9251968D03*
G04 #@! TO.N,1326*
X8858268D03*
G04 #@! TO.N,1327*
X8464567D03*
G04 #@! TO.N,1328*
X8070866D03*
G04 #@! TO.N,1329*
X7677165D03*
G04 #@! TO.N,1330*
X7283464D03*
G04 #@! TO.N,1331*
X6889764D03*
G04 #@! TO.N,1332*
X6496063D03*
G04 #@! TO.N,1333*
X6102362D03*
G04 #@! TO.N,1334*
X5708661D03*
G04 #@! TO.N,1335*
X5314960D03*
G04 #@! TO.N,1336*
X4921260D03*
G04 #@! TO.N,1337*
X4527559D03*
G04 #@! TO.N,1338*
X4133858D03*
G04 #@! TO.N,1339*
X3740157D03*
G04 #@! TO.N,1340*
X3346456D03*
G04 #@! TO.N,1341*
X2952756D03*
G04 #@! TO.N,1342*
X2559055D03*
G04 #@! TO.N,1343*
X2165354D03*
G04 #@! TO.N,1344*
X1771653D03*
G04 #@! TO.N,1346*
X9645669Y-236220D03*
G04 #@! TO.N,1347*
X9251968D03*
G04 #@! TO.N,1348*
X8858268D03*
G04 #@! TO.N,1349*
X8464567D03*
G04 #@! TO.N,1350*
X8070866D03*
G04 #@! TO.N,1351*
X7677165D03*
G04 #@! TO.N,1352*
X7283464D03*
G04 #@! TO.N,1353*
X6889764D03*
G04 #@! TO.N,1354*
X6496063D03*
G04 #@! TO.N,1355*
X6102362D03*
G04 #@! TO.N,1356*
X5708661D03*
G04 #@! TO.N,1357*
X5314960D03*
G04 #@! TO.N,1358*
X4921260D03*
G04 #@! TO.N,1359*
X4527559D03*
G04 #@! TO.N,1360*
X4133858D03*
G04 #@! TO.N,1361*
X3740157D03*
G04 #@! TO.N,1362*
X3346456D03*
G04 #@! TO.N,1363*
X2952756D03*
G04 #@! TO.N,1364*
X2559055D03*
G04 #@! TO.N,1365*
X2165354D03*
G04 #@! TO.N,1366*
X1771653D03*
G04 #@! TO.N,1368*
X196850Y-1811024D03*
G04 #@! TO.N,1404*
X3287602Y-3488768D03*
G04 #@! TO.N,1408*
X3366342D03*
G04 #@! TO.N,1396*
X3130122D03*
G04 #@! TO.N,1400*
X3208862D03*
G04 #@! TO.N,1386*
X2972641D03*
G04 #@! TO.N,1382*
X3051381D03*
G04 #@! TO.N,1376*
X2815161D03*
G04 #@! TO.N,1380*
X2893901D03*
G04 #@! TO.N,1372*
X2736421D03*
G04 #@! TO.N,1392*
X2500200D03*
G04 #@! TO.N,1490*
X2578941D03*
G04 #@! TO.N,1417*
X2342720D03*
G04 #@! TO.N,1390*
X2421460D03*
G04 #@! TO.N,1413*
X2185240D03*
G04 #@! TO.N,1415*
X2263980D03*
G04 #@! TO.N,1410*
X3346657Y-3129713D03*
G04 #@! TO.N,1407*
X3307287Y-3208453D03*
G04 #@! TO.N,1409*
X3386027D03*
G04 #@! TO.N,1405*
X3267917Y-3129713D03*
G04 #@! TO.N,1401*
X3189177D03*
G04 #@! TO.N,1399*
X3149807Y-3208453D03*
G04 #@! TO.N,1403*
X3228547D03*
G04 #@! TO.N,1397*
X3110437Y-3129713D03*
G04 #@! TO.N,1383*
X3031696D03*
G04 #@! TO.N,1385*
X2992326Y-3208453D03*
G04 #@! TO.N,1395*
X3071067D03*
G04 #@! TO.N,1381*
X2874216Y-3129713D03*
G04 #@! TO.N,1379*
X2834846Y-3208453D03*
G04 #@! TO.N,1387*
X2913586D03*
G04 #@! TO.N,1377*
X2795476Y-3129713D03*
G04 #@! TO.N,1373*
X2716736D03*
G04 #@! TO.N,1371*
X2677366Y-3208453D03*
G04 #@! TO.N,1375*
X2756106D03*
G04 #@! TO.N,1436*
X2559256Y-3129713D03*
G04 #@! TO.N,1435*
X2519885Y-3208453D03*
G04 #@! TO.N,1412*
X2598626D03*
G04 #@! TO.N,1434*
X2480515Y-3129713D03*
G04 #@! TO.N,1432*
X2401775D03*
G04 #@! TO.N,1431*
X2362405Y-3208453D03*
G04 #@! TO.N,1433*
X2441145D03*
G04 #@! TO.N,1430*
X2323035Y-3129713D03*
G04 #@! TO.N,1428*
X2244295D03*
G04 #@! TO.N,1427*
X2204925Y-3208453D03*
G04 #@! TO.N,1429*
X2283665D03*
G04 #@! TO.N,1426*
X2165555Y-3129713D03*
G04 #@! TO.N,1406*
X3326972Y-3331288D03*
G04 #@! TO.N,1402*
X3248232D03*
G04 #@! TO.N,1398*
X3169492D03*
G04 #@! TO.N,1394*
X3090752D03*
G04 #@! TO.N,1384*
X3012011D03*
G04 #@! TO.N,1411*
X2933271D03*
G04 #@! TO.N,1378*
X2854531D03*
G04 #@! TO.N,1374*
X2775791D03*
G04 #@! TO.N,1370*
X2697051D03*
G04 #@! TO.N,1388*
X2618311D03*
G04 #@! TO.N,1393*
X2539570D03*
G04 #@! TO.N,1391*
X2460830D03*
G04 #@! TO.N,1389*
X2382090D03*
G04 #@! TO.N,1491*
X2303350D03*
G04 #@! TO.N,1416*
X2224610D03*
G04 #@! TO.N,1414*
X2145870D03*
G04 #@! TO.N,1463*
X2185240Y-2480894D03*
G04 #@! TO.N,1464*
X2224610Y-2402154D03*
G04 #@! TO.N,1462*
X2145870D03*
G04 #@! TO.N,1465*
X2263980Y-2480894D03*
G04 #@! TO.N,1461*
X2342720D03*
G04 #@! TO.N,1441*
X2382090Y-2402154D03*
G04 #@! TO.N,1493*
X2303350D03*
G04 #@! TO.N,1492*
X2421460Y-2480894D03*
G04 #@! TO.N,1440*
X2500200D03*
G04 #@! TO.N,1437*
X2539570Y-2402154D03*
G04 #@! TO.N,1439*
X2460830D03*
G04 #@! TO.N,1438*
X2578941Y-2480894D03*
G04 #@! TO.N,1424*
X2657681D03*
G04 #@! TO.N,1425*
X2697051Y-2402154D03*
G04 #@! TO.N,1460*
X2618311D03*
G04 #@! TO.N,1422*
X2736421Y-2480894D03*
G04 #@! TO.N,1420*
X2815161D03*
G04 #@! TO.N,1421*
X2854531Y-2402154D03*
G04 #@! TO.N,1423*
X2775791D03*
G04 #@! TO.N,1418*
X2893901Y-2480894D03*
G04 #@! TO.N,1459*
X2972641D03*
G04 #@! TO.N,1449*
X3012011Y-2402154D03*
G04 #@! TO.N,1419*
X2933271D03*
G04 #@! TO.N,1450*
X3051381Y-2480894D03*
G04 #@! TO.N,1452*
X3130122D03*
G04 #@! TO.N,1453*
X3169492Y-2402154D03*
G04 #@! TO.N,1451*
X3090752D03*
G04 #@! TO.N,1454*
X3208862Y-2480894D03*
G04 #@! TO.N,1456*
X3287602D03*
G04 #@! TO.N,1457*
X3326972Y-2402154D03*
G04 #@! TO.N,1455*
X3248232D03*
G04 #@! TO.N,1458*
X3366342Y-2480894D03*
G04 #@! TO.N,1487*
X2244295Y-2121839D03*
G04 #@! TO.N,1485*
X2165555D03*
G04 #@! TO.N,1466*
X2401775D03*
G04 #@! TO.N,1489*
X2323035D03*
G04 #@! TO.N,1470*
X2559256D03*
G04 #@! TO.N,1468*
X2480515D03*
G04 #@! TO.N,1474*
X2716736D03*
G04 #@! TO.N,1472*
X2637996D03*
G04 #@! TO.N,1478*
X2874216D03*
G04 #@! TO.N,1476*
X2795476D03*
G04 #@! TO.N,1484*
X3031696D03*
G04 #@! TO.N,1480*
X2952956D03*
G04 #@! TO.N,1444*
X3189177D03*
G04 #@! TO.N,1482*
X3110437D03*
G04 #@! TO.N,1442*
X3346657D03*
G04 #@! TO.N,1443*
X3267917D03*
G04 #@! TO.N,1486*
X2204925Y-2302941D03*
G04 #@! TO.N,1488*
X2283665D03*
G04 #@! TO.N,1494*
X2362405D03*
G04 #@! TO.N,1467*
X2441145D03*
G04 #@! TO.N,1469*
X2519885D03*
G04 #@! TO.N,1471*
X2598626D03*
G04 #@! TO.N,1473*
X2677366D03*
G04 #@! TO.N,1475*
X2756106D03*
G04 #@! TO.N,1477*
X2834846D03*
G04 #@! TO.N,1479*
X2913586D03*
G04 #@! TO.N,1483*
X2992326D03*
G04 #@! TO.N,1481*
X3071067D03*
G04 #@! TO.N,1448*
X3149807D03*
G04 #@! TO.N,1447*
X3228547D03*
G04 #@! TO.N,1446*
X3307287D03*
G04 #@! TO.N,1445*
X3386027D03*
G04 #@! TO.N,1370*
X9645669Y-3779528D03*
G04 #@! TO.N,1371*
X9251968D03*
G04 #@! TO.N,1372*
X8858268D03*
G04 #@! TO.N,1373*
X8464567D03*
G04 #@! TO.N,1374*
X8070866D03*
G04 #@! TO.N,1375*
X7677165D03*
G04 #@! TO.N,1376*
X7283464D03*
G04 #@! TO.N,1377*
X6889764D03*
G04 #@! TO.N,1378*
X6496063D03*
G04 #@! TO.N,1379*
X6102362D03*
G04 #@! TO.N,1380*
X5708661D03*
G04 #@! TO.N,1381*
X5314960D03*
G04 #@! TO.N,1382*
X4921260D03*
G04 #@! TO.N,1383*
X4527559D03*
G04 #@! TO.N,1384*
X4133858D03*
G04 #@! TO.N,1385*
X3740157D03*
G04 #@! TO.N,1386*
X3346456D03*
G04 #@! TO.N,1387*
X2952756D03*
G04 #@! TO.N,1388*
X2559055D03*
G04 #@! TO.N,1389*
X2165354D03*
G04 #@! TO.N,1390*
X1771653D03*
G04 #@! TO.N,1391*
X1377953D03*
G04 #@! TO.N,1392*
X984252D03*
G04 #@! TO.N,1393*
X590551D03*
G04 #@! TO.N,1394*
X9645669Y-3385827D03*
G04 #@! TO.N,1395*
X9251968D03*
G04 #@! TO.N,1396*
X8858268D03*
G04 #@! TO.N,1397*
X8464567D03*
G04 #@! TO.N,1398*
X8070866D03*
G04 #@! TO.N,1399*
X7677165D03*
G04 #@! TO.N,1400*
X7283464D03*
G04 #@! TO.N,1401*
X6889764D03*
G04 #@! TO.N,1402*
X6496063D03*
G04 #@! TO.N,1403*
X6102362D03*
G04 #@! TO.N,1404*
X5708661D03*
G04 #@! TO.N,1405*
X5314960D03*
G04 #@! TO.N,1406*
X4921260D03*
G04 #@! TO.N,1407*
X4527559D03*
G04 #@! TO.N,1408*
X4133858D03*
G04 #@! TO.N,1409*
X3740157D03*
G04 #@! TO.N,1410*
X3346456D03*
G04 #@! TO.N,1411*
X2952756D03*
G04 #@! TO.N,1412*
X2559055D03*
G04 #@! TO.N,1413*
X2165354D03*
G04 #@! TO.N,1414*
X1771653D03*
G04 #@! TO.N,1415*
X1377953D03*
G04 #@! TO.N,1416*
X984252D03*
G04 #@! TO.N,1417*
X590551D03*
G04 #@! TO.N,1418*
X9645669Y-2992126D03*
G04 #@! TO.N,1419*
X9251968D03*
G04 #@! TO.N,1420*
X8858268D03*
G04 #@! TO.N,1421*
X8464567D03*
G04 #@! TO.N,1422*
X8070866D03*
G04 #@! TO.N,1423*
X7677165D03*
G04 #@! TO.N,1424*
X7283464D03*
G04 #@! TO.N,1425*
X6889764D03*
G04 #@! TO.N,1426*
X6496063D03*
G04 #@! TO.N,1427*
X6102362D03*
G04 #@! TO.N,1428*
X5708661D03*
G04 #@! TO.N,1429*
X5314960D03*
G04 #@! TO.N,1430*
X4921260D03*
G04 #@! TO.N,1431*
X4527559D03*
G04 #@! TO.N,1432*
X4133858D03*
G04 #@! TO.N,1433*
X3740157D03*
G04 #@! TO.N,1434*
X3346456D03*
G04 #@! TO.N,1435*
X2952756D03*
G04 #@! TO.N,1436*
X2559055D03*
G04 #@! TO.N,1437*
X2165354D03*
G04 #@! TO.N,1438*
X1771653D03*
G04 #@! TO.N,1439*
X1377953D03*
G04 #@! TO.N,1440*
X984252D03*
G04 #@! TO.N,1441*
X590551D03*
G04 #@! TO.N,1442*
X9645669Y-2598425D03*
G04 #@! TO.N,1443*
X9251968D03*
G04 #@! TO.N,1444*
X8858268D03*
G04 #@! TO.N,1445*
X8464567D03*
G04 #@! TO.N,1446*
X8070866D03*
G04 #@! TO.N,1447*
X7677165D03*
G04 #@! TO.N,1448*
X7283464D03*
G04 #@! TO.N,1449*
X6889764D03*
G04 #@! TO.N,1450*
X6496063D03*
G04 #@! TO.N,1451*
X6102362D03*
G04 #@! TO.N,1452*
X5708661D03*
G04 #@! TO.N,1453*
X5314960D03*
G04 #@! TO.N,1454*
X4921260D03*
G04 #@! TO.N,1455*
X4527559D03*
G04 #@! TO.N,1456*
X4133858D03*
G04 #@! TO.N,1457*
X3740157D03*
G04 #@! TO.N,1458*
X3346456D03*
G04 #@! TO.N,1459*
X2952756D03*
G04 #@! TO.N,1460*
X2559055D03*
G04 #@! TO.N,1461*
X2165354D03*
G04 #@! TO.N,1462*
X1771653D03*
G04 #@! TO.N,1463*
X1377953D03*
G04 #@! TO.N,1464*
X984252D03*
G04 #@! TO.N,1465*
X590551D03*
G04 #@! TO.N,1466*
X9645669Y-2204724D03*
G04 #@! TO.N,1467*
X9251968D03*
G04 #@! TO.N,1468*
X8858268D03*
G04 #@! TO.N,1469*
X8464567D03*
G04 #@! TO.N,1470*
X8070866D03*
G04 #@! TO.N,1471*
X7677165D03*
G04 #@! TO.N,1472*
X7283464D03*
G04 #@! TO.N,1473*
X6889764D03*
G04 #@! TO.N,1474*
X6496063D03*
G04 #@! TO.N,1475*
X6102362D03*
G04 #@! TO.N,1476*
X5708661D03*
G04 #@! TO.N,1477*
X5314960D03*
G04 #@! TO.N,1478*
X4921260D03*
G04 #@! TO.N,1479*
X4527559D03*
G04 #@! TO.N,1480*
X4133858D03*
G04 #@! TO.N,1481*
X3740157D03*
G04 #@! TO.N,1482*
X3346456D03*
G04 #@! TO.N,1483*
X2952756D03*
G04 #@! TO.N,1484*
X2559055D03*
G04 #@! TO.N,1485*
X2165354D03*
G04 #@! TO.N,1486*
X1771653D03*
G04 #@! TO.N,1487*
X1377953D03*
G04 #@! TO.N,1488*
X984252D03*
G04 #@! TO.N,1489*
X590551D03*
G04 #@! TO.N,1490*
X196850Y-3779528D03*
G04 #@! TO.N,1491*
Y-3385827D03*
G04 #@! TO.N,1492*
Y-2992126D03*
G04 #@! TO.N,1493*
Y-2598425D03*
G04 #@! TO.N,1494*
Y-2204724D03*
G04 #@! TO.N,1299*
X1545275Y-1417323D03*
G04 #@! TO.N,1300*
X984252D03*
G04 #@! TO.N,1301*
X757874D03*
G04 #@! TO.N,1323*
X1545275Y-1023622D03*
G04 #@! TO.N,1345*
Y-629921D03*
G04 #@! TO.N,1367*
Y-236220D03*
G04 #@! TO.N,1369*
X364173Y-1417323D03*
G04 #@! TO.N,1497*
X-4389563Y-6353752D03*
G04 #@! TO.N,1495*
X-4310823D03*
G04 #@! TO.N,1500*
X-4547043D03*
G04 #@! TO.N,1499*
X-4468303D03*
G04 #@! TO.N,1504*
X-4704524D03*
G04 #@! TO.N,1502*
X-4625783D03*
G04 #@! TO.N,1506*
X-4783264D03*
G04 #@! TO.N,1508*
X-5019484D03*
G04 #@! TO.N,1507*
X-4940744D03*
G04 #@! TO.N,1512*
X-5176965D03*
G04 #@! TO.N,1510*
X-5098224D03*
G04 #@! TO.N,1515*
X-5334445D03*
G04 #@! TO.N,1514*
X-5255705D03*
G04 #@! TO.N,1615*
X-5491925D03*
G04 #@! TO.N,1517*
X-5413185D03*
G04 #@! TO.N,1528*
X-4330508Y-6712807D03*
G04 #@! TO.N,1527*
X-4369878Y-6634067D03*
G04 #@! TO.N,1529*
X-4291138D03*
G04 #@! TO.N,1526*
X-4409248Y-6712807D03*
G04 #@! TO.N,1524*
X-4487988D03*
G04 #@! TO.N,1523*
X-4527358Y-6634067D03*
G04 #@! TO.N,1525*
X-4448618D03*
G04 #@! TO.N,1522*
X-4566728Y-6712807D03*
G04 #@! TO.N,1520*
X-4645469D03*
G04 #@! TO.N,1519*
X-4684839Y-6634067D03*
G04 #@! TO.N,1521*
X-4606098D03*
G04 #@! TO.N,1554*
X-4724209Y-6712807D03*
G04 #@! TO.N,1552*
X-4802949D03*
G04 #@! TO.N,1551*
X-4842319Y-6634067D03*
G04 #@! TO.N,1553*
X-4763579D03*
G04 #@! TO.N,1550*
X-4881689Y-6712807D03*
G04 #@! TO.N,1560*
X-4960429D03*
G04 #@! TO.N,1559*
X-4999799Y-6634067D03*
G04 #@! TO.N,1555*
X-4921059D03*
G04 #@! TO.N,1558*
X-5039169Y-6712807D03*
G04 #@! TO.N,1556*
X-5117909D03*
G04 #@! TO.N,1616*
X-5157280Y-6634067D03*
G04 #@! TO.N,1557*
X-5078539D03*
G04 #@! TO.N,1542*
X-5196650Y-6712807D03*
G04 #@! TO.N,1540*
X-5275390D03*
G04 #@! TO.N,1539*
X-5314760Y-6634067D03*
G04 #@! TO.N,1541*
X-5236020D03*
G04 #@! TO.N,1538*
X-5354130Y-6712807D03*
G04 #@! TO.N,1536*
X-5432870D03*
G04 #@! TO.N,1535*
X-5472240Y-6634067D03*
G04 #@! TO.N,1537*
X-5393500D03*
G04 #@! TO.N,1534*
X-5511610Y-6712807D03*
G04 #@! TO.N,1496*
X-4350193Y-6511232D03*
G04 #@! TO.N,1498*
X-4428933D03*
G04 #@! TO.N,1530*
X-4507673D03*
G04 #@! TO.N,1501*
X-4586413D03*
G04 #@! TO.N,1503*
X-4665154D03*
G04 #@! TO.N,1505*
X-4743894D03*
G04 #@! TO.N,1531*
X-4901374D03*
G04 #@! TO.N,1509*
X-5058854D03*
G04 #@! TO.N,1511*
X-5137594D03*
G04 #@! TO.N,1513*
X-5216335D03*
G04 #@! TO.N,1532*
X-5295075D03*
G04 #@! TO.N,1516*
X-5373815D03*
G04 #@! TO.N,1518*
X-5452555D03*
G04 #@! TO.N,1533*
X-5531295D03*
G04 #@! TO.N,1582*
X-5491925Y-7361626D03*
G04 #@! TO.N,1583*
X-5452555Y-7440366D03*
G04 #@! TO.N,1581*
X-5531295D03*
G04 #@! TO.N,1584*
X-5413185Y-7361626D03*
G04 #@! TO.N,1580*
X-5334445D03*
G04 #@! TO.N,1586*
X-5295075Y-7440366D03*
G04 #@! TO.N,1585*
X-5373815D03*
G04 #@! TO.N,1587*
X-5255705Y-7361626D03*
G04 #@! TO.N,1589*
X-5176965D03*
G04 #@! TO.N,1590*
X-5137594Y-7440366D03*
G04 #@! TO.N,1588*
X-5216335D03*
G04 #@! TO.N,1618*
X-5098224Y-7361626D03*
G04 #@! TO.N,1565*
X-5019484D03*
G04 #@! TO.N,1563*
X-4980114Y-7440366D03*
G04 #@! TO.N,1617*
X-5058854D03*
G04 #@! TO.N,1561*
X-4940744Y-7361626D03*
G04 #@! TO.N,1548*
X-4862004D03*
G04 #@! TO.N,1546*
X-4822634Y-7440366D03*
G04 #@! TO.N,1579*
X-4901374D03*
G04 #@! TO.N,1544*
X-4783264Y-7361626D03*
G04 #@! TO.N,1568*
X-4704524D03*
G04 #@! TO.N,1569*
X-4665154Y-7440366D03*
G04 #@! TO.N,1567*
X-4743894D03*
G04 #@! TO.N,1570*
X-4625783Y-7361626D03*
G04 #@! TO.N,1578*
X-4547043D03*
G04 #@! TO.N,1572*
X-4507673Y-7440366D03*
G04 #@! TO.N,1571*
X-4586413D03*
G04 #@! TO.N,1573*
X-4468303Y-7361626D03*
G04 #@! TO.N,1575*
X-4389563D03*
G04 #@! TO.N,1576*
X-4350193Y-7440366D03*
G04 #@! TO.N,1574*
X-4428933D03*
G04 #@! TO.N,1577*
X-4310823Y-7361626D03*
G04 #@! TO.N,1607*
X-5432870Y-7720681D03*
G04 #@! TO.N,1605*
X-5511610D03*
G04 #@! TO.N,1611*
X-5275390D03*
G04 #@! TO.N,1609*
X-5354130D03*
G04 #@! TO.N,1619*
X-5117909D03*
G04 #@! TO.N,1613*
X-5196650D03*
G04 #@! TO.N,1562*
X-4960429D03*
G04 #@! TO.N,1566*
X-5039169D03*
G04 #@! TO.N,1545*
X-4802949D03*
G04 #@! TO.N,1549*
X-4881689D03*
G04 #@! TO.N,1593*
X-4645469D03*
G04 #@! TO.N,1591*
X-4724209D03*
G04 #@! TO.N,1596*
X-4487988D03*
G04 #@! TO.N,1595*
X-4566728D03*
G04 #@! TO.N,1600*
X-4330508D03*
G04 #@! TO.N,1598*
X-4409248D03*
G04 #@! TO.N,1606*
X-5472240Y-7539578D03*
G04 #@! TO.N,1608*
X-5393500D03*
G04 #@! TO.N,1604*
X-5314760D03*
G04 #@! TO.N,1610*
X-5236020D03*
G04 #@! TO.N,1612*
X-5157280D03*
G04 #@! TO.N,1614*
X-5078539D03*
G04 #@! TO.N,1564*
X-4999799D03*
G04 #@! TO.N,1603*
X-4921059D03*
G04 #@! TO.N,1547*
X-4842319D03*
G04 #@! TO.N,1543*
X-4763579D03*
G04 #@! TO.N,1592*
X-4684839D03*
G04 #@! TO.N,1594*
X-4606098D03*
G04 #@! TO.N,1602*
X-4527358D03*
G04 #@! TO.N,1597*
X-4448618D03*
G04 #@! TO.N,1599*
X-4369878D03*
G04 #@! TO.N,1601*
X-4291138D03*
G04 #@! TO.N,1495*
X-196850Y-6062992D03*
G04 #@! TO.N,1496*
X-590551D03*
G04 #@! TO.N,1497*
X-984252D03*
G04 #@! TO.N,1498*
X-1377953D03*
G04 #@! TO.N,1499*
X-1771653D03*
G04 #@! TO.N,1500*
X-2165354D03*
G04 #@! TO.N,1501*
X-2559055D03*
G04 #@! TO.N,1502*
X-2952756D03*
G04 #@! TO.N,1503*
X-3346456D03*
G04 #@! TO.N,1504*
X-3740157D03*
G04 #@! TO.N,1505*
X-4133858D03*
G04 #@! TO.N,1506*
X-4527559D03*
G04 #@! TO.N,1507*
X-4921260D03*
G04 #@! TO.N,1508*
X-5314960D03*
G04 #@! TO.N,1509*
X-5708661D03*
G04 #@! TO.N,1510*
X-6102362D03*
G04 #@! TO.N,1511*
X-6496063D03*
G04 #@! TO.N,1512*
X-6889764D03*
G04 #@! TO.N,1513*
X-7283464D03*
G04 #@! TO.N,1514*
X-7677165D03*
G04 #@! TO.N,1515*
X-8070866D03*
G04 #@! TO.N,1516*
X-8464567D03*
G04 #@! TO.N,1517*
X-8858268D03*
G04 #@! TO.N,1518*
X-9251968D03*
G04 #@! TO.N,1519*
X-196850Y-6456693D03*
G04 #@! TO.N,1520*
X-590551D03*
G04 #@! TO.N,1521*
X-984252D03*
G04 #@! TO.N,1522*
X-1377953D03*
G04 #@! TO.N,1523*
X-1771653D03*
G04 #@! TO.N,1524*
X-2165354D03*
G04 #@! TO.N,1525*
X-2559055D03*
G04 #@! TO.N,1526*
X-2952756D03*
G04 #@! TO.N,1527*
X-3346456D03*
G04 #@! TO.N,1528*
X-3740157D03*
G04 #@! TO.N,1529*
X-4133858D03*
G04 #@! TO.N,1530*
X-4527559D03*
G04 #@! TO.N,1531*
X-4921260D03*
G04 #@! TO.N,1532*
X-5314960D03*
G04 #@! TO.N,1533*
X-5708661D03*
G04 #@! TO.N,1534*
X-6102362D03*
G04 #@! TO.N,1535*
X-6496063D03*
G04 #@! TO.N,1536*
X-6889764D03*
G04 #@! TO.N,1537*
X-7283464D03*
G04 #@! TO.N,1538*
X-7677165D03*
G04 #@! TO.N,1539*
X-8070866D03*
G04 #@! TO.N,1540*
X-8464567D03*
G04 #@! TO.N,1541*
X-8858268D03*
G04 #@! TO.N,1542*
X-9251968D03*
G04 #@! TO.N,1543*
X-196850Y-6850394D03*
G04 #@! TO.N,1544*
X-590551D03*
G04 #@! TO.N,1545*
X-984252D03*
G04 #@! TO.N,1546*
X-1377953D03*
G04 #@! TO.N,1547*
X-1771653D03*
G04 #@! TO.N,1548*
X-2165354D03*
G04 #@! TO.N,1549*
X-2559055D03*
G04 #@! TO.N,1550*
X-2952756D03*
G04 #@! TO.N,1551*
X-3346456D03*
G04 #@! TO.N,1552*
X-3740157D03*
G04 #@! TO.N,1553*
X-4133858D03*
G04 #@! TO.N,1554*
X-4527559D03*
G04 #@! TO.N,1555*
X-4921260D03*
G04 #@! TO.N,1556*
X-5314960D03*
G04 #@! TO.N,1557*
X-5708661D03*
G04 #@! TO.N,1558*
X-6102362D03*
G04 #@! TO.N,1559*
X-6496063D03*
G04 #@! TO.N,1560*
X-6889764D03*
G04 #@! TO.N,1561*
X-7283464D03*
G04 #@! TO.N,1562*
X-7677165D03*
G04 #@! TO.N,1563*
X-8070866D03*
G04 #@! TO.N,1564*
X-8464567D03*
G04 #@! TO.N,1565*
X-8858268D03*
G04 #@! TO.N,1566*
X-9251968D03*
G04 #@! TO.N,1567*
X-196850Y-7244094D03*
G04 #@! TO.N,1568*
X-590551D03*
G04 #@! TO.N,1569*
X-984252D03*
G04 #@! TO.N,1570*
X-1377953D03*
G04 #@! TO.N,1571*
X-1771653D03*
G04 #@! TO.N,1572*
X-2165354D03*
G04 #@! TO.N,1573*
X-2559055D03*
G04 #@! TO.N,1574*
X-2952756D03*
G04 #@! TO.N,1575*
X-3346456D03*
G04 #@! TO.N,1576*
X-3740157D03*
G04 #@! TO.N,1577*
X-4133858D03*
G04 #@! TO.N,1578*
X-4527559D03*
G04 #@! TO.N,1579*
X-4921260D03*
G04 #@! TO.N,1580*
X-5314960D03*
G04 #@! TO.N,1581*
X-5708661D03*
G04 #@! TO.N,1582*
X-6102362D03*
G04 #@! TO.N,1583*
X-6496063D03*
G04 #@! TO.N,1584*
X-6889764D03*
G04 #@! TO.N,1585*
X-7283464D03*
G04 #@! TO.N,1586*
X-7677165D03*
G04 #@! TO.N,1587*
X-8070866D03*
G04 #@! TO.N,1588*
X-8464567D03*
G04 #@! TO.N,1589*
X-8858268D03*
G04 #@! TO.N,1590*
X-9251968D03*
G04 #@! TO.N,1591*
X-196850Y-7637795D03*
G04 #@! TO.N,1592*
X-590551D03*
G04 #@! TO.N,1593*
X-984252D03*
G04 #@! TO.N,1594*
X-1377953D03*
G04 #@! TO.N,1595*
X-1771653D03*
G04 #@! TO.N,1596*
X-2165354D03*
G04 #@! TO.N,1597*
X-2559055D03*
G04 #@! TO.N,1598*
X-2952756D03*
G04 #@! TO.N,1599*
X-3346456D03*
G04 #@! TO.N,1600*
X-3740157D03*
G04 #@! TO.N,1601*
X-4133858D03*
G04 #@! TO.N,1602*
X-4527559D03*
G04 #@! TO.N,1603*
X-4921260D03*
G04 #@! TO.N,1604*
X-5314960D03*
G04 #@! TO.N,1605*
X-5708661D03*
G04 #@! TO.N,1606*
X-6102362D03*
G04 #@! TO.N,1607*
X-6496063D03*
G04 #@! TO.N,1608*
X-6889764D03*
G04 #@! TO.N,1609*
X-7283464D03*
G04 #@! TO.N,1610*
X-7677165D03*
G04 #@! TO.N,1611*
X-8070866D03*
G04 #@! TO.N,1612*
X-8464567D03*
G04 #@! TO.N,1613*
X-8858268D03*
G04 #@! TO.N,1614*
X-9251968D03*
G04 #@! TO.N,1615*
X-9645669Y-6062992D03*
G04 #@! TO.N,1616*
Y-6456693D03*
G04 #@! TO.N,1617*
Y-6850394D03*
G04 #@! TO.N,1618*
Y-7244094D03*
G04 #@! TO.N,1619*
Y-7637795D03*
G04 #@! TO.N,1654*
X-6554917Y-4385248D03*
G04 #@! TO.N,1658*
X-6476177D03*
G04 #@! TO.N,1646*
X-6712398D03*
G04 #@! TO.N,1650*
X-6633657D03*
G04 #@! TO.N,1636*
X-6869878D03*
G04 #@! TO.N,1632*
X-6791138D03*
G04 #@! TO.N,1626*
X-7027358D03*
G04 #@! TO.N,1630*
X-6948618D03*
G04 #@! TO.N,1622*
X-7106098D03*
G04 #@! TO.N,1642*
X-7342319D03*
G04 #@! TO.N,1740*
X-7263579D03*
G04 #@! TO.N,1667*
X-7499799D03*
G04 #@! TO.N,1640*
X-7421059D03*
G04 #@! TO.N,1663*
X-7657280D03*
G04 #@! TO.N,1665*
X-7578539D03*
G04 #@! TO.N,1660*
X-6495862Y-4744303D03*
G04 #@! TO.N,1657*
X-6535232Y-4665563D03*
G04 #@! TO.N,1659*
X-6456492D03*
G04 #@! TO.N,1655*
X-6574602Y-4744303D03*
G04 #@! TO.N,1651*
X-6653343D03*
G04 #@! TO.N,1649*
X-6692713Y-4665563D03*
G04 #@! TO.N,1653*
X-6613972D03*
G04 #@! TO.N,1647*
X-6732083Y-4744303D03*
G04 #@! TO.N,1633*
X-6810823D03*
G04 #@! TO.N,1635*
X-6850193Y-4665563D03*
G04 #@! TO.N,1645*
X-6771453D03*
G04 #@! TO.N,1631*
X-6968303Y-4744303D03*
G04 #@! TO.N,1629*
X-7007673Y-4665563D03*
G04 #@! TO.N,1637*
X-6928933D03*
G04 #@! TO.N,1627*
X-7047043Y-4744303D03*
G04 #@! TO.N,1623*
X-7125783D03*
G04 #@! TO.N,1621*
X-7165154Y-4665563D03*
G04 #@! TO.N,1625*
X-7086413D03*
G04 #@! TO.N,1686*
X-7283264Y-4744303D03*
G04 #@! TO.N,1685*
X-7322634Y-4665563D03*
G04 #@! TO.N,1662*
X-7243894D03*
G04 #@! TO.N,1684*
X-7362004Y-4744303D03*
G04 #@! TO.N,1682*
X-7440744D03*
G04 #@! TO.N,1681*
X-7480114Y-4665563D03*
G04 #@! TO.N,1683*
X-7401374D03*
G04 #@! TO.N,1680*
X-7519484Y-4744303D03*
G04 #@! TO.N,1678*
X-7598224D03*
G04 #@! TO.N,1677*
X-7637594Y-4665563D03*
G04 #@! TO.N,1679*
X-7558854D03*
G04 #@! TO.N,1676*
X-7676965Y-4744303D03*
G04 #@! TO.N,1656*
X-6515547Y-4542728D03*
G04 #@! TO.N,1652*
X-6594287D03*
G04 #@! TO.N,1648*
X-6673028D03*
G04 #@! TO.N,1644*
X-6751768D03*
G04 #@! TO.N,1634*
X-6830508D03*
G04 #@! TO.N,1661*
X-6909248D03*
G04 #@! TO.N,1628*
X-6987988D03*
G04 #@! TO.N,1624*
X-7066728D03*
G04 #@! TO.N,1620*
X-7145469D03*
G04 #@! TO.N,1638*
X-7224209D03*
G04 #@! TO.N,1643*
X-7302949D03*
G04 #@! TO.N,1641*
X-7381689D03*
G04 #@! TO.N,1639*
X-7460429D03*
G04 #@! TO.N,1741*
X-7539169D03*
G04 #@! TO.N,1666*
X-7617909D03*
G04 #@! TO.N,1664*
X-7696650D03*
G04 #@! TO.N,1713*
X-7657280Y-5393122D03*
G04 #@! TO.N,1714*
X-7617909Y-5471862D03*
G04 #@! TO.N,1712*
X-7696650D03*
G04 #@! TO.N,1715*
X-7578539Y-5393122D03*
G04 #@! TO.N,1711*
X-7499799D03*
G04 #@! TO.N,1691*
X-7460429Y-5471862D03*
G04 #@! TO.N,1743*
X-7539169D03*
G04 #@! TO.N,1742*
X-7421059Y-5393122D03*
G04 #@! TO.N,1690*
X-7342319D03*
G04 #@! TO.N,1687*
X-7302949Y-5471862D03*
G04 #@! TO.N,1689*
X-7381689D03*
G04 #@! TO.N,1688*
X-7263579Y-5393122D03*
G04 #@! TO.N,1674*
X-7184839D03*
G04 #@! TO.N,1675*
X-7145469Y-5471862D03*
G04 #@! TO.N,1710*
X-7224209D03*
G04 #@! TO.N,1672*
X-7106098Y-5393122D03*
G04 #@! TO.N,1670*
X-7027358D03*
G04 #@! TO.N,1671*
X-6987988Y-5471862D03*
G04 #@! TO.N,1673*
X-7066728D03*
G04 #@! TO.N,1668*
X-6948618Y-5393122D03*
G04 #@! TO.N,1709*
X-6869878D03*
G04 #@! TO.N,1699*
X-6830508Y-5471862D03*
G04 #@! TO.N,1669*
X-6909248D03*
G04 #@! TO.N,1700*
X-6791138Y-5393122D03*
G04 #@! TO.N,1702*
X-6712398D03*
G04 #@! TO.N,1703*
X-6673028Y-5471862D03*
G04 #@! TO.N,1701*
X-6751768D03*
G04 #@! TO.N,1704*
X-6633657Y-5393122D03*
G04 #@! TO.N,1706*
X-6554917D03*
G04 #@! TO.N,1707*
X-6515547Y-5471862D03*
G04 #@! TO.N,1705*
X-6594287D03*
G04 #@! TO.N,1708*
X-6476177Y-5393122D03*
G04 #@! TO.N,1737*
X-7598224Y-5752177D03*
G04 #@! TO.N,1735*
X-7676965D03*
G04 #@! TO.N,1716*
X-7440744D03*
G04 #@! TO.N,1739*
X-7519484D03*
G04 #@! TO.N,1720*
X-7283264D03*
G04 #@! TO.N,1718*
X-7362004D03*
G04 #@! TO.N,1724*
X-7125783D03*
G04 #@! TO.N,1722*
X-7204524D03*
G04 #@! TO.N,1728*
X-6968303D03*
G04 #@! TO.N,1726*
X-7047043D03*
G04 #@! TO.N,1734*
X-6810823D03*
G04 #@! TO.N,1730*
X-6889563D03*
G04 #@! TO.N,1694*
X-6653343D03*
G04 #@! TO.N,1732*
X-6732083D03*
G04 #@! TO.N,1692*
X-6495862D03*
G04 #@! TO.N,1693*
X-6574602D03*
G04 #@! TO.N,1736*
X-7637594Y-5571074D03*
G04 #@! TO.N,1738*
X-7558854D03*
G04 #@! TO.N,1744*
X-7480114D03*
G04 #@! TO.N,1717*
X-7401374D03*
G04 #@! TO.N,1719*
X-7322634D03*
G04 #@! TO.N,1721*
X-7243894D03*
G04 #@! TO.N,1723*
X-7165154D03*
G04 #@! TO.N,1725*
X-7086413D03*
G04 #@! TO.N,1727*
X-7007673D03*
G04 #@! TO.N,1729*
X-6928933D03*
G04 #@! TO.N,1733*
X-6850193D03*
G04 #@! TO.N,1731*
X-6771453D03*
G04 #@! TO.N,1698*
X-6692713D03*
G04 #@! TO.N,1697*
X-6613972D03*
G04 #@! TO.N,1696*
X-6535232D03*
G04 #@! TO.N,1695*
X-6456492D03*
G04 #@! TO.N,1620*
X-196850Y-4094488D03*
G04 #@! TO.N,1621*
X-590551D03*
G04 #@! TO.N,1622*
X-984252D03*
G04 #@! TO.N,1623*
X-1377953D03*
G04 #@! TO.N,1624*
X-1771653D03*
G04 #@! TO.N,1625*
X-2165354D03*
G04 #@! TO.N,1626*
X-2559055D03*
G04 #@! TO.N,1627*
X-2952756D03*
G04 #@! TO.N,1628*
X-3346456D03*
G04 #@! TO.N,1629*
X-3740157D03*
G04 #@! TO.N,1630*
X-4133858D03*
G04 #@! TO.N,1631*
X-4527559D03*
G04 #@! TO.N,1632*
X-4921260D03*
G04 #@! TO.N,1633*
X-5314960D03*
G04 #@! TO.N,1634*
X-5708661D03*
G04 #@! TO.N,1635*
X-6102362D03*
G04 #@! TO.N,1636*
X-6496063D03*
G04 #@! TO.N,1637*
X-6889764D03*
G04 #@! TO.N,1638*
X-7283464D03*
G04 #@! TO.N,1639*
X-7677165D03*
G04 #@! TO.N,1640*
X-8070866D03*
G04 #@! TO.N,1641*
X-8464567D03*
G04 #@! TO.N,1642*
X-8858268D03*
G04 #@! TO.N,1643*
X-9251968D03*
G04 #@! TO.N,1644*
X-196850Y-4488189D03*
G04 #@! TO.N,1645*
X-590551D03*
G04 #@! TO.N,1646*
X-984252D03*
G04 #@! TO.N,1647*
X-1377953D03*
G04 #@! TO.N,1648*
X-1771653D03*
G04 #@! TO.N,1649*
X-2165354D03*
G04 #@! TO.N,1650*
X-2559055D03*
G04 #@! TO.N,1651*
X-2952756D03*
G04 #@! TO.N,1652*
X-3346456D03*
G04 #@! TO.N,1653*
X-3740157D03*
G04 #@! TO.N,1654*
X-4133858D03*
G04 #@! TO.N,1655*
X-4527559D03*
G04 #@! TO.N,1656*
X-4921260D03*
G04 #@! TO.N,1657*
X-5314960D03*
G04 #@! TO.N,1658*
X-5708661D03*
G04 #@! TO.N,1659*
X-6102362D03*
G04 #@! TO.N,1660*
X-6496063D03*
G04 #@! TO.N,1661*
X-6889764D03*
G04 #@! TO.N,1662*
X-7283464D03*
G04 #@! TO.N,1663*
X-7677165D03*
G04 #@! TO.N,1664*
X-8070866D03*
G04 #@! TO.N,1665*
X-8464567D03*
G04 #@! TO.N,1666*
X-8858268D03*
G04 #@! TO.N,1667*
X-9251968D03*
G04 #@! TO.N,1668*
X-196850Y-4881890D03*
G04 #@! TO.N,1669*
X-590551D03*
G04 #@! TO.N,1670*
X-984252D03*
G04 #@! TO.N,1671*
X-1377953D03*
G04 #@! TO.N,1672*
X-1771653D03*
G04 #@! TO.N,1673*
X-2165354D03*
G04 #@! TO.N,1674*
X-2559055D03*
G04 #@! TO.N,1675*
X-2952756D03*
G04 #@! TO.N,1676*
X-3346456D03*
G04 #@! TO.N,1677*
X-3740157D03*
G04 #@! TO.N,1678*
X-4133858D03*
G04 #@! TO.N,1679*
X-4527559D03*
G04 #@! TO.N,1680*
X-4921260D03*
G04 #@! TO.N,1681*
X-5314960D03*
G04 #@! TO.N,1682*
X-5708661D03*
G04 #@! TO.N,1683*
X-6102362D03*
G04 #@! TO.N,1684*
X-6496063D03*
G04 #@! TO.N,1685*
X-6889764D03*
G04 #@! TO.N,1686*
X-7283464D03*
G04 #@! TO.N,1687*
X-7677165D03*
G04 #@! TO.N,1688*
X-8070866D03*
G04 #@! TO.N,1689*
X-8464567D03*
G04 #@! TO.N,1690*
X-8858268D03*
G04 #@! TO.N,1691*
X-9251968D03*
G04 #@! TO.N,1692*
X-196850Y-5275591D03*
G04 #@! TO.N,1693*
X-590551D03*
G04 #@! TO.N,1694*
X-984252D03*
G04 #@! TO.N,1695*
X-1377953D03*
G04 #@! TO.N,1696*
X-1771653D03*
G04 #@! TO.N,1697*
X-2165354D03*
G04 #@! TO.N,1698*
X-2559055D03*
G04 #@! TO.N,1699*
X-2952756D03*
G04 #@! TO.N,1700*
X-3346456D03*
G04 #@! TO.N,1701*
X-3740157D03*
G04 #@! TO.N,1702*
X-4133858D03*
G04 #@! TO.N,1703*
X-4527559D03*
G04 #@! TO.N,1704*
X-4921260D03*
G04 #@! TO.N,1705*
X-5314960D03*
G04 #@! TO.N,1706*
X-5708661D03*
G04 #@! TO.N,1707*
X-6102362D03*
G04 #@! TO.N,1708*
X-6496063D03*
G04 #@! TO.N,1709*
X-6889764D03*
G04 #@! TO.N,1710*
X-7283464D03*
G04 #@! TO.N,1711*
X-7677165D03*
G04 #@! TO.N,1712*
X-8070866D03*
G04 #@! TO.N,1713*
X-8464567D03*
G04 #@! TO.N,1714*
X-8858268D03*
G04 #@! TO.N,1715*
X-9251968D03*
G04 #@! TO.N,1716*
X-196850Y-5669291D03*
G04 #@! TO.N,1717*
X-590551D03*
G04 #@! TO.N,1718*
X-984252D03*
G04 #@! TO.N,1719*
X-1377953D03*
G04 #@! TO.N,1720*
X-1771653D03*
G04 #@! TO.N,1721*
X-2165354D03*
G04 #@! TO.N,1722*
X-2559055D03*
G04 #@! TO.N,1723*
X-2952756D03*
G04 #@! TO.N,1724*
X-3346456D03*
G04 #@! TO.N,1725*
X-3740157D03*
G04 #@! TO.N,1726*
X-4133858D03*
G04 #@! TO.N,1727*
X-4527559D03*
G04 #@! TO.N,1728*
X-4921260D03*
G04 #@! TO.N,1729*
X-5314960D03*
G04 #@! TO.N,1730*
X-5708661D03*
G04 #@! TO.N,1731*
X-6102362D03*
G04 #@! TO.N,1732*
X-6496063D03*
G04 #@! TO.N,1733*
X-6889764D03*
G04 #@! TO.N,1734*
X-7283464D03*
G04 #@! TO.N,1735*
X-7677165D03*
G04 #@! TO.N,1736*
X-8070866D03*
G04 #@! TO.N,1737*
X-8464567D03*
G04 #@! TO.N,1738*
X-8858268D03*
G04 #@! TO.N,1739*
X-9251968D03*
G04 #@! TO.N,1740*
X-9645669Y-4094488D03*
G04 #@! TO.N,1741*
Y-4488189D03*
G04 #@! TO.N,1742*
Y-4881890D03*
G04 #@! TO.N,1743*
Y-5275591D03*
G04 #@! TO.N,1744*
Y-5669291D03*
G04 #@! TO.N,1747*
X-5452956Y-1520264D03*
G04 #@! TO.N,1745*
X-5531696D03*
G04 #@! TO.N,1750*
X-5295476D03*
G04 #@! TO.N,1749*
X-5374216D03*
G04 #@! TO.N,1754*
X-5137996D03*
G04 #@! TO.N,1752*
X-5216736D03*
G04 #@! TO.N,1756*
X-5059256D03*
G04 #@! TO.N,1758*
X-4823035D03*
G04 #@! TO.N,1757*
X-4901775D03*
G04 #@! TO.N,1762*
X-4665555D03*
G04 #@! TO.N,1760*
X-4744295D03*
G04 #@! TO.N,1765*
X-4508074D03*
G04 #@! TO.N,1764*
X-4586815D03*
G04 #@! TO.N,1859*
X-4350594D03*
G04 #@! TO.N,1767*
X-4429334D03*
G04 #@! TO.N,1778*
X-5512011Y-1161209D03*
G04 #@! TO.N,1777*
X-5472641Y-1239949D03*
G04 #@! TO.N,1779*
X-5551381D03*
G04 #@! TO.N,1776*
X-5433271Y-1161209D03*
G04 #@! TO.N,1774*
X-5354531D03*
G04 #@! TO.N,1773*
X-5315161Y-1239949D03*
G04 #@! TO.N,1775*
X-5393901D03*
G04 #@! TO.N,1772*
X-5275791Y-1161209D03*
G04 #@! TO.N,1770*
X-5197051D03*
G04 #@! TO.N,1769*
X-5157681Y-1239949D03*
G04 #@! TO.N,1771*
X-5236421D03*
G04 #@! TO.N,1804*
X-5118311Y-1161209D03*
G04 #@! TO.N,1802*
X-5039570D03*
G04 #@! TO.N,1801*
X-5000200Y-1239949D03*
G04 #@! TO.N,1803*
X-5078941D03*
G04 #@! TO.N,1800*
X-4960830Y-1161209D03*
G04 #@! TO.N,1810*
X-4882090D03*
G04 #@! TO.N,1809*
X-4842720Y-1239949D03*
G04 #@! TO.N,1805*
X-4921460D03*
G04 #@! TO.N,1808*
X-4803350Y-1161209D03*
G04 #@! TO.N,1806*
X-4724610D03*
G04 #@! TO.N,1860*
X-4685240Y-1239949D03*
G04 #@! TO.N,1807*
X-4763980D03*
G04 #@! TO.N,1792*
X-4645870Y-1161209D03*
G04 #@! TO.N,1790*
X-4567130D03*
G04 #@! TO.N,1789*
X-4527759Y-1239949D03*
G04 #@! TO.N,1791*
X-4606500D03*
G04 #@! TO.N,1788*
X-4488389Y-1161209D03*
G04 #@! TO.N,1786*
X-4409649D03*
G04 #@! TO.N,1785*
X-4370279Y-1239949D03*
G04 #@! TO.N,1787*
X-4449019D03*
G04 #@! TO.N,1784*
X-4330909Y-1161209D03*
G04 #@! TO.N,1746*
X-5492326Y-1362784D03*
G04 #@! TO.N,1748*
X-5413586D03*
G04 #@! TO.N,1780*
X-5334846D03*
G04 #@! TO.N,1751*
X-5256106D03*
G04 #@! TO.N,1753*
X-5177366D03*
G04 #@! TO.N,1755*
X-5098626D03*
G04 #@! TO.N,1781*
X-4941145D03*
G04 #@! TO.N,1759*
X-4783665D03*
G04 #@! TO.N,1761*
X-4704925D03*
G04 #@! TO.N,1763*
X-4626185D03*
G04 #@! TO.N,1782*
X-4547444D03*
G04 #@! TO.N,1766*
X-4468704D03*
G04 #@! TO.N,1768*
X-4389964D03*
G04 #@! TO.N,1783*
X-4311224D03*
G04 #@! TO.N,1830*
X-4350594Y-512390D03*
G04 #@! TO.N,1831*
X-4389964Y-433650D03*
G04 #@! TO.N,1829*
X-4311224D03*
G04 #@! TO.N,1832*
X-4429334Y-512390D03*
G04 #@! TO.N,1828*
X-4508074D03*
G04 #@! TO.N,1834*
X-4547444Y-433650D03*
G04 #@! TO.N,1833*
X-4468704D03*
G04 #@! TO.N,1835*
X-4586815Y-512390D03*
G04 #@! TO.N,1836*
X-4626185Y-433650D03*
G04 #@! TO.N,1813*
X-4862405D03*
G04 #@! TO.N,1811*
X-4901775Y-512390D03*
G04 #@! TO.N,1798*
X-4980515D03*
G04 #@! TO.N,1796*
X-5019885Y-433650D03*
G04 #@! TO.N,1827*
X-4941145D03*
G04 #@! TO.N,1794*
X-5059256Y-512390D03*
G04 #@! TO.N,1816*
X-5137996D03*
G04 #@! TO.N,1817*
X-5177366Y-433650D03*
G04 #@! TO.N,1815*
X-5098626D03*
G04 #@! TO.N,1818*
X-5216736Y-512390D03*
G04 #@! TO.N,1826*
X-5295476D03*
G04 #@! TO.N,1820*
X-5334846Y-433650D03*
G04 #@! TO.N,1819*
X-5256106D03*
G04 #@! TO.N,1821*
X-5374216Y-512390D03*
G04 #@! TO.N,1823*
X-5452956D03*
G04 #@! TO.N,1824*
X-5492326Y-433650D03*
G04 #@! TO.N,1822*
X-5413586D03*
G04 #@! TO.N,1825*
X-5531696Y-512390D03*
G04 #@! TO.N,1853*
X-4409649Y-153335D03*
G04 #@! TO.N,1851*
X-4330909D03*
G04 #@! TO.N,1857*
X-4567130D03*
G04 #@! TO.N,1855*
X-4488389D03*
G04 #@! TO.N,1812*
X-4882090D03*
G04 #@! TO.N,1795*
X-5039570D03*
G04 #@! TO.N,1799*
X-4960830D03*
G04 #@! TO.N,1839*
X-5197051D03*
G04 #@! TO.N,1837*
X-5118311D03*
G04 #@! TO.N,1842*
X-5354531D03*
G04 #@! TO.N,1841*
X-5275791D03*
G04 #@! TO.N,1846*
X-5512011D03*
G04 #@! TO.N,1844*
X-5433271D03*
G04 #@! TO.N,1852*
X-4370279Y-334437D03*
G04 #@! TO.N,1854*
X-4449019D03*
G04 #@! TO.N,1850*
X-4527759D03*
G04 #@! TO.N,1856*
X-4606500D03*
G04 #@! TO.N,1858*
X-4685240D03*
G04 #@! TO.N,1814*
X-4842720D03*
G04 #@! TO.N,1849*
X-4921460D03*
G04 #@! TO.N,1797*
X-5000200D03*
G04 #@! TO.N,1793*
X-5078941D03*
G04 #@! TO.N,1838*
X-5157681D03*
G04 #@! TO.N,1840*
X-5236421D03*
G04 #@! TO.N,1848*
X-5315161D03*
G04 #@! TO.N,1843*
X-5393901D03*
G04 #@! TO.N,1845*
X-5472641D03*
G04 #@! TO.N,1847*
X-5551381D03*
G04 #@! TO.N,1745*
X-9645669Y-1811024D03*
G04 #@! TO.N,1746*
X-9251968D03*
G04 #@! TO.N,1747*
X-8858268D03*
G04 #@! TO.N,1748*
X-8464567D03*
G04 #@! TO.N,1749*
X-8070866D03*
G04 #@! TO.N,1750*
X-7677165D03*
G04 #@! TO.N,1751*
X-7283464D03*
G04 #@! TO.N,1752*
X-6889764D03*
G04 #@! TO.N,1753*
X-6496063D03*
G04 #@! TO.N,1754*
X-6102362D03*
G04 #@! TO.N,1755*
X-5708661D03*
G04 #@! TO.N,1756*
X-5314960D03*
G04 #@! TO.N,1757*
X-4921260D03*
G04 #@! TO.N,1758*
X-4527559D03*
G04 #@! TO.N,1759*
X-4133858D03*
G04 #@! TO.N,1760*
X-3740157D03*
G04 #@! TO.N,1761*
X-3346456D03*
G04 #@! TO.N,1762*
X-2952756D03*
G04 #@! TO.N,1763*
X-2559055D03*
G04 #@! TO.N,1764*
X-2165354D03*
G04 #@! TO.N,1765*
X-1771653D03*
G04 #@! TO.N,1766*
X-1377953D03*
G04 #@! TO.N,1767*
X-984252D03*
G04 #@! TO.N,1768*
X-590551D03*
G04 #@! TO.N,1769*
X-9645669Y-1417323D03*
G04 #@! TO.N,1770*
X-9251968D03*
G04 #@! TO.N,1771*
X-8858268D03*
G04 #@! TO.N,1772*
X-8464567D03*
G04 #@! TO.N,1773*
X-8070866D03*
G04 #@! TO.N,1774*
X-7677165D03*
G04 #@! TO.N,1775*
X-7283464D03*
G04 #@! TO.N,1776*
X-6889764D03*
G04 #@! TO.N,1777*
X-6496063D03*
G04 #@! TO.N,1778*
X-6102362D03*
G04 #@! TO.N,1779*
X-5708661D03*
G04 #@! TO.N,1780*
X-5314960D03*
G04 #@! TO.N,1781*
X-4921260D03*
G04 #@! TO.N,1782*
X-4527559D03*
G04 #@! TO.N,1783*
X-4133858D03*
G04 #@! TO.N,1784*
X-3740157D03*
G04 #@! TO.N,1785*
X-3346456D03*
G04 #@! TO.N,1786*
X-2952756D03*
G04 #@! TO.N,1787*
X-2559055D03*
G04 #@! TO.N,1788*
X-2165354D03*
G04 #@! TO.N,1789*
X-1771653D03*
G04 #@! TO.N,1793*
X-9645669Y-1023622D03*
G04 #@! TO.N,1794*
X-9251968D03*
G04 #@! TO.N,1795*
X-8858268D03*
G04 #@! TO.N,1796*
X-8464567D03*
G04 #@! TO.N,1797*
X-8070866D03*
G04 #@! TO.N,1798*
X-7677165D03*
G04 #@! TO.N,1799*
X-7283464D03*
G04 #@! TO.N,1800*
X-6889764D03*
G04 #@! TO.N,1801*
X-6496063D03*
G04 #@! TO.N,1802*
X-6102362D03*
G04 #@! TO.N,1803*
X-5708661D03*
G04 #@! TO.N,1804*
X-5314960D03*
G04 #@! TO.N,1805*
X-4921260D03*
G04 #@! TO.N,1806*
X-4527559D03*
G04 #@! TO.N,1807*
X-4133858D03*
G04 #@! TO.N,1808*
X-3740157D03*
G04 #@! TO.N,1809*
X-3346456D03*
G04 #@! TO.N,1810*
X-2952756D03*
G04 #@! TO.N,1811*
X-2559055D03*
G04 #@! TO.N,1812*
X-2165354D03*
G04 #@! TO.N,1813*
X-1771653D03*
G04 #@! TO.N,1815*
X-9645669Y-629921D03*
G04 #@! TO.N,1816*
X-9251968D03*
G04 #@! TO.N,1817*
X-8858268D03*
G04 #@! TO.N,1818*
X-8464567D03*
G04 #@! TO.N,1819*
X-8070866D03*
G04 #@! TO.N,1820*
X-7677165D03*
G04 #@! TO.N,1821*
X-7283464D03*
G04 #@! TO.N,1822*
X-6889764D03*
G04 #@! TO.N,1823*
X-6496063D03*
G04 #@! TO.N,1824*
X-6102362D03*
G04 #@! TO.N,1825*
X-5708661D03*
G04 #@! TO.N,1826*
X-5314960D03*
G04 #@! TO.N,1827*
X-4921260D03*
G04 #@! TO.N,1828*
X-4527559D03*
G04 #@! TO.N,1829*
X-4133858D03*
G04 #@! TO.N,1830*
X-3740157D03*
G04 #@! TO.N,1831*
X-3346456D03*
G04 #@! TO.N,1832*
X-2952756D03*
G04 #@! TO.N,1833*
X-2559055D03*
G04 #@! TO.N,1834*
X-2165354D03*
G04 #@! TO.N,1835*
X-1771653D03*
G04 #@! TO.N,1837*
X-9645669Y-236220D03*
G04 #@! TO.N,1838*
X-9251968D03*
G04 #@! TO.N,1839*
X-8858268D03*
G04 #@! TO.N,1840*
X-8464567D03*
G04 #@! TO.N,1841*
X-8070866D03*
G04 #@! TO.N,1842*
X-7677165D03*
G04 #@! TO.N,1843*
X-7283464D03*
G04 #@! TO.N,1844*
X-6889764D03*
G04 #@! TO.N,1845*
X-6496063D03*
G04 #@! TO.N,1846*
X-6102362D03*
G04 #@! TO.N,1847*
X-5708661D03*
G04 #@! TO.N,1848*
X-5314960D03*
G04 #@! TO.N,1849*
X-4921260D03*
G04 #@! TO.N,1850*
X-4527559D03*
G04 #@! TO.N,1851*
X-4133858D03*
G04 #@! TO.N,1852*
X-3740157D03*
G04 #@! TO.N,1853*
X-3346456D03*
G04 #@! TO.N,1854*
X-2952756D03*
G04 #@! TO.N,1855*
X-2559055D03*
G04 #@! TO.N,1856*
X-2165354D03*
G04 #@! TO.N,1857*
X-1771653D03*
G04 #@! TO.N,1859*
X-196850Y-1811024D03*
G04 #@! TO.N,1895*
X-3287602Y-3488768D03*
G04 #@! TO.N,1899*
X-3366342D03*
G04 #@! TO.N,1887*
X-3130122D03*
G04 #@! TO.N,1891*
X-3208862D03*
G04 #@! TO.N,1877*
X-2972641D03*
G04 #@! TO.N,1873*
X-3051381D03*
G04 #@! TO.N,1867*
X-2815161D03*
G04 #@! TO.N,1871*
X-2893901D03*
G04 #@! TO.N,1863*
X-2736421D03*
G04 #@! TO.N,1883*
X-2500200D03*
G04 #@! TO.N,1981*
X-2578941D03*
G04 #@! TO.N,1908*
X-2342720D03*
G04 #@! TO.N,1881*
X-2421460D03*
G04 #@! TO.N,1904*
X-2185240D03*
G04 #@! TO.N,1906*
X-2263980D03*
G04 #@! TO.N,1901*
X-3346657Y-3129713D03*
G04 #@! TO.N,1898*
X-3307287Y-3208453D03*
G04 #@! TO.N,1900*
X-3386027D03*
G04 #@! TO.N,1896*
X-3267917Y-3129713D03*
G04 #@! TO.N,1892*
X-3189177D03*
G04 #@! TO.N,1890*
X-3149807Y-3208453D03*
G04 #@! TO.N,1894*
X-3228547D03*
G04 #@! TO.N,1888*
X-3110437Y-3129713D03*
G04 #@! TO.N,1874*
X-3031696D03*
G04 #@! TO.N,1876*
X-2992326Y-3208453D03*
G04 #@! TO.N,1886*
X-3071067D03*
G04 #@! TO.N,1872*
X-2874216Y-3129713D03*
G04 #@! TO.N,1870*
X-2834846Y-3208453D03*
G04 #@! TO.N,1878*
X-2913586D03*
G04 #@! TO.N,1868*
X-2795476Y-3129713D03*
G04 #@! TO.N,1864*
X-2716736D03*
G04 #@! TO.N,1862*
X-2677366Y-3208453D03*
G04 #@! TO.N,1866*
X-2756106D03*
G04 #@! TO.N,1927*
X-2559256Y-3129713D03*
G04 #@! TO.N,1926*
X-2519885Y-3208453D03*
G04 #@! TO.N,1903*
X-2598626D03*
G04 #@! TO.N,1925*
X-2480515Y-3129713D03*
G04 #@! TO.N,1923*
X-2401775D03*
G04 #@! TO.N,1922*
X-2362405Y-3208453D03*
G04 #@! TO.N,1924*
X-2441145D03*
G04 #@! TO.N,1921*
X-2323035Y-3129713D03*
G04 #@! TO.N,1919*
X-2244295D03*
G04 #@! TO.N,1918*
X-2204925Y-3208453D03*
G04 #@! TO.N,1920*
X-2283665D03*
G04 #@! TO.N,1917*
X-2165555Y-3129713D03*
G04 #@! TO.N,1897*
X-3326972Y-3331288D03*
G04 #@! TO.N,1893*
X-3248232D03*
G04 #@! TO.N,1889*
X-3169492D03*
G04 #@! TO.N,1885*
X-3090752D03*
G04 #@! TO.N,1875*
X-3012011D03*
G04 #@! TO.N,1902*
X-2933271D03*
G04 #@! TO.N,1869*
X-2854531D03*
G04 #@! TO.N,1865*
X-2775791D03*
G04 #@! TO.N,1861*
X-2697051D03*
G04 #@! TO.N,1879*
X-2618311D03*
G04 #@! TO.N,1884*
X-2539570D03*
G04 #@! TO.N,1882*
X-2460830D03*
G04 #@! TO.N,1880*
X-2382090D03*
G04 #@! TO.N,1982*
X-2303350D03*
G04 #@! TO.N,1907*
X-2224610D03*
G04 #@! TO.N,1905*
X-2145870D03*
G04 #@! TO.N,1954*
X-2185240Y-2480894D03*
G04 #@! TO.N,1955*
X-2224610Y-2402154D03*
G04 #@! TO.N,1953*
X-2145870D03*
G04 #@! TO.N,1956*
X-2263980Y-2480894D03*
G04 #@! TO.N,1952*
X-2342720D03*
G04 #@! TO.N,1932*
X-2382090Y-2402154D03*
G04 #@! TO.N,1984*
X-2303350D03*
G04 #@! TO.N,1983*
X-2421460Y-2480894D03*
G04 #@! TO.N,1931*
X-2500200D03*
G04 #@! TO.N,1928*
X-2539570Y-2402154D03*
G04 #@! TO.N,1930*
X-2460830D03*
G04 #@! TO.N,1929*
X-2578941Y-2480894D03*
G04 #@! TO.N,1915*
X-2657681D03*
G04 #@! TO.N,1916*
X-2697051Y-2402154D03*
G04 #@! TO.N,1951*
X-2618311D03*
G04 #@! TO.N,1913*
X-2736421Y-2480894D03*
G04 #@! TO.N,1911*
X-2815161D03*
G04 #@! TO.N,1912*
X-2854531Y-2402154D03*
G04 #@! TO.N,1914*
X-2775791D03*
G04 #@! TO.N,1909*
X-2893901Y-2480894D03*
G04 #@! TO.N,1950*
X-2972641D03*
G04 #@! TO.N,1940*
X-3012011Y-2402154D03*
G04 #@! TO.N,1910*
X-2933271D03*
G04 #@! TO.N,1941*
X-3051381Y-2480894D03*
G04 #@! TO.N,1943*
X-3130122D03*
G04 #@! TO.N,1944*
X-3169492Y-2402154D03*
G04 #@! TO.N,1942*
X-3090752D03*
G04 #@! TO.N,1945*
X-3208862Y-2480894D03*
G04 #@! TO.N,1947*
X-3287602D03*
G04 #@! TO.N,1948*
X-3326972Y-2402154D03*
G04 #@! TO.N,1946*
X-3248232D03*
G04 #@! TO.N,1949*
X-3366342Y-2480894D03*
G04 #@! TO.N,1978*
X-2244295Y-2121839D03*
G04 #@! TO.N,1976*
X-2165555D03*
G04 #@! TO.N,1957*
X-2401775D03*
G04 #@! TO.N,1980*
X-2323035D03*
G04 #@! TO.N,1961*
X-2559256D03*
G04 #@! TO.N,1959*
X-2480515D03*
G04 #@! TO.N,1965*
X-2716736D03*
G04 #@! TO.N,1963*
X-2637996D03*
G04 #@! TO.N,1969*
X-2874216D03*
G04 #@! TO.N,1967*
X-2795476D03*
G04 #@! TO.N,1975*
X-3031696D03*
G04 #@! TO.N,1971*
X-2952956D03*
G04 #@! TO.N,1935*
X-3189177D03*
G04 #@! TO.N,1973*
X-3110437D03*
G04 #@! TO.N,1933*
X-3346657D03*
G04 #@! TO.N,1934*
X-3267917D03*
G04 #@! TO.N,1977*
X-2204925Y-2302941D03*
G04 #@! TO.N,1979*
X-2283665D03*
G04 #@! TO.N,1985*
X-2362405D03*
G04 #@! TO.N,1958*
X-2441145D03*
G04 #@! TO.N,1960*
X-2519885D03*
G04 #@! TO.N,1962*
X-2598626D03*
G04 #@! TO.N,1964*
X-2677366D03*
G04 #@! TO.N,1966*
X-2756106D03*
G04 #@! TO.N,1968*
X-2834846D03*
G04 #@! TO.N,1970*
X-2913586D03*
G04 #@! TO.N,1974*
X-2992326D03*
G04 #@! TO.N,1972*
X-3071067D03*
G04 #@! TO.N,1939*
X-3149807D03*
G04 #@! TO.N,1938*
X-3228547D03*
G04 #@! TO.N,1937*
X-3307287D03*
G04 #@! TO.N,1936*
X-3386027D03*
G04 #@! TO.N,1861*
X-9645669Y-3779528D03*
G04 #@! TO.N,1862*
X-9251968D03*
G04 #@! TO.N,1863*
X-8858268D03*
G04 #@! TO.N,1864*
X-8464567D03*
G04 #@! TO.N,1865*
X-8070866D03*
G04 #@! TO.N,1866*
X-7677165D03*
G04 #@! TO.N,1867*
X-7283464D03*
G04 #@! TO.N,1868*
X-6889764D03*
G04 #@! TO.N,1869*
X-6496063D03*
G04 #@! TO.N,1870*
X-6102362D03*
G04 #@! TO.N,1871*
X-5708661D03*
G04 #@! TO.N,1872*
X-5314960D03*
G04 #@! TO.N,1873*
X-4921260D03*
G04 #@! TO.N,1874*
X-4527559D03*
G04 #@! TO.N,1875*
X-4133858D03*
G04 #@! TO.N,1876*
X-3740157D03*
G04 #@! TO.N,1877*
X-3346456D03*
G04 #@! TO.N,1878*
X-2952756D03*
G04 #@! TO.N,1879*
X-2559055D03*
G04 #@! TO.N,1880*
X-2165354D03*
G04 #@! TO.N,1881*
X-1771653D03*
G04 #@! TO.N,1882*
X-1377953D03*
G04 #@! TO.N,1883*
X-984252D03*
G04 #@! TO.N,1884*
X-590551D03*
G04 #@! TO.N,1885*
X-9645669Y-3385827D03*
G04 #@! TO.N,1886*
X-9251968D03*
G04 #@! TO.N,1887*
X-8858268D03*
G04 #@! TO.N,1888*
X-8464567D03*
G04 #@! TO.N,1889*
X-8070866D03*
G04 #@! TO.N,1890*
X-7677165D03*
G04 #@! TO.N,1891*
X-7283464D03*
G04 #@! TO.N,1892*
X-6889764D03*
G04 #@! TO.N,1893*
X-6496063D03*
G04 #@! TO.N,1894*
X-6102362D03*
G04 #@! TO.N,1895*
X-5708661D03*
G04 #@! TO.N,1896*
X-5314960D03*
G04 #@! TO.N,1897*
X-4921260D03*
G04 #@! TO.N,1898*
X-4527559D03*
G04 #@! TO.N,1899*
X-4133858D03*
G04 #@! TO.N,1900*
X-3740157D03*
G04 #@! TO.N,1901*
X-3346456D03*
G04 #@! TO.N,1902*
X-2952756D03*
G04 #@! TO.N,1903*
X-2559055D03*
G04 #@! TO.N,1904*
X-2165354D03*
G04 #@! TO.N,1905*
X-1771653D03*
G04 #@! TO.N,1906*
X-1377953D03*
G04 #@! TO.N,1907*
X-984252D03*
G04 #@! TO.N,1908*
X-590551D03*
G04 #@! TO.N,1909*
X-9645669Y-2992126D03*
G04 #@! TO.N,1910*
X-9251968D03*
G04 #@! TO.N,1911*
X-8858268D03*
G04 #@! TO.N,1912*
X-8464567D03*
G04 #@! TO.N,1913*
X-8070866D03*
G04 #@! TO.N,1914*
X-7677165D03*
G04 #@! TO.N,1915*
X-7283464D03*
G04 #@! TO.N,1916*
X-6889764D03*
G04 #@! TO.N,1917*
X-6496063D03*
G04 #@! TO.N,1918*
X-6102362D03*
G04 #@! TO.N,1919*
X-5708661D03*
G04 #@! TO.N,1920*
X-5314960D03*
G04 #@! TO.N,1921*
X-4921260D03*
G04 #@! TO.N,1922*
X-4527559D03*
G04 #@! TO.N,1923*
X-4133858D03*
G04 #@! TO.N,1924*
X-3740157D03*
G04 #@! TO.N,1925*
X-3346456D03*
G04 #@! TO.N,1926*
X-2952756D03*
G04 #@! TO.N,1927*
X-2559055D03*
G04 #@! TO.N,1928*
X-2165354D03*
G04 #@! TO.N,1929*
X-1771653D03*
G04 #@! TO.N,1930*
X-1377953D03*
G04 #@! TO.N,1931*
X-984252D03*
G04 #@! TO.N,1932*
X-590551D03*
G04 #@! TO.N,1933*
X-9645669Y-2598425D03*
G04 #@! TO.N,1934*
X-9251968D03*
G04 #@! TO.N,1935*
X-8858268D03*
G04 #@! TO.N,1936*
X-8464567D03*
G04 #@! TO.N,1937*
X-8070866D03*
G04 #@! TO.N,1938*
X-7677165D03*
G04 #@! TO.N,1939*
X-7283464D03*
G04 #@! TO.N,1940*
X-6889764D03*
G04 #@! TO.N,1941*
X-6496063D03*
G04 #@! TO.N,1942*
X-6102362D03*
G04 #@! TO.N,1943*
X-5708661D03*
G04 #@! TO.N,1944*
X-5314960D03*
G04 #@! TO.N,1945*
X-4921260D03*
G04 #@! TO.N,1946*
X-4527559D03*
G04 #@! TO.N,1947*
X-4133858D03*
G04 #@! TO.N,1948*
X-3740157D03*
G04 #@! TO.N,1949*
X-3346456D03*
G04 #@! TO.N,1950*
X-2952756D03*
G04 #@! TO.N,1951*
X-2559055D03*
G04 #@! TO.N,1952*
X-2165354D03*
G04 #@! TO.N,1953*
X-1771653D03*
G04 #@! TO.N,1954*
X-1377953D03*
G04 #@! TO.N,1955*
X-984252D03*
G04 #@! TO.N,1956*
X-590551D03*
G04 #@! TO.N,1957*
X-9645669Y-2204724D03*
G04 #@! TO.N,1958*
X-9251968D03*
G04 #@! TO.N,1959*
X-8858268D03*
G04 #@! TO.N,1960*
X-8464567D03*
G04 #@! TO.N,1961*
X-8070866D03*
G04 #@! TO.N,1962*
X-7677165D03*
G04 #@! TO.N,1963*
X-7283464D03*
G04 #@! TO.N,1964*
X-6889764D03*
G04 #@! TO.N,1965*
X-6496063D03*
G04 #@! TO.N,1966*
X-6102362D03*
G04 #@! TO.N,1967*
X-5708661D03*
G04 #@! TO.N,1968*
X-5314960D03*
G04 #@! TO.N,1969*
X-4921260D03*
G04 #@! TO.N,1970*
X-4527559D03*
G04 #@! TO.N,1971*
X-4133858D03*
G04 #@! TO.N,1972*
X-3740157D03*
G04 #@! TO.N,1973*
X-3346456D03*
G04 #@! TO.N,1974*
X-2952756D03*
G04 #@! TO.N,1975*
X-2559055D03*
G04 #@! TO.N,1976*
X-2165354D03*
G04 #@! TO.N,1977*
X-1771653D03*
G04 #@! TO.N,1978*
X-1377953D03*
G04 #@! TO.N,1979*
X-984252D03*
G04 #@! TO.N,1980*
X-590551D03*
G04 #@! TO.N,1981*
X-196850Y-3779528D03*
G04 #@! TO.N,1982*
Y-3385827D03*
G04 #@! TO.N,1983*
Y-2992126D03*
G04 #@! TO.N,1984*
Y-2598425D03*
G04 #@! TO.N,1985*
Y-2204724D03*
G04 #@! TO.N,1790*
X-1545275Y-1417323D03*
G04 #@! TO.N,1791*
X-984252D03*
G04 #@! TO.N,1792*
X-757874D03*
G04 #@! TO.N,1814*
X-1545275Y-1023622D03*
G04 #@! TO.N,1836*
Y-629921D03*
G04 #@! TO.N,1858*
Y-236220D03*
G04 #@! TO.N,1860*
X-364173Y-1417323D03*
G04 #@! TO.N,1988*
X-4389563Y6353752D03*
G04 #@! TO.N,1986*
X-4310823D03*
G04 #@! TO.N,1991*
X-4547043D03*
G04 #@! TO.N,1990*
X-4468303D03*
G04 #@! TO.N,1995*
X-4704524D03*
G04 #@! TO.N,1993*
X-4625783D03*
G04 #@! TO.N,1997*
X-4783264D03*
G04 #@! TO.N,1999*
X-5019484D03*
G04 #@! TO.N,1998*
X-4940744D03*
G04 #@! TO.N,2003*
X-5176965D03*
G04 #@! TO.N,2001*
X-5098224D03*
G04 #@! TO.N,2006*
X-5334445D03*
G04 #@! TO.N,2005*
X-5255705D03*
G04 #@! TO.N,2106*
X-5491925D03*
G04 #@! TO.N,2008*
X-5413185D03*
G04 #@! TO.N,2019*
X-4330508Y6712807D03*
G04 #@! TO.N,2018*
X-4369878Y6634067D03*
G04 #@! TO.N,2020*
X-4291138D03*
G04 #@! TO.N,2017*
X-4409248Y6712807D03*
G04 #@! TO.N,2015*
X-4487988D03*
G04 #@! TO.N,2014*
X-4527358Y6634067D03*
G04 #@! TO.N,2016*
X-4448618D03*
G04 #@! TO.N,2013*
X-4566728Y6712807D03*
G04 #@! TO.N,2011*
X-4645469D03*
G04 #@! TO.N,2010*
X-4684839Y6634067D03*
G04 #@! TO.N,2012*
X-4606098D03*
G04 #@! TO.N,2045*
X-4724209Y6712807D03*
G04 #@! TO.N,2043*
X-4802949D03*
G04 #@! TO.N,2042*
X-4842319Y6634067D03*
G04 #@! TO.N,2044*
X-4763579D03*
G04 #@! TO.N,2041*
X-4881689Y6712807D03*
G04 #@! TO.N,2051*
X-4960429D03*
G04 #@! TO.N,2050*
X-4999799Y6634067D03*
G04 #@! TO.N,2046*
X-4921059D03*
G04 #@! TO.N,2049*
X-5039169Y6712807D03*
G04 #@! TO.N,2047*
X-5117909D03*
G04 #@! TO.N,2107*
X-5157280Y6634067D03*
G04 #@! TO.N,2048*
X-5078539D03*
G04 #@! TO.N,2033*
X-5196650Y6712807D03*
G04 #@! TO.N,2031*
X-5275390D03*
G04 #@! TO.N,2030*
X-5314760Y6634067D03*
G04 #@! TO.N,2032*
X-5236020D03*
G04 #@! TO.N,2029*
X-5354130Y6712807D03*
G04 #@! TO.N,2027*
X-5432870D03*
G04 #@! TO.N,2026*
X-5472240Y6634067D03*
G04 #@! TO.N,2028*
X-5393500D03*
G04 #@! TO.N,2025*
X-5511610Y6712807D03*
G04 #@! TO.N,1987*
X-4350193Y6511232D03*
G04 #@! TO.N,1989*
X-4428933D03*
G04 #@! TO.N,2021*
X-4507673D03*
G04 #@! TO.N,1992*
X-4586413D03*
G04 #@! TO.N,1994*
X-4665154D03*
G04 #@! TO.N,1996*
X-4743894D03*
G04 #@! TO.N,2022*
X-4901374D03*
G04 #@! TO.N,2000*
X-5058854D03*
G04 #@! TO.N,2002*
X-5137594D03*
G04 #@! TO.N,2004*
X-5216335D03*
G04 #@! TO.N,2023*
X-5295075D03*
G04 #@! TO.N,2007*
X-5373815D03*
G04 #@! TO.N,2009*
X-5452555D03*
G04 #@! TO.N,2024*
X-5531295D03*
G04 #@! TO.N,2073*
X-5491925Y7361626D03*
G04 #@! TO.N,2074*
X-5452555Y7440366D03*
G04 #@! TO.N,2072*
X-5531295D03*
G04 #@! TO.N,2075*
X-5413185Y7361626D03*
G04 #@! TO.N,2071*
X-5334445D03*
G04 #@! TO.N,2077*
X-5295075Y7440366D03*
G04 #@! TO.N,2076*
X-5373815D03*
G04 #@! TO.N,2078*
X-5255705Y7361626D03*
G04 #@! TO.N,2080*
X-5176965D03*
G04 #@! TO.N,2081*
X-5137594Y7440366D03*
G04 #@! TO.N,2079*
X-5216335D03*
G04 #@! TO.N,2109*
X-5098224Y7361626D03*
G04 #@! TO.N,2056*
X-5019484D03*
G04 #@! TO.N,2054*
X-4980114Y7440366D03*
G04 #@! TO.N,2108*
X-5058854D03*
G04 #@! TO.N,2052*
X-4940744Y7361626D03*
G04 #@! TO.N,2039*
X-4862004D03*
G04 #@! TO.N,2037*
X-4822634Y7440366D03*
G04 #@! TO.N,2070*
X-4901374D03*
G04 #@! TO.N,2035*
X-4783264Y7361626D03*
G04 #@! TO.N,2059*
X-4704524D03*
G04 #@! TO.N,2060*
X-4665154Y7440366D03*
G04 #@! TO.N,2058*
X-4743894D03*
G04 #@! TO.N,2061*
X-4625783Y7361626D03*
G04 #@! TO.N,2069*
X-4547043D03*
G04 #@! TO.N,2063*
X-4507673Y7440366D03*
G04 #@! TO.N,2062*
X-4586413D03*
G04 #@! TO.N,2064*
X-4468303Y7361626D03*
G04 #@! TO.N,2066*
X-4389563D03*
G04 #@! TO.N,2067*
X-4350193Y7440366D03*
G04 #@! TO.N,2065*
X-4428933D03*
G04 #@! TO.N,2068*
X-4310823Y7361626D03*
G04 #@! TO.N,2098*
X-5432870Y7720681D03*
G04 #@! TO.N,2096*
X-5511610D03*
G04 #@! TO.N,2102*
X-5275390D03*
G04 #@! TO.N,2100*
X-5354130D03*
G04 #@! TO.N,2110*
X-5117909D03*
G04 #@! TO.N,2104*
X-5196650D03*
G04 #@! TO.N,2053*
X-4960429D03*
G04 #@! TO.N,2057*
X-5039169D03*
G04 #@! TO.N,2036*
X-4802949D03*
G04 #@! TO.N,2040*
X-4881689D03*
G04 #@! TO.N,2084*
X-4645469D03*
G04 #@! TO.N,2082*
X-4724209D03*
G04 #@! TO.N,2087*
X-4487988D03*
G04 #@! TO.N,2086*
X-4566728D03*
G04 #@! TO.N,2091*
X-4330508D03*
G04 #@! TO.N,2089*
X-4409248D03*
G04 #@! TO.N,2097*
X-5472240Y7539578D03*
G04 #@! TO.N,2099*
X-5393500D03*
G04 #@! TO.N,2095*
X-5314760D03*
G04 #@! TO.N,2101*
X-5236020D03*
G04 #@! TO.N,2103*
X-5157280D03*
G04 #@! TO.N,2105*
X-5078539D03*
G04 #@! TO.N,2055*
X-4999799D03*
G04 #@! TO.N,2094*
X-4921059D03*
G04 #@! TO.N,2038*
X-4842319D03*
G04 #@! TO.N,2034*
X-4763579D03*
G04 #@! TO.N,2083*
X-4684839D03*
G04 #@! TO.N,2085*
X-4606098D03*
G04 #@! TO.N,2093*
X-4527358D03*
G04 #@! TO.N,2088*
X-4448618D03*
G04 #@! TO.N,2090*
X-4369878D03*
G04 #@! TO.N,2092*
X-4291138D03*
G04 #@! TO.N,1986*
X-196850Y6062992D03*
G04 #@! TO.N,1987*
X-590551D03*
G04 #@! TO.N,1988*
X-984252D03*
G04 #@! TO.N,1989*
X-1377953D03*
G04 #@! TO.N,1990*
X-1771653D03*
G04 #@! TO.N,1991*
X-2165354D03*
G04 #@! TO.N,1992*
X-2559055D03*
G04 #@! TO.N,1993*
X-2952756D03*
G04 #@! TO.N,1994*
X-3346456D03*
G04 #@! TO.N,1995*
X-3740157D03*
G04 #@! TO.N,1996*
X-4133858D03*
G04 #@! TO.N,1997*
X-4527559D03*
G04 #@! TO.N,1998*
X-4921260D03*
G04 #@! TO.N,1999*
X-5314960D03*
G04 #@! TO.N,2000*
X-5708661D03*
G04 #@! TO.N,2001*
X-6102362D03*
G04 #@! TO.N,2002*
X-6496063D03*
G04 #@! TO.N,2003*
X-6889764D03*
G04 #@! TO.N,2004*
X-7283464D03*
G04 #@! TO.N,2005*
X-7677165D03*
G04 #@! TO.N,2006*
X-8070866D03*
G04 #@! TO.N,2007*
X-8464567D03*
G04 #@! TO.N,2008*
X-8858268D03*
G04 #@! TO.N,2009*
X-9251968D03*
G04 #@! TO.N,2010*
X-196850Y6456693D03*
G04 #@! TO.N,2011*
X-590551D03*
G04 #@! TO.N,2012*
X-984252D03*
G04 #@! TO.N,2013*
X-1377953D03*
G04 #@! TO.N,2014*
X-1771653D03*
G04 #@! TO.N,2015*
X-2165354D03*
G04 #@! TO.N,2016*
X-2559055D03*
G04 #@! TO.N,2017*
X-2952756D03*
G04 #@! TO.N,2018*
X-3346456D03*
G04 #@! TO.N,2019*
X-3740157D03*
G04 #@! TO.N,2020*
X-4133858D03*
G04 #@! TO.N,2021*
X-4527559D03*
G04 #@! TO.N,2022*
X-4921260D03*
G04 #@! TO.N,2023*
X-5314960D03*
G04 #@! TO.N,2024*
X-5708661D03*
G04 #@! TO.N,2025*
X-6102362D03*
G04 #@! TO.N,2026*
X-6496063D03*
G04 #@! TO.N,2027*
X-6889764D03*
G04 #@! TO.N,2028*
X-7283464D03*
G04 #@! TO.N,2029*
X-7677165D03*
G04 #@! TO.N,2030*
X-8070866D03*
G04 #@! TO.N,2031*
X-8464567D03*
G04 #@! TO.N,2032*
X-8858268D03*
G04 #@! TO.N,2033*
X-9251968D03*
G04 #@! TO.N,2034*
X-196850Y6850394D03*
G04 #@! TO.N,2035*
X-590551D03*
G04 #@! TO.N,2036*
X-984252D03*
G04 #@! TO.N,2037*
X-1377953D03*
G04 #@! TO.N,2038*
X-1771653D03*
G04 #@! TO.N,2039*
X-2165354D03*
G04 #@! TO.N,2040*
X-2559055D03*
G04 #@! TO.N,2041*
X-2952756D03*
G04 #@! TO.N,2042*
X-3346456D03*
G04 #@! TO.N,2043*
X-3740157D03*
G04 #@! TO.N,2044*
X-4133858D03*
G04 #@! TO.N,2045*
X-4527559D03*
G04 #@! TO.N,2046*
X-4921260D03*
G04 #@! TO.N,2047*
X-5314960D03*
G04 #@! TO.N,2048*
X-5708661D03*
G04 #@! TO.N,2049*
X-6102362D03*
G04 #@! TO.N,2050*
X-6496063D03*
G04 #@! TO.N,2051*
X-6889764D03*
G04 #@! TO.N,2052*
X-7283464D03*
G04 #@! TO.N,2053*
X-7677165D03*
G04 #@! TO.N,2054*
X-8070866D03*
G04 #@! TO.N,2055*
X-8464567D03*
G04 #@! TO.N,2056*
X-8858268D03*
G04 #@! TO.N,2057*
X-9251968D03*
G04 #@! TO.N,2058*
X-196850Y7244094D03*
G04 #@! TO.N,2059*
X-590551D03*
G04 #@! TO.N,2060*
X-984252D03*
G04 #@! TO.N,2061*
X-1377953D03*
G04 #@! TO.N,2062*
X-1771653D03*
G04 #@! TO.N,2063*
X-2165354D03*
G04 #@! TO.N,2064*
X-2559055D03*
G04 #@! TO.N,2065*
X-2952756D03*
G04 #@! TO.N,2066*
X-3346456D03*
G04 #@! TO.N,2067*
X-3740157D03*
G04 #@! TO.N,2068*
X-4133858D03*
G04 #@! TO.N,2069*
X-4527559D03*
G04 #@! TO.N,2070*
X-4921260D03*
G04 #@! TO.N,2071*
X-5314960D03*
G04 #@! TO.N,2072*
X-5708661D03*
G04 #@! TO.N,2073*
X-6102362D03*
G04 #@! TO.N,2074*
X-6496063D03*
G04 #@! TO.N,2075*
X-6889764D03*
G04 #@! TO.N,2076*
X-7283464D03*
G04 #@! TO.N,2077*
X-7677165D03*
G04 #@! TO.N,2078*
X-8070866D03*
G04 #@! TO.N,2079*
X-8464567D03*
G04 #@! TO.N,2080*
X-8858268D03*
G04 #@! TO.N,2081*
X-9251968D03*
G04 #@! TO.N,2082*
X-196850Y7637795D03*
G04 #@! TO.N,2083*
X-590551D03*
G04 #@! TO.N,2084*
X-984252D03*
G04 #@! TO.N,2085*
X-1377953D03*
G04 #@! TO.N,2086*
X-1771653D03*
G04 #@! TO.N,2087*
X-2165354D03*
G04 #@! TO.N,2088*
X-2559055D03*
G04 #@! TO.N,2089*
X-2952756D03*
G04 #@! TO.N,2090*
X-3346456D03*
G04 #@! TO.N,2091*
X-3740157D03*
G04 #@! TO.N,2092*
X-4133858D03*
G04 #@! TO.N,2093*
X-4527559D03*
G04 #@! TO.N,2094*
X-4921260D03*
G04 #@! TO.N,2095*
X-5314960D03*
G04 #@! TO.N,2096*
X-5708661D03*
G04 #@! TO.N,2097*
X-6102362D03*
G04 #@! TO.N,2098*
X-6496063D03*
G04 #@! TO.N,2099*
X-6889764D03*
G04 #@! TO.N,2100*
X-7283464D03*
G04 #@! TO.N,2101*
X-7677165D03*
G04 #@! TO.N,2102*
X-8070866D03*
G04 #@! TO.N,2103*
X-8464567D03*
G04 #@! TO.N,2104*
X-8858268D03*
G04 #@! TO.N,2105*
X-9251968D03*
G04 #@! TO.N,2106*
X-9645669Y6062992D03*
G04 #@! TO.N,2107*
Y6456693D03*
G04 #@! TO.N,2108*
Y6850394D03*
G04 #@! TO.N,2109*
Y7244094D03*
G04 #@! TO.N,2110*
Y7637795D03*
G04 #@! TO.N,2145*
X-6554917Y4385248D03*
G04 #@! TO.N,2149*
X-6476177D03*
G04 #@! TO.N,2137*
X-6712398D03*
G04 #@! TO.N,2141*
X-6633657D03*
G04 #@! TO.N,2127*
X-6869878D03*
G04 #@! TO.N,2123*
X-6791138D03*
G04 #@! TO.N,2117*
X-7027358D03*
G04 #@! TO.N,2121*
X-6948618D03*
G04 #@! TO.N,2113*
X-7106098D03*
G04 #@! TO.N,2133*
X-7342319D03*
G04 #@! TO.N,2231*
X-7263579D03*
G04 #@! TO.N,2158*
X-7499799D03*
G04 #@! TO.N,2131*
X-7421059D03*
G04 #@! TO.N,2154*
X-7657280D03*
G04 #@! TO.N,2156*
X-7578539D03*
G04 #@! TO.N,2151*
X-6495862Y4744303D03*
G04 #@! TO.N,2148*
X-6535232Y4665563D03*
G04 #@! TO.N,2150*
X-6456492D03*
G04 #@! TO.N,2146*
X-6574602Y4744303D03*
G04 #@! TO.N,2142*
X-6653343D03*
G04 #@! TO.N,2140*
X-6692713Y4665563D03*
G04 #@! TO.N,2144*
X-6613972D03*
G04 #@! TO.N,2138*
X-6732083Y4744303D03*
G04 #@! TO.N,2124*
X-6810823D03*
G04 #@! TO.N,2126*
X-6850193Y4665563D03*
G04 #@! TO.N,2136*
X-6771453D03*
G04 #@! TO.N,2122*
X-6968303Y4744303D03*
G04 #@! TO.N,2120*
X-7007673Y4665563D03*
G04 #@! TO.N,2128*
X-6928933D03*
G04 #@! TO.N,2118*
X-7047043Y4744303D03*
G04 #@! TO.N,2114*
X-7125783D03*
G04 #@! TO.N,2112*
X-7165154Y4665563D03*
G04 #@! TO.N,2116*
X-7086413D03*
G04 #@! TO.N,2177*
X-7283264Y4744303D03*
G04 #@! TO.N,2176*
X-7322634Y4665563D03*
G04 #@! TO.N,2153*
X-7243894D03*
G04 #@! TO.N,2175*
X-7362004Y4744303D03*
G04 #@! TO.N,2173*
X-7440744D03*
G04 #@! TO.N,2172*
X-7480114Y4665563D03*
G04 #@! TO.N,2174*
X-7401374D03*
G04 #@! TO.N,2171*
X-7519484Y4744303D03*
G04 #@! TO.N,2169*
X-7598224D03*
G04 #@! TO.N,2168*
X-7637594Y4665563D03*
G04 #@! TO.N,2170*
X-7558854D03*
G04 #@! TO.N,2167*
X-7676965Y4744303D03*
G04 #@! TO.N,2147*
X-6515547Y4542728D03*
G04 #@! TO.N,2143*
X-6594287D03*
G04 #@! TO.N,2139*
X-6673028D03*
G04 #@! TO.N,2135*
X-6751768D03*
G04 #@! TO.N,2125*
X-6830508D03*
G04 #@! TO.N,2152*
X-6909248D03*
G04 #@! TO.N,2119*
X-6987988D03*
G04 #@! TO.N,2115*
X-7066728D03*
G04 #@! TO.N,2111*
X-7145469D03*
G04 #@! TO.N,2129*
X-7224209D03*
G04 #@! TO.N,2134*
X-7302949D03*
G04 #@! TO.N,2132*
X-7381689D03*
G04 #@! TO.N,2130*
X-7460429D03*
G04 #@! TO.N,2232*
X-7539169D03*
G04 #@! TO.N,2157*
X-7617909D03*
G04 #@! TO.N,2155*
X-7696650D03*
G04 #@! TO.N,2204*
X-7657280Y5393122D03*
G04 #@! TO.N,2205*
X-7617909Y5471862D03*
G04 #@! TO.N,2203*
X-7696650D03*
G04 #@! TO.N,2206*
X-7578539Y5393122D03*
G04 #@! TO.N,2202*
X-7499799D03*
G04 #@! TO.N,2182*
X-7460429Y5471862D03*
G04 #@! TO.N,2234*
X-7539169D03*
G04 #@! TO.N,2233*
X-7421059Y5393122D03*
G04 #@! TO.N,2181*
X-7342319D03*
G04 #@! TO.N,2178*
X-7302949Y5471862D03*
G04 #@! TO.N,2180*
X-7381689D03*
G04 #@! TO.N,2179*
X-7263579Y5393122D03*
G04 #@! TO.N,2165*
X-7184839D03*
G04 #@! TO.N,2166*
X-7145469Y5471862D03*
G04 #@! TO.N,2201*
X-7224209D03*
G04 #@! TO.N,2163*
X-7106098Y5393122D03*
G04 #@! TO.N,2161*
X-7027358D03*
G04 #@! TO.N,2162*
X-6987988Y5471862D03*
G04 #@! TO.N,2164*
X-7066728D03*
G04 #@! TO.N,2159*
X-6948618Y5393122D03*
G04 #@! TO.N,2200*
X-6869878D03*
G04 #@! TO.N,2190*
X-6830508Y5471862D03*
G04 #@! TO.N,2160*
X-6909248D03*
G04 #@! TO.N,2191*
X-6791138Y5393122D03*
G04 #@! TO.N,2193*
X-6712398D03*
G04 #@! TO.N,2194*
X-6673028Y5471862D03*
G04 #@! TO.N,2192*
X-6751768D03*
G04 #@! TO.N,2195*
X-6633657Y5393122D03*
G04 #@! TO.N,2197*
X-6554917D03*
G04 #@! TO.N,2198*
X-6515547Y5471862D03*
G04 #@! TO.N,2196*
X-6594287D03*
G04 #@! TO.N,2199*
X-6476177Y5393122D03*
G04 #@! TO.N,2228*
X-7598224Y5752177D03*
G04 #@! TO.N,2226*
X-7676965D03*
G04 #@! TO.N,2207*
X-7440744D03*
G04 #@! TO.N,2230*
X-7519484D03*
G04 #@! TO.N,2211*
X-7283264D03*
G04 #@! TO.N,2209*
X-7362004D03*
G04 #@! TO.N,2215*
X-7125783D03*
G04 #@! TO.N,2213*
X-7204524D03*
G04 #@! TO.N,2219*
X-6968303D03*
G04 #@! TO.N,2217*
X-7047043D03*
G04 #@! TO.N,2225*
X-6810823D03*
G04 #@! TO.N,2221*
X-6889563D03*
G04 #@! TO.N,2185*
X-6653343D03*
G04 #@! TO.N,2223*
X-6732083D03*
G04 #@! TO.N,2183*
X-6495862D03*
G04 #@! TO.N,2184*
X-6574602D03*
G04 #@! TO.N,2227*
X-7637594Y5571074D03*
G04 #@! TO.N,2229*
X-7558854D03*
G04 #@! TO.N,2235*
X-7480114D03*
G04 #@! TO.N,2208*
X-7401374D03*
G04 #@! TO.N,2210*
X-7322634D03*
G04 #@! TO.N,2212*
X-7243894D03*
G04 #@! TO.N,2214*
X-7165154D03*
G04 #@! TO.N,2216*
X-7086413D03*
G04 #@! TO.N,2218*
X-7007673D03*
G04 #@! TO.N,2220*
X-6928933D03*
G04 #@! TO.N,2224*
X-6850193D03*
G04 #@! TO.N,2222*
X-6771453D03*
G04 #@! TO.N,2189*
X-6692713D03*
G04 #@! TO.N,2188*
X-6613972D03*
G04 #@! TO.N,2187*
X-6535232D03*
G04 #@! TO.N,2186*
X-6456492D03*
G04 #@! TO.N,2111*
X-196850Y4094488D03*
G04 #@! TO.N,2112*
X-590551D03*
G04 #@! TO.N,2113*
X-984252D03*
G04 #@! TO.N,2114*
X-1377953D03*
G04 #@! TO.N,2115*
X-1771653D03*
G04 #@! TO.N,2116*
X-2165354D03*
G04 #@! TO.N,2117*
X-2559055D03*
G04 #@! TO.N,2118*
X-2952756D03*
G04 #@! TO.N,2119*
X-3346456D03*
G04 #@! TO.N,2120*
X-3740157D03*
G04 #@! TO.N,2121*
X-4133858D03*
G04 #@! TO.N,2122*
X-4527559D03*
G04 #@! TO.N,2123*
X-4921260D03*
G04 #@! TO.N,2124*
X-5314960D03*
G04 #@! TO.N,2125*
X-5708661D03*
G04 #@! TO.N,2126*
X-6102362D03*
G04 #@! TO.N,2127*
X-6496063D03*
G04 #@! TO.N,2128*
X-6889764D03*
G04 #@! TO.N,2129*
X-7283464D03*
G04 #@! TO.N,2130*
X-7677165D03*
G04 #@! TO.N,2131*
X-8070866D03*
G04 #@! TO.N,2132*
X-8464567D03*
G04 #@! TO.N,2133*
X-8858268D03*
G04 #@! TO.N,2134*
X-9251968D03*
G04 #@! TO.N,2135*
X-196850Y4488189D03*
G04 #@! TO.N,2136*
X-590551D03*
G04 #@! TO.N,2137*
X-984252D03*
G04 #@! TO.N,2138*
X-1377953D03*
G04 #@! TO.N,2139*
X-1771653D03*
G04 #@! TO.N,2140*
X-2165354D03*
G04 #@! TO.N,2141*
X-2559055D03*
G04 #@! TO.N,2142*
X-2952756D03*
G04 #@! TO.N,2143*
X-3346456D03*
G04 #@! TO.N,2144*
X-3740157D03*
G04 #@! TO.N,2145*
X-4133858D03*
G04 #@! TO.N,2146*
X-4527559D03*
G04 #@! TO.N,2147*
X-4921260D03*
G04 #@! TO.N,2148*
X-5314960D03*
G04 #@! TO.N,2149*
X-5708661D03*
G04 #@! TO.N,2150*
X-6102362D03*
G04 #@! TO.N,2151*
X-6496063D03*
G04 #@! TO.N,2152*
X-6889764D03*
G04 #@! TO.N,2153*
X-7283464D03*
G04 #@! TO.N,2154*
X-7677165D03*
G04 #@! TO.N,2155*
X-8070866D03*
G04 #@! TO.N,2156*
X-8464567D03*
G04 #@! TO.N,2157*
X-8858268D03*
G04 #@! TO.N,2158*
X-9251968D03*
G04 #@! TO.N,2159*
X-196850Y4881890D03*
G04 #@! TO.N,2160*
X-590551D03*
G04 #@! TO.N,2161*
X-984252D03*
G04 #@! TO.N,2162*
X-1377953D03*
G04 #@! TO.N,2163*
X-1771653D03*
G04 #@! TO.N,2164*
X-2165354D03*
G04 #@! TO.N,2165*
X-2559055D03*
G04 #@! TO.N,2166*
X-2952756D03*
G04 #@! TO.N,2167*
X-3346456D03*
G04 #@! TO.N,2168*
X-3740157D03*
G04 #@! TO.N,2169*
X-4133858D03*
G04 #@! TO.N,2170*
X-4527559D03*
G04 #@! TO.N,2171*
X-4921260D03*
G04 #@! TO.N,2172*
X-5314960D03*
G04 #@! TO.N,2173*
X-5708661D03*
G04 #@! TO.N,2174*
X-6102362D03*
G04 #@! TO.N,2175*
X-6496063D03*
G04 #@! TO.N,2176*
X-6889764D03*
G04 #@! TO.N,2177*
X-7283464D03*
G04 #@! TO.N,2178*
X-7677165D03*
G04 #@! TO.N,2179*
X-8070866D03*
G04 #@! TO.N,2180*
X-8464567D03*
G04 #@! TO.N,2181*
X-8858268D03*
G04 #@! TO.N,2182*
X-9251968D03*
G04 #@! TO.N,2183*
X-196850Y5275591D03*
G04 #@! TO.N,2184*
X-590551D03*
G04 #@! TO.N,2185*
X-984252D03*
G04 #@! TO.N,2186*
X-1377953D03*
G04 #@! TO.N,2187*
X-1771653D03*
G04 #@! TO.N,2188*
X-2165354D03*
G04 #@! TO.N,2189*
X-2559055D03*
G04 #@! TO.N,2190*
X-2952756D03*
G04 #@! TO.N,2191*
X-3346456D03*
G04 #@! TO.N,2192*
X-3740157D03*
G04 #@! TO.N,2193*
X-4133858D03*
G04 #@! TO.N,2194*
X-4527559D03*
G04 #@! TO.N,2195*
X-4921260D03*
G04 #@! TO.N,2196*
X-5314960D03*
G04 #@! TO.N,2197*
X-5708661D03*
G04 #@! TO.N,2198*
X-6102362D03*
G04 #@! TO.N,2199*
X-6496063D03*
G04 #@! TO.N,2200*
X-6889764D03*
G04 #@! TO.N,2201*
X-7283464D03*
G04 #@! TO.N,2202*
X-7677165D03*
G04 #@! TO.N,2203*
X-8070866D03*
G04 #@! TO.N,2204*
X-8464567D03*
G04 #@! TO.N,2205*
X-8858268D03*
G04 #@! TO.N,2206*
X-9251968D03*
G04 #@! TO.N,2207*
X-196850Y5669291D03*
G04 #@! TO.N,2208*
X-590551D03*
G04 #@! TO.N,2209*
X-984252D03*
G04 #@! TO.N,2210*
X-1377953D03*
G04 #@! TO.N,2211*
X-1771653D03*
G04 #@! TO.N,2212*
X-2165354D03*
G04 #@! TO.N,2213*
X-2559055D03*
G04 #@! TO.N,2214*
X-2952756D03*
G04 #@! TO.N,2215*
X-3346456D03*
G04 #@! TO.N,2216*
X-3740157D03*
G04 #@! TO.N,2217*
X-4133858D03*
G04 #@! TO.N,2218*
X-4527559D03*
G04 #@! TO.N,2219*
X-4921260D03*
G04 #@! TO.N,2220*
X-5314960D03*
G04 #@! TO.N,2221*
X-5708661D03*
G04 #@! TO.N,2222*
X-6102362D03*
G04 #@! TO.N,2223*
X-6496063D03*
G04 #@! TO.N,2224*
X-6889764D03*
G04 #@! TO.N,2225*
X-7283464D03*
G04 #@! TO.N,2226*
X-7677165D03*
G04 #@! TO.N,2227*
X-8070866D03*
G04 #@! TO.N,2228*
X-8464567D03*
G04 #@! TO.N,2229*
X-8858268D03*
G04 #@! TO.N,2230*
X-9251968D03*
G04 #@! TO.N,2231*
X-9645669Y4094488D03*
G04 #@! TO.N,2232*
Y4488189D03*
G04 #@! TO.N,2233*
Y4881890D03*
G04 #@! TO.N,2234*
Y5275591D03*
G04 #@! TO.N,2235*
Y5669291D03*
G04 #@! TO.N,2238*
X-5452956Y1520264D03*
G04 #@! TO.N,2236*
X-5531696D03*
G04 #@! TO.N,2241*
X-5295476D03*
G04 #@! TO.N,2240*
X-5374216D03*
G04 #@! TO.N,2245*
X-5137996D03*
G04 #@! TO.N,2243*
X-5216736D03*
G04 #@! TO.N,2247*
X-5059256D03*
G04 #@! TO.N,2249*
X-4823035D03*
G04 #@! TO.N,2248*
X-4901775D03*
G04 #@! TO.N,2253*
X-4665555D03*
G04 #@! TO.N,2251*
X-4744295D03*
G04 #@! TO.N,2256*
X-4508074D03*
G04 #@! TO.N,2255*
X-4586815D03*
G04 #@! TO.N,2350*
X-4350594D03*
G04 #@! TO.N,2258*
X-4429334D03*
G04 #@! TO.N,2269*
X-5512011Y1161209D03*
G04 #@! TO.N,2268*
X-5472641Y1239949D03*
G04 #@! TO.N,2270*
X-5551381D03*
G04 #@! TO.N,2267*
X-5433271Y1161209D03*
G04 #@! TO.N,2265*
X-5354531D03*
G04 #@! TO.N,2264*
X-5315161Y1239949D03*
G04 #@! TO.N,2266*
X-5393901D03*
G04 #@! TO.N,2263*
X-5275791Y1161209D03*
G04 #@! TO.N,2261*
X-5197051D03*
G04 #@! TO.N,2260*
X-5157681Y1239949D03*
G04 #@! TO.N,2262*
X-5236421D03*
G04 #@! TO.N,2295*
X-5118311Y1161209D03*
G04 #@! TO.N,2293*
X-5039570D03*
G04 #@! TO.N,2292*
X-5000200Y1239949D03*
G04 #@! TO.N,2294*
X-5078941D03*
G04 #@! TO.N,2291*
X-4960830Y1161209D03*
G04 #@! TO.N,2301*
X-4882090D03*
G04 #@! TO.N,2300*
X-4842720Y1239949D03*
G04 #@! TO.N,2296*
X-4921460D03*
G04 #@! TO.N,2299*
X-4803350Y1161209D03*
G04 #@! TO.N,2297*
X-4724610D03*
G04 #@! TO.N,2351*
X-4685240Y1239949D03*
G04 #@! TO.N,2298*
X-4763980D03*
G04 #@! TO.N,2283*
X-4645870Y1161209D03*
G04 #@! TO.N,2281*
X-4567130D03*
G04 #@! TO.N,2280*
X-4527759Y1239949D03*
G04 #@! TO.N,2282*
X-4606500D03*
G04 #@! TO.N,2279*
X-4488389Y1161209D03*
G04 #@! TO.N,2277*
X-4409649D03*
G04 #@! TO.N,2276*
X-4370279Y1239949D03*
G04 #@! TO.N,2278*
X-4449019D03*
G04 #@! TO.N,2275*
X-4330909Y1161209D03*
G04 #@! TO.N,2237*
X-5492326Y1362784D03*
G04 #@! TO.N,2239*
X-5413586D03*
G04 #@! TO.N,2271*
X-5334846D03*
G04 #@! TO.N,2242*
X-5256106D03*
G04 #@! TO.N,2244*
X-5177366D03*
G04 #@! TO.N,2246*
X-5098626D03*
G04 #@! TO.N,2272*
X-4941145D03*
G04 #@! TO.N,2250*
X-4783665D03*
G04 #@! TO.N,2252*
X-4704925D03*
G04 #@! TO.N,2254*
X-4626185D03*
G04 #@! TO.N,2273*
X-4547444D03*
G04 #@! TO.N,2257*
X-4468704D03*
G04 #@! TO.N,2259*
X-4389964D03*
G04 #@! TO.N,2274*
X-4311224D03*
G04 #@! TO.N,2321*
X-4350594Y512390D03*
G04 #@! TO.N,2322*
X-4389964Y433650D03*
G04 #@! TO.N,2320*
X-4311224D03*
G04 #@! TO.N,2323*
X-4429334Y512390D03*
G04 #@! TO.N,2319*
X-4508074D03*
G04 #@! TO.N,2325*
X-4547444Y433650D03*
G04 #@! TO.N,2324*
X-4468704D03*
G04 #@! TO.N,2326*
X-4586815Y512390D03*
G04 #@! TO.N,2327*
X-4626185Y433650D03*
G04 #@! TO.N,2304*
X-4862405D03*
G04 #@! TO.N,2302*
X-4901775Y512390D03*
G04 #@! TO.N,2289*
X-4980515D03*
G04 #@! TO.N,2287*
X-5019885Y433650D03*
G04 #@! TO.N,2318*
X-4941145D03*
G04 #@! TO.N,2285*
X-5059256Y512390D03*
G04 #@! TO.N,2307*
X-5137996D03*
G04 #@! TO.N,2308*
X-5177366Y433650D03*
G04 #@! TO.N,2306*
X-5098626D03*
G04 #@! TO.N,2309*
X-5216736Y512390D03*
G04 #@! TO.N,2317*
X-5295476D03*
G04 #@! TO.N,2311*
X-5334846Y433650D03*
G04 #@! TO.N,2310*
X-5256106D03*
G04 #@! TO.N,2312*
X-5374216Y512390D03*
G04 #@! TO.N,2314*
X-5452956D03*
G04 #@! TO.N,2315*
X-5492326Y433650D03*
G04 #@! TO.N,2313*
X-5413586D03*
G04 #@! TO.N,2316*
X-5531696Y512390D03*
G04 #@! TO.N,2344*
X-4409649Y153335D03*
G04 #@! TO.N,2342*
X-4330909D03*
G04 #@! TO.N,2348*
X-4567130D03*
G04 #@! TO.N,2346*
X-4488389D03*
G04 #@! TO.N,2303*
X-4882090D03*
G04 #@! TO.N,2286*
X-5039570D03*
G04 #@! TO.N,2290*
X-4960830D03*
G04 #@! TO.N,2330*
X-5197051D03*
G04 #@! TO.N,2328*
X-5118311D03*
G04 #@! TO.N,2333*
X-5354531D03*
G04 #@! TO.N,2332*
X-5275791D03*
G04 #@! TO.N,2337*
X-5512011D03*
G04 #@! TO.N,2335*
X-5433271D03*
G04 #@! TO.N,2343*
X-4370279Y334437D03*
G04 #@! TO.N,2345*
X-4449019D03*
G04 #@! TO.N,2341*
X-4527759D03*
G04 #@! TO.N,2347*
X-4606500D03*
G04 #@! TO.N,2349*
X-4685240D03*
G04 #@! TO.N,2305*
X-4842720D03*
G04 #@! TO.N,2340*
X-4921460D03*
G04 #@! TO.N,2288*
X-5000200D03*
G04 #@! TO.N,2284*
X-5078941D03*
G04 #@! TO.N,2329*
X-5157681D03*
G04 #@! TO.N,2331*
X-5236421D03*
G04 #@! TO.N,2339*
X-5315161D03*
G04 #@! TO.N,2334*
X-5393901D03*
G04 #@! TO.N,2336*
X-5472641D03*
G04 #@! TO.N,2338*
X-5551381D03*
G04 #@! TO.N,2236*
X-9645669Y1811024D03*
G04 #@! TO.N,2237*
X-9251968D03*
G04 #@! TO.N,2238*
X-8858268D03*
G04 #@! TO.N,2239*
X-8464567D03*
G04 #@! TO.N,2240*
X-8070866D03*
G04 #@! TO.N,2241*
X-7677165D03*
G04 #@! TO.N,2242*
X-7283464D03*
G04 #@! TO.N,2243*
X-6889764D03*
G04 #@! TO.N,2244*
X-6496063D03*
G04 #@! TO.N,2245*
X-6102362D03*
G04 #@! TO.N,2246*
X-5708661D03*
G04 #@! TO.N,2247*
X-5314960D03*
G04 #@! TO.N,2248*
X-4921260D03*
G04 #@! TO.N,2249*
X-4527559D03*
G04 #@! TO.N,2250*
X-4133858D03*
G04 #@! TO.N,2251*
X-3740157D03*
G04 #@! TO.N,2252*
X-3346456D03*
G04 #@! TO.N,2253*
X-2952756D03*
G04 #@! TO.N,2254*
X-2559055D03*
G04 #@! TO.N,2255*
X-2165354D03*
G04 #@! TO.N,2256*
X-1771653D03*
G04 #@! TO.N,2257*
X-1377953D03*
G04 #@! TO.N,2258*
X-984252D03*
G04 #@! TO.N,2259*
X-590551D03*
G04 #@! TO.N,2260*
X-9645669Y1417323D03*
G04 #@! TO.N,2261*
X-9251968D03*
G04 #@! TO.N,2262*
X-8858268D03*
G04 #@! TO.N,2263*
X-8464567D03*
G04 #@! TO.N,2264*
X-8070866D03*
G04 #@! TO.N,2265*
X-7677165D03*
G04 #@! TO.N,2266*
X-7283464D03*
G04 #@! TO.N,2267*
X-6889764D03*
G04 #@! TO.N,2268*
X-6496063D03*
G04 #@! TO.N,2269*
X-6102362D03*
G04 #@! TO.N,2270*
X-5708661D03*
G04 #@! TO.N,2271*
X-5314960D03*
G04 #@! TO.N,2272*
X-4921260D03*
G04 #@! TO.N,2273*
X-4527559D03*
G04 #@! TO.N,2274*
X-4133858D03*
G04 #@! TO.N,2275*
X-3740157D03*
G04 #@! TO.N,2276*
X-3346456D03*
G04 #@! TO.N,2277*
X-2952756D03*
G04 #@! TO.N,2278*
X-2559055D03*
G04 #@! TO.N,2279*
X-2165354D03*
G04 #@! TO.N,2280*
X-1771653D03*
G04 #@! TO.N,2284*
X-9645669Y1023622D03*
G04 #@! TO.N,2285*
X-9251968D03*
G04 #@! TO.N,2286*
X-8858268D03*
G04 #@! TO.N,2287*
X-8464567D03*
G04 #@! TO.N,2288*
X-8070866D03*
G04 #@! TO.N,2289*
X-7677165D03*
G04 #@! TO.N,2290*
X-7283464D03*
G04 #@! TO.N,2291*
X-6889764D03*
G04 #@! TO.N,2292*
X-6496063D03*
G04 #@! TO.N,2293*
X-6102362D03*
G04 #@! TO.N,2294*
X-5708661D03*
G04 #@! TO.N,2295*
X-5314960D03*
G04 #@! TO.N,2296*
X-4921260D03*
G04 #@! TO.N,2297*
X-4527559D03*
G04 #@! TO.N,2298*
X-4133858D03*
G04 #@! TO.N,2299*
X-3740157D03*
G04 #@! TO.N,2300*
X-3346456D03*
G04 #@! TO.N,2301*
X-2952756D03*
G04 #@! TO.N,2302*
X-2559055D03*
G04 #@! TO.N,2303*
X-2165354D03*
G04 #@! TO.N,2304*
X-1771653D03*
G04 #@! TO.N,2306*
X-9645669Y629921D03*
G04 #@! TO.N,2307*
X-9251968D03*
G04 #@! TO.N,2308*
X-8858268D03*
G04 #@! TO.N,2309*
X-8464567D03*
G04 #@! TO.N,2310*
X-8070866D03*
G04 #@! TO.N,2311*
X-7677165D03*
G04 #@! TO.N,2312*
X-7283464D03*
G04 #@! TO.N,2313*
X-6889764D03*
G04 #@! TO.N,2314*
X-6496063D03*
G04 #@! TO.N,2315*
X-6102362D03*
G04 #@! TO.N,2316*
X-5708661D03*
G04 #@! TO.N,2317*
X-5314960D03*
G04 #@! TO.N,2318*
X-4921260D03*
G04 #@! TO.N,2319*
X-4527559D03*
G04 #@! TO.N,2320*
X-4133858D03*
G04 #@! TO.N,2321*
X-3740157D03*
G04 #@! TO.N,2322*
X-3346456D03*
G04 #@! TO.N,2323*
X-2952756D03*
G04 #@! TO.N,2324*
X-2559055D03*
G04 #@! TO.N,2325*
X-2165354D03*
G04 #@! TO.N,2326*
X-1771653D03*
G04 #@! TO.N,2328*
X-9645669Y236220D03*
G04 #@! TO.N,2329*
X-9251968D03*
G04 #@! TO.N,2330*
X-8858268D03*
G04 #@! TO.N,2331*
X-8464567D03*
G04 #@! TO.N,2332*
X-8070866D03*
G04 #@! TO.N,2333*
X-7677165D03*
G04 #@! TO.N,2334*
X-7283464D03*
G04 #@! TO.N,2335*
X-6889764D03*
G04 #@! TO.N,2336*
X-6496063D03*
G04 #@! TO.N,2337*
X-6102362D03*
G04 #@! TO.N,2338*
X-5708661D03*
G04 #@! TO.N,2339*
X-5314960D03*
G04 #@! TO.N,2340*
X-4921260D03*
G04 #@! TO.N,2341*
X-4527559D03*
G04 #@! TO.N,2342*
X-4133858D03*
G04 #@! TO.N,2343*
X-3740157D03*
G04 #@! TO.N,2344*
X-3346456D03*
G04 #@! TO.N,2345*
X-2952756D03*
G04 #@! TO.N,2346*
X-2559055D03*
G04 #@! TO.N,2347*
X-2165354D03*
G04 #@! TO.N,2348*
X-1771653D03*
G04 #@! TO.N,2350*
X-196850Y1811024D03*
G04 #@! TO.N,2386*
X-3287602Y3488768D03*
G04 #@! TO.N,2390*
X-3366342D03*
G04 #@! TO.N,2378*
X-3130122D03*
G04 #@! TO.N,2382*
X-3208862D03*
G04 #@! TO.N,2368*
X-2972641D03*
G04 #@! TO.N,2364*
X-3051381D03*
G04 #@! TO.N,2358*
X-2815161D03*
G04 #@! TO.N,2362*
X-2893901D03*
G04 #@! TO.N,2354*
X-2736421D03*
G04 #@! TO.N,2374*
X-2500200D03*
G04 #@! TO.N,2472*
X-2578941D03*
G04 #@! TO.N,2399*
X-2342720D03*
G04 #@! TO.N,2372*
X-2421460D03*
G04 #@! TO.N,2395*
X-2185240D03*
G04 #@! TO.N,2397*
X-2263980D03*
G04 #@! TO.N,2392*
X-3346657Y3129713D03*
G04 #@! TO.N,2389*
X-3307287Y3208453D03*
G04 #@! TO.N,2391*
X-3386027D03*
G04 #@! TO.N,2387*
X-3267917Y3129713D03*
G04 #@! TO.N,2383*
X-3189177D03*
G04 #@! TO.N,2381*
X-3149807Y3208453D03*
G04 #@! TO.N,2385*
X-3228547D03*
G04 #@! TO.N,2379*
X-3110437Y3129713D03*
G04 #@! TO.N,2365*
X-3031696D03*
G04 #@! TO.N,2367*
X-2992326Y3208453D03*
G04 #@! TO.N,2377*
X-3071067D03*
G04 #@! TO.N,2363*
X-2874216Y3129713D03*
G04 #@! TO.N,2361*
X-2834846Y3208453D03*
G04 #@! TO.N,2369*
X-2913586D03*
G04 #@! TO.N,2359*
X-2795476Y3129713D03*
G04 #@! TO.N,2355*
X-2716736D03*
G04 #@! TO.N,2353*
X-2677366Y3208453D03*
G04 #@! TO.N,2357*
X-2756106D03*
G04 #@! TO.N,2418*
X-2559256Y3129713D03*
G04 #@! TO.N,2417*
X-2519885Y3208453D03*
G04 #@! TO.N,2394*
X-2598626D03*
G04 #@! TO.N,2416*
X-2480515Y3129713D03*
G04 #@! TO.N,2414*
X-2401775D03*
G04 #@! TO.N,2413*
X-2362405Y3208453D03*
G04 #@! TO.N,2415*
X-2441145D03*
G04 #@! TO.N,2412*
X-2323035Y3129713D03*
G04 #@! TO.N,2410*
X-2244295D03*
G04 #@! TO.N,2409*
X-2204925Y3208453D03*
G04 #@! TO.N,2411*
X-2283665D03*
G04 #@! TO.N,2408*
X-2165555Y3129713D03*
G04 #@! TO.N,2388*
X-3326972Y3331288D03*
G04 #@! TO.N,2384*
X-3248232D03*
G04 #@! TO.N,2380*
X-3169492D03*
G04 #@! TO.N,2376*
X-3090752D03*
G04 #@! TO.N,2366*
X-3012011D03*
G04 #@! TO.N,2393*
X-2933271D03*
G04 #@! TO.N,2360*
X-2854531D03*
G04 #@! TO.N,2356*
X-2775791D03*
G04 #@! TO.N,2352*
X-2697051D03*
G04 #@! TO.N,2370*
X-2618311D03*
G04 #@! TO.N,2375*
X-2539570D03*
G04 #@! TO.N,2373*
X-2460830D03*
G04 #@! TO.N,2371*
X-2382090D03*
G04 #@! TO.N,2473*
X-2303350D03*
G04 #@! TO.N,2398*
X-2224610D03*
G04 #@! TO.N,2396*
X-2145870D03*
G04 #@! TO.N,2445*
X-2185240Y2480894D03*
G04 #@! TO.N,2446*
X-2224610Y2402154D03*
G04 #@! TO.N,2444*
X-2145870D03*
G04 #@! TO.N,2447*
X-2263980Y2480894D03*
G04 #@! TO.N,2443*
X-2342720D03*
G04 #@! TO.N,2423*
X-2382090Y2402154D03*
G04 #@! TO.N,2475*
X-2303350D03*
G04 #@! TO.N,2474*
X-2421460Y2480894D03*
G04 #@! TO.N,2422*
X-2500200D03*
G04 #@! TO.N,2419*
X-2539570Y2402154D03*
G04 #@! TO.N,2421*
X-2460830D03*
G04 #@! TO.N,2420*
X-2578941Y2480894D03*
G04 #@! TO.N,2406*
X-2657681D03*
G04 #@! TO.N,2407*
X-2697051Y2402154D03*
G04 #@! TO.N,2442*
X-2618311D03*
G04 #@! TO.N,2404*
X-2736421Y2480894D03*
G04 #@! TO.N,2402*
X-2815161D03*
G04 #@! TO.N,2403*
X-2854531Y2402154D03*
G04 #@! TO.N,2405*
X-2775791D03*
G04 #@! TO.N,2400*
X-2893901Y2480894D03*
G04 #@! TO.N,2441*
X-2972641D03*
G04 #@! TO.N,2431*
X-3012011Y2402154D03*
G04 #@! TO.N,2401*
X-2933271D03*
G04 #@! TO.N,2432*
X-3051381Y2480894D03*
G04 #@! TO.N,2434*
X-3130122D03*
G04 #@! TO.N,2435*
X-3169492Y2402154D03*
G04 #@! TO.N,2433*
X-3090752D03*
G04 #@! TO.N,2436*
X-3208862Y2480894D03*
G04 #@! TO.N,2438*
X-3287602D03*
G04 #@! TO.N,2439*
X-3326972Y2402154D03*
G04 #@! TO.N,2437*
X-3248232D03*
G04 #@! TO.N,2440*
X-3366342Y2480894D03*
G04 #@! TO.N,2469*
X-2244295Y2121839D03*
G04 #@! TO.N,2467*
X-2165555D03*
G04 #@! TO.N,2448*
X-2401775D03*
G04 #@! TO.N,2471*
X-2323035D03*
G04 #@! TO.N,2452*
X-2559256D03*
G04 #@! TO.N,2450*
X-2480515D03*
G04 #@! TO.N,2456*
X-2716736D03*
G04 #@! TO.N,2454*
X-2637996D03*
G04 #@! TO.N,2460*
X-2874216D03*
G04 #@! TO.N,2458*
X-2795476D03*
G04 #@! TO.N,2466*
X-3031696D03*
G04 #@! TO.N,2462*
X-2952956D03*
G04 #@! TO.N,2426*
X-3189177D03*
G04 #@! TO.N,2464*
X-3110437D03*
G04 #@! TO.N,2424*
X-3346657D03*
G04 #@! TO.N,2425*
X-3267917D03*
G04 #@! TO.N,2468*
X-2204925Y2302941D03*
G04 #@! TO.N,2470*
X-2283665D03*
G04 #@! TO.N,2476*
X-2362405D03*
G04 #@! TO.N,2449*
X-2441145D03*
G04 #@! TO.N,2451*
X-2519885D03*
G04 #@! TO.N,2453*
X-2598626D03*
G04 #@! TO.N,2455*
X-2677366D03*
G04 #@! TO.N,2457*
X-2756106D03*
G04 #@! TO.N,2459*
X-2834846D03*
G04 #@! TO.N,2461*
X-2913586D03*
G04 #@! TO.N,2465*
X-2992326D03*
G04 #@! TO.N,2463*
X-3071067D03*
G04 #@! TO.N,2430*
X-3149807D03*
G04 #@! TO.N,2429*
X-3228547D03*
G04 #@! TO.N,2428*
X-3307287D03*
G04 #@! TO.N,2427*
X-3386027D03*
G04 #@! TO.N,2352*
X-9645669Y3779528D03*
G04 #@! TO.N,2353*
X-9251968D03*
G04 #@! TO.N,2354*
X-8858268D03*
G04 #@! TO.N,2355*
X-8464567D03*
G04 #@! TO.N,2356*
X-8070866D03*
G04 #@! TO.N,2357*
X-7677165D03*
G04 #@! TO.N,2358*
X-7283464D03*
G04 #@! TO.N,2359*
X-6889764D03*
G04 #@! TO.N,2360*
X-6496063D03*
G04 #@! TO.N,2361*
X-6102362D03*
G04 #@! TO.N,2362*
X-5708661D03*
G04 #@! TO.N,2363*
X-5314960D03*
G04 #@! TO.N,2364*
X-4921260D03*
G04 #@! TO.N,2365*
X-4527559D03*
G04 #@! TO.N,2366*
X-4133858D03*
G04 #@! TO.N,2367*
X-3740157D03*
G04 #@! TO.N,2368*
X-3346456D03*
G04 #@! TO.N,2369*
X-2952756D03*
G04 #@! TO.N,2370*
X-2559055D03*
G04 #@! TO.N,2371*
X-2165354D03*
G04 #@! TO.N,2372*
X-1771653D03*
G04 #@! TO.N,2373*
X-1377953D03*
G04 #@! TO.N,2374*
X-984252D03*
G04 #@! TO.N,2375*
X-590551D03*
G04 #@! TO.N,2376*
X-9645669Y3385827D03*
G04 #@! TO.N,2377*
X-9251968D03*
G04 #@! TO.N,2378*
X-8858268D03*
G04 #@! TO.N,2379*
X-8464567D03*
G04 #@! TO.N,2380*
X-8070866D03*
G04 #@! TO.N,2381*
X-7677165D03*
G04 #@! TO.N,2382*
X-7283464D03*
G04 #@! TO.N,2383*
X-6889764D03*
G04 #@! TO.N,2384*
X-6496063D03*
G04 #@! TO.N,2385*
X-6102362D03*
G04 #@! TO.N,2386*
X-5708661D03*
G04 #@! TO.N,2387*
X-5314960D03*
G04 #@! TO.N,2388*
X-4921260D03*
G04 #@! TO.N,2389*
X-4527559D03*
G04 #@! TO.N,2390*
X-4133858D03*
G04 #@! TO.N,2391*
X-3740157D03*
G04 #@! TO.N,2392*
X-3346456D03*
G04 #@! TO.N,2393*
X-2952756D03*
G04 #@! TO.N,2394*
X-2559055D03*
G04 #@! TO.N,2395*
X-2165354D03*
G04 #@! TO.N,2396*
X-1771653D03*
G04 #@! TO.N,2397*
X-1377953D03*
G04 #@! TO.N,2398*
X-984252D03*
G04 #@! TO.N,2399*
X-590551D03*
G04 #@! TO.N,2400*
X-9645669Y2992126D03*
G04 #@! TO.N,2401*
X-9251968D03*
G04 #@! TO.N,2402*
X-8858268D03*
G04 #@! TO.N,2403*
X-8464567D03*
G04 #@! TO.N,2404*
X-8070866D03*
G04 #@! TO.N,2405*
X-7677165D03*
G04 #@! TO.N,2406*
X-7283464D03*
G04 #@! TO.N,2407*
X-6889764D03*
G04 #@! TO.N,2408*
X-6496063D03*
G04 #@! TO.N,2409*
X-6102362D03*
G04 #@! TO.N,2410*
X-5708661D03*
G04 #@! TO.N,2411*
X-5314960D03*
G04 #@! TO.N,2412*
X-4921260D03*
G04 #@! TO.N,2413*
X-4527559D03*
G04 #@! TO.N,2414*
X-4133858D03*
G04 #@! TO.N,2415*
X-3740157D03*
G04 #@! TO.N,2416*
X-3346456D03*
G04 #@! TO.N,2417*
X-2952756D03*
G04 #@! TO.N,2418*
X-2559055D03*
G04 #@! TO.N,2419*
X-2165354D03*
G04 #@! TO.N,2420*
X-1771653D03*
G04 #@! TO.N,2421*
X-1377953D03*
G04 #@! TO.N,2422*
X-984252D03*
G04 #@! TO.N,2423*
X-590551D03*
G04 #@! TO.N,2424*
X-9645669Y2598425D03*
G04 #@! TO.N,2425*
X-9251968D03*
G04 #@! TO.N,2426*
X-8858268D03*
G04 #@! TO.N,2427*
X-8464567D03*
G04 #@! TO.N,2428*
X-8070866D03*
G04 #@! TO.N,2429*
X-7677165D03*
G04 #@! TO.N,2430*
X-7283464D03*
G04 #@! TO.N,2431*
X-6889764D03*
G04 #@! TO.N,2432*
X-6496063D03*
G04 #@! TO.N,2433*
X-6102362D03*
G04 #@! TO.N,2434*
X-5708661D03*
G04 #@! TO.N,2435*
X-5314960D03*
G04 #@! TO.N,2436*
X-4921260D03*
G04 #@! TO.N,2437*
X-4527559D03*
G04 #@! TO.N,2438*
X-4133858D03*
G04 #@! TO.N,2439*
X-3740157D03*
G04 #@! TO.N,2440*
X-3346456D03*
G04 #@! TO.N,2441*
X-2952756D03*
G04 #@! TO.N,2442*
X-2559055D03*
G04 #@! TO.N,2443*
X-2165354D03*
G04 #@! TO.N,2444*
X-1771653D03*
G04 #@! TO.N,2445*
X-1377953D03*
G04 #@! TO.N,2446*
X-984252D03*
G04 #@! TO.N,2447*
X-590551D03*
G04 #@! TO.N,2448*
X-9645669Y2204724D03*
G04 #@! TO.N,2449*
X-9251968D03*
G04 #@! TO.N,2450*
X-8858268D03*
G04 #@! TO.N,2451*
X-8464567D03*
G04 #@! TO.N,2452*
X-8070866D03*
G04 #@! TO.N,2453*
X-7677165D03*
G04 #@! TO.N,2454*
X-7283464D03*
G04 #@! TO.N,2455*
X-6889764D03*
G04 #@! TO.N,2456*
X-6496063D03*
G04 #@! TO.N,2457*
X-6102362D03*
G04 #@! TO.N,2458*
X-5708661D03*
G04 #@! TO.N,2459*
X-5314960D03*
G04 #@! TO.N,2460*
X-4921260D03*
G04 #@! TO.N,2461*
X-4527559D03*
G04 #@! TO.N,2462*
X-4133858D03*
G04 #@! TO.N,2463*
X-3740157D03*
G04 #@! TO.N,2464*
X-3346456D03*
G04 #@! TO.N,2465*
X-2952756D03*
G04 #@! TO.N,2466*
X-2559055D03*
G04 #@! TO.N,2467*
X-2165354D03*
G04 #@! TO.N,2468*
X-1771653D03*
G04 #@! TO.N,2469*
X-1377953D03*
G04 #@! TO.N,2470*
X-984252D03*
G04 #@! TO.N,2471*
X-590551D03*
G04 #@! TO.N,2472*
X-196850Y3779528D03*
G04 #@! TO.N,2473*
Y3385827D03*
G04 #@! TO.N,2474*
Y2992126D03*
G04 #@! TO.N,2475*
Y2598425D03*
G04 #@! TO.N,2476*
Y2204724D03*
G04 #@! TO.N,2281*
X-1545275Y1417323D03*
G04 #@! TO.N,2282*
X-984252D03*
G04 #@! TO.N,2283*
X-757874D03*
G04 #@! TO.N,2305*
X-1545275Y1023622D03*
G04 #@! TO.N,2327*
Y629921D03*
G04 #@! TO.N,2349*
Y236220D03*
G04 #@! TO.N,2351*
X-364173Y1417323D03*
G04 #@! TO.N,0*
D12*
X10039370Y8070866D03*
Y-8070866D03*
X-10039370Y8070866D03*
Y-8070866D03*
X10039370Y8129921D03*
Y-8011811D03*
X-10039370Y8129921D03*
Y-8011811D03*
X10039370Y8011811D03*
Y-8129921D03*
X-10039370Y8011811D03*
Y-8129921D03*
D13*
X-9665354Y-8090551D03*
X-10059055Y-7696850D03*
X9625984Y8051181D03*
X10019685Y7657480D03*
X-9625984Y-8090551D03*
X-10019685Y-7696850D03*
X9665354Y8051181D03*
X10059055Y7657480D03*
X-9625984Y-8051181D03*
X-10019685Y-7657480D03*
X9665354Y8090551D03*
X10059055Y7696850D03*
X-9665354Y-8051181D03*
X-10059055Y-7657480D03*
X9625984Y8090551D03*
X10019685Y7696850D03*
%LPD*%
M02*