G04 #@! TF.FileFunction,Plated,5,6,Blind*
G04 #@! TF.FilePolarity,Positive*
G04 #@! TF.SameCoordinates,tov5NBzOuLjLKJ3u1y1mtdWK4NcwDON*
G04 #@! TF.CreationDate,2023-05-25T08:52:34+0200*
G04 #@! TF.GenerationSoftware,Ucamco,UcamX,v2022.09-221024*
%FSLAX26Y26*%
%MOIN*%
%ADD10C,0.019685*%
%ADD11C,0.020079*%
%ADD12C,0.020472*%
%ADD13C,0.020866*%
%SRX1Y1I0.000000J0.000000*%
G04 layer name: DFS2946_PCB-pla1-2*
%LPD*%
G04 #@! TO.N,1*
D10*
X925197Y19685D03*
G04 #@! TO.N,2*
Y59055D03*
G04 #@! TO.N,3*
Y98425D03*
G04 #@! TO.N,4*
Y137795D03*
G04 #@! TO.N,5*
Y177165D03*
G04 #@! TO.N,6*
Y216535D03*
G04 #@! TO.N,7*
Y255906D03*
G04 #@! TO.N,8*
Y295276D03*
G04 #@! TO.N,9*
Y334646D03*
G04 #@! TO.N,10*
Y374016D03*
G04 #@! TO.N,11*
Y413386D03*
G04 #@! TO.N,12*
Y452756D03*
G04 #@! TO.N,13*
Y492126D03*
G04 #@! TO.N,14*
Y531496D03*
G04 #@! TO.N,15*
Y570866D03*
G04 #@! TO.N,16*
Y610236D03*
G04 #@! TO.N,17*
Y649606D03*
G04 #@! TO.N,18*
Y688976D03*
G04 #@! TO.N,19*
Y728346D03*
G04 #@! TO.N,20*
Y767717D03*
G04 #@! TO.N,21*
Y807087D03*
G04 #@! TO.N,22*
Y846457D03*
G04 #@! TO.N,23*
Y885827D03*
G04 #@! TO.N,24*
Y925197D03*
G04 #@! TO.N,25*
Y964567D03*
G04 #@! TO.N,26*
Y1003937D03*
G04 #@! TO.N,27*
Y1043307D03*
G04 #@! TO.N,28*
Y1082677D03*
G04 #@! TO.N,29*
Y1122047D03*
G04 #@! TO.N,30*
Y1161417D03*
G04 #@! TO.N,31*
Y1200787D03*
G04 #@! TO.N,32*
Y1240157D03*
G04 #@! TO.N,33*
X1240157Y19685D03*
G04 #@! TO.N,34*
Y59055D03*
G04 #@! TO.N,35*
Y98425D03*
G04 #@! TO.N,36*
Y137795D03*
G04 #@! TO.N,37*
Y177165D03*
G04 #@! TO.N,38*
Y216535D03*
G04 #@! TO.N,39*
Y255906D03*
G04 #@! TO.N,40*
Y295276D03*
G04 #@! TO.N,41*
Y334646D03*
G04 #@! TO.N,42*
Y374016D03*
G04 #@! TO.N,43*
Y413386D03*
G04 #@! TO.N,44*
Y452756D03*
G04 #@! TO.N,45*
Y492126D03*
G04 #@! TO.N,46*
Y531496D03*
G04 #@! TO.N,47*
Y570866D03*
G04 #@! TO.N,48*
Y610236D03*
G04 #@! TO.N,49*
Y649606D03*
G04 #@! TO.N,50*
Y688976D03*
G04 #@! TO.N,51*
Y728346D03*
G04 #@! TO.N,52*
Y767717D03*
G04 #@! TO.N,53*
Y807087D03*
G04 #@! TO.N,54*
Y846457D03*
G04 #@! TO.N,55*
Y885827D03*
G04 #@! TO.N,56*
Y925197D03*
G04 #@! TO.N,57*
Y964567D03*
G04 #@! TO.N,58*
Y1003937D03*
G04 #@! TO.N,59*
Y1043307D03*
G04 #@! TO.N,60*
Y1082677D03*
G04 #@! TO.N,61*
Y1122047D03*
G04 #@! TO.N,62*
Y1161417D03*
G04 #@! TO.N,63*
Y1200787D03*
G04 #@! TO.N,64*
Y1240157D03*
G04 #@! TO.N,65*
X334645Y19685D03*
G04 #@! TO.N,66*
Y59055D03*
G04 #@! TO.N,67*
Y98425D03*
G04 #@! TO.N,68*
Y137795D03*
G04 #@! TO.N,69*
Y177165D03*
G04 #@! TO.N,70*
Y216535D03*
G04 #@! TO.N,71*
Y255906D03*
G04 #@! TO.N,72*
Y295276D03*
G04 #@! TO.N,73*
Y334646D03*
G04 #@! TO.N,74*
Y374016D03*
G04 #@! TO.N,75*
Y413386D03*
G04 #@! TO.N,76*
Y807087D03*
G04 #@! TO.N,77*
Y846457D03*
G04 #@! TO.N,78*
Y885827D03*
G04 #@! TO.N,79*
Y925197D03*
G04 #@! TO.N,80*
Y964567D03*
G04 #@! TO.N,81*
Y1003937D03*
G04 #@! TO.N,82*
Y1043307D03*
G04 #@! TO.N,83*
Y1082677D03*
G04 #@! TO.N,84*
Y1122047D03*
G04 #@! TO.N,85*
Y1161417D03*
G04 #@! TO.N,86*
Y1200787D03*
G04 #@! TO.N,87*
Y1240157D03*
G04 #@! TO.N,88*
X19685Y19685D03*
G04 #@! TO.N,89*
Y59055D03*
G04 #@! TO.N,90*
Y98425D03*
G04 #@! TO.N,91*
Y137795D03*
G04 #@! TO.N,92*
Y177165D03*
G04 #@! TO.N,93*
Y216535D03*
G04 #@! TO.N,94*
Y255906D03*
G04 #@! TO.N,95*
Y295276D03*
G04 #@! TO.N,96*
Y334646D03*
G04 #@! TO.N,97*
Y374016D03*
G04 #@! TO.N,98*
Y413386D03*
G04 #@! TO.N,99*
Y807087D03*
G04 #@! TO.N,100*
Y846457D03*
G04 #@! TO.N,101*
Y885827D03*
G04 #@! TO.N,102*
Y925197D03*
G04 #@! TO.N,103*
Y964567D03*
G04 #@! TO.N,104*
Y1003937D03*
G04 #@! TO.N,105*
Y1043307D03*
G04 #@! TO.N,106*
Y1082677D03*
G04 #@! TO.N,107*
Y1122047D03*
G04 #@! TO.N,108*
Y1161417D03*
G04 #@! TO.N,109*
Y1200787D03*
G04 #@! TO.N,110*
Y1240157D03*
G04 #@! TO.N,111*
X334645Y649606D03*
G04 #@! TO.N,112*
Y688976D03*
G04 #@! TO.N,113*
Y728346D03*
G04 #@! TO.N,114*
Y767717D03*
G04 #@! TO.N,115*
X19685Y649606D03*
G04 #@! TO.N,116*
Y688976D03*
G04 #@! TO.N,117*
Y728346D03*
G04 #@! TO.N,118*
Y767717D03*
G04 #@! TO.N,119*
X334645Y492126D03*
G04 #@! TO.N,120*
Y531496D03*
G04 #@! TO.N,121*
Y570866D03*
G04 #@! TO.N,122*
Y610236D03*
G04 #@! TO.N,123*
X19685Y492126D03*
G04 #@! TO.N,124*
Y531496D03*
G04 #@! TO.N,125*
Y570866D03*
G04 #@! TO.N,126*
Y610236D03*
G04 #@! TO.N,127*
X334645Y452756D03*
G04 #@! TO.N,128*
X19685D03*
G04 #@! TO.N,129*
X925197Y-19685D03*
G04 #@! TO.N,130*
Y-59055D03*
G04 #@! TO.N,131*
Y-98425D03*
G04 #@! TO.N,132*
Y-137795D03*
G04 #@! TO.N,133*
Y-177165D03*
G04 #@! TO.N,134*
Y-216535D03*
G04 #@! TO.N,135*
Y-255906D03*
G04 #@! TO.N,136*
Y-295276D03*
G04 #@! TO.N,137*
Y-334646D03*
G04 #@! TO.N,138*
Y-374016D03*
G04 #@! TO.N,139*
Y-413386D03*
G04 #@! TO.N,140*
Y-452756D03*
G04 #@! TO.N,141*
Y-492126D03*
G04 #@! TO.N,142*
Y-531496D03*
G04 #@! TO.N,143*
Y-570866D03*
G04 #@! TO.N,144*
Y-610236D03*
G04 #@! TO.N,145*
Y-649606D03*
G04 #@! TO.N,146*
Y-688976D03*
G04 #@! TO.N,147*
Y-728346D03*
G04 #@! TO.N,148*
Y-767717D03*
G04 #@! TO.N,149*
Y-807087D03*
G04 #@! TO.N,150*
Y-846457D03*
G04 #@! TO.N,151*
Y-885827D03*
G04 #@! TO.N,152*
Y-925197D03*
G04 #@! TO.N,153*
Y-964567D03*
G04 #@! TO.N,154*
Y-1003937D03*
G04 #@! TO.N,155*
Y-1043307D03*
G04 #@! TO.N,156*
Y-1082677D03*
G04 #@! TO.N,157*
Y-1122047D03*
G04 #@! TO.N,158*
Y-1161417D03*
G04 #@! TO.N,159*
Y-1200787D03*
G04 #@! TO.N,160*
Y-1240157D03*
G04 #@! TO.N,161*
X1240157Y-19685D03*
G04 #@! TO.N,162*
Y-59055D03*
G04 #@! TO.N,163*
Y-98425D03*
G04 #@! TO.N,164*
Y-137795D03*
G04 #@! TO.N,165*
Y-177165D03*
G04 #@! TO.N,166*
Y-216535D03*
G04 #@! TO.N,167*
Y-255906D03*
G04 #@! TO.N,168*
Y-295276D03*
G04 #@! TO.N,169*
Y-334646D03*
G04 #@! TO.N,170*
Y-374016D03*
G04 #@! TO.N,171*
Y-413386D03*
G04 #@! TO.N,172*
Y-452756D03*
G04 #@! TO.N,173*
Y-492126D03*
G04 #@! TO.N,174*
Y-531496D03*
G04 #@! TO.N,175*
Y-570866D03*
G04 #@! TO.N,176*
Y-610236D03*
G04 #@! TO.N,177*
Y-649606D03*
G04 #@! TO.N,178*
Y-688976D03*
G04 #@! TO.N,179*
Y-728346D03*
G04 #@! TO.N,180*
Y-767717D03*
G04 #@! TO.N,181*
Y-807087D03*
G04 #@! TO.N,182*
Y-846457D03*
G04 #@! TO.N,183*
Y-885827D03*
G04 #@! TO.N,184*
Y-925197D03*
G04 #@! TO.N,185*
Y-964567D03*
G04 #@! TO.N,186*
Y-1003937D03*
G04 #@! TO.N,187*
Y-1043307D03*
G04 #@! TO.N,188*
Y-1082677D03*
G04 #@! TO.N,189*
Y-1122047D03*
G04 #@! TO.N,190*
Y-1161417D03*
G04 #@! TO.N,191*
Y-1200787D03*
G04 #@! TO.N,192*
Y-1240157D03*
G04 #@! TO.N,193*
X334645Y-19685D03*
G04 #@! TO.N,194*
Y-59055D03*
G04 #@! TO.N,195*
Y-98425D03*
G04 #@! TO.N,196*
Y-137795D03*
G04 #@! TO.N,197*
Y-177165D03*
G04 #@! TO.N,198*
Y-216535D03*
G04 #@! TO.N,199*
Y-255906D03*
G04 #@! TO.N,200*
Y-295276D03*
G04 #@! TO.N,201*
Y-334646D03*
G04 #@! TO.N,202*
Y-374016D03*
G04 #@! TO.N,203*
Y-413386D03*
G04 #@! TO.N,204*
Y-807087D03*
G04 #@! TO.N,205*
Y-846457D03*
G04 #@! TO.N,206*
Y-885827D03*
G04 #@! TO.N,207*
Y-925197D03*
G04 #@! TO.N,208*
Y-964567D03*
G04 #@! TO.N,209*
Y-1003937D03*
G04 #@! TO.N,210*
Y-1043307D03*
G04 #@! TO.N,211*
Y-1082677D03*
G04 #@! TO.N,212*
Y-1122047D03*
G04 #@! TO.N,213*
Y-1161417D03*
G04 #@! TO.N,214*
Y-1200787D03*
G04 #@! TO.N,215*
Y-1240157D03*
G04 #@! TO.N,216*
X19685Y-19685D03*
G04 #@! TO.N,217*
Y-59055D03*
G04 #@! TO.N,218*
Y-98425D03*
G04 #@! TO.N,219*
Y-137795D03*
G04 #@! TO.N,220*
Y-177165D03*
G04 #@! TO.N,221*
Y-216535D03*
G04 #@! TO.N,222*
Y-255906D03*
G04 #@! TO.N,223*
Y-295276D03*
G04 #@! TO.N,224*
Y-334646D03*
G04 #@! TO.N,225*
Y-374016D03*
G04 #@! TO.N,226*
Y-413386D03*
G04 #@! TO.N,227*
Y-807087D03*
G04 #@! TO.N,228*
Y-846457D03*
G04 #@! TO.N,229*
Y-885827D03*
G04 #@! TO.N,230*
Y-925197D03*
G04 #@! TO.N,231*
Y-964567D03*
G04 #@! TO.N,232*
Y-1003937D03*
G04 #@! TO.N,233*
Y-1043307D03*
G04 #@! TO.N,234*
Y-1082677D03*
G04 #@! TO.N,235*
Y-1122047D03*
G04 #@! TO.N,236*
Y-1161417D03*
G04 #@! TO.N,237*
Y-1200787D03*
G04 #@! TO.N,238*
Y-1240157D03*
G04 #@! TO.N,239*
X334645Y-649606D03*
G04 #@! TO.N,240*
Y-688976D03*
G04 #@! TO.N,241*
Y-728346D03*
G04 #@! TO.N,242*
Y-767717D03*
G04 #@! TO.N,243*
X19685Y-649606D03*
G04 #@! TO.N,244*
Y-688976D03*
G04 #@! TO.N,245*
Y-728346D03*
G04 #@! TO.N,246*
Y-767717D03*
G04 #@! TO.N,247*
X334645Y-492126D03*
G04 #@! TO.N,248*
Y-531496D03*
G04 #@! TO.N,249*
Y-570866D03*
G04 #@! TO.N,250*
Y-610236D03*
G04 #@! TO.N,251*
X19685Y-492126D03*
G04 #@! TO.N,252*
Y-531496D03*
G04 #@! TO.N,253*
Y-570866D03*
G04 #@! TO.N,254*
Y-610236D03*
G04 #@! TO.N,255*
X334645Y-452756D03*
G04 #@! TO.N,256*
X19685D03*
G04 #@! TO.N,257*
X-925197Y-19685D03*
G04 #@! TO.N,258*
Y-59055D03*
G04 #@! TO.N,259*
Y-98425D03*
G04 #@! TO.N,260*
Y-137795D03*
G04 #@! TO.N,261*
Y-177165D03*
G04 #@! TO.N,262*
Y-216535D03*
G04 #@! TO.N,263*
Y-255906D03*
G04 #@! TO.N,264*
Y-295276D03*
G04 #@! TO.N,265*
Y-334646D03*
G04 #@! TO.N,266*
Y-374016D03*
G04 #@! TO.N,267*
Y-413386D03*
G04 #@! TO.N,268*
Y-452756D03*
G04 #@! TO.N,269*
Y-492126D03*
G04 #@! TO.N,270*
Y-531496D03*
G04 #@! TO.N,271*
Y-570866D03*
G04 #@! TO.N,272*
Y-610236D03*
G04 #@! TO.N,273*
Y-649606D03*
G04 #@! TO.N,274*
Y-688976D03*
G04 #@! TO.N,275*
Y-728346D03*
G04 #@! TO.N,276*
Y-767717D03*
G04 #@! TO.N,277*
Y-807087D03*
G04 #@! TO.N,278*
Y-846457D03*
G04 #@! TO.N,279*
Y-885827D03*
G04 #@! TO.N,280*
Y-925197D03*
G04 #@! TO.N,281*
Y-964567D03*
G04 #@! TO.N,282*
Y-1003937D03*
G04 #@! TO.N,283*
Y-1043307D03*
G04 #@! TO.N,284*
Y-1082677D03*
G04 #@! TO.N,285*
Y-1122047D03*
G04 #@! TO.N,286*
Y-1161417D03*
G04 #@! TO.N,287*
Y-1200787D03*
G04 #@! TO.N,288*
Y-1240157D03*
G04 #@! TO.N,289*
X-1240157Y-19685D03*
G04 #@! TO.N,290*
Y-59055D03*
G04 #@! TO.N,291*
Y-98425D03*
G04 #@! TO.N,292*
Y-137795D03*
G04 #@! TO.N,293*
Y-177165D03*
G04 #@! TO.N,294*
Y-216535D03*
G04 #@! TO.N,295*
Y-255906D03*
G04 #@! TO.N,296*
Y-295276D03*
G04 #@! TO.N,297*
Y-334646D03*
G04 #@! TO.N,298*
Y-374016D03*
G04 #@! TO.N,299*
Y-413386D03*
G04 #@! TO.N,300*
Y-452756D03*
G04 #@! TO.N,301*
Y-492126D03*
G04 #@! TO.N,302*
Y-531496D03*
G04 #@! TO.N,303*
Y-570866D03*
G04 #@! TO.N,304*
Y-610236D03*
G04 #@! TO.N,305*
Y-649606D03*
G04 #@! TO.N,306*
Y-688976D03*
G04 #@! TO.N,307*
Y-728346D03*
G04 #@! TO.N,308*
Y-767717D03*
G04 #@! TO.N,309*
Y-807087D03*
G04 #@! TO.N,310*
Y-846457D03*
G04 #@! TO.N,311*
Y-885827D03*
G04 #@! TO.N,312*
Y-925197D03*
G04 #@! TO.N,313*
Y-964567D03*
G04 #@! TO.N,314*
Y-1003937D03*
G04 #@! TO.N,315*
Y-1043307D03*
G04 #@! TO.N,316*
Y-1082677D03*
G04 #@! TO.N,317*
Y-1122047D03*
G04 #@! TO.N,318*
Y-1161417D03*
G04 #@! TO.N,319*
Y-1200787D03*
G04 #@! TO.N,320*
Y-1240157D03*
G04 #@! TO.N,321*
X-334645Y-19685D03*
G04 #@! TO.N,322*
Y-59055D03*
G04 #@! TO.N,323*
Y-98425D03*
G04 #@! TO.N,324*
Y-137795D03*
G04 #@! TO.N,325*
Y-177165D03*
G04 #@! TO.N,326*
Y-216535D03*
G04 #@! TO.N,327*
Y-255906D03*
G04 #@! TO.N,328*
Y-295276D03*
G04 #@! TO.N,329*
Y-334646D03*
G04 #@! TO.N,330*
Y-374016D03*
G04 #@! TO.N,331*
Y-413386D03*
G04 #@! TO.N,332*
Y-807087D03*
G04 #@! TO.N,333*
Y-846457D03*
G04 #@! TO.N,334*
Y-885827D03*
G04 #@! TO.N,335*
Y-925197D03*
G04 #@! TO.N,336*
Y-964567D03*
G04 #@! TO.N,337*
Y-1003937D03*
G04 #@! TO.N,338*
Y-1043307D03*
G04 #@! TO.N,339*
Y-1082677D03*
G04 #@! TO.N,340*
Y-1122047D03*
G04 #@! TO.N,341*
Y-1161417D03*
G04 #@! TO.N,342*
Y-1200787D03*
G04 #@! TO.N,343*
Y-1240157D03*
G04 #@! TO.N,344*
X-19685Y-19685D03*
G04 #@! TO.N,345*
Y-59055D03*
G04 #@! TO.N,346*
Y-98425D03*
G04 #@! TO.N,347*
Y-137795D03*
G04 #@! TO.N,348*
Y-177165D03*
G04 #@! TO.N,349*
Y-216535D03*
G04 #@! TO.N,350*
Y-255906D03*
G04 #@! TO.N,351*
Y-295276D03*
G04 #@! TO.N,352*
Y-334646D03*
G04 #@! TO.N,353*
Y-374016D03*
G04 #@! TO.N,354*
Y-413386D03*
G04 #@! TO.N,355*
Y-807087D03*
G04 #@! TO.N,356*
Y-846457D03*
G04 #@! TO.N,357*
Y-885827D03*
G04 #@! TO.N,358*
Y-925197D03*
G04 #@! TO.N,359*
Y-964567D03*
G04 #@! TO.N,360*
Y-1003937D03*
G04 #@! TO.N,361*
Y-1043307D03*
G04 #@! TO.N,362*
Y-1082677D03*
G04 #@! TO.N,363*
Y-1122047D03*
G04 #@! TO.N,364*
Y-1161417D03*
G04 #@! TO.N,365*
Y-1200787D03*
G04 #@! TO.N,366*
Y-1240157D03*
G04 #@! TO.N,367*
X-334645Y-649606D03*
G04 #@! TO.N,368*
Y-688976D03*
G04 #@! TO.N,369*
Y-728346D03*
G04 #@! TO.N,370*
Y-767717D03*
G04 #@! TO.N,371*
X-19685Y-649606D03*
G04 #@! TO.N,372*
Y-688976D03*
G04 #@! TO.N,373*
Y-728346D03*
G04 #@! TO.N,374*
Y-767717D03*
G04 #@! TO.N,375*
X-334645Y-492126D03*
G04 #@! TO.N,376*
Y-531496D03*
G04 #@! TO.N,377*
Y-570866D03*
G04 #@! TO.N,378*
Y-610236D03*
G04 #@! TO.N,379*
X-19685Y-492126D03*
G04 #@! TO.N,380*
Y-531496D03*
G04 #@! TO.N,381*
Y-570866D03*
G04 #@! TO.N,382*
Y-610236D03*
G04 #@! TO.N,383*
X-334645Y-452756D03*
G04 #@! TO.N,384*
X-19685D03*
G04 #@! TO.N,385*
X-925197Y19685D03*
G04 #@! TO.N,386*
Y59055D03*
G04 #@! TO.N,387*
Y98425D03*
G04 #@! TO.N,388*
Y137795D03*
G04 #@! TO.N,389*
Y177165D03*
G04 #@! TO.N,390*
Y216535D03*
G04 #@! TO.N,391*
Y255906D03*
G04 #@! TO.N,392*
Y295276D03*
G04 #@! TO.N,393*
Y334646D03*
G04 #@! TO.N,394*
Y374016D03*
G04 #@! TO.N,395*
Y413386D03*
G04 #@! TO.N,396*
Y452756D03*
G04 #@! TO.N,397*
Y492126D03*
G04 #@! TO.N,398*
Y531496D03*
G04 #@! TO.N,399*
Y570866D03*
G04 #@! TO.N,400*
Y610236D03*
G04 #@! TO.N,401*
Y649606D03*
G04 #@! TO.N,402*
Y688976D03*
G04 #@! TO.N,403*
Y728346D03*
G04 #@! TO.N,404*
Y767717D03*
G04 #@! TO.N,405*
Y807087D03*
G04 #@! TO.N,406*
Y846457D03*
G04 #@! TO.N,407*
Y885827D03*
G04 #@! TO.N,408*
Y925197D03*
G04 #@! TO.N,409*
Y964567D03*
G04 #@! TO.N,410*
Y1003937D03*
G04 #@! TO.N,411*
Y1043307D03*
G04 #@! TO.N,412*
Y1082677D03*
G04 #@! TO.N,413*
Y1122047D03*
G04 #@! TO.N,414*
Y1161417D03*
G04 #@! TO.N,415*
Y1200787D03*
G04 #@! TO.N,416*
Y1240157D03*
G04 #@! TO.N,417*
X-1240157Y19685D03*
G04 #@! TO.N,418*
Y59055D03*
G04 #@! TO.N,419*
Y98425D03*
G04 #@! TO.N,420*
Y137795D03*
G04 #@! TO.N,421*
Y177165D03*
G04 #@! TO.N,422*
Y216535D03*
G04 #@! TO.N,423*
Y255906D03*
G04 #@! TO.N,424*
Y295276D03*
G04 #@! TO.N,425*
Y334646D03*
G04 #@! TO.N,426*
Y374016D03*
G04 #@! TO.N,427*
Y413386D03*
G04 #@! TO.N,428*
Y452756D03*
G04 #@! TO.N,429*
Y492126D03*
G04 #@! TO.N,430*
Y531496D03*
G04 #@! TO.N,431*
Y570866D03*
G04 #@! TO.N,432*
Y610236D03*
G04 #@! TO.N,433*
Y649606D03*
G04 #@! TO.N,434*
Y688976D03*
G04 #@! TO.N,435*
Y728346D03*
G04 #@! TO.N,436*
Y767717D03*
G04 #@! TO.N,437*
Y807087D03*
G04 #@! TO.N,438*
Y846457D03*
G04 #@! TO.N,439*
Y885827D03*
G04 #@! TO.N,440*
Y925197D03*
G04 #@! TO.N,441*
Y964567D03*
G04 #@! TO.N,442*
Y1003937D03*
G04 #@! TO.N,443*
Y1043307D03*
G04 #@! TO.N,444*
Y1082677D03*
G04 #@! TO.N,445*
Y1122047D03*
G04 #@! TO.N,446*
Y1161417D03*
G04 #@! TO.N,447*
Y1200787D03*
G04 #@! TO.N,448*
Y1240157D03*
G04 #@! TO.N,449*
X-334645Y19685D03*
G04 #@! TO.N,450*
Y59055D03*
G04 #@! TO.N,451*
Y98425D03*
G04 #@! TO.N,452*
Y137795D03*
G04 #@! TO.N,453*
Y177165D03*
G04 #@! TO.N,454*
Y216535D03*
G04 #@! TO.N,455*
Y255906D03*
G04 #@! TO.N,456*
Y295276D03*
G04 #@! TO.N,457*
Y334646D03*
G04 #@! TO.N,458*
Y374016D03*
G04 #@! TO.N,459*
Y413386D03*
G04 #@! TO.N,460*
Y807087D03*
G04 #@! TO.N,461*
Y846457D03*
G04 #@! TO.N,462*
Y885827D03*
G04 #@! TO.N,463*
Y925197D03*
G04 #@! TO.N,464*
Y964567D03*
G04 #@! TO.N,465*
Y1003937D03*
G04 #@! TO.N,466*
Y1043307D03*
G04 #@! TO.N,467*
Y1082677D03*
G04 #@! TO.N,468*
Y1122047D03*
G04 #@! TO.N,469*
Y1161417D03*
G04 #@! TO.N,470*
Y1200787D03*
G04 #@! TO.N,471*
Y1240157D03*
G04 #@! TO.N,472*
X-19685Y19685D03*
G04 #@! TO.N,473*
Y59055D03*
G04 #@! TO.N,474*
Y98425D03*
G04 #@! TO.N,475*
Y137795D03*
G04 #@! TO.N,476*
Y177165D03*
G04 #@! TO.N,477*
Y216535D03*
G04 #@! TO.N,478*
Y255906D03*
G04 #@! TO.N,479*
Y295276D03*
G04 #@! TO.N,480*
Y334646D03*
G04 #@! TO.N,481*
Y374016D03*
G04 #@! TO.N,482*
Y413386D03*
G04 #@! TO.N,483*
Y807087D03*
G04 #@! TO.N,484*
Y846457D03*
G04 #@! TO.N,485*
Y885827D03*
G04 #@! TO.N,486*
Y925197D03*
G04 #@! TO.N,487*
Y964567D03*
G04 #@! TO.N,488*
Y1003937D03*
G04 #@! TO.N,489*
Y1043307D03*
G04 #@! TO.N,490*
Y1082677D03*
G04 #@! TO.N,491*
Y1122047D03*
G04 #@! TO.N,492*
Y1161417D03*
G04 #@! TO.N,493*
Y1200787D03*
G04 #@! TO.N,494*
Y1240157D03*
G04 #@! TO.N,495*
X-334645Y649606D03*
G04 #@! TO.N,496*
Y688976D03*
G04 #@! TO.N,497*
Y728346D03*
G04 #@! TO.N,498*
Y767717D03*
G04 #@! TO.N,499*
X-19685Y649606D03*
G04 #@! TO.N,500*
Y688976D03*
G04 #@! TO.N,501*
Y728346D03*
G04 #@! TO.N,502*
Y767717D03*
G04 #@! TO.N,503*
X-334645Y492126D03*
G04 #@! TO.N,504*
Y531496D03*
G04 #@! TO.N,505*
Y570866D03*
G04 #@! TO.N,506*
Y610236D03*
G04 #@! TO.N,507*
X-19685Y492126D03*
G04 #@! TO.N,508*
Y531496D03*
G04 #@! TO.N,509*
Y570866D03*
G04 #@! TO.N,510*
Y610236D03*
G04 #@! TO.N,511*
X-334645Y452756D03*
G04 #@! TO.N,512*
X-19685D03*
G04 #@! TO.N,513*
D11*
X196850Y6102362D03*
G04 #@! TO.N,514*
X590551D03*
G04 #@! TO.N,515*
X984252D03*
G04 #@! TO.N,516*
X1377953D03*
G04 #@! TO.N,517*
X1771653D03*
G04 #@! TO.N,518*
X2165354D03*
G04 #@! TO.N,519*
X2559055D03*
G04 #@! TO.N,520*
X2952756D03*
G04 #@! TO.N,521*
X3346456D03*
G04 #@! TO.N,522*
X3740157D03*
G04 #@! TO.N,523*
X4133858D03*
G04 #@! TO.N,524*
X4527559D03*
G04 #@! TO.N,525*
X4921260D03*
G04 #@! TO.N,526*
X5314960D03*
G04 #@! TO.N,527*
X5708661D03*
G04 #@! TO.N,528*
X6102362D03*
G04 #@! TO.N,529*
X6496063D03*
G04 #@! TO.N,530*
X6889764D03*
G04 #@! TO.N,531*
X7283464D03*
G04 #@! TO.N,532*
X7677165D03*
G04 #@! TO.N,533*
X8070866D03*
G04 #@! TO.N,534*
X8464567D03*
G04 #@! TO.N,535*
X8858268D03*
G04 #@! TO.N,536*
X9251968D03*
G04 #@! TO.N,537*
X196850Y6496063D03*
G04 #@! TO.N,538*
X590551D03*
G04 #@! TO.N,539*
X984252D03*
G04 #@! TO.N,540*
X1377953D03*
G04 #@! TO.N,541*
X1771653D03*
G04 #@! TO.N,542*
X2165354D03*
G04 #@! TO.N,543*
X2559055D03*
G04 #@! TO.N,544*
X2952756D03*
G04 #@! TO.N,545*
X3346456D03*
G04 #@! TO.N,546*
X3740157D03*
G04 #@! TO.N,547*
X4133858D03*
G04 #@! TO.N,548*
X4527559Y6417323D03*
G04 #@! TO.N,549*
X4921260D03*
G04 #@! TO.N,550*
X5314960D03*
G04 #@! TO.N,551*
X5708661Y6496063D03*
G04 #@! TO.N,552*
X6102362D03*
G04 #@! TO.N,553*
X6496063D03*
G04 #@! TO.N,554*
X6889764D03*
G04 #@! TO.N,555*
X7283464D03*
G04 #@! TO.N,556*
X7677165D03*
G04 #@! TO.N,557*
X8070866D03*
G04 #@! TO.N,558*
X8464567D03*
G04 #@! TO.N,559*
X8858268D03*
G04 #@! TO.N,560*
X9251968D03*
G04 #@! TO.N,561*
X196850Y6889764D03*
G04 #@! TO.N,562*
X590551D03*
G04 #@! TO.N,563*
X984252D03*
G04 #@! TO.N,564*
X1377953D03*
G04 #@! TO.N,565*
X1771653D03*
G04 #@! TO.N,566*
X2165354D03*
G04 #@! TO.N,567*
X2559055D03*
G04 #@! TO.N,568*
X2952756D03*
G04 #@! TO.N,569*
X3346456D03*
G04 #@! TO.N,570*
X3740157D03*
G04 #@! TO.N,571*
X4133858D03*
G04 #@! TO.N,572*
X4527559D03*
G04 #@! TO.N,573*
X4921260D03*
G04 #@! TO.N,574*
X5314960D03*
G04 #@! TO.N,575*
X5708661D03*
G04 #@! TO.N,576*
X6102362D03*
G04 #@! TO.N,577*
X6496063D03*
G04 #@! TO.N,578*
X6889764D03*
G04 #@! TO.N,579*
X7283464D03*
G04 #@! TO.N,580*
X7677165D03*
G04 #@! TO.N,581*
X8070866D03*
G04 #@! TO.N,582*
X8464567D03*
G04 #@! TO.N,583*
X8858268D03*
G04 #@! TO.N,584*
X9251968D03*
G04 #@! TO.N,585*
X196850Y7283465D03*
G04 #@! TO.N,586*
X590551D03*
G04 #@! TO.N,587*
X984252D03*
G04 #@! TO.N,588*
X1377953D03*
G04 #@! TO.N,589*
X1771653D03*
G04 #@! TO.N,590*
X2165354D03*
G04 #@! TO.N,591*
X2559055D03*
G04 #@! TO.N,592*
X2952756D03*
G04 #@! TO.N,593*
X3346456D03*
G04 #@! TO.N,594*
X3740157D03*
G04 #@! TO.N,595*
X4133858D03*
G04 #@! TO.N,596*
X4527559D03*
G04 #@! TO.N,597*
X4921260D03*
G04 #@! TO.N,598*
X5314960D03*
G04 #@! TO.N,599*
X5708661D03*
G04 #@! TO.N,600*
X6102362D03*
G04 #@! TO.N,601*
X6496063D03*
G04 #@! TO.N,602*
X6889764D03*
G04 #@! TO.N,603*
X7283464D03*
G04 #@! TO.N,604*
X7677165D03*
G04 #@! TO.N,605*
X8070866D03*
G04 #@! TO.N,606*
X8464567D03*
G04 #@! TO.N,607*
X8858268D03*
G04 #@! TO.N,608*
X9251968D03*
G04 #@! TO.N,609*
X196850Y7677165D03*
G04 #@! TO.N,610*
X590551D03*
G04 #@! TO.N,611*
X984252D03*
G04 #@! TO.N,612*
X1377953D03*
G04 #@! TO.N,613*
X1771653D03*
G04 #@! TO.N,614*
X2165354D03*
G04 #@! TO.N,615*
X2559055D03*
G04 #@! TO.N,616*
X2952756D03*
G04 #@! TO.N,617*
X3346456D03*
G04 #@! TO.N,618*
X3740157D03*
G04 #@! TO.N,619*
X4133858D03*
G04 #@! TO.N,620*
X4527559D03*
G04 #@! TO.N,621*
X4921260D03*
G04 #@! TO.N,622*
X5314960D03*
G04 #@! TO.N,623*
X5708661D03*
G04 #@! TO.N,624*
X6102362D03*
G04 #@! TO.N,625*
X6496063D03*
G04 #@! TO.N,626*
X6889764D03*
G04 #@! TO.N,627*
X7283464D03*
G04 #@! TO.N,628*
X7677165D03*
G04 #@! TO.N,629*
X8070866D03*
G04 #@! TO.N,630*
X8464567D03*
G04 #@! TO.N,631*
X8858268D03*
G04 #@! TO.N,632*
X9251968D03*
G04 #@! TO.N,633*
X9645669Y6102362D03*
G04 #@! TO.N,634*
Y6496063D03*
G04 #@! TO.N,635*
Y6889764D03*
G04 #@! TO.N,636*
Y7283465D03*
G04 #@! TO.N,637*
Y7677165D03*
G04 #@! TO.N,638*
X196850Y4133858D03*
G04 #@! TO.N,639*
X590551D03*
G04 #@! TO.N,640*
X984252D03*
G04 #@! TO.N,641*
X1377953D03*
G04 #@! TO.N,642*
X1771653D03*
G04 #@! TO.N,643*
X2165354D03*
G04 #@! TO.N,644*
X2559055D03*
G04 #@! TO.N,645*
X2952756D03*
G04 #@! TO.N,646*
X3346456D03*
G04 #@! TO.N,647*
X3740157D03*
G04 #@! TO.N,648*
X4133858D03*
G04 #@! TO.N,649*
X4527559D03*
G04 #@! TO.N,650*
X4921260D03*
G04 #@! TO.N,651*
X5314960D03*
G04 #@! TO.N,652*
X5708661D03*
G04 #@! TO.N,653*
X6102362D03*
G04 #@! TO.N,654*
X6496063D03*
G04 #@! TO.N,655*
X6889764D03*
G04 #@! TO.N,656*
X7283464D03*
G04 #@! TO.N,657*
X7677165D03*
G04 #@! TO.N,658*
X8070866D03*
G04 #@! TO.N,659*
X8464567D03*
G04 #@! TO.N,660*
X8858268D03*
G04 #@! TO.N,661*
X9251968D03*
G04 #@! TO.N,662*
X196850Y4527559D03*
G04 #@! TO.N,663*
X590551D03*
G04 #@! TO.N,664*
X984252D03*
G04 #@! TO.N,665*
X1377953D03*
G04 #@! TO.N,666*
X1771653D03*
G04 #@! TO.N,667*
X2165354D03*
G04 #@! TO.N,668*
X2559055D03*
G04 #@! TO.N,669*
X2952756D03*
G04 #@! TO.N,670*
X3346456D03*
G04 #@! TO.N,671*
X3740157D03*
G04 #@! TO.N,672*
X4133858D03*
G04 #@! TO.N,673*
X4527559D03*
G04 #@! TO.N,674*
X4921260D03*
G04 #@! TO.N,675*
X5314960D03*
G04 #@! TO.N,676*
X5708661D03*
G04 #@! TO.N,677*
X6102362D03*
G04 #@! TO.N,678*
X6496063Y4448819D03*
G04 #@! TO.N,679*
X6889764D03*
G04 #@! TO.N,680*
X7283464D03*
G04 #@! TO.N,681*
X7677165D03*
G04 #@! TO.N,682*
X8070866Y4527559D03*
G04 #@! TO.N,683*
X8464567D03*
G04 #@! TO.N,684*
X8858268D03*
G04 #@! TO.N,685*
X9251968D03*
G04 #@! TO.N,686*
X196850Y4921260D03*
G04 #@! TO.N,687*
X590551D03*
G04 #@! TO.N,688*
X984252D03*
G04 #@! TO.N,689*
X1377953D03*
G04 #@! TO.N,690*
X1771653D03*
G04 #@! TO.N,691*
X2165354D03*
G04 #@! TO.N,692*
X2559055D03*
G04 #@! TO.N,693*
X2952756D03*
G04 #@! TO.N,694*
X3346456D03*
G04 #@! TO.N,695*
X3740157D03*
G04 #@! TO.N,696*
X4133858D03*
G04 #@! TO.N,697*
X4527559D03*
G04 #@! TO.N,698*
X4921260D03*
G04 #@! TO.N,699*
X5314960D03*
G04 #@! TO.N,700*
X5708661D03*
G04 #@! TO.N,701*
X6102362D03*
G04 #@! TO.N,702*
X6496063D03*
G04 #@! TO.N,703*
X6889764D03*
G04 #@! TO.N,704*
X7283464D03*
G04 #@! TO.N,705*
X7677165D03*
G04 #@! TO.N,706*
X8070866D03*
G04 #@! TO.N,707*
X8464567D03*
G04 #@! TO.N,708*
X8858268D03*
G04 #@! TO.N,709*
X9251968D03*
G04 #@! TO.N,710*
X196850Y5314961D03*
G04 #@! TO.N,711*
X590551D03*
G04 #@! TO.N,712*
X984252D03*
G04 #@! TO.N,713*
X1377953D03*
G04 #@! TO.N,714*
X1771653D03*
G04 #@! TO.N,715*
X2165354D03*
G04 #@! TO.N,716*
X2559055D03*
G04 #@! TO.N,717*
X2952756D03*
G04 #@! TO.N,718*
X3346456D03*
G04 #@! TO.N,719*
X3740157D03*
G04 #@! TO.N,720*
X4133858D03*
G04 #@! TO.N,721*
X4527559D03*
G04 #@! TO.N,722*
X4921260D03*
G04 #@! TO.N,723*
X5314960D03*
G04 #@! TO.N,724*
X5708661D03*
G04 #@! TO.N,725*
X6102362D03*
G04 #@! TO.N,726*
X6496063D03*
G04 #@! TO.N,727*
X6889764D03*
G04 #@! TO.N,728*
X7283464D03*
G04 #@! TO.N,729*
X7677165D03*
G04 #@! TO.N,730*
X8070866D03*
G04 #@! TO.N,731*
X8464567D03*
G04 #@! TO.N,732*
X8858268D03*
G04 #@! TO.N,733*
X9251968D03*
G04 #@! TO.N,734*
X196850Y5708661D03*
G04 #@! TO.N,735*
X590551D03*
G04 #@! TO.N,736*
X984252D03*
G04 #@! TO.N,737*
X1377953D03*
G04 #@! TO.N,738*
X1771653D03*
G04 #@! TO.N,739*
X2165354D03*
G04 #@! TO.N,740*
X2559055D03*
G04 #@! TO.N,741*
X2952756D03*
G04 #@! TO.N,742*
X3346456D03*
G04 #@! TO.N,743*
X3740157D03*
G04 #@! TO.N,744*
X4133858D03*
G04 #@! TO.N,745*
X4527559D03*
G04 #@! TO.N,746*
X4921260D03*
G04 #@! TO.N,747*
X5314960D03*
G04 #@! TO.N,748*
X5708661D03*
G04 #@! TO.N,749*
X6102362D03*
G04 #@! TO.N,750*
X6496063Y5629921D03*
G04 #@! TO.N,751*
X6889764D03*
G04 #@! TO.N,752*
X7283464D03*
G04 #@! TO.N,753*
X7677165D03*
G04 #@! TO.N,754*
X8070866Y5708661D03*
G04 #@! TO.N,755*
X8464567D03*
G04 #@! TO.N,756*
X8858268D03*
G04 #@! TO.N,757*
X9251968D03*
G04 #@! TO.N,758*
X9645669Y4133858D03*
G04 #@! TO.N,759*
Y4527559D03*
G04 #@! TO.N,760*
Y4921260D03*
G04 #@! TO.N,761*
Y5314961D03*
G04 #@! TO.N,762*
Y5708661D03*
G04 #@! TO.N,763*
Y1771654D03*
G04 #@! TO.N,764*
X9251968D03*
G04 #@! TO.N,765*
X8858268D03*
G04 #@! TO.N,766*
X8464567D03*
G04 #@! TO.N,767*
X8070866D03*
G04 #@! TO.N,768*
X7677165D03*
G04 #@! TO.N,769*
X7283464D03*
G04 #@! TO.N,770*
X6889764D03*
G04 #@! TO.N,771*
X6496063D03*
G04 #@! TO.N,772*
X6102362D03*
G04 #@! TO.N,773*
X5708661D03*
G04 #@! TO.N,774*
X5314960D03*
G04 #@! TO.N,775*
X4921260D03*
G04 #@! TO.N,776*
X4527559D03*
G04 #@! TO.N,777*
X4133858D03*
G04 #@! TO.N,778*
X3740157D03*
G04 #@! TO.N,779*
X3346456D03*
G04 #@! TO.N,780*
X2952756D03*
G04 #@! TO.N,781*
X2559055D03*
G04 #@! TO.N,782*
X2165354D03*
G04 #@! TO.N,783*
X1771653D03*
G04 #@! TO.N,784*
X1377953D03*
G04 #@! TO.N,785*
X984252D03*
G04 #@! TO.N,786*
X590551D03*
G04 #@! TO.N,787*
X9645669Y1377953D03*
G04 #@! TO.N,788*
X9251968D03*
G04 #@! TO.N,789*
X8858268D03*
G04 #@! TO.N,790*
X8464567D03*
G04 #@! TO.N,791*
X8070866D03*
G04 #@! TO.N,792*
X7677165D03*
G04 #@! TO.N,793*
X7283464D03*
G04 #@! TO.N,794*
X6889764D03*
G04 #@! TO.N,795*
X6496063D03*
G04 #@! TO.N,796*
X6102362D03*
G04 #@! TO.N,797*
X5708661D03*
G04 #@! TO.N,798*
X5314960Y1456693D03*
G04 #@! TO.N,799*
X4921260D03*
G04 #@! TO.N,800*
X4527559D03*
G04 #@! TO.N,801*
X4133858Y1377953D03*
G04 #@! TO.N,802*
X3740157D03*
G04 #@! TO.N,803*
X3346456D03*
G04 #@! TO.N,804*
X2952756D03*
G04 #@! TO.N,805*
X2559055D03*
G04 #@! TO.N,806*
X2165354D03*
G04 #@! TO.N,807*
X1771653D03*
G04 #@! TO.N,808*
X1545275D03*
G04 #@! TO.N,809*
X984252D03*
G04 #@! TO.N,810*
X757874D03*
G04 #@! TO.N,811*
X9645669Y984252D03*
G04 #@! TO.N,812*
X9251968D03*
G04 #@! TO.N,813*
X8858268D03*
G04 #@! TO.N,814*
X8464567D03*
G04 #@! TO.N,815*
X8070866D03*
G04 #@! TO.N,816*
X7677165D03*
G04 #@! TO.N,817*
X7283464D03*
G04 #@! TO.N,818*
X6889764D03*
G04 #@! TO.N,819*
X6496063D03*
G04 #@! TO.N,820*
X6102362D03*
G04 #@! TO.N,821*
X5708661D03*
G04 #@! TO.N,822*
X5314960D03*
G04 #@! TO.N,823*
X4921260D03*
G04 #@! TO.N,824*
X4527559D03*
G04 #@! TO.N,825*
X4133858D03*
G04 #@! TO.N,826*
X3740157D03*
G04 #@! TO.N,827*
X3346456D03*
G04 #@! TO.N,828*
X2952756D03*
G04 #@! TO.N,829*
X2559055D03*
G04 #@! TO.N,830*
X2165354D03*
G04 #@! TO.N,831*
X1771653D03*
G04 #@! TO.N,832*
X1545275D03*
G04 #@! TO.N,833*
X9645669Y590551D03*
G04 #@! TO.N,834*
X9251968D03*
G04 #@! TO.N,835*
X8858268D03*
G04 #@! TO.N,836*
X8464567D03*
G04 #@! TO.N,837*
X8070866D03*
G04 #@! TO.N,838*
X7677165D03*
G04 #@! TO.N,839*
X7283464D03*
G04 #@! TO.N,840*
X6889764D03*
G04 #@! TO.N,841*
X6496063D03*
G04 #@! TO.N,842*
X6102362D03*
G04 #@! TO.N,843*
X5708661D03*
G04 #@! TO.N,844*
X5314960D03*
G04 #@! TO.N,845*
X4921260D03*
G04 #@! TO.N,846*
X4527559D03*
G04 #@! TO.N,847*
X4133858D03*
G04 #@! TO.N,848*
X3740157D03*
G04 #@! TO.N,849*
X3346456D03*
G04 #@! TO.N,850*
X2952756D03*
G04 #@! TO.N,851*
X2559055D03*
G04 #@! TO.N,852*
X2165354D03*
G04 #@! TO.N,853*
X1771653D03*
G04 #@! TO.N,854*
X1545275D03*
G04 #@! TO.N,855*
X9645669Y196850D03*
G04 #@! TO.N,856*
X9251968D03*
G04 #@! TO.N,857*
X8858268D03*
G04 #@! TO.N,858*
X8464567D03*
G04 #@! TO.N,859*
X8070866D03*
G04 #@! TO.N,860*
X7677165D03*
G04 #@! TO.N,861*
X7283464D03*
G04 #@! TO.N,862*
X6889764D03*
G04 #@! TO.N,863*
X6496063D03*
G04 #@! TO.N,864*
X6102362D03*
G04 #@! TO.N,865*
X5708661D03*
G04 #@! TO.N,866*
X5314960D03*
G04 #@! TO.N,867*
X4921260D03*
G04 #@! TO.N,868*
X4527559D03*
G04 #@! TO.N,869*
X4133858D03*
G04 #@! TO.N,870*
X3740157D03*
G04 #@! TO.N,871*
X3346456D03*
G04 #@! TO.N,872*
X2952756D03*
G04 #@! TO.N,873*
X2559055D03*
G04 #@! TO.N,874*
X2165354D03*
G04 #@! TO.N,875*
X1771653D03*
G04 #@! TO.N,876*
X1545275D03*
G04 #@! TO.N,877*
X196850Y1771654D03*
G04 #@! TO.N,878*
X364173Y1377953D03*
G04 #@! TO.N,879*
X9645669Y3740157D03*
G04 #@! TO.N,880*
X9251968D03*
G04 #@! TO.N,881*
X8858268D03*
G04 #@! TO.N,882*
X8464567D03*
G04 #@! TO.N,883*
X8070866D03*
G04 #@! TO.N,884*
X7677165D03*
G04 #@! TO.N,885*
X7283464D03*
G04 #@! TO.N,886*
X6889764D03*
G04 #@! TO.N,887*
X6496063D03*
G04 #@! TO.N,888*
X6102362D03*
G04 #@! TO.N,889*
X5708661D03*
G04 #@! TO.N,890*
X5314960D03*
G04 #@! TO.N,891*
X4921260D03*
G04 #@! TO.N,892*
X4527559D03*
G04 #@! TO.N,893*
X4133858D03*
G04 #@! TO.N,894*
X3740157D03*
G04 #@! TO.N,895*
X3346456D03*
G04 #@! TO.N,896*
X2952756D03*
G04 #@! TO.N,897*
X2559055D03*
G04 #@! TO.N,898*
X2165354D03*
G04 #@! TO.N,899*
X1771653D03*
G04 #@! TO.N,900*
X1377953D03*
G04 #@! TO.N,901*
X984252D03*
G04 #@! TO.N,902*
X590551D03*
G04 #@! TO.N,903*
X9645669Y3346457D03*
G04 #@! TO.N,904*
X9251968D03*
G04 #@! TO.N,905*
X8858268D03*
G04 #@! TO.N,906*
X8464567D03*
G04 #@! TO.N,907*
X8070866D03*
G04 #@! TO.N,908*
X7677165D03*
G04 #@! TO.N,909*
X7283464D03*
G04 #@! TO.N,910*
X6889764D03*
G04 #@! TO.N,911*
X6496063D03*
G04 #@! TO.N,912*
X6102362D03*
G04 #@! TO.N,913*
X5708661D03*
G04 #@! TO.N,914*
X5314960D03*
G04 #@! TO.N,915*
X4921260D03*
G04 #@! TO.N,916*
X4527559D03*
G04 #@! TO.N,917*
X4133858D03*
G04 #@! TO.N,918*
X3740157D03*
G04 #@! TO.N,919*
X3346456Y3425197D03*
G04 #@! TO.N,920*
X2952756D03*
G04 #@! TO.N,921*
X2559055D03*
G04 #@! TO.N,922*
X2165354D03*
G04 #@! TO.N,923*
X1771653Y3346457D03*
G04 #@! TO.N,924*
X1377953D03*
G04 #@! TO.N,925*
X984252D03*
G04 #@! TO.N,926*
X590551D03*
G04 #@! TO.N,927*
X9645669Y2952756D03*
G04 #@! TO.N,928*
X9251968D03*
G04 #@! TO.N,929*
X8858268D03*
G04 #@! TO.N,930*
X8464567D03*
G04 #@! TO.N,931*
X8070866D03*
G04 #@! TO.N,932*
X7677165D03*
G04 #@! TO.N,933*
X7283464D03*
G04 #@! TO.N,934*
X6889764D03*
G04 #@! TO.N,935*
X6496063D03*
G04 #@! TO.N,936*
X6102362D03*
G04 #@! TO.N,937*
X5708661D03*
G04 #@! TO.N,938*
X5314960D03*
G04 #@! TO.N,939*
X4921260D03*
G04 #@! TO.N,940*
X4527559D03*
G04 #@! TO.N,941*
X4133858D03*
G04 #@! TO.N,942*
X3740157D03*
G04 #@! TO.N,943*
X3346456D03*
G04 #@! TO.N,944*
X2952756D03*
G04 #@! TO.N,945*
X2559055D03*
G04 #@! TO.N,946*
X2165354D03*
G04 #@! TO.N,947*
X1771653D03*
G04 #@! TO.N,948*
X1377953D03*
G04 #@! TO.N,949*
X984252D03*
G04 #@! TO.N,950*
X590551D03*
G04 #@! TO.N,951*
X9645669Y2559055D03*
G04 #@! TO.N,952*
X9251968D03*
G04 #@! TO.N,953*
X8858268D03*
G04 #@! TO.N,954*
X8464567D03*
G04 #@! TO.N,955*
X8070866D03*
G04 #@! TO.N,956*
X7677165D03*
G04 #@! TO.N,957*
X7283464D03*
G04 #@! TO.N,958*
X6889764D03*
G04 #@! TO.N,959*
X6496063D03*
G04 #@! TO.N,960*
X6102362D03*
G04 #@! TO.N,961*
X5708661D03*
G04 #@! TO.N,962*
X5314960D03*
G04 #@! TO.N,963*
X4921260D03*
G04 #@! TO.N,964*
X4527559D03*
G04 #@! TO.N,965*
X4133858D03*
G04 #@! TO.N,966*
X3740157D03*
G04 #@! TO.N,967*
X3346456D03*
G04 #@! TO.N,968*
X2952756D03*
G04 #@! TO.N,969*
X2559055D03*
G04 #@! TO.N,970*
X2165354D03*
G04 #@! TO.N,971*
X1771653D03*
G04 #@! TO.N,972*
X1377953D03*
G04 #@! TO.N,973*
X984252D03*
G04 #@! TO.N,974*
X590551D03*
G04 #@! TO.N,975*
X9645669Y2165354D03*
G04 #@! TO.N,976*
X9251968D03*
G04 #@! TO.N,977*
X8858268D03*
G04 #@! TO.N,978*
X8464567D03*
G04 #@! TO.N,979*
X8070866D03*
G04 #@! TO.N,980*
X7677165D03*
G04 #@! TO.N,981*
X7283464D03*
G04 #@! TO.N,982*
X6889764D03*
G04 #@! TO.N,983*
X6496063D03*
G04 #@! TO.N,984*
X6102362D03*
G04 #@! TO.N,985*
X5708661D03*
G04 #@! TO.N,986*
X5314960D03*
G04 #@! TO.N,987*
X4921260D03*
G04 #@! TO.N,988*
X4527559D03*
G04 #@! TO.N,989*
X4133858D03*
G04 #@! TO.N,990*
X3740157D03*
G04 #@! TO.N,991*
X3346456Y2244094D03*
G04 #@! TO.N,992*
X2952756D03*
G04 #@! TO.N,993*
X2559055D03*
G04 #@! TO.N,994*
X2165354D03*
G04 #@! TO.N,995*
X1771653Y2165354D03*
G04 #@! TO.N,996*
X1377953D03*
G04 #@! TO.N,997*
X984252D03*
G04 #@! TO.N,998*
X590551D03*
G04 #@! TO.N,999*
X196850Y3740157D03*
G04 #@! TO.N,1000*
Y3346457D03*
G04 #@! TO.N,1001*
Y2952756D03*
G04 #@! TO.N,1002*
Y2559055D03*
G04 #@! TO.N,1003*
Y2165354D03*
G04 #@! TO.N,1004*
Y-6102362D03*
G04 #@! TO.N,1005*
X590551D03*
G04 #@! TO.N,1006*
X984252D03*
G04 #@! TO.N,1007*
X1377953D03*
G04 #@! TO.N,1008*
X1771653D03*
G04 #@! TO.N,1009*
X2165354D03*
G04 #@! TO.N,1010*
X2559055D03*
G04 #@! TO.N,1011*
X2952756D03*
G04 #@! TO.N,1012*
X3346456D03*
G04 #@! TO.N,1013*
X3740157D03*
G04 #@! TO.N,1014*
X4133858D03*
G04 #@! TO.N,1015*
X4527559D03*
G04 #@! TO.N,1016*
X4921260D03*
G04 #@! TO.N,1017*
X5314960D03*
G04 #@! TO.N,1018*
X5708661D03*
G04 #@! TO.N,1019*
X6102362D03*
G04 #@! TO.N,1020*
X6496063D03*
G04 #@! TO.N,1021*
X6889764D03*
G04 #@! TO.N,1022*
X7283464D03*
G04 #@! TO.N,1023*
X7677165D03*
G04 #@! TO.N,1024*
X8070866D03*
G04 #@! TO.N,1025*
X8464567D03*
G04 #@! TO.N,1026*
X8858268D03*
G04 #@! TO.N,1027*
X9251968D03*
G04 #@! TO.N,1028*
X196850Y-6496063D03*
G04 #@! TO.N,1029*
X590551D03*
G04 #@! TO.N,1030*
X984252D03*
G04 #@! TO.N,1031*
X1377953D03*
G04 #@! TO.N,1032*
X1771653D03*
G04 #@! TO.N,1033*
X2165354D03*
G04 #@! TO.N,1034*
X2559055D03*
G04 #@! TO.N,1035*
X2952756D03*
G04 #@! TO.N,1036*
X3346456D03*
G04 #@! TO.N,1037*
X3740157D03*
G04 #@! TO.N,1038*
X4133858D03*
G04 #@! TO.N,1039*
X4527559Y-6417323D03*
G04 #@! TO.N,1040*
X4921260D03*
G04 #@! TO.N,1041*
X5314960D03*
G04 #@! TO.N,1042*
X5708661Y-6496063D03*
G04 #@! TO.N,1043*
X6102362D03*
G04 #@! TO.N,1044*
X6496063D03*
G04 #@! TO.N,1045*
X6889764D03*
G04 #@! TO.N,1046*
X7283464D03*
G04 #@! TO.N,1047*
X7677165D03*
G04 #@! TO.N,1048*
X8070866D03*
G04 #@! TO.N,1049*
X8464567D03*
G04 #@! TO.N,1050*
X8858268D03*
G04 #@! TO.N,1051*
X9251968D03*
G04 #@! TO.N,1052*
X196850Y-6889764D03*
G04 #@! TO.N,1053*
X590551D03*
G04 #@! TO.N,1054*
X984252D03*
G04 #@! TO.N,1055*
X1377953D03*
G04 #@! TO.N,1056*
X1771653D03*
G04 #@! TO.N,1057*
X2165354D03*
G04 #@! TO.N,1058*
X2559055D03*
G04 #@! TO.N,1059*
X2952756D03*
G04 #@! TO.N,1060*
X3346456D03*
G04 #@! TO.N,1061*
X3740157D03*
G04 #@! TO.N,1062*
X4133858D03*
G04 #@! TO.N,1063*
X4527559D03*
G04 #@! TO.N,1064*
X4921260D03*
G04 #@! TO.N,1065*
X5314960D03*
G04 #@! TO.N,1066*
X5708661D03*
G04 #@! TO.N,1067*
X6102362D03*
G04 #@! TO.N,1068*
X6496063D03*
G04 #@! TO.N,1069*
X6889764D03*
G04 #@! TO.N,1070*
X7283464D03*
G04 #@! TO.N,1071*
X7677165D03*
G04 #@! TO.N,1072*
X8070866D03*
G04 #@! TO.N,1073*
X8464567D03*
G04 #@! TO.N,1074*
X8858268D03*
G04 #@! TO.N,1075*
X9251968D03*
G04 #@! TO.N,1076*
X196850Y-7283465D03*
G04 #@! TO.N,1077*
X590551D03*
G04 #@! TO.N,1078*
X984252D03*
G04 #@! TO.N,1079*
X1377953D03*
G04 #@! TO.N,1080*
X1771653D03*
G04 #@! TO.N,1081*
X2165354D03*
G04 #@! TO.N,1082*
X2559055D03*
G04 #@! TO.N,1083*
X2952756D03*
G04 #@! TO.N,1084*
X3346456D03*
G04 #@! TO.N,1085*
X3740157D03*
G04 #@! TO.N,1086*
X4133858D03*
G04 #@! TO.N,1087*
X4527559D03*
G04 #@! TO.N,1088*
X4921260D03*
G04 #@! TO.N,1089*
X5314960D03*
G04 #@! TO.N,1090*
X5708661D03*
G04 #@! TO.N,1091*
X6102362D03*
G04 #@! TO.N,1092*
X6496063D03*
G04 #@! TO.N,1093*
X6889764D03*
G04 #@! TO.N,1094*
X7283464D03*
G04 #@! TO.N,1095*
X7677165D03*
G04 #@! TO.N,1096*
X8070866D03*
G04 #@! TO.N,1097*
X8464567D03*
G04 #@! TO.N,1098*
X8858268D03*
G04 #@! TO.N,1099*
X9251968D03*
G04 #@! TO.N,1100*
X196850Y-7677165D03*
G04 #@! TO.N,1101*
X590551D03*
G04 #@! TO.N,1102*
X984252D03*
G04 #@! TO.N,1103*
X1377953D03*
G04 #@! TO.N,1104*
X1771653D03*
G04 #@! TO.N,1105*
X2165354D03*
G04 #@! TO.N,1106*
X2559055D03*
G04 #@! TO.N,1107*
X2952756D03*
G04 #@! TO.N,1108*
X3346456D03*
G04 #@! TO.N,1109*
X3740157D03*
G04 #@! TO.N,1110*
X4133858D03*
G04 #@! TO.N,1111*
X4527559D03*
G04 #@! TO.N,1112*
X4921260D03*
G04 #@! TO.N,1113*
X5314960D03*
G04 #@! TO.N,1114*
X5708661D03*
G04 #@! TO.N,1115*
X6102362D03*
G04 #@! TO.N,1116*
X6496063D03*
G04 #@! TO.N,1117*
X6889764D03*
G04 #@! TO.N,1118*
X7283464D03*
G04 #@! TO.N,1119*
X7677165D03*
G04 #@! TO.N,1120*
X8070866D03*
G04 #@! TO.N,1121*
X8464567D03*
G04 #@! TO.N,1122*
X8858268D03*
G04 #@! TO.N,1123*
X9251968D03*
G04 #@! TO.N,1124*
X9645669Y-6102362D03*
G04 #@! TO.N,1125*
Y-6496063D03*
G04 #@! TO.N,1126*
Y-6889764D03*
G04 #@! TO.N,1127*
Y-7283465D03*
G04 #@! TO.N,1128*
Y-7677165D03*
G04 #@! TO.N,1129*
X196850Y-4133858D03*
G04 #@! TO.N,1130*
X590551D03*
G04 #@! TO.N,1131*
X984252D03*
G04 #@! TO.N,1132*
X1377953D03*
G04 #@! TO.N,1133*
X1771653D03*
G04 #@! TO.N,1134*
X2165354D03*
G04 #@! TO.N,1135*
X2559055D03*
G04 #@! TO.N,1136*
X2952756D03*
G04 #@! TO.N,1137*
X3346456D03*
G04 #@! TO.N,1138*
X3740157D03*
G04 #@! TO.N,1139*
X4133858D03*
G04 #@! TO.N,1140*
X4527559D03*
G04 #@! TO.N,1141*
X4921260D03*
G04 #@! TO.N,1142*
X5314960D03*
G04 #@! TO.N,1143*
X5708661D03*
G04 #@! TO.N,1144*
X6102362D03*
G04 #@! TO.N,1145*
X6496063D03*
G04 #@! TO.N,1146*
X6889764D03*
G04 #@! TO.N,1147*
X7283464D03*
G04 #@! TO.N,1148*
X7677165D03*
G04 #@! TO.N,1149*
X8070866D03*
G04 #@! TO.N,1150*
X8464567D03*
G04 #@! TO.N,1151*
X8858268D03*
G04 #@! TO.N,1152*
X9251968D03*
G04 #@! TO.N,1153*
X196850Y-4527559D03*
G04 #@! TO.N,1154*
X590551D03*
G04 #@! TO.N,1155*
X984252D03*
G04 #@! TO.N,1156*
X1377953D03*
G04 #@! TO.N,1157*
X1771653D03*
G04 #@! TO.N,1158*
X2165354D03*
G04 #@! TO.N,1159*
X2559055D03*
G04 #@! TO.N,1160*
X2952756D03*
G04 #@! TO.N,1161*
X3346456D03*
G04 #@! TO.N,1162*
X3740157D03*
G04 #@! TO.N,1163*
X4133858D03*
G04 #@! TO.N,1164*
X4527559D03*
G04 #@! TO.N,1165*
X4921260D03*
G04 #@! TO.N,1166*
X5314960D03*
G04 #@! TO.N,1167*
X5708661D03*
G04 #@! TO.N,1168*
X6102362D03*
G04 #@! TO.N,1169*
X6496063Y-4448819D03*
G04 #@! TO.N,1170*
X6889764D03*
G04 #@! TO.N,1171*
X7283464D03*
G04 #@! TO.N,1172*
X7677165D03*
G04 #@! TO.N,1173*
X8070866Y-4527559D03*
G04 #@! TO.N,1174*
X8464567D03*
G04 #@! TO.N,1175*
X8858268D03*
G04 #@! TO.N,1176*
X9251968D03*
G04 #@! TO.N,1177*
X196850Y-4921260D03*
G04 #@! TO.N,1178*
X590551D03*
G04 #@! TO.N,1179*
X984252D03*
G04 #@! TO.N,1180*
X1377953D03*
G04 #@! TO.N,1181*
X1771653D03*
G04 #@! TO.N,1182*
X2165354D03*
G04 #@! TO.N,1183*
X2559055D03*
G04 #@! TO.N,1184*
X2952756D03*
G04 #@! TO.N,1185*
X3346456D03*
G04 #@! TO.N,1186*
X3740157D03*
G04 #@! TO.N,1187*
X4133858D03*
G04 #@! TO.N,1188*
X4527559D03*
G04 #@! TO.N,1189*
X4921260D03*
G04 #@! TO.N,1190*
X5314960D03*
G04 #@! TO.N,1191*
X5708661D03*
G04 #@! TO.N,1192*
X6102362D03*
G04 #@! TO.N,1193*
X6496063D03*
G04 #@! TO.N,1194*
X6889764D03*
G04 #@! TO.N,1195*
X7283464D03*
G04 #@! TO.N,1196*
X7677165D03*
G04 #@! TO.N,1197*
X8070866D03*
G04 #@! TO.N,1198*
X8464567D03*
G04 #@! TO.N,1199*
X8858268D03*
G04 #@! TO.N,1200*
X9251968D03*
G04 #@! TO.N,1201*
X196850Y-5314961D03*
G04 #@! TO.N,1202*
X590551D03*
G04 #@! TO.N,1203*
X984252D03*
G04 #@! TO.N,1204*
X1377953D03*
G04 #@! TO.N,1205*
X1771653D03*
G04 #@! TO.N,1206*
X2165354D03*
G04 #@! TO.N,1207*
X2559055D03*
G04 #@! TO.N,1208*
X2952756D03*
G04 #@! TO.N,1209*
X3346456D03*
G04 #@! TO.N,1210*
X3740157D03*
G04 #@! TO.N,1211*
X4133858D03*
G04 #@! TO.N,1212*
X4527559D03*
G04 #@! TO.N,1213*
X4921260D03*
G04 #@! TO.N,1214*
X5314960D03*
G04 #@! TO.N,1215*
X5708661D03*
G04 #@! TO.N,1216*
X6102362D03*
G04 #@! TO.N,1217*
X6496063D03*
G04 #@! TO.N,1218*
X6889764D03*
G04 #@! TO.N,1219*
X7283464D03*
G04 #@! TO.N,1220*
X7677165D03*
G04 #@! TO.N,1221*
X8070866D03*
G04 #@! TO.N,1222*
X8464567D03*
G04 #@! TO.N,1223*
X8858268D03*
G04 #@! TO.N,1224*
X9251968D03*
G04 #@! TO.N,1225*
X196850Y-5708661D03*
G04 #@! TO.N,1226*
X590551D03*
G04 #@! TO.N,1227*
X984252D03*
G04 #@! TO.N,1228*
X1377953D03*
G04 #@! TO.N,1229*
X1771653D03*
G04 #@! TO.N,1230*
X2165354D03*
G04 #@! TO.N,1231*
X2559055D03*
G04 #@! TO.N,1232*
X2952756D03*
G04 #@! TO.N,1233*
X3346456D03*
G04 #@! TO.N,1234*
X3740157D03*
G04 #@! TO.N,1235*
X4133858D03*
G04 #@! TO.N,1236*
X4527559D03*
G04 #@! TO.N,1237*
X4921260D03*
G04 #@! TO.N,1238*
X5314960D03*
G04 #@! TO.N,1239*
X5708661D03*
G04 #@! TO.N,1240*
X6102362D03*
G04 #@! TO.N,1241*
X6496063Y-5629921D03*
G04 #@! TO.N,1242*
X6889764D03*
G04 #@! TO.N,1243*
X7283464D03*
G04 #@! TO.N,1244*
X7677165D03*
G04 #@! TO.N,1245*
X8070866Y-5708661D03*
G04 #@! TO.N,1246*
X8464567D03*
G04 #@! TO.N,1247*
X8858268D03*
G04 #@! TO.N,1248*
X9251968D03*
G04 #@! TO.N,1249*
X9645669Y-4133858D03*
G04 #@! TO.N,1250*
Y-4527559D03*
G04 #@! TO.N,1251*
Y-4921260D03*
G04 #@! TO.N,1252*
Y-5314961D03*
G04 #@! TO.N,1253*
Y-5708661D03*
G04 #@! TO.N,1254*
Y-1771654D03*
G04 #@! TO.N,1255*
X9251968D03*
G04 #@! TO.N,1256*
X8858268D03*
G04 #@! TO.N,1257*
X8464567D03*
G04 #@! TO.N,1258*
X8070866D03*
G04 #@! TO.N,1259*
X7677165D03*
G04 #@! TO.N,1260*
X7283464D03*
G04 #@! TO.N,1261*
X6889764D03*
G04 #@! TO.N,1262*
X6496063D03*
G04 #@! TO.N,1263*
X6102362D03*
G04 #@! TO.N,1264*
X5708661D03*
G04 #@! TO.N,1265*
X5314960D03*
G04 #@! TO.N,1266*
X4921260D03*
G04 #@! TO.N,1267*
X4527559D03*
G04 #@! TO.N,1268*
X4133858D03*
G04 #@! TO.N,1269*
X3740157D03*
G04 #@! TO.N,1270*
X3346456D03*
G04 #@! TO.N,1271*
X2952756D03*
G04 #@! TO.N,1272*
X2559055D03*
G04 #@! TO.N,1273*
X2165354D03*
G04 #@! TO.N,1274*
X1771653D03*
G04 #@! TO.N,1275*
X1377953D03*
G04 #@! TO.N,1276*
X984252D03*
G04 #@! TO.N,1277*
X590551D03*
G04 #@! TO.N,1278*
X9645669Y-1377953D03*
G04 #@! TO.N,1279*
X9251968D03*
G04 #@! TO.N,1280*
X8858268D03*
G04 #@! TO.N,1281*
X8464567D03*
G04 #@! TO.N,1282*
X8070866D03*
G04 #@! TO.N,1283*
X7677165D03*
G04 #@! TO.N,1284*
X7283464D03*
G04 #@! TO.N,1285*
X6889764D03*
G04 #@! TO.N,1286*
X6496063D03*
G04 #@! TO.N,1287*
X6102362D03*
G04 #@! TO.N,1288*
X5708661D03*
G04 #@! TO.N,1289*
X5314960Y-1456693D03*
G04 #@! TO.N,1290*
X4921260D03*
G04 #@! TO.N,1291*
X4527559D03*
G04 #@! TO.N,1292*
X4133858Y-1377953D03*
G04 #@! TO.N,1293*
X3740157D03*
G04 #@! TO.N,1294*
X3346456D03*
G04 #@! TO.N,1295*
X2952756D03*
G04 #@! TO.N,1296*
X2559055D03*
G04 #@! TO.N,1297*
X2165354D03*
G04 #@! TO.N,1298*
X1771653D03*
G04 #@! TO.N,1299*
X1545275D03*
G04 #@! TO.N,1300*
X984252D03*
G04 #@! TO.N,1301*
X757874D03*
G04 #@! TO.N,1302*
X9645669Y-984252D03*
G04 #@! TO.N,1303*
X9251968D03*
G04 #@! TO.N,1304*
X8858268D03*
G04 #@! TO.N,1305*
X8464567D03*
G04 #@! TO.N,1306*
X8070866D03*
G04 #@! TO.N,1307*
X7677165D03*
G04 #@! TO.N,1308*
X7283464D03*
G04 #@! TO.N,1309*
X6889764D03*
G04 #@! TO.N,1310*
X6496063D03*
G04 #@! TO.N,1311*
X6102362D03*
G04 #@! TO.N,1312*
X5708661D03*
G04 #@! TO.N,1313*
X5314960D03*
G04 #@! TO.N,1314*
X4921260D03*
G04 #@! TO.N,1315*
X4527559D03*
G04 #@! TO.N,1316*
X4133858D03*
G04 #@! TO.N,1317*
X3740157D03*
G04 #@! TO.N,1318*
X3346456D03*
G04 #@! TO.N,1319*
X2952756D03*
G04 #@! TO.N,1320*
X2559055D03*
G04 #@! TO.N,1321*
X2165354D03*
G04 #@! TO.N,1322*
X1771653D03*
G04 #@! TO.N,1323*
X1545275D03*
G04 #@! TO.N,1324*
X9645669Y-590551D03*
G04 #@! TO.N,1325*
X9251968D03*
G04 #@! TO.N,1326*
X8858268D03*
G04 #@! TO.N,1327*
X8464567D03*
G04 #@! TO.N,1328*
X8070866D03*
G04 #@! TO.N,1329*
X7677165D03*
G04 #@! TO.N,1330*
X7283464D03*
G04 #@! TO.N,1331*
X6889764D03*
G04 #@! TO.N,1332*
X6496063D03*
G04 #@! TO.N,1333*
X6102362D03*
G04 #@! TO.N,1334*
X5708661D03*
G04 #@! TO.N,1335*
X5314960D03*
G04 #@! TO.N,1336*
X4921260D03*
G04 #@! TO.N,1337*
X4527559D03*
G04 #@! TO.N,1338*
X4133858D03*
G04 #@! TO.N,1339*
X3740157D03*
G04 #@! TO.N,1340*
X3346456D03*
G04 #@! TO.N,1341*
X2952756D03*
G04 #@! TO.N,1342*
X2559055D03*
G04 #@! TO.N,1343*
X2165354D03*
G04 #@! TO.N,1344*
X1771653D03*
G04 #@! TO.N,1345*
X1545275D03*
G04 #@! TO.N,1346*
X9645669Y-196850D03*
G04 #@! TO.N,1347*
X9251968D03*
G04 #@! TO.N,1348*
X8858268D03*
G04 #@! TO.N,1349*
X8464567D03*
G04 #@! TO.N,1350*
X8070866D03*
G04 #@! TO.N,1351*
X7677165D03*
G04 #@! TO.N,1352*
X7283464D03*
G04 #@! TO.N,1353*
X6889764D03*
G04 #@! TO.N,1354*
X6496063D03*
G04 #@! TO.N,1355*
X6102362D03*
G04 #@! TO.N,1356*
X5708661D03*
G04 #@! TO.N,1357*
X5314960D03*
G04 #@! TO.N,1358*
X4921260D03*
G04 #@! TO.N,1359*
X4527559D03*
G04 #@! TO.N,1360*
X4133858D03*
G04 #@! TO.N,1361*
X3740157D03*
G04 #@! TO.N,1362*
X3346456D03*
G04 #@! TO.N,1363*
X2952756D03*
G04 #@! TO.N,1364*
X2559055D03*
G04 #@! TO.N,1365*
X2165354D03*
G04 #@! TO.N,1366*
X1771653D03*
G04 #@! TO.N,1367*
X1545275D03*
G04 #@! TO.N,1368*
X196850Y-1771654D03*
G04 #@! TO.N,1369*
X364173Y-1377953D03*
G04 #@! TO.N,1370*
X9645669Y-3740157D03*
G04 #@! TO.N,1371*
X9251968D03*
G04 #@! TO.N,1372*
X8858268D03*
G04 #@! TO.N,1373*
X8464567D03*
G04 #@! TO.N,1374*
X8070866D03*
G04 #@! TO.N,1375*
X7677165D03*
G04 #@! TO.N,1376*
X7283464D03*
G04 #@! TO.N,1377*
X6889764D03*
G04 #@! TO.N,1378*
X6496063D03*
G04 #@! TO.N,1379*
X6102362D03*
G04 #@! TO.N,1380*
X5708661D03*
G04 #@! TO.N,1381*
X5314960D03*
G04 #@! TO.N,1382*
X4921260D03*
G04 #@! TO.N,1383*
X4527559D03*
G04 #@! TO.N,1384*
X4133858D03*
G04 #@! TO.N,1385*
X3740157D03*
G04 #@! TO.N,1386*
X3346456D03*
G04 #@! TO.N,1387*
X2952756D03*
G04 #@! TO.N,1388*
X2559055D03*
G04 #@! TO.N,1389*
X2165354D03*
G04 #@! TO.N,1390*
X1771653D03*
G04 #@! TO.N,1391*
X1377953D03*
G04 #@! TO.N,1392*
X984252D03*
G04 #@! TO.N,1393*
X590551D03*
G04 #@! TO.N,1394*
X9645669Y-3346457D03*
G04 #@! TO.N,1395*
X9251968D03*
G04 #@! TO.N,1396*
X8858268D03*
G04 #@! TO.N,1397*
X8464567D03*
G04 #@! TO.N,1398*
X8070866D03*
G04 #@! TO.N,1399*
X7677165D03*
G04 #@! TO.N,1400*
X7283464D03*
G04 #@! TO.N,1401*
X6889764D03*
G04 #@! TO.N,1402*
X6496063D03*
G04 #@! TO.N,1403*
X6102362D03*
G04 #@! TO.N,1404*
X5708661D03*
G04 #@! TO.N,1405*
X5314960D03*
G04 #@! TO.N,1406*
X4921260D03*
G04 #@! TO.N,1407*
X4527559D03*
G04 #@! TO.N,1408*
X4133858D03*
G04 #@! TO.N,1409*
X3740157D03*
G04 #@! TO.N,1410*
X3346456Y-3425197D03*
G04 #@! TO.N,1411*
X2952756D03*
G04 #@! TO.N,1412*
X2559055D03*
G04 #@! TO.N,1413*
X2165354D03*
G04 #@! TO.N,1414*
X1771653Y-3346457D03*
G04 #@! TO.N,1415*
X1377953D03*
G04 #@! TO.N,1416*
X984252D03*
G04 #@! TO.N,1417*
X590551D03*
G04 #@! TO.N,1418*
X9645669Y-2952756D03*
G04 #@! TO.N,1419*
X9251968D03*
G04 #@! TO.N,1420*
X8858268D03*
G04 #@! TO.N,1421*
X8464567D03*
G04 #@! TO.N,1422*
X8070866D03*
G04 #@! TO.N,1423*
X7677165D03*
G04 #@! TO.N,1424*
X7283464D03*
G04 #@! TO.N,1425*
X6889764D03*
G04 #@! TO.N,1426*
X6496063D03*
G04 #@! TO.N,1427*
X6102362D03*
G04 #@! TO.N,1428*
X5708661D03*
G04 #@! TO.N,1429*
X5314960D03*
G04 #@! TO.N,1430*
X4921260D03*
G04 #@! TO.N,1431*
X4527559D03*
G04 #@! TO.N,1432*
X4133858D03*
G04 #@! TO.N,1433*
X3740157D03*
G04 #@! TO.N,1434*
X3346456D03*
G04 #@! TO.N,1435*
X2952756D03*
G04 #@! TO.N,1436*
X2559055D03*
G04 #@! TO.N,1437*
X2165354D03*
G04 #@! TO.N,1438*
X1771653D03*
G04 #@! TO.N,1439*
X1377953D03*
G04 #@! TO.N,1440*
X984252D03*
G04 #@! TO.N,1441*
X590551D03*
G04 #@! TO.N,1442*
X9645669Y-2559055D03*
G04 #@! TO.N,1443*
X9251968D03*
G04 #@! TO.N,1444*
X8858268D03*
G04 #@! TO.N,1445*
X8464567D03*
G04 #@! TO.N,1446*
X8070866D03*
G04 #@! TO.N,1447*
X7677165D03*
G04 #@! TO.N,1448*
X7283464D03*
G04 #@! TO.N,1449*
X6889764D03*
G04 #@! TO.N,1450*
X6496063D03*
G04 #@! TO.N,1451*
X6102362D03*
G04 #@! TO.N,1452*
X5708661D03*
G04 #@! TO.N,1453*
X5314960D03*
G04 #@! TO.N,1454*
X4921260D03*
G04 #@! TO.N,1455*
X4527559D03*
G04 #@! TO.N,1456*
X4133858D03*
G04 #@! TO.N,1457*
X3740157D03*
G04 #@! TO.N,1458*
X3346456D03*
G04 #@! TO.N,1459*
X2952756D03*
G04 #@! TO.N,1460*
X2559055D03*
G04 #@! TO.N,1461*
X2165354D03*
G04 #@! TO.N,1462*
X1771653D03*
G04 #@! TO.N,1463*
X1377953D03*
G04 #@! TO.N,1464*
X984252D03*
G04 #@! TO.N,1465*
X590551D03*
G04 #@! TO.N,1466*
X9645669Y-2165354D03*
G04 #@! TO.N,1467*
X9251968D03*
G04 #@! TO.N,1468*
X8858268D03*
G04 #@! TO.N,1469*
X8464567D03*
G04 #@! TO.N,1470*
X8070866D03*
G04 #@! TO.N,1471*
X7677165D03*
G04 #@! TO.N,1472*
X7283464D03*
G04 #@! TO.N,1473*
X6889764D03*
G04 #@! TO.N,1474*
X6496063D03*
G04 #@! TO.N,1475*
X6102362D03*
G04 #@! TO.N,1476*
X5708661D03*
G04 #@! TO.N,1477*
X5314960D03*
G04 #@! TO.N,1478*
X4921260D03*
G04 #@! TO.N,1479*
X4527559D03*
G04 #@! TO.N,1480*
X4133858D03*
G04 #@! TO.N,1481*
X3740157D03*
G04 #@! TO.N,1482*
X3346456Y-2244094D03*
G04 #@! TO.N,1483*
X2952756D03*
G04 #@! TO.N,1484*
X2559055D03*
G04 #@! TO.N,1485*
X2165354D03*
G04 #@! TO.N,1486*
X1771653Y-2165354D03*
G04 #@! TO.N,1487*
X1377953D03*
G04 #@! TO.N,1488*
X984252D03*
G04 #@! TO.N,1489*
X590551D03*
G04 #@! TO.N,1490*
X196850Y-3740157D03*
G04 #@! TO.N,1491*
Y-3346457D03*
G04 #@! TO.N,1492*
Y-2952756D03*
G04 #@! TO.N,1493*
Y-2559055D03*
G04 #@! TO.N,1494*
Y-2165354D03*
G04 #@! TO.N,1495*
X-196850Y-6102362D03*
G04 #@! TO.N,1496*
X-590551D03*
G04 #@! TO.N,1497*
X-984252D03*
G04 #@! TO.N,1498*
X-1377953D03*
G04 #@! TO.N,1499*
X-1771653D03*
G04 #@! TO.N,1500*
X-2165354D03*
G04 #@! TO.N,1501*
X-2559055D03*
G04 #@! TO.N,1502*
X-2952756D03*
G04 #@! TO.N,1503*
X-3346456D03*
G04 #@! TO.N,1504*
X-3740157D03*
G04 #@! TO.N,1505*
X-4133858D03*
G04 #@! TO.N,1506*
X-4527559D03*
G04 #@! TO.N,1507*
X-4921260D03*
G04 #@! TO.N,1508*
X-5314960D03*
G04 #@! TO.N,1509*
X-5708661D03*
G04 #@! TO.N,1510*
X-6102362D03*
G04 #@! TO.N,1511*
X-6496063D03*
G04 #@! TO.N,1512*
X-6889764D03*
G04 #@! TO.N,1513*
X-7283464D03*
G04 #@! TO.N,1514*
X-7677165D03*
G04 #@! TO.N,1515*
X-8070866D03*
G04 #@! TO.N,1516*
X-8464567D03*
G04 #@! TO.N,1517*
X-8858268D03*
G04 #@! TO.N,1518*
X-9251968D03*
G04 #@! TO.N,1519*
X-196850Y-6496063D03*
G04 #@! TO.N,1520*
X-590551D03*
G04 #@! TO.N,1521*
X-984252D03*
G04 #@! TO.N,1522*
X-1377953D03*
G04 #@! TO.N,1523*
X-1771653D03*
G04 #@! TO.N,1524*
X-2165354D03*
G04 #@! TO.N,1525*
X-2559055D03*
G04 #@! TO.N,1526*
X-2952756D03*
G04 #@! TO.N,1527*
X-3346456D03*
G04 #@! TO.N,1528*
X-3740157D03*
G04 #@! TO.N,1529*
X-4133858D03*
G04 #@! TO.N,1530*
X-4527559Y-6417323D03*
G04 #@! TO.N,1531*
X-4921260D03*
G04 #@! TO.N,1532*
X-5314960D03*
G04 #@! TO.N,1533*
X-5708661Y-6496063D03*
G04 #@! TO.N,1534*
X-6102362D03*
G04 #@! TO.N,1535*
X-6496063D03*
G04 #@! TO.N,1536*
X-6889764D03*
G04 #@! TO.N,1537*
X-7283464D03*
G04 #@! TO.N,1538*
X-7677165D03*
G04 #@! TO.N,1539*
X-8070866D03*
G04 #@! TO.N,1540*
X-8464567D03*
G04 #@! TO.N,1541*
X-8858268D03*
G04 #@! TO.N,1542*
X-9251968D03*
G04 #@! TO.N,1543*
X-196850Y-6889764D03*
G04 #@! TO.N,1544*
X-590551D03*
G04 #@! TO.N,1545*
X-984252D03*
G04 #@! TO.N,1546*
X-1377953D03*
G04 #@! TO.N,1547*
X-1771653D03*
G04 #@! TO.N,1548*
X-2165354D03*
G04 #@! TO.N,1549*
X-2559055D03*
G04 #@! TO.N,1550*
X-2952756D03*
G04 #@! TO.N,1551*
X-3346456D03*
G04 #@! TO.N,1552*
X-3740157D03*
G04 #@! TO.N,1553*
X-4133858D03*
G04 #@! TO.N,1554*
X-4527559D03*
G04 #@! TO.N,1555*
X-4921260D03*
G04 #@! TO.N,1556*
X-5314960D03*
G04 #@! TO.N,1557*
X-5708661D03*
G04 #@! TO.N,1558*
X-6102362D03*
G04 #@! TO.N,1559*
X-6496063D03*
G04 #@! TO.N,1560*
X-6889764D03*
G04 #@! TO.N,1561*
X-7283464D03*
G04 #@! TO.N,1562*
X-7677165D03*
G04 #@! TO.N,1563*
X-8070866D03*
G04 #@! TO.N,1564*
X-8464567D03*
G04 #@! TO.N,1565*
X-8858268D03*
G04 #@! TO.N,1566*
X-9251968D03*
G04 #@! TO.N,1567*
X-196850Y-7283465D03*
G04 #@! TO.N,1568*
X-590551D03*
G04 #@! TO.N,1569*
X-984252D03*
G04 #@! TO.N,1570*
X-1377953D03*
G04 #@! TO.N,1571*
X-1771653D03*
G04 #@! TO.N,1572*
X-2165354D03*
G04 #@! TO.N,1573*
X-2559055D03*
G04 #@! TO.N,1574*
X-2952756D03*
G04 #@! TO.N,1575*
X-3346456D03*
G04 #@! TO.N,1576*
X-3740157D03*
G04 #@! TO.N,1577*
X-4133858D03*
G04 #@! TO.N,1578*
X-4527559D03*
G04 #@! TO.N,1579*
X-4921260D03*
G04 #@! TO.N,1580*
X-5314960D03*
G04 #@! TO.N,1581*
X-5708661D03*
G04 #@! TO.N,1582*
X-6102362D03*
G04 #@! TO.N,1583*
X-6496063D03*
G04 #@! TO.N,1584*
X-6889764D03*
G04 #@! TO.N,1585*
X-7283464D03*
G04 #@! TO.N,1586*
X-7677165D03*
G04 #@! TO.N,1587*
X-8070866D03*
G04 #@! TO.N,1588*
X-8464567D03*
G04 #@! TO.N,1589*
X-8858268D03*
G04 #@! TO.N,1590*
X-9251968D03*
G04 #@! TO.N,1591*
X-196850Y-7677165D03*
G04 #@! TO.N,1592*
X-590551D03*
G04 #@! TO.N,1593*
X-984252D03*
G04 #@! TO.N,1594*
X-1377953D03*
G04 #@! TO.N,1595*
X-1771653D03*
G04 #@! TO.N,1596*
X-2165354D03*
G04 #@! TO.N,1597*
X-2559055D03*
G04 #@! TO.N,1598*
X-2952756D03*
G04 #@! TO.N,1599*
X-3346456D03*
G04 #@! TO.N,1600*
X-3740157D03*
G04 #@! TO.N,1601*
X-4133858D03*
G04 #@! TO.N,1602*
X-4527559D03*
G04 #@! TO.N,1603*
X-4921260D03*
G04 #@! TO.N,1604*
X-5314960D03*
G04 #@! TO.N,1605*
X-5708661D03*
G04 #@! TO.N,1606*
X-6102362D03*
G04 #@! TO.N,1607*
X-6496063D03*
G04 #@! TO.N,1608*
X-6889764D03*
G04 #@! TO.N,1609*
X-7283464D03*
G04 #@! TO.N,1610*
X-7677165D03*
G04 #@! TO.N,1611*
X-8070866D03*
G04 #@! TO.N,1612*
X-8464567D03*
G04 #@! TO.N,1613*
X-8858268D03*
G04 #@! TO.N,1614*
X-9251968D03*
G04 #@! TO.N,1615*
X-9645669Y-6102362D03*
G04 #@! TO.N,1616*
Y-6496063D03*
G04 #@! TO.N,1617*
Y-6889764D03*
G04 #@! TO.N,1618*
Y-7283465D03*
G04 #@! TO.N,1619*
Y-7677165D03*
G04 #@! TO.N,1620*
X-196850Y-4133858D03*
G04 #@! TO.N,1621*
X-590551D03*
G04 #@! TO.N,1622*
X-984252D03*
G04 #@! TO.N,1623*
X-1377953D03*
G04 #@! TO.N,1624*
X-1771653D03*
G04 #@! TO.N,1625*
X-2165354D03*
G04 #@! TO.N,1626*
X-2559055D03*
G04 #@! TO.N,1627*
X-2952756D03*
G04 #@! TO.N,1628*
X-3346456D03*
G04 #@! TO.N,1629*
X-3740157D03*
G04 #@! TO.N,1630*
X-4133858D03*
G04 #@! TO.N,1631*
X-4527559D03*
G04 #@! TO.N,1632*
X-4921260D03*
G04 #@! TO.N,1633*
X-5314960D03*
G04 #@! TO.N,1634*
X-5708661D03*
G04 #@! TO.N,1635*
X-6102362D03*
G04 #@! TO.N,1636*
X-6496063D03*
G04 #@! TO.N,1637*
X-6889764D03*
G04 #@! TO.N,1638*
X-7283464D03*
G04 #@! TO.N,1639*
X-7677165D03*
G04 #@! TO.N,1640*
X-8070866D03*
G04 #@! TO.N,1641*
X-8464567D03*
G04 #@! TO.N,1642*
X-8858268D03*
G04 #@! TO.N,1643*
X-9251968D03*
G04 #@! TO.N,1644*
X-196850Y-4527559D03*
G04 #@! TO.N,1645*
X-590551D03*
G04 #@! TO.N,1646*
X-984252D03*
G04 #@! TO.N,1647*
X-1377953D03*
G04 #@! TO.N,1648*
X-1771653D03*
G04 #@! TO.N,1649*
X-2165354D03*
G04 #@! TO.N,1650*
X-2559055D03*
G04 #@! TO.N,1651*
X-2952756D03*
G04 #@! TO.N,1652*
X-3346456D03*
G04 #@! TO.N,1653*
X-3740157D03*
G04 #@! TO.N,1654*
X-4133858D03*
G04 #@! TO.N,1655*
X-4527559D03*
G04 #@! TO.N,1656*
X-4921260D03*
G04 #@! TO.N,1657*
X-5314960D03*
G04 #@! TO.N,1658*
X-5708661D03*
G04 #@! TO.N,1659*
X-6102362D03*
G04 #@! TO.N,1660*
X-6496063Y-4448819D03*
G04 #@! TO.N,1661*
X-6889764D03*
G04 #@! TO.N,1662*
X-7283464D03*
G04 #@! TO.N,1663*
X-7677165D03*
G04 #@! TO.N,1664*
X-8070866Y-4527559D03*
G04 #@! TO.N,1665*
X-8464567D03*
G04 #@! TO.N,1666*
X-8858268D03*
G04 #@! TO.N,1667*
X-9251968D03*
G04 #@! TO.N,1668*
X-196850Y-4921260D03*
G04 #@! TO.N,1669*
X-590551D03*
G04 #@! TO.N,1670*
X-984252D03*
G04 #@! TO.N,1671*
X-1377953D03*
G04 #@! TO.N,1672*
X-1771653D03*
G04 #@! TO.N,1673*
X-2165354D03*
G04 #@! TO.N,1674*
X-2559055D03*
G04 #@! TO.N,1675*
X-2952756D03*
G04 #@! TO.N,1676*
X-3346456D03*
G04 #@! TO.N,1677*
X-3740157D03*
G04 #@! TO.N,1678*
X-4133858D03*
G04 #@! TO.N,1679*
X-4527559D03*
G04 #@! TO.N,1680*
X-4921260D03*
G04 #@! TO.N,1681*
X-5314960D03*
G04 #@! TO.N,1682*
X-5708661D03*
G04 #@! TO.N,1683*
X-6102362D03*
G04 #@! TO.N,1684*
X-6496063D03*
G04 #@! TO.N,1685*
X-6889764D03*
G04 #@! TO.N,1686*
X-7283464D03*
G04 #@! TO.N,1687*
X-7677165D03*
G04 #@! TO.N,1688*
X-8070866D03*
G04 #@! TO.N,1689*
X-8464567D03*
G04 #@! TO.N,1690*
X-8858268D03*
G04 #@! TO.N,1691*
X-9251968D03*
G04 #@! TO.N,1692*
X-196850Y-5314961D03*
G04 #@! TO.N,1693*
X-590551D03*
G04 #@! TO.N,1694*
X-984252D03*
G04 #@! TO.N,1695*
X-1377953D03*
G04 #@! TO.N,1696*
X-1771653D03*
G04 #@! TO.N,1697*
X-2165354D03*
G04 #@! TO.N,1698*
X-2559055D03*
G04 #@! TO.N,1699*
X-2952756D03*
G04 #@! TO.N,1700*
X-3346456D03*
G04 #@! TO.N,1701*
X-3740157D03*
G04 #@! TO.N,1702*
X-4133858D03*
G04 #@! TO.N,1703*
X-4527559D03*
G04 #@! TO.N,1704*
X-4921260D03*
G04 #@! TO.N,1705*
X-5314960D03*
G04 #@! TO.N,1706*
X-5708661D03*
G04 #@! TO.N,1707*
X-6102362D03*
G04 #@! TO.N,1708*
X-6496063D03*
G04 #@! TO.N,1709*
X-6889764D03*
G04 #@! TO.N,1710*
X-7283464D03*
G04 #@! TO.N,1711*
X-7677165D03*
G04 #@! TO.N,1712*
X-8070866D03*
G04 #@! TO.N,1713*
X-8464567D03*
G04 #@! TO.N,1714*
X-8858268D03*
G04 #@! TO.N,1715*
X-9251968D03*
G04 #@! TO.N,1716*
X-196850Y-5708661D03*
G04 #@! TO.N,1717*
X-590551D03*
G04 #@! TO.N,1718*
X-984252D03*
G04 #@! TO.N,1719*
X-1377953D03*
G04 #@! TO.N,1720*
X-1771653D03*
G04 #@! TO.N,1721*
X-2165354D03*
G04 #@! TO.N,1722*
X-2559055D03*
G04 #@! TO.N,1723*
X-2952756D03*
G04 #@! TO.N,1724*
X-3346456D03*
G04 #@! TO.N,1725*
X-3740157D03*
G04 #@! TO.N,1726*
X-4133858D03*
G04 #@! TO.N,1727*
X-4527559D03*
G04 #@! TO.N,1728*
X-4921260D03*
G04 #@! TO.N,1729*
X-5314960D03*
G04 #@! TO.N,1730*
X-5708661D03*
G04 #@! TO.N,1731*
X-6102362D03*
G04 #@! TO.N,1732*
X-6496063Y-5629921D03*
G04 #@! TO.N,1733*
X-6889764D03*
G04 #@! TO.N,1734*
X-7283464D03*
G04 #@! TO.N,1735*
X-7677165D03*
G04 #@! TO.N,1736*
X-8070866Y-5708661D03*
G04 #@! TO.N,1737*
X-8464567D03*
G04 #@! TO.N,1738*
X-8858268D03*
G04 #@! TO.N,1739*
X-9251968D03*
G04 #@! TO.N,1740*
X-9645669Y-4133858D03*
G04 #@! TO.N,1741*
Y-4527559D03*
G04 #@! TO.N,1742*
Y-4921260D03*
G04 #@! TO.N,1743*
Y-5314961D03*
G04 #@! TO.N,1744*
Y-5708661D03*
G04 #@! TO.N,1745*
Y-1771654D03*
G04 #@! TO.N,1746*
X-9251968D03*
G04 #@! TO.N,1747*
X-8858268D03*
G04 #@! TO.N,1748*
X-8464567D03*
G04 #@! TO.N,1749*
X-8070866D03*
G04 #@! TO.N,1750*
X-7677165D03*
G04 #@! TO.N,1751*
X-7283464D03*
G04 #@! TO.N,1752*
X-6889764D03*
G04 #@! TO.N,1753*
X-6496063D03*
G04 #@! TO.N,1754*
X-6102362D03*
G04 #@! TO.N,1755*
X-5708661D03*
G04 #@! TO.N,1756*
X-5314960D03*
G04 #@! TO.N,1757*
X-4921260D03*
G04 #@! TO.N,1758*
X-4527559D03*
G04 #@! TO.N,1759*
X-4133858D03*
G04 #@! TO.N,1760*
X-3740157D03*
G04 #@! TO.N,1761*
X-3346456D03*
G04 #@! TO.N,1762*
X-2952756D03*
G04 #@! TO.N,1763*
X-2559055D03*
G04 #@! TO.N,1764*
X-2165354D03*
G04 #@! TO.N,1765*
X-1771653D03*
G04 #@! TO.N,1766*
X-1377953D03*
G04 #@! TO.N,1767*
X-984252D03*
G04 #@! TO.N,1768*
X-590551D03*
G04 #@! TO.N,1769*
X-9645669Y-1377953D03*
G04 #@! TO.N,1770*
X-9251968D03*
G04 #@! TO.N,1771*
X-8858268D03*
G04 #@! TO.N,1772*
X-8464567D03*
G04 #@! TO.N,1773*
X-8070866D03*
G04 #@! TO.N,1774*
X-7677165D03*
G04 #@! TO.N,1775*
X-7283464D03*
G04 #@! TO.N,1776*
X-6889764D03*
G04 #@! TO.N,1777*
X-6496063D03*
G04 #@! TO.N,1778*
X-6102362D03*
G04 #@! TO.N,1779*
X-5708661D03*
G04 #@! TO.N,1780*
X-5314960Y-1456693D03*
G04 #@! TO.N,1781*
X-4921260D03*
G04 #@! TO.N,1782*
X-4527559D03*
G04 #@! TO.N,1783*
X-4133858Y-1377953D03*
G04 #@! TO.N,1784*
X-3740157D03*
G04 #@! TO.N,1785*
X-3346456D03*
G04 #@! TO.N,1786*
X-2952756D03*
G04 #@! TO.N,1787*
X-2559055D03*
G04 #@! TO.N,1788*
X-2165354D03*
G04 #@! TO.N,1789*
X-1771653D03*
G04 #@! TO.N,1790*
X-1545275D03*
G04 #@! TO.N,1791*
X-984252D03*
G04 #@! TO.N,1792*
X-757874D03*
G04 #@! TO.N,1793*
X-9645669Y-984252D03*
G04 #@! TO.N,1794*
X-9251968D03*
G04 #@! TO.N,1795*
X-8858268D03*
G04 #@! TO.N,1796*
X-8464567D03*
G04 #@! TO.N,1797*
X-8070866D03*
G04 #@! TO.N,1798*
X-7677165D03*
G04 #@! TO.N,1799*
X-7283464D03*
G04 #@! TO.N,1800*
X-6889764D03*
G04 #@! TO.N,1801*
X-6496063D03*
G04 #@! TO.N,1802*
X-6102362D03*
G04 #@! TO.N,1803*
X-5708661D03*
G04 #@! TO.N,1804*
X-5314960D03*
G04 #@! TO.N,1805*
X-4921260D03*
G04 #@! TO.N,1806*
X-4527559D03*
G04 #@! TO.N,1807*
X-4133858D03*
G04 #@! TO.N,1808*
X-3740157D03*
G04 #@! TO.N,1809*
X-3346456D03*
G04 #@! TO.N,1810*
X-2952756D03*
G04 #@! TO.N,1811*
X-2559055D03*
G04 #@! TO.N,1812*
X-2165354D03*
G04 #@! TO.N,1813*
X-1771653D03*
G04 #@! TO.N,1814*
X-1545275D03*
G04 #@! TO.N,1815*
X-9645669Y-590551D03*
G04 #@! TO.N,1816*
X-9251968D03*
G04 #@! TO.N,1817*
X-8858268D03*
G04 #@! TO.N,1818*
X-8464567D03*
G04 #@! TO.N,1819*
X-8070866D03*
G04 #@! TO.N,1820*
X-7677165D03*
G04 #@! TO.N,1821*
X-7283464D03*
G04 #@! TO.N,1822*
X-6889764D03*
G04 #@! TO.N,1823*
X-6496063D03*
G04 #@! TO.N,1824*
X-6102362D03*
G04 #@! TO.N,1825*
X-5708661D03*
G04 #@! TO.N,1826*
X-5314960D03*
G04 #@! TO.N,1827*
X-4921260D03*
G04 #@! TO.N,1828*
X-4527559D03*
G04 #@! TO.N,1829*
X-4133858D03*
G04 #@! TO.N,1830*
X-3740157D03*
G04 #@! TO.N,1831*
X-3346456D03*
G04 #@! TO.N,1832*
X-2952756D03*
G04 #@! TO.N,1833*
X-2559055D03*
G04 #@! TO.N,1834*
X-2165354D03*
G04 #@! TO.N,1835*
X-1771653D03*
G04 #@! TO.N,1836*
X-1545275D03*
G04 #@! TO.N,1837*
X-9645669Y-196850D03*
G04 #@! TO.N,1838*
X-9251968D03*
G04 #@! TO.N,1839*
X-8858268D03*
G04 #@! TO.N,1840*
X-8464567D03*
G04 #@! TO.N,1841*
X-8070866D03*
G04 #@! TO.N,1842*
X-7677165D03*
G04 #@! TO.N,1843*
X-7283464D03*
G04 #@! TO.N,1844*
X-6889764D03*
G04 #@! TO.N,1845*
X-6496063D03*
G04 #@! TO.N,1846*
X-6102362D03*
G04 #@! TO.N,1847*
X-5708661D03*
G04 #@! TO.N,1848*
X-5314960D03*
G04 #@! TO.N,1849*
X-4921260D03*
G04 #@! TO.N,1850*
X-4527559D03*
G04 #@! TO.N,1851*
X-4133858D03*
G04 #@! TO.N,1852*
X-3740157D03*
G04 #@! TO.N,1853*
X-3346456D03*
G04 #@! TO.N,1854*
X-2952756D03*
G04 #@! TO.N,1855*
X-2559055D03*
G04 #@! TO.N,1856*
X-2165354D03*
G04 #@! TO.N,1857*
X-1771653D03*
G04 #@! TO.N,1858*
X-1545275D03*
G04 #@! TO.N,1859*
X-196850Y-1771654D03*
G04 #@! TO.N,1860*
X-364173Y-1377953D03*
G04 #@! TO.N,1861*
X-9645669Y-3740157D03*
G04 #@! TO.N,1862*
X-9251968D03*
G04 #@! TO.N,1863*
X-8858268D03*
G04 #@! TO.N,1864*
X-8464567D03*
G04 #@! TO.N,1865*
X-8070866D03*
G04 #@! TO.N,1866*
X-7677165D03*
G04 #@! TO.N,1867*
X-7283464D03*
G04 #@! TO.N,1868*
X-6889764D03*
G04 #@! TO.N,1869*
X-6496063D03*
G04 #@! TO.N,1870*
X-6102362D03*
G04 #@! TO.N,1871*
X-5708661D03*
G04 #@! TO.N,1872*
X-5314960D03*
G04 #@! TO.N,1873*
X-4921260D03*
G04 #@! TO.N,1874*
X-4527559D03*
G04 #@! TO.N,1875*
X-4133858D03*
G04 #@! TO.N,1876*
X-3740157D03*
G04 #@! TO.N,1877*
X-3346456D03*
G04 #@! TO.N,1878*
X-2952756D03*
G04 #@! TO.N,1879*
X-2559055D03*
G04 #@! TO.N,1880*
X-2165354D03*
G04 #@! TO.N,1881*
X-1771653D03*
G04 #@! TO.N,1882*
X-1377953D03*
G04 #@! TO.N,1883*
X-984252D03*
G04 #@! TO.N,1884*
X-590551D03*
G04 #@! TO.N,1885*
X-9645669Y-3346457D03*
G04 #@! TO.N,1886*
X-9251968D03*
G04 #@! TO.N,1887*
X-8858268D03*
G04 #@! TO.N,1888*
X-8464567D03*
G04 #@! TO.N,1889*
X-8070866D03*
G04 #@! TO.N,1890*
X-7677165D03*
G04 #@! TO.N,1891*
X-7283464D03*
G04 #@! TO.N,1892*
X-6889764D03*
G04 #@! TO.N,1893*
X-6496063D03*
G04 #@! TO.N,1894*
X-6102362D03*
G04 #@! TO.N,1895*
X-5708661D03*
G04 #@! TO.N,1896*
X-5314960D03*
G04 #@! TO.N,1897*
X-4921260D03*
G04 #@! TO.N,1898*
X-4527559D03*
G04 #@! TO.N,1899*
X-4133858D03*
G04 #@! TO.N,1900*
X-3740157D03*
G04 #@! TO.N,1901*
X-3346456Y-3425197D03*
G04 #@! TO.N,1902*
X-2952756D03*
G04 #@! TO.N,1903*
X-2559055D03*
G04 #@! TO.N,1904*
X-2165354D03*
G04 #@! TO.N,1905*
X-1771653Y-3346457D03*
G04 #@! TO.N,1906*
X-1377953D03*
G04 #@! TO.N,1907*
X-984252D03*
G04 #@! TO.N,1908*
X-590551D03*
G04 #@! TO.N,1909*
X-9645669Y-2952756D03*
G04 #@! TO.N,1910*
X-9251968D03*
G04 #@! TO.N,1911*
X-8858268D03*
G04 #@! TO.N,1912*
X-8464567D03*
G04 #@! TO.N,1913*
X-8070866D03*
G04 #@! TO.N,1914*
X-7677165D03*
G04 #@! TO.N,1915*
X-7283464D03*
G04 #@! TO.N,1916*
X-6889764D03*
G04 #@! TO.N,1917*
X-6496063D03*
G04 #@! TO.N,1918*
X-6102362D03*
G04 #@! TO.N,1919*
X-5708661D03*
G04 #@! TO.N,1920*
X-5314960D03*
G04 #@! TO.N,1921*
X-4921260D03*
G04 #@! TO.N,1922*
X-4527559D03*
G04 #@! TO.N,1923*
X-4133858D03*
G04 #@! TO.N,1924*
X-3740157D03*
G04 #@! TO.N,1925*
X-3346456D03*
G04 #@! TO.N,1926*
X-2952756D03*
G04 #@! TO.N,1927*
X-2559055D03*
G04 #@! TO.N,1928*
X-2165354D03*
G04 #@! TO.N,1929*
X-1771653D03*
G04 #@! TO.N,1930*
X-1377953D03*
G04 #@! TO.N,1931*
X-984252D03*
G04 #@! TO.N,1932*
X-590551D03*
G04 #@! TO.N,1933*
X-9645669Y-2559055D03*
G04 #@! TO.N,1934*
X-9251968D03*
G04 #@! TO.N,1935*
X-8858268D03*
G04 #@! TO.N,1936*
X-8464567D03*
G04 #@! TO.N,1937*
X-8070866D03*
G04 #@! TO.N,1938*
X-7677165D03*
G04 #@! TO.N,1939*
X-7283464D03*
G04 #@! TO.N,1940*
X-6889764D03*
G04 #@! TO.N,1941*
X-6496063D03*
G04 #@! TO.N,1942*
X-6102362D03*
G04 #@! TO.N,1943*
X-5708661D03*
G04 #@! TO.N,1944*
X-5314960D03*
G04 #@! TO.N,1945*
X-4921260D03*
G04 #@! TO.N,1946*
X-4527559D03*
G04 #@! TO.N,1947*
X-4133858D03*
G04 #@! TO.N,1948*
X-3740157D03*
G04 #@! TO.N,1949*
X-3346456D03*
G04 #@! TO.N,1950*
X-2952756D03*
G04 #@! TO.N,1951*
X-2559055D03*
G04 #@! TO.N,1952*
X-2165354D03*
G04 #@! TO.N,1953*
X-1771653D03*
G04 #@! TO.N,1954*
X-1377953D03*
G04 #@! TO.N,1955*
X-984252D03*
G04 #@! TO.N,1956*
X-590551D03*
G04 #@! TO.N,1957*
X-9645669Y-2165354D03*
G04 #@! TO.N,1958*
X-9251968D03*
G04 #@! TO.N,1959*
X-8858268D03*
G04 #@! TO.N,1960*
X-8464567D03*
G04 #@! TO.N,1961*
X-8070866D03*
G04 #@! TO.N,1962*
X-7677165D03*
G04 #@! TO.N,1963*
X-7283464D03*
G04 #@! TO.N,1964*
X-6889764D03*
G04 #@! TO.N,1965*
X-6496063D03*
G04 #@! TO.N,1966*
X-6102362D03*
G04 #@! TO.N,1967*
X-5708661D03*
G04 #@! TO.N,1968*
X-5314960D03*
G04 #@! TO.N,1969*
X-4921260D03*
G04 #@! TO.N,1970*
X-4527559D03*
G04 #@! TO.N,1971*
X-4133858D03*
G04 #@! TO.N,1972*
X-3740157D03*
G04 #@! TO.N,1973*
X-3346456Y-2244094D03*
G04 #@! TO.N,1974*
X-2952756D03*
G04 #@! TO.N,1975*
X-2559055D03*
G04 #@! TO.N,1976*
X-2165354D03*
G04 #@! TO.N,1977*
X-1771653Y-2165354D03*
G04 #@! TO.N,1978*
X-1377953D03*
G04 #@! TO.N,1979*
X-984252D03*
G04 #@! TO.N,1980*
X-590551D03*
G04 #@! TO.N,1981*
X-196850Y-3740157D03*
G04 #@! TO.N,1982*
Y-3346457D03*
G04 #@! TO.N,1983*
Y-2952756D03*
G04 #@! TO.N,1984*
Y-2559055D03*
G04 #@! TO.N,1985*
Y-2165354D03*
G04 #@! TO.N,1986*
Y6102362D03*
G04 #@! TO.N,1987*
X-590551D03*
G04 #@! TO.N,1988*
X-984252D03*
G04 #@! TO.N,1989*
X-1377953D03*
G04 #@! TO.N,1990*
X-1771653D03*
G04 #@! TO.N,1991*
X-2165354D03*
G04 #@! TO.N,1992*
X-2559055D03*
G04 #@! TO.N,1993*
X-2952756D03*
G04 #@! TO.N,1994*
X-3346456D03*
G04 #@! TO.N,1995*
X-3740157D03*
G04 #@! TO.N,1996*
X-4133858D03*
G04 #@! TO.N,1997*
X-4527559D03*
G04 #@! TO.N,1998*
X-4921260D03*
G04 #@! TO.N,1999*
X-5314960D03*
G04 #@! TO.N,2000*
X-5708661D03*
G04 #@! TO.N,2001*
X-6102362D03*
G04 #@! TO.N,2002*
X-6496063D03*
G04 #@! TO.N,2003*
X-6889764D03*
G04 #@! TO.N,2004*
X-7283464D03*
G04 #@! TO.N,2005*
X-7677165D03*
G04 #@! TO.N,2006*
X-8070866D03*
G04 #@! TO.N,2007*
X-8464567D03*
G04 #@! TO.N,2008*
X-8858268D03*
G04 #@! TO.N,2009*
X-9251968D03*
G04 #@! TO.N,2010*
X-196850Y6496063D03*
G04 #@! TO.N,2011*
X-590551D03*
G04 #@! TO.N,2012*
X-984252D03*
G04 #@! TO.N,2013*
X-1377953D03*
G04 #@! TO.N,2014*
X-1771653D03*
G04 #@! TO.N,2015*
X-2165354D03*
G04 #@! TO.N,2016*
X-2559055D03*
G04 #@! TO.N,2017*
X-2952756D03*
G04 #@! TO.N,2018*
X-3346456D03*
G04 #@! TO.N,2019*
X-3740157D03*
G04 #@! TO.N,2020*
X-4133858D03*
G04 #@! TO.N,2021*
X-4527559Y6417323D03*
G04 #@! TO.N,2022*
X-4921260D03*
G04 #@! TO.N,2023*
X-5314960D03*
G04 #@! TO.N,2024*
X-5708661Y6496063D03*
G04 #@! TO.N,2025*
X-6102362D03*
G04 #@! TO.N,2026*
X-6496063D03*
G04 #@! TO.N,2027*
X-6889764D03*
G04 #@! TO.N,2028*
X-7283464D03*
G04 #@! TO.N,2029*
X-7677165D03*
G04 #@! TO.N,2030*
X-8070866D03*
G04 #@! TO.N,2031*
X-8464567D03*
G04 #@! TO.N,2032*
X-8858268D03*
G04 #@! TO.N,2033*
X-9251968D03*
G04 #@! TO.N,2034*
X-196850Y6889764D03*
G04 #@! TO.N,2035*
X-590551D03*
G04 #@! TO.N,2036*
X-984252D03*
G04 #@! TO.N,2037*
X-1377953D03*
G04 #@! TO.N,2038*
X-1771653D03*
G04 #@! TO.N,2039*
X-2165354D03*
G04 #@! TO.N,2040*
X-2559055D03*
G04 #@! TO.N,2041*
X-2952756D03*
G04 #@! TO.N,2042*
X-3346456D03*
G04 #@! TO.N,2043*
X-3740157D03*
G04 #@! TO.N,2044*
X-4133858D03*
G04 #@! TO.N,2045*
X-4527559D03*
G04 #@! TO.N,2046*
X-4921260D03*
G04 #@! TO.N,2047*
X-5314960D03*
G04 #@! TO.N,2048*
X-5708661D03*
G04 #@! TO.N,2049*
X-6102362D03*
G04 #@! TO.N,2050*
X-6496063D03*
G04 #@! TO.N,2051*
X-6889764D03*
G04 #@! TO.N,2052*
X-7283464D03*
G04 #@! TO.N,2053*
X-7677165D03*
G04 #@! TO.N,2054*
X-8070866D03*
G04 #@! TO.N,2055*
X-8464567D03*
G04 #@! TO.N,2056*
X-8858268D03*
G04 #@! TO.N,2057*
X-9251968D03*
G04 #@! TO.N,2058*
X-196850Y7283465D03*
G04 #@! TO.N,2059*
X-590551D03*
G04 #@! TO.N,2060*
X-984252D03*
G04 #@! TO.N,2061*
X-1377953D03*
G04 #@! TO.N,2062*
X-1771653D03*
G04 #@! TO.N,2063*
X-2165354D03*
G04 #@! TO.N,2064*
X-2559055D03*
G04 #@! TO.N,2065*
X-2952756D03*
G04 #@! TO.N,2066*
X-3346456D03*
G04 #@! TO.N,2067*
X-3740157D03*
G04 #@! TO.N,2068*
X-4133858D03*
G04 #@! TO.N,2069*
X-4527559D03*
G04 #@! TO.N,2070*
X-4921260D03*
G04 #@! TO.N,2071*
X-5314960D03*
G04 #@! TO.N,2072*
X-5708661D03*
G04 #@! TO.N,2073*
X-6102362D03*
G04 #@! TO.N,2074*
X-6496063D03*
G04 #@! TO.N,2075*
X-6889764D03*
G04 #@! TO.N,2076*
X-7283464D03*
G04 #@! TO.N,2077*
X-7677165D03*
G04 #@! TO.N,2078*
X-8070866D03*
G04 #@! TO.N,2079*
X-8464567D03*
G04 #@! TO.N,2080*
X-8858268D03*
G04 #@! TO.N,2081*
X-9251968D03*
G04 #@! TO.N,2082*
X-196850Y7677165D03*
G04 #@! TO.N,2083*
X-590551D03*
G04 #@! TO.N,2084*
X-984252D03*
G04 #@! TO.N,2085*
X-1377953D03*
G04 #@! TO.N,2086*
X-1771653D03*
G04 #@! TO.N,2087*
X-2165354D03*
G04 #@! TO.N,2088*
X-2559055D03*
G04 #@! TO.N,2089*
X-2952756D03*
G04 #@! TO.N,2090*
X-3346456D03*
G04 #@! TO.N,2091*
X-3740157D03*
G04 #@! TO.N,2092*
X-4133858D03*
G04 #@! TO.N,2093*
X-4527559D03*
G04 #@! TO.N,2094*
X-4921260D03*
G04 #@! TO.N,2095*
X-5314960D03*
G04 #@! TO.N,2096*
X-5708661D03*
G04 #@! TO.N,2097*
X-6102362D03*
G04 #@! TO.N,2098*
X-6496063D03*
G04 #@! TO.N,2099*
X-6889764D03*
G04 #@! TO.N,2100*
X-7283464D03*
G04 #@! TO.N,2101*
X-7677165D03*
G04 #@! TO.N,2102*
X-8070866D03*
G04 #@! TO.N,2103*
X-8464567D03*
G04 #@! TO.N,2104*
X-8858268D03*
G04 #@! TO.N,2105*
X-9251968D03*
G04 #@! TO.N,2106*
X-9645669Y6102362D03*
G04 #@! TO.N,2107*
Y6496063D03*
G04 #@! TO.N,2108*
Y6889764D03*
G04 #@! TO.N,2109*
Y7283465D03*
G04 #@! TO.N,2110*
Y7677165D03*
G04 #@! TO.N,2111*
X-196850Y4133858D03*
G04 #@! TO.N,2112*
X-590551D03*
G04 #@! TO.N,2113*
X-984252D03*
G04 #@! TO.N,2114*
X-1377953D03*
G04 #@! TO.N,2115*
X-1771653D03*
G04 #@! TO.N,2116*
X-2165354D03*
G04 #@! TO.N,2117*
X-2559055D03*
G04 #@! TO.N,2118*
X-2952756D03*
G04 #@! TO.N,2119*
X-3346456D03*
G04 #@! TO.N,2120*
X-3740157D03*
G04 #@! TO.N,2121*
X-4133858D03*
G04 #@! TO.N,2122*
X-4527559D03*
G04 #@! TO.N,2123*
X-4921260D03*
G04 #@! TO.N,2124*
X-5314960D03*
G04 #@! TO.N,2125*
X-5708661D03*
G04 #@! TO.N,2126*
X-6102362D03*
G04 #@! TO.N,2127*
X-6496063D03*
G04 #@! TO.N,2128*
X-6889764D03*
G04 #@! TO.N,2129*
X-7283464D03*
G04 #@! TO.N,2130*
X-7677165D03*
G04 #@! TO.N,2131*
X-8070866D03*
G04 #@! TO.N,2132*
X-8464567D03*
G04 #@! TO.N,2133*
X-8858268D03*
G04 #@! TO.N,2134*
X-9251968D03*
G04 #@! TO.N,2135*
X-196850Y4527559D03*
G04 #@! TO.N,2136*
X-590551D03*
G04 #@! TO.N,2137*
X-984252D03*
G04 #@! TO.N,2138*
X-1377953D03*
G04 #@! TO.N,2139*
X-1771653D03*
G04 #@! TO.N,2140*
X-2165354D03*
G04 #@! TO.N,2141*
X-2559055D03*
G04 #@! TO.N,2142*
X-2952756D03*
G04 #@! TO.N,2143*
X-3346456D03*
G04 #@! TO.N,2144*
X-3740157D03*
G04 #@! TO.N,2145*
X-4133858D03*
G04 #@! TO.N,2146*
X-4527559D03*
G04 #@! TO.N,2147*
X-4921260D03*
G04 #@! TO.N,2148*
X-5314960D03*
G04 #@! TO.N,2149*
X-5708661D03*
G04 #@! TO.N,2150*
X-6102362D03*
G04 #@! TO.N,2151*
X-6496063Y4448819D03*
G04 #@! TO.N,2152*
X-6889764D03*
G04 #@! TO.N,2153*
X-7283464D03*
G04 #@! TO.N,2154*
X-7677165D03*
G04 #@! TO.N,2155*
X-8070866Y4527559D03*
G04 #@! TO.N,2156*
X-8464567D03*
G04 #@! TO.N,2157*
X-8858268D03*
G04 #@! TO.N,2158*
X-9251968D03*
G04 #@! TO.N,2159*
X-196850Y4921260D03*
G04 #@! TO.N,2160*
X-590551D03*
G04 #@! TO.N,2161*
X-984252D03*
G04 #@! TO.N,2162*
X-1377953D03*
G04 #@! TO.N,2163*
X-1771653D03*
G04 #@! TO.N,2164*
X-2165354D03*
G04 #@! TO.N,2165*
X-2559055D03*
G04 #@! TO.N,2166*
X-2952756D03*
G04 #@! TO.N,2167*
X-3346456D03*
G04 #@! TO.N,2168*
X-3740157D03*
G04 #@! TO.N,2169*
X-4133858D03*
G04 #@! TO.N,2170*
X-4527559D03*
G04 #@! TO.N,2171*
X-4921260D03*
G04 #@! TO.N,2172*
X-5314960D03*
G04 #@! TO.N,2173*
X-5708661D03*
G04 #@! TO.N,2174*
X-6102362D03*
G04 #@! TO.N,2175*
X-6496063D03*
G04 #@! TO.N,2176*
X-6889764D03*
G04 #@! TO.N,2177*
X-7283464D03*
G04 #@! TO.N,2178*
X-7677165D03*
G04 #@! TO.N,2179*
X-8070866D03*
G04 #@! TO.N,2180*
X-8464567D03*
G04 #@! TO.N,2181*
X-8858268D03*
G04 #@! TO.N,2182*
X-9251968D03*
G04 #@! TO.N,2183*
X-196850Y5314961D03*
G04 #@! TO.N,2184*
X-590551D03*
G04 #@! TO.N,2185*
X-984252D03*
G04 #@! TO.N,2186*
X-1377953D03*
G04 #@! TO.N,2187*
X-1771653D03*
G04 #@! TO.N,2188*
X-2165354D03*
G04 #@! TO.N,2189*
X-2559055D03*
G04 #@! TO.N,2190*
X-2952756D03*
G04 #@! TO.N,2191*
X-3346456D03*
G04 #@! TO.N,2192*
X-3740157D03*
G04 #@! TO.N,2193*
X-4133858D03*
G04 #@! TO.N,2194*
X-4527559D03*
G04 #@! TO.N,2195*
X-4921260D03*
G04 #@! TO.N,2196*
X-5314960D03*
G04 #@! TO.N,2197*
X-5708661D03*
G04 #@! TO.N,2198*
X-6102362D03*
G04 #@! TO.N,2199*
X-6496063D03*
G04 #@! TO.N,2200*
X-6889764D03*
G04 #@! TO.N,2201*
X-7283464D03*
G04 #@! TO.N,2202*
X-7677165D03*
G04 #@! TO.N,2203*
X-8070866D03*
G04 #@! TO.N,2204*
X-8464567D03*
G04 #@! TO.N,2205*
X-8858268D03*
G04 #@! TO.N,2206*
X-9251968D03*
G04 #@! TO.N,2207*
X-196850Y5708661D03*
G04 #@! TO.N,2208*
X-590551D03*
G04 #@! TO.N,2209*
X-984252D03*
G04 #@! TO.N,2210*
X-1377953D03*
G04 #@! TO.N,2211*
X-1771653D03*
G04 #@! TO.N,2212*
X-2165354D03*
G04 #@! TO.N,2213*
X-2559055D03*
G04 #@! TO.N,2214*
X-2952756D03*
G04 #@! TO.N,2215*
X-3346456D03*
G04 #@! TO.N,2216*
X-3740157D03*
G04 #@! TO.N,2217*
X-4133858D03*
G04 #@! TO.N,2218*
X-4527559D03*
G04 #@! TO.N,2219*
X-4921260D03*
G04 #@! TO.N,2220*
X-5314960D03*
G04 #@! TO.N,2221*
X-5708661D03*
G04 #@! TO.N,2222*
X-6102362D03*
G04 #@! TO.N,2223*
X-6496063Y5629921D03*
G04 #@! TO.N,2224*
X-6889764D03*
G04 #@! TO.N,2225*
X-7283464D03*
G04 #@! TO.N,2226*
X-7677165D03*
G04 #@! TO.N,2227*
X-8070866Y5708661D03*
G04 #@! TO.N,2228*
X-8464567D03*
G04 #@! TO.N,2229*
X-8858268D03*
G04 #@! TO.N,2230*
X-9251968D03*
G04 #@! TO.N,2231*
X-9645669Y4133858D03*
G04 #@! TO.N,2232*
Y4527559D03*
G04 #@! TO.N,2233*
Y4921260D03*
G04 #@! TO.N,2234*
Y5314961D03*
G04 #@! TO.N,2235*
Y5708661D03*
G04 #@! TO.N,2236*
Y1771654D03*
G04 #@! TO.N,2237*
X-9251968D03*
G04 #@! TO.N,2238*
X-8858268D03*
G04 #@! TO.N,2239*
X-8464567D03*
G04 #@! TO.N,2240*
X-8070866D03*
G04 #@! TO.N,2241*
X-7677165D03*
G04 #@! TO.N,2242*
X-7283464D03*
G04 #@! TO.N,2243*
X-6889764D03*
G04 #@! TO.N,2244*
X-6496063D03*
G04 #@! TO.N,2245*
X-6102362D03*
G04 #@! TO.N,2246*
X-5708661D03*
G04 #@! TO.N,2247*
X-5314960D03*
G04 #@! TO.N,2248*
X-4921260D03*
G04 #@! TO.N,2249*
X-4527559D03*
G04 #@! TO.N,2250*
X-4133858D03*
G04 #@! TO.N,2251*
X-3740157D03*
G04 #@! TO.N,2252*
X-3346456D03*
G04 #@! TO.N,2253*
X-2952756D03*
G04 #@! TO.N,2254*
X-2559055D03*
G04 #@! TO.N,2255*
X-2165354D03*
G04 #@! TO.N,2256*
X-1771653D03*
G04 #@! TO.N,2257*
X-1377953D03*
G04 #@! TO.N,2258*
X-984252D03*
G04 #@! TO.N,2259*
X-590551D03*
G04 #@! TO.N,2260*
X-9645669Y1377953D03*
G04 #@! TO.N,2261*
X-9251968D03*
G04 #@! TO.N,2262*
X-8858268D03*
G04 #@! TO.N,2263*
X-8464567D03*
G04 #@! TO.N,2264*
X-8070866D03*
G04 #@! TO.N,2265*
X-7677165D03*
G04 #@! TO.N,2266*
X-7283464D03*
G04 #@! TO.N,2267*
X-6889764D03*
G04 #@! TO.N,2268*
X-6496063D03*
G04 #@! TO.N,2269*
X-6102362D03*
G04 #@! TO.N,2270*
X-5708661D03*
G04 #@! TO.N,2271*
X-5314960Y1456693D03*
G04 #@! TO.N,2272*
X-4921260D03*
G04 #@! TO.N,2273*
X-4527559D03*
G04 #@! TO.N,2274*
X-4133858Y1377953D03*
G04 #@! TO.N,2275*
X-3740157D03*
G04 #@! TO.N,2276*
X-3346456D03*
G04 #@! TO.N,2277*
X-2952756D03*
G04 #@! TO.N,2278*
X-2559055D03*
G04 #@! TO.N,2279*
X-2165354D03*
G04 #@! TO.N,2280*
X-1771653D03*
G04 #@! TO.N,2281*
X-1545275D03*
G04 #@! TO.N,2282*
X-984252D03*
G04 #@! TO.N,2283*
X-757874D03*
G04 #@! TO.N,2284*
X-9645669Y984252D03*
G04 #@! TO.N,2285*
X-9251968D03*
G04 #@! TO.N,2286*
X-8858268D03*
G04 #@! TO.N,2287*
X-8464567D03*
G04 #@! TO.N,2288*
X-8070866D03*
G04 #@! TO.N,2289*
X-7677165D03*
G04 #@! TO.N,2290*
X-7283464D03*
G04 #@! TO.N,2291*
X-6889764D03*
G04 #@! TO.N,2292*
X-6496063D03*
G04 #@! TO.N,2293*
X-6102362D03*
G04 #@! TO.N,2294*
X-5708661D03*
G04 #@! TO.N,2295*
X-5314960D03*
G04 #@! TO.N,2296*
X-4921260D03*
G04 #@! TO.N,2297*
X-4527559D03*
G04 #@! TO.N,2298*
X-4133858D03*
G04 #@! TO.N,2299*
X-3740157D03*
G04 #@! TO.N,2300*
X-3346456D03*
G04 #@! TO.N,2301*
X-2952756D03*
G04 #@! TO.N,2302*
X-2559055D03*
G04 #@! TO.N,2303*
X-2165354D03*
G04 #@! TO.N,2304*
X-1771653D03*
G04 #@! TO.N,2305*
X-1545275D03*
G04 #@! TO.N,2306*
X-9645669Y590551D03*
G04 #@! TO.N,2307*
X-9251968D03*
G04 #@! TO.N,2308*
X-8858268D03*
G04 #@! TO.N,2309*
X-8464567D03*
G04 #@! TO.N,2310*
X-8070866D03*
G04 #@! TO.N,2311*
X-7677165D03*
G04 #@! TO.N,2312*
X-7283464D03*
G04 #@! TO.N,2313*
X-6889764D03*
G04 #@! TO.N,2314*
X-6496063D03*
G04 #@! TO.N,2315*
X-6102362D03*
G04 #@! TO.N,2316*
X-5708661D03*
G04 #@! TO.N,2317*
X-5314960D03*
G04 #@! TO.N,2318*
X-4921260D03*
G04 #@! TO.N,2319*
X-4527559D03*
G04 #@! TO.N,2320*
X-4133858D03*
G04 #@! TO.N,2321*
X-3740157D03*
G04 #@! TO.N,2322*
X-3346456D03*
G04 #@! TO.N,2323*
X-2952756D03*
G04 #@! TO.N,2324*
X-2559055D03*
G04 #@! TO.N,2325*
X-2165354D03*
G04 #@! TO.N,2326*
X-1771653D03*
G04 #@! TO.N,2327*
X-1545275D03*
G04 #@! TO.N,2328*
X-9645669Y196850D03*
G04 #@! TO.N,2329*
X-9251968D03*
G04 #@! TO.N,2330*
X-8858268D03*
G04 #@! TO.N,2331*
X-8464567D03*
G04 #@! TO.N,2332*
X-8070866D03*
G04 #@! TO.N,2333*
X-7677165D03*
G04 #@! TO.N,2334*
X-7283464D03*
G04 #@! TO.N,2335*
X-6889764D03*
G04 #@! TO.N,2336*
X-6496063D03*
G04 #@! TO.N,2337*
X-6102362D03*
G04 #@! TO.N,2338*
X-5708661D03*
G04 #@! TO.N,2339*
X-5314960D03*
G04 #@! TO.N,2340*
X-4921260D03*
G04 #@! TO.N,2341*
X-4527559D03*
G04 #@! TO.N,2342*
X-4133858D03*
G04 #@! TO.N,2343*
X-3740157D03*
G04 #@! TO.N,2344*
X-3346456D03*
G04 #@! TO.N,2345*
X-2952756D03*
G04 #@! TO.N,2346*
X-2559055D03*
G04 #@! TO.N,2347*
X-2165354D03*
G04 #@! TO.N,2348*
X-1771653D03*
G04 #@! TO.N,2349*
X-1545275D03*
G04 #@! TO.N,2350*
X-196850Y1771654D03*
G04 #@! TO.N,2351*
X-364173Y1377953D03*
G04 #@! TO.N,2352*
X-9645669Y3740157D03*
G04 #@! TO.N,2353*
X-9251968D03*
G04 #@! TO.N,2354*
X-8858268D03*
G04 #@! TO.N,2355*
X-8464567D03*
G04 #@! TO.N,2356*
X-8070866D03*
G04 #@! TO.N,2357*
X-7677165D03*
G04 #@! TO.N,2358*
X-7283464D03*
G04 #@! TO.N,2359*
X-6889764D03*
G04 #@! TO.N,2360*
X-6496063D03*
G04 #@! TO.N,2361*
X-6102362D03*
G04 #@! TO.N,2362*
X-5708661D03*
G04 #@! TO.N,2363*
X-5314960D03*
G04 #@! TO.N,2364*
X-4921260D03*
G04 #@! TO.N,2365*
X-4527559D03*
G04 #@! TO.N,2366*
X-4133858D03*
G04 #@! TO.N,2367*
X-3740157D03*
G04 #@! TO.N,2368*
X-3346456D03*
G04 #@! TO.N,2369*
X-2952756D03*
G04 #@! TO.N,2370*
X-2559055D03*
G04 #@! TO.N,2371*
X-2165354D03*
G04 #@! TO.N,2372*
X-1771653D03*
G04 #@! TO.N,2373*
X-1377953D03*
G04 #@! TO.N,2374*
X-984252D03*
G04 #@! TO.N,2375*
X-590551D03*
G04 #@! TO.N,2376*
X-9645669Y3346457D03*
G04 #@! TO.N,2377*
X-9251968D03*
G04 #@! TO.N,2378*
X-8858268D03*
G04 #@! TO.N,2379*
X-8464567D03*
G04 #@! TO.N,2380*
X-8070866D03*
G04 #@! TO.N,2381*
X-7677165D03*
G04 #@! TO.N,2382*
X-7283464D03*
G04 #@! TO.N,2383*
X-6889764D03*
G04 #@! TO.N,2384*
X-6496063D03*
G04 #@! TO.N,2385*
X-6102362D03*
G04 #@! TO.N,2386*
X-5708661D03*
G04 #@! TO.N,2387*
X-5314960D03*
G04 #@! TO.N,2388*
X-4921260D03*
G04 #@! TO.N,2389*
X-4527559D03*
G04 #@! TO.N,2390*
X-4133858D03*
G04 #@! TO.N,2391*
X-3740157D03*
G04 #@! TO.N,2392*
X-3346456Y3425197D03*
G04 #@! TO.N,2393*
X-2952756D03*
G04 #@! TO.N,2394*
X-2559055D03*
G04 #@! TO.N,2395*
X-2165354D03*
G04 #@! TO.N,2396*
X-1771653Y3346457D03*
G04 #@! TO.N,2397*
X-1377953D03*
G04 #@! TO.N,2398*
X-984252D03*
G04 #@! TO.N,2399*
X-590551D03*
G04 #@! TO.N,2400*
X-9645669Y2952756D03*
G04 #@! TO.N,2401*
X-9251968D03*
G04 #@! TO.N,2402*
X-8858268D03*
G04 #@! TO.N,2403*
X-8464567D03*
G04 #@! TO.N,2404*
X-8070866D03*
G04 #@! TO.N,2405*
X-7677165D03*
G04 #@! TO.N,2406*
X-7283464D03*
G04 #@! TO.N,2407*
X-6889764D03*
G04 #@! TO.N,2408*
X-6496063D03*
G04 #@! TO.N,2409*
X-6102362D03*
G04 #@! TO.N,2410*
X-5708661D03*
G04 #@! TO.N,2411*
X-5314960D03*
G04 #@! TO.N,2412*
X-4921260D03*
G04 #@! TO.N,2413*
X-4527559D03*
G04 #@! TO.N,2414*
X-4133858D03*
G04 #@! TO.N,2415*
X-3740157D03*
G04 #@! TO.N,2416*
X-3346456D03*
G04 #@! TO.N,2417*
X-2952756D03*
G04 #@! TO.N,2418*
X-2559055D03*
G04 #@! TO.N,2419*
X-2165354D03*
G04 #@! TO.N,2420*
X-1771653D03*
G04 #@! TO.N,2421*
X-1377953D03*
G04 #@! TO.N,2422*
X-984252D03*
G04 #@! TO.N,2423*
X-590551D03*
G04 #@! TO.N,2424*
X-9645669Y2559055D03*
G04 #@! TO.N,2425*
X-9251968D03*
G04 #@! TO.N,2426*
X-8858268D03*
G04 #@! TO.N,2427*
X-8464567D03*
G04 #@! TO.N,2428*
X-8070866D03*
G04 #@! TO.N,2429*
X-7677165D03*
G04 #@! TO.N,2430*
X-7283464D03*
G04 #@! TO.N,2431*
X-6889764D03*
G04 #@! TO.N,2432*
X-6496063D03*
G04 #@! TO.N,2433*
X-6102362D03*
G04 #@! TO.N,2434*
X-5708661D03*
G04 #@! TO.N,2435*
X-5314960D03*
G04 #@! TO.N,2436*
X-4921260D03*
G04 #@! TO.N,2437*
X-4527559D03*
G04 #@! TO.N,2438*
X-4133858D03*
G04 #@! TO.N,2439*
X-3740157D03*
G04 #@! TO.N,2440*
X-3346456D03*
G04 #@! TO.N,2441*
X-2952756D03*
G04 #@! TO.N,2442*
X-2559055D03*
G04 #@! TO.N,2443*
X-2165354D03*
G04 #@! TO.N,2444*
X-1771653D03*
G04 #@! TO.N,2445*
X-1377953D03*
G04 #@! TO.N,2446*
X-984252D03*
G04 #@! TO.N,2447*
X-590551D03*
G04 #@! TO.N,2448*
X-9645669Y2165354D03*
G04 #@! TO.N,2449*
X-9251968D03*
G04 #@! TO.N,2450*
X-8858268D03*
G04 #@! TO.N,2451*
X-8464567D03*
G04 #@! TO.N,2452*
X-8070866D03*
G04 #@! TO.N,2453*
X-7677165D03*
G04 #@! TO.N,2454*
X-7283464D03*
G04 #@! TO.N,2455*
X-6889764D03*
G04 #@! TO.N,2456*
X-6496063D03*
G04 #@! TO.N,2457*
X-6102362D03*
G04 #@! TO.N,2458*
X-5708661D03*
G04 #@! TO.N,2459*
X-5314960D03*
G04 #@! TO.N,2460*
X-4921260D03*
G04 #@! TO.N,2461*
X-4527559D03*
G04 #@! TO.N,2462*
X-4133858D03*
G04 #@! TO.N,2463*
X-3740157D03*
G04 #@! TO.N,2464*
X-3346456Y2244094D03*
G04 #@! TO.N,2465*
X-2952756D03*
G04 #@! TO.N,2466*
X-2559055D03*
G04 #@! TO.N,2467*
X-2165354D03*
G04 #@! TO.N,2468*
X-1771653Y2165354D03*
G04 #@! TO.N,2469*
X-1377953D03*
G04 #@! TO.N,2470*
X-984252D03*
G04 #@! TO.N,2471*
X-590551D03*
G04 #@! TO.N,2472*
X-196850Y3740157D03*
G04 #@! TO.N,2473*
Y3346457D03*
G04 #@! TO.N,2474*
Y2952756D03*
G04 #@! TO.N,2475*
Y2559055D03*
G04 #@! TO.N,2476*
Y2165354D03*
G04 #@! TO.N,0*
D12*
X10078740Y8110236D03*
Y-8031496D03*
X-10000000Y8110236D03*
Y-8031496D03*
X10000000Y8110236D03*
Y-8031496D03*
X-10078740Y8110236D03*
Y-8031496D03*
X10078740Y8031496D03*
Y-8110236D03*
X-10000000Y8031496D03*
Y-8110236D03*
X10000000Y8031496D03*
Y-8110236D03*
X-10078740Y8031496D03*
Y-8110236D03*
D13*
X9625984Y7952756D03*
X9921260Y7657480D03*
X-9665354Y-7992126D03*
X-9960630Y-7696850D03*
X9665354Y7952756D03*
X9960630Y7657480D03*
X-9625984Y-7992126D03*
X-9921260Y-7696850D03*
X9665354Y7992126D03*
X9960630Y7696850D03*
X-9625984Y-7952756D03*
X-9921260Y-7657480D03*
X9625984Y7992126D03*
X9921260Y7696850D03*
X-9665354Y-7952756D03*
X-9960630Y-7657480D03*
%LPD*%
M02*