G04 #@! TF.FileFunction,Plated,4,5,Blind*
G04 #@! TF.FilePolarity,Positive*
G04 #@! TF.SameCoordinates,tov5NBzOuLjLKJ3u1y1mtdWK4NcwDON*
G04 #@! TF.CreationDate,2023-05-25T08:52:34+0200*
G04 #@! TF.GenerationSoftware,Ucamco,UcamX,v2022.09-221024*
%FSLAX26Y26*%
%MOIN*%
%ADD10C,0.011811*%
%ADD11C,0.007874*%
%ADD12C,0.008268*%
%ADD13C,0.008661*%
%SRX1Y1I0.000000J0.000000*%
G04 layer name: DFS2946_DET_viasDLC2-PCB*
%LPD*%
D10*
X157480Y-137795D03*
X472441D03*
X787402D03*
X1102362D03*
X157480Y-452756D03*
X472441D03*
X787402D03*
X1102362D03*
X157480Y-767717D03*
X472441D03*
X787402D03*
X1102362D03*
X157480Y-1082677D03*
X472441D03*
X787402D03*
X1102362D03*
X157480Y137795D03*
X472441D03*
X787402D03*
X1102362D03*
X157480Y452756D03*
X472441D03*
X787402D03*
X1102362D03*
X157480Y767717D03*
X472441D03*
X787402D03*
X1102362D03*
X157480Y1082677D03*
X472441D03*
X787402D03*
X1102362D03*
X-157480Y-137795D03*
X-472441D03*
X-787402D03*
X-1102362D03*
X-157480Y-452756D03*
X-472441D03*
X-787402D03*
X-1102362D03*
X-157480Y-767717D03*
X-472441D03*
X-787402D03*
X-1102362D03*
X-157480Y-1082677D03*
X-472441D03*
X-787402D03*
X-1102362D03*
X-157480Y137795D03*
X-472441D03*
X-787402D03*
X-1102362D03*
X-157480Y452756D03*
X-472441D03*
X-787402D03*
X-1102362D03*
X-157480Y767717D03*
X-472441D03*
X-787402D03*
X-1102362D03*
X-157480Y1082677D03*
X-472441D03*
X-787402D03*
X-1102362D03*
D11*
X9685039Y7677165D03*
X1377953Y196850D03*
X1811024D03*
X2204724D03*
X2598425D03*
X2992126D03*
X3385827D03*
X3779528D03*
X4173228D03*
X4566929D03*
X4960630D03*
X5354331D03*
X5748031D03*
X6141732D03*
X6535433D03*
X6929134D03*
X7322835D03*
X7716535D03*
X8110236D03*
X8503937D03*
X8897638D03*
X9291339D03*
X9685039D03*
X1377953Y590551D03*
X1811024D03*
X2204724D03*
X2598425D03*
X2992126D03*
X3385827D03*
X3779528D03*
X4173228D03*
X4566929D03*
X4960630D03*
X5354331D03*
X5748031D03*
X6141732D03*
X6535433D03*
X6929134D03*
X7322835D03*
X7716535D03*
X8110236D03*
X8503937D03*
X8897638D03*
X9291339D03*
X9685039D03*
X1377953Y984252D03*
X1811024D03*
X2204724D03*
X2598425D03*
X2992126D03*
X3385827D03*
X3779528D03*
X4173228D03*
X4566929D03*
X4960630D03*
X5354331D03*
X5748031D03*
X6141732D03*
X6535433D03*
X6929134D03*
X7322835D03*
X7716535D03*
X8110236D03*
X8503937D03*
X8897638D03*
X9291339D03*
X9685039D03*
X1377953Y1377953D03*
X1811024D03*
X2204724D03*
X2598425D03*
X2992126D03*
X3385827D03*
X3779528D03*
X4173228D03*
X5748031D03*
X6141732D03*
X6535433D03*
X6929134D03*
X7322835D03*
X7716535D03*
X8110236D03*
X8503937D03*
X8897638D03*
X9291339D03*
X9685039D03*
X1811024Y1771654D03*
X2204724D03*
X2598425D03*
X2992126D03*
X3385827D03*
X3779528D03*
X4173228D03*
X4566929D03*
X4960630D03*
X5354331D03*
X5748031D03*
X6141732D03*
X6535433D03*
X6929134D03*
X7322835D03*
X7716535D03*
X8110236D03*
X8503937D03*
X8897638D03*
X9291339D03*
X9685039D03*
X1023622Y1417323D03*
X629921D03*
X236220D03*
X1417323Y1771654D03*
X1811024Y2165354D03*
X2204724D03*
X2598425D03*
X2992126D03*
X3385827D03*
X3779528D03*
X4173228D03*
X4566929D03*
X4960630D03*
X5354331D03*
X5748031D03*
X6141732D03*
X6535433D03*
X6929134D03*
X7322835D03*
X7716535D03*
X8110236D03*
X8503937D03*
X8897638D03*
X9291339D03*
X9685039D03*
X1023622Y1771654D03*
X629921D03*
X1417323Y2165354D03*
X1811024Y2559055D03*
X2204724D03*
X2598425D03*
X2992126D03*
X3385827D03*
X3779528D03*
X4173228D03*
X4566929D03*
X4960630D03*
X5354331D03*
X5748031D03*
X6141732D03*
X6535433D03*
X6929134D03*
X7322835D03*
X7716535D03*
X8110236D03*
X8503937D03*
X8897638D03*
X9291339D03*
X9685039D03*
X1023622Y2165354D03*
X629921D03*
X1417323Y2559055D03*
X1811024Y2952756D03*
X2204724D03*
X2598425D03*
X2992126D03*
X3385827D03*
X3779528D03*
X4173228D03*
X4566929D03*
X4960630D03*
X5354331D03*
X5748031D03*
X6141732D03*
X6535433D03*
X6929134D03*
X7322835D03*
X7716535D03*
X8110236D03*
X8503937D03*
X8897638D03*
X9291339D03*
X9685039D03*
X1023622Y2559055D03*
X629921D03*
X1417323Y2952756D03*
X3779528Y3346457D03*
X4173228D03*
X4566929D03*
X4960630D03*
X5354331D03*
X5748031D03*
X6141732D03*
X6535433D03*
X6929134D03*
X7322835D03*
X7716535D03*
X8110236D03*
X8503937D03*
X8897638D03*
X9291339D03*
X9685039D03*
X1023622Y2952756D03*
X629921D03*
X1417323Y3346457D03*
X1811024Y3740157D03*
X2204724D03*
X2598425D03*
X2992126D03*
X3385827D03*
X3779528D03*
X4173228D03*
X4566929D03*
X4960630D03*
X5354331D03*
X5748031D03*
X6141732D03*
X6535433D03*
X6929134D03*
X7322835D03*
X7716535D03*
X8110236D03*
X8503937D03*
X8897638D03*
X9291339D03*
X9685039D03*
X1023622Y3346457D03*
X629921D03*
X1417323Y3740157D03*
X1811024Y4133858D03*
X2204724D03*
X2598425D03*
X2992126D03*
X3385827D03*
X3779528D03*
X4173228D03*
X4566929D03*
X4960630D03*
X5354331D03*
X5748031D03*
X6141732D03*
X6535433D03*
X6929134D03*
X7322835D03*
X7716535D03*
X8110236D03*
X8503937D03*
X8897638D03*
X9291339D03*
X9685039D03*
X1023622Y3740157D03*
X629921D03*
X1417323Y4133858D03*
X1811024Y4527559D03*
X2204724D03*
X2598425D03*
X2992126D03*
X3385827D03*
X3779528D03*
X4173228D03*
X4566929D03*
X4960630D03*
X5354331D03*
X5748031D03*
X6141732D03*
X8110236D03*
X8503937D03*
X8897638D03*
X9291339D03*
X9685039D03*
X1023622Y4133858D03*
X629921D03*
X1417323Y4527559D03*
X1811024Y4921260D03*
X2204724D03*
X2598425D03*
X2992126D03*
X3385827D03*
X3779528D03*
X4173228D03*
X4566929D03*
X4960630D03*
X5354331D03*
X5748031D03*
X6141732D03*
X6535433D03*
X6929134D03*
X7322835D03*
X7716535D03*
X8110236D03*
X8503937D03*
X8897638D03*
X9291339D03*
X9685039D03*
X1023622Y4527559D03*
X629921D03*
X1417323Y4921260D03*
X1811024Y5314961D03*
X2204724D03*
X2598425D03*
X2992126D03*
X3385827D03*
X3779528D03*
X4173228D03*
X4566929D03*
X4960630D03*
X5354331D03*
X5748031D03*
X6141732D03*
X6535433D03*
X6929134D03*
X7322835D03*
X7716535D03*
X8110236D03*
X8503937D03*
X8897638D03*
X9291339D03*
X9685039D03*
X1023622Y4921260D03*
X629921D03*
X1417323Y5314961D03*
X1811024Y5708661D03*
X2204724D03*
X2598425D03*
X2992126D03*
X3385827D03*
X3779528D03*
X4173228D03*
X4566929D03*
X4960630D03*
X5354331D03*
X5748031D03*
X6141732D03*
X6535433D03*
X6929134D03*
X7322835D03*
X7716535D03*
X8110236D03*
X8503937D03*
X8897638D03*
X9291339D03*
X9685039D03*
X1023622Y5314961D03*
X629921D03*
X1417323Y5708661D03*
X1811024Y6102362D03*
X2204724D03*
X2598425D03*
X2992126D03*
X3385827D03*
X3779528D03*
X4173228D03*
X4566929D03*
X4960630D03*
X5354331D03*
X5748031D03*
X6141732D03*
X6535433D03*
X6929134D03*
X7322835D03*
X7716535D03*
X8110236D03*
X8503937D03*
X8897638D03*
X9291339D03*
X9685039D03*
X1023622Y5708661D03*
X629921D03*
X1417323Y6102362D03*
X1811024Y6496063D03*
X2204724D03*
X2598425D03*
X2992126D03*
X3385827D03*
X3779528D03*
X4173228D03*
X4960630D03*
X6141732D03*
X6535433D03*
X6929134D03*
X7322835D03*
X7716535D03*
X8110236D03*
X8503937D03*
X8897638D03*
X9291339D03*
X9685039D03*
X1023622Y6102362D03*
X629921D03*
X1417323Y6496063D03*
X1811024Y6889764D03*
X2204724D03*
X2598425D03*
X2992126D03*
X3385827D03*
X3779528D03*
X4173228D03*
X4566929D03*
X4960630D03*
X5354331D03*
X5748031D03*
X6141732D03*
X6535433D03*
X6929134D03*
X7322835D03*
X7716535D03*
X8110236D03*
X8503937D03*
X8897638D03*
X9291339D03*
X9685039D03*
X1023622Y6496063D03*
X629921D03*
X1417323Y6889764D03*
X1811024Y7283465D03*
X2204724D03*
X2598425D03*
X2992126D03*
X3385827D03*
X3779528D03*
X4173228D03*
X4566929D03*
X4960630D03*
X5354331D03*
X5748031D03*
X6141732D03*
X6535433D03*
X6929134D03*
X7322835D03*
X7716535D03*
X8110236D03*
X8503937D03*
X8897638D03*
X9291339D03*
X9685039D03*
X1023622Y6889764D03*
X629921D03*
X1417323Y7283465D03*
X1811024Y7677165D03*
X2204724D03*
X2598425D03*
X2992126D03*
X3385827D03*
X3779528D03*
X4173228D03*
X4566929D03*
X4960630D03*
X5354331D03*
X5748031D03*
X6141732D03*
X6535433D03*
X6929134D03*
X7322835D03*
X7716535D03*
X8110236D03*
X8503937D03*
X8897638D03*
X9291339D03*
X1023622Y7283465D03*
X629921D03*
X1417323Y7677165D03*
X1023622D03*
X629921D03*
X236220Y1771654D03*
Y2165354D03*
Y2559055D03*
Y2952756D03*
Y3346457D03*
Y3740157D03*
Y4133858D03*
Y4527559D03*
Y4921260D03*
Y5314961D03*
Y5708661D03*
Y6102362D03*
Y6496063D03*
Y6889764D03*
Y7283465D03*
Y7677165D03*
X4586614Y1397638D03*
X4980315D03*
X5374016D03*
X1811024Y3346457D03*
X2263780Y3287402D03*
X2657480D03*
X3051181D03*
X3405512Y3326772D03*
X6555118Y4507874D03*
X6948819D03*
X7342520D03*
X7736220D03*
X4586614Y6456693D03*
X5374016D03*
X5748031Y6496063D03*
X9685039Y-7677165D03*
X1377953Y-196850D03*
X1811024D03*
X2204724D03*
X2598425D03*
X2992126D03*
X3385827D03*
X3779528D03*
X4173228D03*
X4566929D03*
X4960630D03*
X5354331D03*
X5748031D03*
X6141732D03*
X6535433D03*
X6929134D03*
X7322835D03*
X7716535D03*
X8110236D03*
X8503937D03*
X8897638D03*
X9291339D03*
X9685039D03*
X1377953Y-590551D03*
X1811024D03*
X2204724D03*
X2598425D03*
X2992126D03*
X3385827D03*
X3779528D03*
X4173228D03*
X4566929D03*
X4960630D03*
X5354331D03*
X5748031D03*
X6141732D03*
X6535433D03*
X6929134D03*
X7322835D03*
X7716535D03*
X8110236D03*
X8503937D03*
X8897638D03*
X9291339D03*
X9685039D03*
X1377953Y-984252D03*
X1811024D03*
X2204724D03*
X2598425D03*
X2992126D03*
X3385827D03*
X3779528D03*
X4173228D03*
X4566929D03*
X4960630D03*
X5354331D03*
X5748031D03*
X6141732D03*
X6535433D03*
X6929134D03*
X7322835D03*
X7716535D03*
X8110236D03*
X8503937D03*
X8897638D03*
X9291339D03*
X9685039D03*
X1377953Y-1377953D03*
X1811024D03*
X2204724D03*
X2598425D03*
X2992126D03*
X3385827D03*
X3779528D03*
X4173228D03*
X5748031D03*
X6141732D03*
X6535433D03*
X6929134D03*
X7322835D03*
X7716535D03*
X8110236D03*
X8503937D03*
X8897638D03*
X9291339D03*
X9685039D03*
X1811024Y-1771654D03*
X2204724D03*
X2598425D03*
X2992126D03*
X3385827D03*
X3779528D03*
X4173228D03*
X4566929D03*
X4960630D03*
X5354331D03*
X5748031D03*
X6141732D03*
X6535433D03*
X6929134D03*
X7322835D03*
X7716535D03*
X8110236D03*
X8503937D03*
X8897638D03*
X9291339D03*
X9685039D03*
X1023622Y-1417323D03*
X629921D03*
X236220D03*
X1417323Y-1771654D03*
X1811024Y-2165354D03*
X2204724D03*
X2598425D03*
X2992126D03*
X3385827D03*
X3779528D03*
X4173228D03*
X4566929D03*
X4960630D03*
X5354331D03*
X5748031D03*
X6141732D03*
X6535433D03*
X6929134D03*
X7322835D03*
X7716535D03*
X8110236D03*
X8503937D03*
X8897638D03*
X9291339D03*
X9685039D03*
X1023622Y-1771654D03*
X629921D03*
X1417323Y-2165354D03*
X1811024Y-2559055D03*
X2204724D03*
X2598425D03*
X2992126D03*
X3385827D03*
X3779528D03*
X4173228D03*
X4566929D03*
X4960630D03*
X5354331D03*
X5748031D03*
X6141732D03*
X6535433D03*
X6929134D03*
X7322835D03*
X7716535D03*
X8110236D03*
X8503937D03*
X8897638D03*
X9291339D03*
X9685039D03*
X1023622Y-2165354D03*
X629921D03*
X1417323Y-2559055D03*
X1811024Y-2952756D03*
X2204724D03*
X2598425D03*
X2992126D03*
X3385827D03*
X3779528D03*
X4173228D03*
X4566929D03*
X4960630D03*
X5354331D03*
X5748031D03*
X6141732D03*
X6535433D03*
X6929134D03*
X7322835D03*
X7716535D03*
X8110236D03*
X8503937D03*
X8897638D03*
X9291339D03*
X9685039D03*
X1023622Y-2559055D03*
X629921D03*
X1417323Y-2952756D03*
X3779528Y-3346457D03*
X4173228D03*
X4566929D03*
X4960630D03*
X5354331D03*
X5748031D03*
X6141732D03*
X6535433D03*
X6929134D03*
X7322835D03*
X7716535D03*
X8110236D03*
X8503937D03*
X8897638D03*
X9291339D03*
X9685039D03*
X1023622Y-2952756D03*
X629921D03*
X1417323Y-3346457D03*
X1811024Y-3740157D03*
X2204724D03*
X2598425D03*
X2992126D03*
X3385827D03*
X3779528D03*
X4173228D03*
X4566929D03*
X4960630D03*
X5354331D03*
X5748031D03*
X6141732D03*
X6535433D03*
X6929134D03*
X7322835D03*
X7716535D03*
X8110236D03*
X8503937D03*
X8897638D03*
X9291339D03*
X9685039D03*
X1023622Y-3346457D03*
X629921D03*
X1417323Y-3740157D03*
X1811024Y-4133858D03*
X2204724D03*
X2598425D03*
X2992126D03*
X3385827D03*
X3779528D03*
X4173228D03*
X4566929D03*
X4960630D03*
X5354331D03*
X5748031D03*
X6141732D03*
X6535433D03*
X6929134D03*
X7322835D03*
X7716535D03*
X8110236D03*
X8503937D03*
X8897638D03*
X9291339D03*
X9685039D03*
X1023622Y-3740157D03*
X629921D03*
X1417323Y-4133858D03*
X1811024Y-4527559D03*
X2204724D03*
X2598425D03*
X2992126D03*
X3385827D03*
X3779528D03*
X4173228D03*
X4566929D03*
X4960630D03*
X5354331D03*
X5748031D03*
X6141732D03*
X8110236D03*
X8503937D03*
X8897638D03*
X9291339D03*
X9685039D03*
X1023622Y-4133858D03*
X629921D03*
X1417323Y-4527559D03*
X1811024Y-4921260D03*
X2204724D03*
X2598425D03*
X2992126D03*
X3385827D03*
X3779528D03*
X4173228D03*
X4566929D03*
X4960630D03*
X5354331D03*
X5748031D03*
X6141732D03*
X6535433D03*
X6929134D03*
X7322835D03*
X7716535D03*
X8110236D03*
X8503937D03*
X8897638D03*
X9291339D03*
X9685039D03*
X1023622Y-4527559D03*
X629921D03*
X1417323Y-4921260D03*
X1811024Y-5314961D03*
X2204724D03*
X2598425D03*
X2992126D03*
X3385827D03*
X3779528D03*
X4173228D03*
X4566929D03*
X4960630D03*
X5354331D03*
X5748031D03*
X6141732D03*
X6535433D03*
X6929134D03*
X7322835D03*
X7716535D03*
X8110236D03*
X8503937D03*
X8897638D03*
X9291339D03*
X9685039D03*
X1023622Y-4921260D03*
X629921D03*
X1417323Y-5314961D03*
X1811024Y-5708661D03*
X2204724D03*
X2598425D03*
X2992126D03*
X3385827D03*
X3779528D03*
X4173228D03*
X4566929D03*
X4960630D03*
X5354331D03*
X5748031D03*
X6141732D03*
X6535433D03*
X6929134D03*
X7322835D03*
X7716535D03*
X8110236D03*
X8503937D03*
X8897638D03*
X9291339D03*
X9685039D03*
X1023622Y-5314961D03*
X629921D03*
X1417323Y-5708661D03*
X1811024Y-6102362D03*
X2204724D03*
X2598425D03*
X2992126D03*
X3385827D03*
X3779528D03*
X4173228D03*
X4566929D03*
X4960630D03*
X5354331D03*
X5748031D03*
X6141732D03*
X6535433D03*
X6929134D03*
X7322835D03*
X7716535D03*
X8110236D03*
X8503937D03*
X8897638D03*
X9291339D03*
X9685039D03*
X1023622Y-5708661D03*
X629921D03*
X1417323Y-6102362D03*
X1811024Y-6496063D03*
X2204724D03*
X2598425D03*
X2992126D03*
X3385827D03*
X3779528D03*
X4173228D03*
X4960630D03*
X6141732D03*
X6535433D03*
X6929134D03*
X7322835D03*
X7716535D03*
X8110236D03*
X8503937D03*
X8897638D03*
X9291339D03*
X9685039D03*
X1023622Y-6102362D03*
X629921D03*
X1417323Y-6496063D03*
X1811024Y-6889764D03*
X2204724D03*
X2598425D03*
X2992126D03*
X3385827D03*
X3779528D03*
X4173228D03*
X4566929D03*
X4960630D03*
X5354331D03*
X5748031D03*
X6141732D03*
X6535433D03*
X6929134D03*
X7322835D03*
X7716535D03*
X8110236D03*
X8503937D03*
X8897638D03*
X9291339D03*
X9685039D03*
X1023622Y-6496063D03*
X629921D03*
X1417323Y-6889764D03*
X1811024Y-7283465D03*
X2204724D03*
X2598425D03*
X2992126D03*
X3385827D03*
X3779528D03*
X4173228D03*
X4566929D03*
X4960630D03*
X5354331D03*
X5748031D03*
X6141732D03*
X6535433D03*
X6929134D03*
X7322835D03*
X7716535D03*
X8110236D03*
X8503937D03*
X8897638D03*
X9291339D03*
X9685039D03*
X1023622Y-6889764D03*
X629921D03*
X1417323Y-7283465D03*
X1811024Y-7677165D03*
X2204724D03*
X2598425D03*
X2992126D03*
X3385827D03*
X3779528D03*
X4173228D03*
X4566929D03*
X4960630D03*
X5354331D03*
X5748031D03*
X6141732D03*
X6535433D03*
X6929134D03*
X7322835D03*
X7716535D03*
X8110236D03*
X8503937D03*
X8897638D03*
X9291339D03*
X1023622Y-7283465D03*
X629921D03*
X1417323Y-7677165D03*
X1023622D03*
X629921D03*
X236220Y-1771654D03*
Y-2165354D03*
Y-2559055D03*
Y-2952756D03*
Y-3346457D03*
Y-3740157D03*
Y-4133858D03*
Y-4527559D03*
Y-4921260D03*
Y-5314961D03*
Y-5708661D03*
Y-6102362D03*
Y-6496063D03*
Y-6889764D03*
Y-7283465D03*
Y-7677165D03*
X4586614Y-1397638D03*
X4980315D03*
X5374016D03*
X1811024Y-3346457D03*
X2263780Y-3287402D03*
X2657480D03*
X3051181D03*
X3405512Y-3326772D03*
X6555118Y-4507874D03*
X6948819D03*
X7342520D03*
X7736220D03*
X4586614Y-6456693D03*
X5374016D03*
X5787402D03*
X-9685039Y-7677165D03*
X-1377953Y-196850D03*
X-1811024D03*
X-2204724D03*
X-2598425D03*
X-2992126D03*
X-3385827D03*
X-3779528D03*
X-4173228D03*
X-4566929D03*
X-4960630D03*
X-5354331D03*
X-5748031D03*
X-6141732D03*
X-6535433D03*
X-6929134D03*
X-7322835D03*
X-7716535D03*
X-8110236D03*
X-8503937D03*
X-8897638D03*
X-9291339D03*
X-9685039D03*
X-1377953Y-590551D03*
X-1811024D03*
X-2204724D03*
X-2598425D03*
X-2992126D03*
X-3385827D03*
X-3779528D03*
X-4173228D03*
X-4566929D03*
X-4960630D03*
X-5354331D03*
X-5748031D03*
X-6141732D03*
X-6535433D03*
X-6929134D03*
X-7322835D03*
X-7716535D03*
X-8110236D03*
X-8503937D03*
X-8897638D03*
X-9291339D03*
X-9685039D03*
X-1377953Y-984252D03*
X-1811024D03*
X-2204724D03*
X-2598425D03*
X-2992126D03*
X-3385827D03*
X-3779528D03*
X-4173228D03*
X-4566929D03*
X-4960630D03*
X-5354331D03*
X-5748031D03*
X-6141732D03*
X-6535433D03*
X-6929134D03*
X-7322835D03*
X-7716535D03*
X-8110236D03*
X-8503937D03*
X-8897638D03*
X-9291339D03*
X-9685039D03*
X-1377953Y-1377953D03*
X-1811024D03*
X-2204724D03*
X-2598425D03*
X-2992126D03*
X-3385827D03*
X-3779528D03*
X-4173228D03*
X-5748031D03*
X-6141732D03*
X-6535433D03*
X-6929134D03*
X-7322835D03*
X-7716535D03*
X-8110236D03*
X-8503937D03*
X-8897638D03*
X-9291339D03*
X-9685039D03*
X-1811024Y-1771654D03*
X-2204724D03*
X-2598425D03*
X-2992126D03*
X-3385827D03*
X-3779528D03*
X-4173228D03*
X-4566929D03*
X-4960630D03*
X-5354331D03*
X-5748031D03*
X-6141732D03*
X-6535433D03*
X-6929134D03*
X-7322835D03*
X-7716535D03*
X-8110236D03*
X-8503937D03*
X-8897638D03*
X-9291339D03*
X-9685039D03*
X-1023622Y-1417323D03*
X-629921D03*
X-236220D03*
X-1417323Y-1771654D03*
X-1811024Y-2165354D03*
X-2204724D03*
X-2598425D03*
X-2992126D03*
X-3385827D03*
X-3779528D03*
X-4173228D03*
X-4566929D03*
X-4960630D03*
X-5354331D03*
X-5748031D03*
X-6141732D03*
X-6535433D03*
X-6929134D03*
X-7322835D03*
X-7716535D03*
X-8110236D03*
X-8503937D03*
X-8897638D03*
X-9291339D03*
X-9685039D03*
X-1023622Y-1771654D03*
X-629921D03*
X-1417323Y-2165354D03*
X-1811024Y-2559055D03*
X-2204724D03*
X-2598425D03*
X-2992126D03*
X-3385827D03*
X-3779528D03*
X-4173228D03*
X-4566929D03*
X-4960630D03*
X-5354331D03*
X-5748031D03*
X-6141732D03*
X-6535433D03*
X-6929134D03*
X-7322835D03*
X-7716535D03*
X-8110236D03*
X-8503937D03*
X-8897638D03*
X-9291339D03*
X-9685039D03*
X-1023622Y-2165354D03*
X-629921D03*
X-1417323Y-2559055D03*
X-1811024Y-2952756D03*
X-2204724D03*
X-2598425D03*
X-2992126D03*
X-3385827D03*
X-3779528D03*
X-4173228D03*
X-4566929D03*
X-4960630D03*
X-5354331D03*
X-5748031D03*
X-6141732D03*
X-6535433D03*
X-6929134D03*
X-7322835D03*
X-7716535D03*
X-8110236D03*
X-8503937D03*
X-8897638D03*
X-9291339D03*
X-9685039D03*
X-1023622Y-2559055D03*
X-629921D03*
X-1417323Y-2952756D03*
X-3779528Y-3346457D03*
X-4173228D03*
X-4566929D03*
X-4960630D03*
X-5354331D03*
X-5748031D03*
X-6141732D03*
X-6535433D03*
X-6929134D03*
X-7322835D03*
X-7716535D03*
X-8110236D03*
X-8503937D03*
X-8897638D03*
X-9291339D03*
X-9685039D03*
X-1023622Y-2952756D03*
X-629921D03*
X-1417323Y-3346457D03*
X-1811024Y-3740157D03*
X-2204724D03*
X-2598425D03*
X-2992126D03*
X-3385827D03*
X-3779528D03*
X-4173228D03*
X-4566929D03*
X-4960630D03*
X-5354331D03*
X-5748031D03*
X-6141732D03*
X-6535433D03*
X-6929134D03*
X-7322835D03*
X-7716535D03*
X-8110236D03*
X-8503937D03*
X-8897638D03*
X-9291339D03*
X-9685039D03*
X-1023622Y-3346457D03*
X-629921D03*
X-1417323Y-3740157D03*
X-1811024Y-4133858D03*
X-2204724D03*
X-2598425D03*
X-2992126D03*
X-3385827D03*
X-3779528D03*
X-4173228D03*
X-4566929D03*
X-4960630D03*
X-5354331D03*
X-5748031D03*
X-6141732D03*
X-6535433D03*
X-6929134D03*
X-7322835D03*
X-7716535D03*
X-8110236D03*
X-8503937D03*
X-8897638D03*
X-9291339D03*
X-9685039D03*
X-1023622Y-3740157D03*
X-629921D03*
X-1417323Y-4133858D03*
X-1811024Y-4527559D03*
X-2204724D03*
X-2598425D03*
X-2992126D03*
X-3385827D03*
X-3779528D03*
X-4173228D03*
X-4566929D03*
X-4960630D03*
X-5354331D03*
X-5748031D03*
X-6141732D03*
X-8110236D03*
X-8503937D03*
X-8897638D03*
X-9291339D03*
X-9685039D03*
X-1023622Y-4133858D03*
X-629921D03*
X-1417323Y-4527559D03*
X-1811024Y-4921260D03*
X-2204724D03*
X-2598425D03*
X-2992126D03*
X-3385827D03*
X-3779528D03*
X-4173228D03*
X-4566929D03*
X-4960630D03*
X-5354331D03*
X-5748031D03*
X-6141732D03*
X-6535433D03*
X-6929134D03*
X-7322835D03*
X-7716535D03*
X-8110236D03*
X-8503937D03*
X-8897638D03*
X-9291339D03*
X-9685039D03*
X-1023622Y-4527559D03*
X-629921D03*
X-1417323Y-4921260D03*
X-1811024Y-5314961D03*
X-2204724D03*
X-2598425D03*
X-2992126D03*
X-3385827D03*
X-3779528D03*
X-4173228D03*
X-4566929D03*
X-4960630D03*
X-5354331D03*
X-5748031D03*
X-6141732D03*
X-6535433D03*
X-6929134D03*
X-7322835D03*
X-7716535D03*
X-8110236D03*
X-8503937D03*
X-8897638D03*
X-9291339D03*
X-9685039D03*
X-1023622Y-4921260D03*
X-629921D03*
X-1417323Y-5314961D03*
X-1811024Y-5708661D03*
X-2204724D03*
X-2598425D03*
X-2992126D03*
X-3385827D03*
X-3779528D03*
X-4173228D03*
X-4566929D03*
X-4960630D03*
X-5354331D03*
X-5748031D03*
X-6141732D03*
X-6535433D03*
X-6929134D03*
X-7322835D03*
X-7716535D03*
X-8110236D03*
X-8503937D03*
X-8897638D03*
X-9291339D03*
X-9685039D03*
X-1023622Y-5314961D03*
X-629921D03*
X-1417323Y-5708661D03*
X-1811024Y-6102362D03*
X-2204724D03*
X-2598425D03*
X-2992126D03*
X-3385827D03*
X-3779528D03*
X-4173228D03*
X-4566929D03*
X-4960630D03*
X-5354331D03*
X-5748031D03*
X-6141732D03*
X-6535433D03*
X-6929134D03*
X-7322835D03*
X-7716535D03*
X-8110236D03*
X-8503937D03*
X-8897638D03*
X-9291339D03*
X-9685039D03*
X-1023622Y-5708661D03*
X-629921D03*
X-1417323Y-6102362D03*
X-1811024Y-6496063D03*
X-2204724D03*
X-2598425D03*
X-2992126D03*
X-3385827D03*
X-3779528D03*
X-4173228D03*
X-4960630D03*
X-6141732D03*
X-6535433D03*
X-6929134D03*
X-7322835D03*
X-7716535D03*
X-8110236D03*
X-8503937D03*
X-8897638D03*
X-9291339D03*
X-9685039D03*
X-1023622Y-6102362D03*
X-629921D03*
X-1417323Y-6496063D03*
X-1811024Y-6889764D03*
X-2204724D03*
X-2598425D03*
X-2992126D03*
X-3385827D03*
X-3779528D03*
X-4173228D03*
X-4566929D03*
X-4960630D03*
X-5354331D03*
X-5748031D03*
X-6141732D03*
X-6535433D03*
X-6929134D03*
X-7322835D03*
X-7716535D03*
X-8110236D03*
X-8503937D03*
X-8897638D03*
X-9291339D03*
X-9685039D03*
X-1023622Y-6496063D03*
X-629921D03*
X-1417323Y-6889764D03*
X-1811024Y-7283465D03*
X-2204724D03*
X-2598425D03*
X-2992126D03*
X-3385827D03*
X-3779528D03*
X-4173228D03*
X-4566929D03*
X-4960630D03*
X-5354331D03*
X-5748031D03*
X-6141732D03*
X-6535433D03*
X-6929134D03*
X-7322835D03*
X-7716535D03*
X-8110236D03*
X-8503937D03*
X-8897638D03*
X-9291339D03*
X-9685039D03*
X-1023622Y-6889764D03*
X-629921D03*
X-1417323Y-7283465D03*
X-1811024Y-7677165D03*
X-2204724D03*
X-2598425D03*
X-2992126D03*
X-3385827D03*
X-3779528D03*
X-4173228D03*
X-4566929D03*
X-4960630D03*
X-5354331D03*
X-5748031D03*
X-6141732D03*
X-6535433D03*
X-6929134D03*
X-7322835D03*
X-7716535D03*
X-8110236D03*
X-8503937D03*
X-8897638D03*
X-9291339D03*
X-1023622Y-7283465D03*
X-629921D03*
X-1417323Y-7677165D03*
X-1023622D03*
X-629921D03*
X-236220Y-1771654D03*
Y-2165354D03*
Y-2559055D03*
Y-2952756D03*
Y-3346457D03*
Y-3740157D03*
Y-4133858D03*
Y-4527559D03*
Y-4921260D03*
Y-5314961D03*
Y-5708661D03*
Y-6102362D03*
Y-6496063D03*
Y-6889764D03*
Y-7283465D03*
Y-7677165D03*
X-4586614Y-1397638D03*
X-4980315D03*
X-5374016D03*
X-1811024Y-3346457D03*
X-2263780Y-3287402D03*
X-2657480D03*
X-3051181D03*
X-3405512Y-3326772D03*
X-6555118Y-4507874D03*
X-6948819D03*
X-7342520D03*
X-7736220D03*
X-4586614Y-6456693D03*
X-5374016D03*
X-5748031Y-6496063D03*
X-9685039Y7677165D03*
X-1377953Y196850D03*
X-1811024D03*
X-2204724D03*
X-2598425D03*
X-2992126D03*
X-3385827D03*
X-3779528D03*
X-4173228D03*
X-4566929D03*
X-4960630D03*
X-5354331D03*
X-5748031D03*
X-6141732D03*
X-6535433D03*
X-6929134D03*
X-7322835D03*
X-7716535D03*
X-8110236D03*
X-8503937D03*
X-8897638D03*
X-9291339D03*
X-9685039D03*
X-1377953Y590551D03*
X-1811024D03*
X-2204724D03*
X-2598425D03*
X-2992126D03*
X-3385827D03*
X-3779528D03*
X-4173228D03*
X-4566929D03*
X-4960630D03*
X-5354331D03*
X-5748031D03*
X-6141732D03*
X-6535433D03*
X-6929134D03*
X-7322835D03*
X-7716535D03*
X-8110236D03*
X-8503937D03*
X-8897638D03*
X-9291339D03*
X-9685039D03*
X-1377953Y984252D03*
X-1811024D03*
X-2204724D03*
X-2598425D03*
X-2992126D03*
X-3385827D03*
X-3779528D03*
X-4173228D03*
X-4566929D03*
X-4960630D03*
X-5354331D03*
X-5748031D03*
X-6141732D03*
X-6535433D03*
X-6929134D03*
X-7322835D03*
X-7716535D03*
X-8110236D03*
X-8503937D03*
X-8897638D03*
X-9291339D03*
X-9685039D03*
X-1377953Y1377953D03*
X-1811024D03*
X-2204724D03*
X-2598425D03*
X-2992126D03*
X-3385827D03*
X-3779528D03*
X-4173228D03*
X-5748031D03*
X-6141732D03*
X-6535433D03*
X-6929134D03*
X-7322835D03*
X-7716535D03*
X-8110236D03*
X-8503937D03*
X-8897638D03*
X-9291339D03*
X-9685039D03*
X-1811024Y1771654D03*
X-2204724D03*
X-2598425D03*
X-2992126D03*
X-3385827D03*
X-3779528D03*
X-4173228D03*
X-4566929D03*
X-4960630D03*
X-5354331D03*
X-5748031D03*
X-6141732D03*
X-6535433D03*
X-6929134D03*
X-7322835D03*
X-7716535D03*
X-8110236D03*
X-8503937D03*
X-8897638D03*
X-9291339D03*
X-9685039D03*
X-1023622Y1417323D03*
X-629921D03*
X-236220D03*
X-1417323Y1771654D03*
X-1811024Y2165354D03*
X-2204724D03*
X-2598425D03*
X-2992126D03*
X-3385827D03*
X-3779528D03*
X-4173228D03*
X-4566929D03*
X-4960630D03*
X-5354331D03*
X-5748031D03*
X-6141732D03*
X-6535433D03*
X-6929134D03*
X-7322835D03*
X-7716535D03*
X-8110236D03*
X-8503937D03*
X-8897638D03*
X-9291339D03*
X-9685039D03*
X-1023622Y1771654D03*
X-629921D03*
X-1417323Y2165354D03*
X-1811024Y2559055D03*
X-2204724D03*
X-2598425D03*
X-2992126D03*
X-3385827D03*
X-3779528D03*
X-4173228D03*
X-4566929D03*
X-4960630D03*
X-5354331D03*
X-5748031D03*
X-6141732D03*
X-6535433D03*
X-6929134D03*
X-7322835D03*
X-7716535D03*
X-8110236D03*
X-8503937D03*
X-8897638D03*
X-9291339D03*
X-9685039D03*
X-1023622Y2165354D03*
X-629921D03*
X-1417323Y2559055D03*
X-1811024Y2952756D03*
X-2204724D03*
X-2598425D03*
X-2992126D03*
X-3385827D03*
X-3779528D03*
X-4173228D03*
X-4566929D03*
X-4960630D03*
X-5354331D03*
X-5748031D03*
X-6141732D03*
X-6535433D03*
X-6929134D03*
X-7322835D03*
X-7716535D03*
X-8110236D03*
X-8503937D03*
X-8897638D03*
X-9291339D03*
X-9685039D03*
X-1023622Y2559055D03*
X-629921D03*
X-1417323Y2952756D03*
X-3779528Y3346457D03*
X-4173228D03*
X-4566929D03*
X-4960630D03*
X-5354331D03*
X-5748031D03*
X-6141732D03*
X-6535433D03*
X-6929134D03*
X-7322835D03*
X-7716535D03*
X-8110236D03*
X-8503937D03*
X-8897638D03*
X-9291339D03*
X-9685039D03*
X-1023622Y2952756D03*
X-629921D03*
X-1417323Y3346457D03*
X-1811024Y3740157D03*
X-2204724D03*
X-2598425D03*
X-2992126D03*
X-3385827D03*
X-3779528D03*
X-4173228D03*
X-4566929D03*
X-4960630D03*
X-5354331D03*
X-5748031D03*
X-6141732D03*
X-6535433D03*
X-6929134D03*
X-7322835D03*
X-7716535D03*
X-8110236D03*
X-8503937D03*
X-8897638D03*
X-9291339D03*
X-9685039D03*
X-1023622Y3346457D03*
X-629921D03*
X-1417323Y3740157D03*
X-1811024Y4133858D03*
X-2204724D03*
X-2598425D03*
X-2992126D03*
X-3385827D03*
X-3779528D03*
X-4173228D03*
X-4566929D03*
X-4960630D03*
X-5354331D03*
X-5748031D03*
X-6141732D03*
X-6535433D03*
X-6929134D03*
X-7322835D03*
X-7716535D03*
X-8110236D03*
X-8503937D03*
X-8897638D03*
X-9291339D03*
X-9685039D03*
X-1023622Y3740157D03*
X-629921D03*
X-1417323Y4133858D03*
X-1811024Y4527559D03*
X-2204724D03*
X-2598425D03*
X-2992126D03*
X-3385827D03*
X-3779528D03*
X-4173228D03*
X-4566929D03*
X-4960630D03*
X-5354331D03*
X-5748031D03*
X-6141732D03*
X-8110236D03*
X-8503937D03*
X-8897638D03*
X-9291339D03*
X-9685039D03*
X-1023622Y4133858D03*
X-629921D03*
X-1417323Y4527559D03*
X-1811024Y4921260D03*
X-2204724D03*
X-2598425D03*
X-2992126D03*
X-3385827D03*
X-3779528D03*
X-4173228D03*
X-4566929D03*
X-4960630D03*
X-5354331D03*
X-5748031D03*
X-6141732D03*
X-6535433D03*
X-6929134D03*
X-7322835D03*
X-7716535D03*
X-8110236D03*
X-8503937D03*
X-8897638D03*
X-9291339D03*
X-9685039D03*
X-1023622Y4527559D03*
X-629921D03*
X-1417323Y4921260D03*
X-1811024Y5314961D03*
X-2204724D03*
X-2598425D03*
X-2992126D03*
X-3385827D03*
X-3779528D03*
X-4173228D03*
X-4566929D03*
X-4960630D03*
X-5354331D03*
X-5748031D03*
X-6141732D03*
X-6535433D03*
X-6929134D03*
X-7322835D03*
X-7716535D03*
X-8110236D03*
X-8503937D03*
X-8897638D03*
X-9291339D03*
X-9685039D03*
X-1023622Y4921260D03*
X-629921D03*
X-1417323Y5314961D03*
X-1811024Y5708661D03*
X-2204724D03*
X-2598425D03*
X-2992126D03*
X-3385827D03*
X-3779528D03*
X-4173228D03*
X-4566929D03*
X-4960630D03*
X-5354331D03*
X-5748031D03*
X-6141732D03*
X-6535433D03*
X-6929134D03*
X-7322835D03*
X-7716535D03*
X-8110236D03*
X-8503937D03*
X-8897638D03*
X-9291339D03*
X-9685039D03*
X-1023622Y5314961D03*
X-629921D03*
X-1417323Y5708661D03*
X-1811024Y6102362D03*
X-2204724D03*
X-2598425D03*
X-2992126D03*
X-3385827D03*
X-3779528D03*
X-4173228D03*
X-4566929D03*
X-4960630D03*
X-5354331D03*
X-5748031D03*
X-6141732D03*
X-6535433D03*
X-6929134D03*
X-7322835D03*
X-7716535D03*
X-8110236D03*
X-8503937D03*
X-8897638D03*
X-9291339D03*
X-9685039D03*
X-1023622Y5708661D03*
X-629921D03*
X-1417323Y6102362D03*
X-1811024Y6496063D03*
X-2204724D03*
X-2598425D03*
X-2992126D03*
X-3385827D03*
X-3779528D03*
X-4173228D03*
X-4960630D03*
X-6141732D03*
X-6535433D03*
X-6929134D03*
X-7322835D03*
X-7716535D03*
X-8110236D03*
X-8503937D03*
X-8897638D03*
X-9291339D03*
X-9685039D03*
X-1023622Y6102362D03*
X-629921D03*
X-1417323Y6496063D03*
X-1811024Y6889764D03*
X-2204724D03*
X-2598425D03*
X-2992126D03*
X-3385827D03*
X-3779528D03*
X-4173228D03*
X-4566929D03*
X-4960630D03*
X-5354331D03*
X-5748031D03*
X-6141732D03*
X-6535433D03*
X-6929134D03*
X-7322835D03*
X-7716535D03*
X-8110236D03*
X-8503937D03*
X-8897638D03*
X-9291339D03*
X-9685039D03*
X-1023622Y6496063D03*
X-629921D03*
X-1417323Y6889764D03*
X-1811024Y7283465D03*
X-2204724D03*
X-2598425D03*
X-2992126D03*
X-3385827D03*
X-3779528D03*
X-4173228D03*
X-4566929D03*
X-4960630D03*
X-5354331D03*
X-5748031D03*
X-6141732D03*
X-6535433D03*
X-6929134D03*
X-7322835D03*
X-7716535D03*
X-8110236D03*
X-8503937D03*
X-8897638D03*
X-9291339D03*
X-9685039D03*
X-1023622Y6889764D03*
X-629921D03*
X-1417323Y7283465D03*
X-1811024Y7677165D03*
X-2204724D03*
X-2598425D03*
X-2992126D03*
X-3385827D03*
X-3779528D03*
X-4173228D03*
X-4566929D03*
X-4960630D03*
X-5354331D03*
X-5748031D03*
X-6141732D03*
X-6535433D03*
X-6929134D03*
X-7322835D03*
X-7716535D03*
X-8110236D03*
X-8503937D03*
X-8897638D03*
X-9291339D03*
X-1023622Y7283465D03*
X-629921D03*
X-1417323Y7677165D03*
X-1023622D03*
X-629921D03*
X-236220Y1771654D03*
Y2165354D03*
Y2559055D03*
Y2952756D03*
Y3346457D03*
Y3740157D03*
Y4133858D03*
Y4527559D03*
Y4921260D03*
Y5314961D03*
Y5708661D03*
Y6102362D03*
Y6496063D03*
Y6889764D03*
Y7283465D03*
Y7677165D03*
X-4586614Y1397638D03*
X-4980315D03*
X-5374016D03*
X-1811024Y3346457D03*
X-2263780Y3287402D03*
X-2657480D03*
X-3051181D03*
X-3405512Y3326772D03*
X-6555118Y4507874D03*
X-6948819D03*
X-7342520D03*
X-7736220D03*
X-4586614Y6456693D03*
X-5374016D03*
X-5787402D03*
D12*
X10039370Y8070866D03*
Y-8070866D03*
X-10039370Y8070866D03*
Y-8070866D03*
X10000000Y8070866D03*
Y-8070866D03*
X-10078740Y8070866D03*
Y-8070866D03*
X10078740Y8070866D03*
Y-8070866D03*
X-10000000Y8070866D03*
Y-8070866D03*
X10039370Y8110236D03*
Y-8031496D03*
X-10039370Y8110236D03*
Y-8031496D03*
X10039370Y8031496D03*
Y-8110236D03*
X-10039370Y8031496D03*
Y-8110236D03*
D13*
X9685039Y8070866D03*
X1811024D03*
X2204724D03*
X2598425D03*
X2992126D03*
X3385827D03*
X3779528D03*
X4173228D03*
X4566929D03*
X4960630D03*
X5354331D03*
X5748031D03*
X6141732D03*
X6535433D03*
X6929134D03*
X7322835D03*
X7716535D03*
X8110236D03*
X8503937D03*
X8897638D03*
X9291339D03*
X1417323D03*
X1023622D03*
X629921D03*
X236220D03*
X2007874D03*
X2401575D03*
X2795276D03*
X3188976D03*
X3582677D03*
X3976378D03*
X4370079D03*
X4763780D03*
X5157480D03*
X5551181D03*
X5944882D03*
X6338583D03*
X6732283D03*
X7125984D03*
X7519685D03*
X7913386D03*
X8307087D03*
X8700787D03*
X9094488D03*
X9488189D03*
X1614173D03*
X1220472D03*
X826772D03*
X433071D03*
X-9685039D03*
X-1811024D03*
X-2204724D03*
X-2598425D03*
X-2992126D03*
X-3385827D03*
X-3779528D03*
X-4173228D03*
X-4566929D03*
X-4960630D03*
X-5354331D03*
X-5748031D03*
X-6141732D03*
X-6535433D03*
X-6929134D03*
X-7322835D03*
X-7716535D03*
X-8110236D03*
X-8503937D03*
X-8897638D03*
X-9291339D03*
X-1417323D03*
X-1023622D03*
X-629921D03*
X-236220D03*
X-9488189D03*
X-1614173D03*
X-2007874D03*
X-2401575D03*
X-2795276D03*
X-3188976D03*
X-3582677D03*
X-3976378D03*
X-4370079D03*
X-4763780D03*
X-5157480D03*
X-5551181D03*
X-5944882D03*
X-6338583D03*
X-6732283D03*
X-7125984D03*
X-7519685D03*
X-7913386D03*
X-8307087D03*
X-8700787D03*
X-9094488D03*
X-1220472D03*
X-826772D03*
X-433071D03*
X-39370D03*
X-9685039Y-8070866D03*
X-1811024D03*
X-2204724D03*
X-2598425D03*
X-2992126D03*
X-3385827D03*
X-3779528D03*
X-4173228D03*
X-4566929D03*
X-4960630D03*
X-5354331D03*
X-5748031D03*
X-6141732D03*
X-6535433D03*
X-6929134D03*
X-7322835D03*
X-7716535D03*
X-8110236D03*
X-8503937D03*
X-8897638D03*
X-9291339D03*
X-1417323D03*
X-1023622D03*
X-629921D03*
X-236220D03*
X-2007874D03*
X-2401575D03*
X-2795276D03*
X-3188976D03*
X-3582677D03*
X-3976378D03*
X-4370079D03*
X-4763780D03*
X-5157480D03*
X-5551181D03*
X-5944882D03*
X-6338583D03*
X-6732283D03*
X-7125984D03*
X-7519685D03*
X-7913386D03*
X-8307087D03*
X-8700787D03*
X-9094488D03*
X-9488189D03*
X-1614173D03*
X-1220472D03*
X-826772D03*
X-433071D03*
X9685039D03*
X1811024D03*
X2204724D03*
X2598425D03*
X2992126D03*
X3385827D03*
X3779528D03*
X4173228D03*
X4566929D03*
X4960630D03*
X5354331D03*
X5748031D03*
X6141732D03*
X6535433D03*
X6929134D03*
X7322835D03*
X7716535D03*
X8110236D03*
X8503937D03*
X8897638D03*
X9291339D03*
X1417323D03*
X1023622D03*
X629921D03*
X236220D03*
X9488189D03*
X1614173D03*
X2007874D03*
X2401575D03*
X2795276D03*
X3188976D03*
X3582677D03*
X3976378D03*
X4370079D03*
X4763780D03*
X5157480D03*
X5551181D03*
X5944882D03*
X6338583D03*
X6732283D03*
X7125984D03*
X7519685D03*
X7913386D03*
X8307087D03*
X8700787D03*
X9094488D03*
X1220472D03*
X826772D03*
X433071D03*
X39370D03*
%LPD*%
M02*