G04 #@! TF.FileFunction,Other,rout*
G04 #@! TF.FilePolarity,Positive*
G04 #@! TF.SameCoordinates,tov5NBzOuLjLKJ3u1y1mtdWK4NcwDON*
G04 #@! TF.CreationDate,2023-05-25T08:52:34+0200*
G04 #@! TF.GenerationSoftware,Ucamco,UcamX,v2022.09-221024*
%FSLAX26Y26*%
%MOIN*%
%ADD10C,0.007874*%
%ADD11C,0.196850*%
%ADD12C,0.125984*%
%SRX1Y1I0.000000J0.000000*%
G04 layer name: DFS2946_PCB-etc*
%LPD*%
D10*
X-10629921Y-8661417D02*
X10629921D01*
Y8661417D01*
X-10629921D01*
Y-8661417D01*
D11*
X-10433071Y-8464567D03*
X10433071D03*
X-10433071Y8464567D03*
X10433071D03*
D12*
X10492126Y7874016D03*
Y-7874016D03*
Y-6889764D03*
Y-5905512D03*
Y-4921260D03*
Y-3937008D03*
Y-2952756D03*
Y-1968504D03*
Y-984252D03*
Y0D03*
Y984252D03*
Y1968504D03*
Y2952756D03*
Y3937008D03*
Y4921260D03*
Y5905512D03*
Y6889764D03*
X-10492126Y-7874016D03*
Y7874016D03*
Y6889764D03*
Y5905512D03*
Y4921260D03*
Y3937008D03*
Y2952756D03*
Y1968504D03*
Y984252D03*
Y0D03*
Y-984252D03*
Y-1968504D03*
Y-2952756D03*
Y-3937008D03*
Y-4921260D03*
Y-5905512D03*
Y-6889764D03*
X-9842520Y8523622D03*
Y-8523622D03*
X-8858268Y8523622D03*
Y-8523622D03*
X-7874016Y8523622D03*
Y-8523622D03*
X-6889764Y8523622D03*
Y-8523622D03*
X-5905512Y8523622D03*
Y-8523622D03*
X-4921260Y8523622D03*
Y-8523622D03*
X-3937008Y8523622D03*
Y-8523622D03*
X-2952756Y8523622D03*
Y-8523622D03*
X-1968504Y8523622D03*
Y-8523622D03*
X-984252Y8523622D03*
Y-8523622D03*
X0Y8523622D03*
Y-8523622D03*
X984252Y8523622D03*
Y-8523622D03*
X1968504Y8523622D03*
Y-8523622D03*
X2952756Y8523622D03*
Y-8523622D03*
X3937008Y8523622D03*
Y-8523622D03*
X4921260Y8523622D03*
Y-8523622D03*
X5905512Y8523622D03*
Y-8523622D03*
X6889764Y8523622D03*
Y-8523622D03*
X7874016Y8523622D03*
Y-8523622D03*
X8858268Y8523622D03*
Y-8523622D03*
X9842520Y8523622D03*
Y-8523622D03*
%LPD*%
M02*