G04 #@! TF.FileFunction,Copper,L2,Inr*
G04 #@! TF.FilePolarity,Positive*
G04 #@! TF.SameCoordinates,tov5NBzOuLjLKJ3u1y1mtdWK4NcwDON*
G04 #@! TF.CreationDate,2023-05-25T08:52:32+0200*
G04 #@! TF.GenerationSoftware,Ucamco,UcamX,v2022.09-221024*
%FSLAX26Y26*%
%MOIN*%
%ADD10C,0.039370*%
%ADD11C,0.023622*%
%ADD12C,0.020079*%
%ADD13C,0.078740*%
%SRX1Y1I0.000000J0.000000*%
G04 layer name: DFS2946_DET_Cov*
%LPD*%
G04 #@! TO.N, 0*
G36*
X-9848425Y-7879921D02*
X9848425D01*
Y7879921D01*
X-9848425D01*
X-10196850D01*
Y7992126D01*
G75*
G2*
X-9960630Y8228347I236220J0D01*
G74*
G1*
X9960630D01*
G75*
G2*
X10196850Y7992126I0J-236221D01*
G74*
G1*
Y-7992126D01*
G75*
G2*
X9960630Y-8228347I-236220J0D01*
G74*
G1*
X-9960630D01*
G75*
G2*
X-10196850Y-7992126I0J236221D01*
G74*
G1*
Y7879921D01*
X-9848425D01*
Y-7879921D01*
G37*
D10*
X9645669Y7480315D03*
Y-7480315D03*
X-9645669Y7480315D03*
Y-7480315D03*
X1377953Y0D03*
X1771654D03*
X2165354D03*
X2559055D03*
X2952756D03*
X3346457D03*
X3740157D03*
X4133858D03*
X4527559D03*
X4921260D03*
X5314961D03*
X5708661D03*
X6102362D03*
X6496063D03*
X6889764D03*
X7283465D03*
X7677165D03*
X8070866D03*
X8464567D03*
X8858268D03*
X9251969D03*
X9645669D03*
X1377953Y393701D03*
X1771654D03*
X2165354D03*
X2559055D03*
X2952756D03*
X3346457D03*
X3740157D03*
X4133858D03*
X4527559D03*
X4921260D03*
X5314961D03*
X5708661D03*
X6102362D03*
X6496063D03*
X6889764D03*
X7283465D03*
X7677165D03*
X8070866D03*
X8464567D03*
X8858268D03*
X9251969D03*
X9645669D03*
X1377953Y787402D03*
X1771654D03*
X2165354D03*
X2559055D03*
X2952756D03*
X3346457D03*
X3740157D03*
X4133858D03*
X4527559D03*
X4921260D03*
X5314961D03*
X5708661D03*
X6102362D03*
X6496063D03*
X6889764D03*
X7283465D03*
X7677165D03*
X8070866D03*
X8464567D03*
X8858268D03*
X9251969D03*
X9645669D03*
X1377953Y1181102D03*
X1771654D03*
X2165354D03*
X2559055D03*
X2952756D03*
X3346457D03*
X3740157D03*
X4133858D03*
X4527559D03*
X4921260D03*
X5314961D03*
X5708661D03*
X6102362D03*
X6496063D03*
X6889764D03*
X7283465D03*
X7677165D03*
X8070866D03*
X8464567D03*
X8858268D03*
X9251969D03*
X9645669D03*
X1377953Y1574803D03*
X1771654D03*
X2165354D03*
X2559055D03*
X2952756D03*
X3346457D03*
X3740157D03*
X4133858D03*
X4527559D03*
X4921260D03*
X5314961D03*
X5708661D03*
X6102362D03*
X6496063D03*
X6889764D03*
X7283465D03*
X7677165D03*
X8070866D03*
X8464567D03*
X8858268D03*
X9251969D03*
X9645669D03*
X984252D03*
X590551D03*
X196850D03*
X1377953Y1968504D03*
X1771654D03*
X2165354D03*
X2559055D03*
X2952756D03*
X3346457D03*
X3740157D03*
X4133858D03*
X4527559D03*
X4921260D03*
X5314961D03*
X5708661D03*
X6102362D03*
X6496063D03*
X6889764D03*
X7283465D03*
X7677165D03*
X8070866D03*
X8464567D03*
X8858268D03*
X9251969D03*
X9645669D03*
X984252D03*
X590551D03*
X196850D03*
X1377953Y2362205D03*
X1771654D03*
X2165354D03*
X2559055D03*
X2952756D03*
X3346457D03*
X3740157D03*
X4133858D03*
X4527559D03*
X4921260D03*
X5314961D03*
X5708661D03*
X6102362D03*
X6496063D03*
X6889764D03*
X7283465D03*
X7677165D03*
X8070866D03*
X8464567D03*
X8858268D03*
X9251969D03*
X9645669D03*
X984252D03*
X590551D03*
X196850D03*
X1377953Y2755906D03*
X1771654D03*
X2165354D03*
X2559055D03*
X2952756D03*
X3346457D03*
X3740157D03*
X4133858D03*
X4527559D03*
X4921260D03*
X5314961D03*
X5708661D03*
X6102362D03*
X6496063D03*
X6889764D03*
X7283465D03*
X7677165D03*
X8070866D03*
X8464567D03*
X8858268D03*
X9251969D03*
X9645669D03*
X984252D03*
X590551D03*
X196850D03*
X1377953Y3149606D03*
X1771654D03*
X2165354D03*
X2559055D03*
X2952756D03*
X3346457D03*
X3740157D03*
X4133858D03*
X4527559D03*
X4921260D03*
X5314961D03*
X5708661D03*
X6102362D03*
X6496063D03*
X6889764D03*
X7283465D03*
X7677165D03*
X8070866D03*
X8464567D03*
X8858268D03*
X9251969D03*
X9645669D03*
X984252D03*
X590551D03*
X196850D03*
X1377953Y3543307D03*
X1771654D03*
X2165354D03*
X2559055D03*
X2952756D03*
X3346457D03*
X3740157D03*
X4133858D03*
X4527559D03*
X4921260D03*
X5314961D03*
X5708661D03*
X6102362D03*
X6496063D03*
X6889764D03*
X7283465D03*
X7677165D03*
X8070866D03*
X8464567D03*
X8858268D03*
X9251969D03*
X9645669D03*
X984252D03*
X590551D03*
X196850D03*
X1377953Y3937008D03*
X1771654D03*
X2165354D03*
X2559055D03*
X2952756D03*
X3346457D03*
X3740157D03*
X4133858D03*
X4527559D03*
X4921260D03*
X5314961D03*
X5708661D03*
X6102362D03*
X6496063D03*
X6889764D03*
X7283465D03*
X7677165D03*
X8070866D03*
X8464567D03*
X8858268D03*
X9251969D03*
X9645669D03*
X984252D03*
X590551D03*
X196850D03*
X1377953Y4330709D03*
X1771654D03*
X2165354D03*
X2559055D03*
X2952756D03*
X3346457D03*
X3740157D03*
X4133858D03*
X4527559D03*
X4921260D03*
X5314961D03*
X5708661D03*
X6102362D03*
X6496063D03*
X6889764D03*
X7283465D03*
X7677165D03*
X8070866D03*
X8464567D03*
X8858268D03*
X9251969D03*
X9645669D03*
X984252D03*
X590551D03*
X196850D03*
X1377953Y4724409D03*
X1771654D03*
X2165354D03*
X2559055D03*
X2952756D03*
X3346457D03*
X3740157D03*
X4133858D03*
X4527559D03*
X4921260D03*
X5314961D03*
X5708661D03*
X6102362D03*
X6496063D03*
X6889764D03*
X7283465D03*
X7677165D03*
X8070866D03*
X8464567D03*
X8858268D03*
X9251969D03*
X9645669D03*
X984252D03*
X590551D03*
X196850D03*
X1377953Y5118110D03*
X1771654D03*
X2165354D03*
X2559055D03*
X2952756D03*
X3346457D03*
X3740157D03*
X4133858D03*
X4527559D03*
X4921260D03*
X5314961D03*
X5708661D03*
X6102362D03*
X6496063D03*
X6889764D03*
X7283465D03*
X7677165D03*
X8070866D03*
X8464567D03*
X8858268D03*
X9251969D03*
X9645669D03*
X984252D03*
X590551D03*
X196850D03*
X1377953Y5511811D03*
X1771654D03*
X2165354D03*
X2559055D03*
X2952756D03*
X3346457D03*
X3740157D03*
X4133858D03*
X4527559D03*
X4921260D03*
X5314961D03*
X5708661D03*
X6102362D03*
X6496063D03*
X6889764D03*
X7283465D03*
X7677165D03*
X8070866D03*
X8464567D03*
X8858268D03*
X9251969D03*
X9645669D03*
X984252D03*
X590551D03*
X196850D03*
X1377953Y5905512D03*
X1771654D03*
X2165354D03*
X2559055D03*
X2952756D03*
X3346457D03*
X3740157D03*
X4133858D03*
X4527559D03*
X4921260D03*
X5314961D03*
X5708661D03*
X6102362D03*
X6496063D03*
X6889764D03*
X7283465D03*
X7677165D03*
X8070866D03*
X8464567D03*
X8858268D03*
X9251969D03*
X9645669D03*
X984252D03*
X590551D03*
X196850D03*
X1377953Y6299213D03*
X1771654D03*
X2165354D03*
X2559055D03*
X2952756D03*
X3346457D03*
X3740157D03*
X4133858D03*
X4527559D03*
X4921260D03*
X5314961D03*
X5708661D03*
X6102362D03*
X6496063D03*
X6889764D03*
X7283465D03*
X7677165D03*
X8070866D03*
X8464567D03*
X8858268D03*
X9251969D03*
X9645669D03*
X984252D03*
X590551D03*
X196850D03*
X1377953Y6692913D03*
X1771654D03*
X2165354D03*
X2559055D03*
X2952756D03*
X3346457D03*
X3740157D03*
X4133858D03*
X4527559D03*
X4921260D03*
X5314961D03*
X5708661D03*
X6102362D03*
X6496063D03*
X6889764D03*
X7283465D03*
X7677165D03*
X8070866D03*
X8464567D03*
X8858268D03*
X9251969D03*
X9645669D03*
X984252D03*
X590551D03*
X196850D03*
X1377953Y7086614D03*
X1771654D03*
X2165354D03*
X2559055D03*
X2952756D03*
X3346457D03*
X3740157D03*
X4133858D03*
X4527559D03*
X4921260D03*
X5314961D03*
X5708661D03*
X6102362D03*
X6496063D03*
X6889764D03*
X7283465D03*
X7677165D03*
X8070866D03*
X8464567D03*
X8858268D03*
X9251969D03*
X9645669D03*
X984252D03*
X590551D03*
X196850D03*
X1377953Y7480315D03*
X1771654D03*
X2165354D03*
X2559055D03*
X2952756D03*
X3346457D03*
X3740157D03*
X4133858D03*
X4527559D03*
X4921260D03*
X5314961D03*
X5708661D03*
X6102362D03*
X6496063D03*
X6889764D03*
X7283465D03*
X7677165D03*
X8070866D03*
X8464567D03*
X8858268D03*
X9251969D03*
X984252D03*
X590551D03*
X196850D03*
X1377953Y-393701D03*
X1771654D03*
X2165354D03*
X2559055D03*
X2952756D03*
X3346457D03*
X3740157D03*
X4133858D03*
X4527559D03*
X4921260D03*
X5314961D03*
X5708661D03*
X6102362D03*
X6496063D03*
X6889764D03*
X7283465D03*
X7677165D03*
X8070866D03*
X8464567D03*
X8858268D03*
X9251969D03*
X9645669D03*
X1377953Y-787402D03*
X1771654D03*
X2165354D03*
X2559055D03*
X2952756D03*
X3346457D03*
X3740157D03*
X4133858D03*
X4527559D03*
X4921260D03*
X5314961D03*
X5708661D03*
X6102362D03*
X6496063D03*
X6889764D03*
X7283465D03*
X7677165D03*
X8070866D03*
X8464567D03*
X8858268D03*
X9251969D03*
X9645669D03*
X1377953Y-1181102D03*
X1771654D03*
X2165354D03*
X2559055D03*
X2952756D03*
X3346457D03*
X3740157D03*
X4133858D03*
X4527559D03*
X4921260D03*
X5314961D03*
X5708661D03*
X6102362D03*
X6496063D03*
X6889764D03*
X7283465D03*
X7677165D03*
X8070866D03*
X8464567D03*
X8858268D03*
X9251969D03*
X9645669D03*
X1377953Y-1574803D03*
X1771654D03*
X2165354D03*
X2559055D03*
X2952756D03*
X3346457D03*
X3740157D03*
X4133858D03*
X4527559D03*
X4921260D03*
X5314961D03*
X5708661D03*
X6102362D03*
X6496063D03*
X6889764D03*
X7283465D03*
X7677165D03*
X8070866D03*
X8464567D03*
X8858268D03*
X9251969D03*
X9645669D03*
X984252D03*
X590551D03*
X196850D03*
X1377953Y-1968504D03*
X1771654D03*
X2165354D03*
X2559055D03*
X2952756D03*
X3346457D03*
X3740157D03*
X4133858D03*
X4527559D03*
X4921260D03*
X5314961D03*
X5708661D03*
X6102362D03*
X6496063D03*
X6889764D03*
X7283465D03*
X7677165D03*
X8070866D03*
X8464567D03*
X8858268D03*
X9251969D03*
X9645669D03*
X984252D03*
X590551D03*
X196850D03*
X1377953Y-2362205D03*
X1771654D03*
X2165354D03*
X2559055D03*
X2952756D03*
X3346457D03*
X3740157D03*
X4133858D03*
X4527559D03*
X4921260D03*
X5314961D03*
X5708661D03*
X6102362D03*
X6496063D03*
X6889764D03*
X7283465D03*
X7677165D03*
X8070866D03*
X8464567D03*
X8858268D03*
X9251969D03*
X9645669D03*
X984252D03*
X590551D03*
X196850D03*
X1377953Y-2755906D03*
X1771654D03*
X2165354D03*
X2559055D03*
X2952756D03*
X3346457D03*
X3740157D03*
X4133858D03*
X4527559D03*
X4921260D03*
X5314961D03*
X5708661D03*
X6102362D03*
X6496063D03*
X6889764D03*
X7283465D03*
X7677165D03*
X8070866D03*
X8464567D03*
X8858268D03*
X9251969D03*
X9645669D03*
X984252D03*
X590551D03*
X196850D03*
X1377953Y-3149606D03*
X1771654D03*
X2165354D03*
X2559055D03*
X2952756D03*
X3346457D03*
X3740157D03*
X4133858D03*
X4527559D03*
X4921260D03*
X5314961D03*
X5708661D03*
X6102362D03*
X6496063D03*
X6889764D03*
X7283465D03*
X7677165D03*
X8070866D03*
X8464567D03*
X8858268D03*
X9251969D03*
X9645669D03*
X984252D03*
X590551D03*
X196850D03*
X1377953Y-3543307D03*
X1771654D03*
X2165354D03*
X2559055D03*
X2952756D03*
X3346457D03*
X3740157D03*
X4133858D03*
X4527559D03*
X4921260D03*
X5314961D03*
X5708661D03*
X6102362D03*
X6496063D03*
X6889764D03*
X7283465D03*
X7677165D03*
X8070866D03*
X8464567D03*
X8858268D03*
X9251969D03*
X9645669D03*
X984252D03*
X590551D03*
X196850D03*
X1377953Y-3937008D03*
X1771654D03*
X2165354D03*
X2559055D03*
X2952756D03*
X3346457D03*
X3740157D03*
X4133858D03*
X4527559D03*
X4921260D03*
X5314961D03*
X5708661D03*
X6102362D03*
X6496063D03*
X6889764D03*
X7283465D03*
X7677165D03*
X8070866D03*
X8464567D03*
X8858268D03*
X9251969D03*
X9645669D03*
X984252D03*
X590551D03*
X196850D03*
X1377953Y-4330709D03*
X1771654D03*
X2165354D03*
X2559055D03*
X2952756D03*
X3346457D03*
X3740157D03*
X4133858D03*
X4527559D03*
X4921260D03*
X5314961D03*
X5708661D03*
X6102362D03*
X6496063D03*
X6889764D03*
X7283465D03*
X7677165D03*
X8070866D03*
X8464567D03*
X8858268D03*
X9251969D03*
X9645669D03*
X984252D03*
X590551D03*
X196850D03*
X1377953Y-4724409D03*
X1771654D03*
X2165354D03*
X2559055D03*
X2952756D03*
X3346457D03*
X3740157D03*
X4133858D03*
X4527559D03*
X4921260D03*
X5314961D03*
X5708661D03*
X6102362D03*
X6496063D03*
X6889764D03*
X7283465D03*
X7677165D03*
X8070866D03*
X8464567D03*
X8858268D03*
X9251969D03*
X9645669D03*
X984252D03*
X590551D03*
X196850D03*
X1377953Y-5118110D03*
X1771654D03*
X2165354D03*
X2559055D03*
X2952756D03*
X3346457D03*
X3740157D03*
X4133858D03*
X4527559D03*
X4921260D03*
X5314961D03*
X5708661D03*
X6102362D03*
X6496063D03*
X6889764D03*
X7283465D03*
X7677165D03*
X8070866D03*
X8464567D03*
X8858268D03*
X9251969D03*
X9645669D03*
X984252D03*
X590551D03*
X196850D03*
X1377953Y-5511811D03*
X1771654D03*
X2165354D03*
X2559055D03*
X2952756D03*
X3346457D03*
X3740157D03*
X4133858D03*
X4527559D03*
X4921260D03*
X5314961D03*
X5708661D03*
X6102362D03*
X6496063D03*
X6889764D03*
X7283465D03*
X7677165D03*
X8070866D03*
X8464567D03*
X8858268D03*
X9251969D03*
X9645669D03*
X984252D03*
X590551D03*
X196850D03*
X1377953Y-5905512D03*
X1771654D03*
X2165354D03*
X2559055D03*
X2952756D03*
X3346457D03*
X3740157D03*
X4133858D03*
X4527559D03*
X4921260D03*
X5314961D03*
X5708661D03*
X6102362D03*
X6496063D03*
X6889764D03*
X7283465D03*
X7677165D03*
X8070866D03*
X8464567D03*
X8858268D03*
X9251969D03*
X9645669D03*
X984252D03*
X590551D03*
X196850D03*
X1377953Y-6299213D03*
X1771654D03*
X2165354D03*
X2559055D03*
X2952756D03*
X3346457D03*
X3740157D03*
X4133858D03*
X4527559D03*
X4921260D03*
X5314961D03*
X5708661D03*
X6102362D03*
X6496063D03*
X6889764D03*
X7283465D03*
X7677165D03*
X8070866D03*
X8464567D03*
X8858268D03*
X9251969D03*
X9645669D03*
X984252D03*
X590551D03*
X196850D03*
X1377953Y-6692913D03*
X1771654D03*
X2165354D03*
X2559055D03*
X2952756D03*
X3346457D03*
X3740157D03*
X4133858D03*
X4527559D03*
X4921260D03*
X5314961D03*
X5708661D03*
X6102362D03*
X6496063D03*
X6889764D03*
X7283465D03*
X7677165D03*
X8070866D03*
X8464567D03*
X8858268D03*
X9251969D03*
X9645669D03*
X984252D03*
X590551D03*
X196850D03*
X1377953Y-7086614D03*
X1771654D03*
X2165354D03*
X2559055D03*
X2952756D03*
X3346457D03*
X3740157D03*
X4133858D03*
X4527559D03*
X4921260D03*
X5314961D03*
X5708661D03*
X6102362D03*
X6496063D03*
X6889764D03*
X7283465D03*
X7677165D03*
X8070866D03*
X8464567D03*
X8858268D03*
X9251969D03*
X9645669D03*
X984252D03*
X590551D03*
X196850D03*
X1377953Y-7480315D03*
X1771654D03*
X2165354D03*
X2559055D03*
X2952756D03*
X3346457D03*
X3740157D03*
X4133858D03*
X4527559D03*
X4921260D03*
X5314961D03*
X5708661D03*
X6102362D03*
X6496063D03*
X6889764D03*
X7283465D03*
X7677165D03*
X8070866D03*
X8464567D03*
X8858268D03*
X9251969D03*
X984252D03*
X590551D03*
X196850D03*
X-1377953Y0D03*
X-1771654D03*
X-2165354D03*
X-2559055D03*
X-2952756D03*
X-3346457D03*
X-3740157D03*
X-4133858D03*
X-4527559D03*
X-4921260D03*
X-5314961D03*
X-5708661D03*
X-6102362D03*
X-6496063D03*
X-6889764D03*
X-7283465D03*
X-7677165D03*
X-8070866D03*
X-8464567D03*
X-8858268D03*
X-9251969D03*
X-9645669D03*
X-1377953Y393701D03*
X-1771654D03*
X-2165354D03*
X-2559055D03*
X-2952756D03*
X-3346457D03*
X-3740157D03*
X-4133858D03*
X-4527559D03*
X-4921260D03*
X-5314961D03*
X-5708661D03*
X-6102362D03*
X-6496063D03*
X-6889764D03*
X-7283465D03*
X-7677165D03*
X-8070866D03*
X-8464567D03*
X-8858268D03*
X-9251969D03*
X-9645669D03*
X-1377953Y787402D03*
X-1771654D03*
X-2165354D03*
X-2559055D03*
X-2952756D03*
X-3346457D03*
X-3740157D03*
X-4133858D03*
X-4527559D03*
X-4921260D03*
X-5314961D03*
X-5708661D03*
X-6102362D03*
X-6496063D03*
X-6889764D03*
X-7283465D03*
X-7677165D03*
X-8070866D03*
X-8464567D03*
X-8858268D03*
X-9251969D03*
X-9645669D03*
X-1377953Y1181102D03*
X-1771654D03*
X-2165354D03*
X-2559055D03*
X-2952756D03*
X-3346457D03*
X-3740157D03*
X-4133858D03*
X-4527559D03*
X-4921260D03*
X-5314961D03*
X-5708661D03*
X-6102362D03*
X-6496063D03*
X-6889764D03*
X-7283465D03*
X-7677165D03*
X-8070866D03*
X-8464567D03*
X-8858268D03*
X-9251969D03*
X-9645669D03*
X-1377953Y1574803D03*
X-1771654D03*
X-2165354D03*
X-2559055D03*
X-2952756D03*
X-3346457D03*
X-3740157D03*
X-4133858D03*
X-4527559D03*
X-4921260D03*
X-5314961D03*
X-5708661D03*
X-6102362D03*
X-6496063D03*
X-6889764D03*
X-7283465D03*
X-7677165D03*
X-8070866D03*
X-8464567D03*
X-8858268D03*
X-9251969D03*
X-9645669D03*
X-984252D03*
X-590551D03*
X-196850D03*
X-1377953Y1968504D03*
X-1771654D03*
X-2165354D03*
X-2559055D03*
X-2952756D03*
X-3346457D03*
X-3740157D03*
X-4133858D03*
X-4527559D03*
X-4921260D03*
X-5314961D03*
X-5708661D03*
X-6102362D03*
X-6496063D03*
X-6889764D03*
X-7283465D03*
X-7677165D03*
X-8070866D03*
X-8464567D03*
X-8858268D03*
X-9251969D03*
X-9645669D03*
X-984252D03*
X-590551D03*
X-196850D03*
X-1377953Y2362205D03*
X-1771654D03*
X-2165354D03*
X-2559055D03*
X-2952756D03*
X-3346457D03*
X-3740157D03*
X-4133858D03*
X-4527559D03*
X-4921260D03*
X-5314961D03*
X-5708661D03*
X-6102362D03*
X-6496063D03*
X-6889764D03*
X-7283465D03*
X-7677165D03*
X-8070866D03*
X-8464567D03*
X-8858268D03*
X-9251969D03*
X-9645669D03*
X-984252D03*
X-590551D03*
X-196850D03*
X-1377953Y2755906D03*
X-1771654D03*
X-2165354D03*
X-2559055D03*
X-2952756D03*
X-3346457D03*
X-3740157D03*
X-4133858D03*
X-4527559D03*
X-4921260D03*
X-5314961D03*
X-5708661D03*
X-6102362D03*
X-6496063D03*
X-6889764D03*
X-7283465D03*
X-7677165D03*
X-8070866D03*
X-8464567D03*
X-8858268D03*
X-9251969D03*
X-9645669D03*
X-984252D03*
X-590551D03*
X-196850D03*
X-1377953Y3149606D03*
X-1771654D03*
X-2165354D03*
X-2559055D03*
X-2952756D03*
X-3346457D03*
X-3740157D03*
X-4133858D03*
X-4527559D03*
X-4921260D03*
X-5314961D03*
X-5708661D03*
X-6102362D03*
X-6496063D03*
X-6889764D03*
X-7283465D03*
X-7677165D03*
X-8070866D03*
X-8464567D03*
X-8858268D03*
X-9251969D03*
X-9645669D03*
X-984252D03*
X-590551D03*
X-196850D03*
X-1377953Y3543307D03*
X-1771654D03*
X-2165354D03*
X-2559055D03*
X-2952756D03*
X-3346457D03*
X-3740157D03*
X-4133858D03*
X-4527559D03*
X-4921260D03*
X-5314961D03*
X-5708661D03*
X-6102362D03*
X-6496063D03*
X-6889764D03*
X-7283465D03*
X-7677165D03*
X-8070866D03*
X-8464567D03*
X-8858268D03*
X-9251969D03*
X-9645669D03*
X-984252D03*
X-590551D03*
X-196850D03*
X-1377953Y3937008D03*
X-1771654D03*
X-2165354D03*
X-2559055D03*
X-2952756D03*
X-3346457D03*
X-3740157D03*
X-4133858D03*
X-4527559D03*
X-4921260D03*
X-5314961D03*
X-5708661D03*
X-6102362D03*
X-6496063D03*
X-6889764D03*
X-7283465D03*
X-7677165D03*
X-8070866D03*
X-8464567D03*
X-8858268D03*
X-9251969D03*
X-9645669D03*
X-984252D03*
X-590551D03*
X-196850D03*
X-1377953Y4330709D03*
X-1771654D03*
X-2165354D03*
X-2559055D03*
X-2952756D03*
X-3346457D03*
X-3740157D03*
X-4133858D03*
X-4527559D03*
X-4921260D03*
X-5314961D03*
X-5708661D03*
X-6102362D03*
X-6496063D03*
X-6889764D03*
X-7283465D03*
X-7677165D03*
X-8070866D03*
X-8464567D03*
X-8858268D03*
X-9251969D03*
X-9645669D03*
X-984252D03*
X-590551D03*
X-196850D03*
X-1377953Y4724409D03*
X-1771654D03*
X-2165354D03*
X-2559055D03*
X-2952756D03*
X-3346457D03*
X-3740157D03*
X-4133858D03*
X-4527559D03*
X-4921260D03*
X-5314961D03*
X-5708661D03*
X-6102362D03*
X-6496063D03*
X-6889764D03*
X-7283465D03*
X-7677165D03*
X-8070866D03*
X-8464567D03*
X-8858268D03*
X-9251969D03*
X-9645669D03*
X-984252D03*
X-590551D03*
X-196850D03*
X-1377953Y5118110D03*
X-1771654D03*
X-2165354D03*
X-2559055D03*
X-2952756D03*
X-3346457D03*
X-3740157D03*
X-4133858D03*
X-4527559D03*
X-4921260D03*
X-5314961D03*
X-5708661D03*
X-6102362D03*
X-6496063D03*
X-6889764D03*
X-7283465D03*
X-7677165D03*
X-8070866D03*
X-8464567D03*
X-8858268D03*
X-9251969D03*
X-9645669D03*
X-984252D03*
X-590551D03*
X-196850D03*
X-1377953Y5511811D03*
X-1771654D03*
X-2165354D03*
X-2559055D03*
X-2952756D03*
X-3346457D03*
X-3740157D03*
X-4133858D03*
X-4527559D03*
X-4921260D03*
X-5314961D03*
X-5708661D03*
X-6102362D03*
X-6496063D03*
X-6889764D03*
X-7283465D03*
X-7677165D03*
X-8070866D03*
X-8464567D03*
X-8858268D03*
X-9251969D03*
X-9645669D03*
X-984252D03*
X-590551D03*
X-196850D03*
X-1377953Y5905512D03*
X-1771654D03*
X-2165354D03*
X-2559055D03*
X-2952756D03*
X-3346457D03*
X-3740157D03*
X-4133858D03*
X-4527559D03*
X-4921260D03*
X-5314961D03*
X-5708661D03*
X-6102362D03*
X-6496063D03*
X-6889764D03*
X-7283465D03*
X-7677165D03*
X-8070866D03*
X-8464567D03*
X-8858268D03*
X-9251969D03*
X-9645669D03*
X-984252D03*
X-590551D03*
X-196850D03*
X-1377953Y6299213D03*
X-1771654D03*
X-2165354D03*
X-2559055D03*
X-2952756D03*
X-3346457D03*
X-3740157D03*
X-4133858D03*
X-4527559D03*
X-4921260D03*
X-5314961D03*
X-5708661D03*
X-6102362D03*
X-6496063D03*
X-6889764D03*
X-7283465D03*
X-7677165D03*
X-8070866D03*
X-8464567D03*
X-8858268D03*
X-9251969D03*
X-9645669D03*
X-984252D03*
X-590551D03*
X-196850D03*
X-1377953Y6692913D03*
X-1771654D03*
X-2165354D03*
X-2559055D03*
X-2952756D03*
X-3346457D03*
X-3740157D03*
X-4133858D03*
X-4527559D03*
X-4921260D03*
X-5314961D03*
X-5708661D03*
X-6102362D03*
X-6496063D03*
X-6889764D03*
X-7283465D03*
X-7677165D03*
X-8070866D03*
X-8464567D03*
X-8858268D03*
X-9251969D03*
X-9645669D03*
X-984252D03*
X-590551D03*
X-196850D03*
X-1377953Y7086614D03*
X-1771654D03*
X-2165354D03*
X-2559055D03*
X-2952756D03*
X-3346457D03*
X-3740157D03*
X-4133858D03*
X-4527559D03*
X-4921260D03*
X-5314961D03*
X-5708661D03*
X-6102362D03*
X-6496063D03*
X-6889764D03*
X-7283465D03*
X-7677165D03*
X-8070866D03*
X-8464567D03*
X-8858268D03*
X-9251969D03*
X-9645669D03*
X-984252D03*
X-590551D03*
X-196850D03*
X-1377953Y7480315D03*
X-1771654D03*
X-2165354D03*
X-2559055D03*
X-2952756D03*
X-3346457D03*
X-3740157D03*
X-4133858D03*
X-4527559D03*
X-4921260D03*
X-5314961D03*
X-5708661D03*
X-6102362D03*
X-6496063D03*
X-6889764D03*
X-7283465D03*
X-7677165D03*
X-8070866D03*
X-8464567D03*
X-8858268D03*
X-9251969D03*
X-984252D03*
X-590551D03*
X-196850D03*
X-1377953Y-393701D03*
X-1771654D03*
X-2165354D03*
X-2559055D03*
X-2952756D03*
X-3346457D03*
X-3740157D03*
X-4133858D03*
X-4527559D03*
X-4921260D03*
X-5314961D03*
X-5708661D03*
X-6102362D03*
X-6496063D03*
X-6889764D03*
X-7283465D03*
X-7677165D03*
X-8070866D03*
X-8464567D03*
X-8858268D03*
X-9251969D03*
X-9645669D03*
X-1377953Y-787402D03*
X-1771654D03*
X-2165354D03*
X-2559055D03*
X-2952756D03*
X-3346457D03*
X-3740157D03*
X-4133858D03*
X-4527559D03*
X-4921260D03*
X-5314961D03*
X-5708661D03*
X-6102362D03*
X-6496063D03*
X-6889764D03*
X-7283465D03*
X-7677165D03*
X-8070866D03*
X-8464567D03*
X-8858268D03*
X-9251969D03*
X-9645669D03*
X-1377953Y-1181102D03*
X-1771654D03*
X-2165354D03*
X-2559055D03*
X-2952756D03*
X-3346457D03*
X-3740157D03*
X-4133858D03*
X-4527559D03*
X-4921260D03*
X-5314961D03*
X-5708661D03*
X-6102362D03*
X-6496063D03*
X-6889764D03*
X-7283465D03*
X-7677165D03*
X-8070866D03*
X-8464567D03*
X-8858268D03*
X-9251969D03*
X-9645669D03*
X-1377953Y-1574803D03*
X-1771654D03*
X-2165354D03*
X-2559055D03*
X-2952756D03*
X-3346457D03*
X-3740157D03*
X-4133858D03*
X-4527559D03*
X-4921260D03*
X-5314961D03*
X-5708661D03*
X-6102362D03*
X-6496063D03*
X-6889764D03*
X-7283465D03*
X-7677165D03*
X-8070866D03*
X-8464567D03*
X-8858268D03*
X-9251969D03*
X-9645669D03*
X-984252D03*
X-590551D03*
X-196850D03*
X-1377953Y-1968504D03*
X-1771654D03*
X-2165354D03*
X-2559055D03*
X-2952756D03*
X-3346457D03*
X-3740157D03*
X-4133858D03*
X-4527559D03*
X-4921260D03*
X-5314961D03*
X-5708661D03*
X-6102362D03*
X-6496063D03*
X-6889764D03*
X-7283465D03*
X-7677165D03*
X-8070866D03*
X-8464567D03*
X-8858268D03*
X-9251969D03*
X-9645669D03*
X-984252D03*
X-590551D03*
X-196850D03*
X-1377953Y-2362205D03*
X-1771654D03*
X-2165354D03*
X-2559055D03*
X-2952756D03*
X-3346457D03*
X-3740157D03*
X-4133858D03*
X-4527559D03*
X-4921260D03*
X-5314961D03*
X-5708661D03*
X-6102362D03*
X-6496063D03*
X-6889764D03*
X-7283465D03*
X-7677165D03*
X-8070866D03*
X-8464567D03*
X-8858268D03*
X-9251969D03*
X-9645669D03*
X-984252D03*
X-590551D03*
X-196850D03*
X-1377953Y-2755906D03*
X-1771654D03*
X-2165354D03*
X-2559055D03*
X-2952756D03*
X-3346457D03*
X-3740157D03*
X-4133858D03*
X-4527559D03*
X-4921260D03*
X-5314961D03*
X-5708661D03*
X-6102362D03*
X-6496063D03*
X-6889764D03*
X-7283465D03*
X-7677165D03*
X-8070866D03*
X-8464567D03*
X-8858268D03*
X-9251969D03*
X-9645669D03*
X-984252D03*
X-590551D03*
X-196850D03*
X-1377953Y-3149606D03*
X-1771654D03*
X-2165354D03*
X-2559055D03*
X-2952756D03*
X-3346457D03*
X-3740157D03*
X-4133858D03*
X-4527559D03*
X-4921260D03*
X-5314961D03*
X-5708661D03*
X-6102362D03*
X-6496063D03*
X-6889764D03*
X-7283465D03*
X-7677165D03*
X-8070866D03*
X-8464567D03*
X-8858268D03*
X-9251969D03*
X-9645669D03*
X-984252D03*
X-590551D03*
X-196850D03*
X-1377953Y-3543307D03*
X-1771654D03*
X-2165354D03*
X-2559055D03*
X-2952756D03*
X-3346457D03*
X-3740157D03*
X-4133858D03*
X-4527559D03*
X-4921260D03*
X-5314961D03*
X-5708661D03*
X-6102362D03*
X-6496063D03*
X-6889764D03*
X-7283465D03*
X-7677165D03*
X-8070866D03*
X-8464567D03*
X-8858268D03*
X-9251969D03*
X-9645669D03*
X-984252D03*
X-590551D03*
X-196850D03*
X-1377953Y-3937008D03*
X-1771654D03*
X-2165354D03*
X-2559055D03*
X-2952756D03*
X-3346457D03*
X-3740157D03*
X-4133858D03*
X-4527559D03*
X-4921260D03*
X-5314961D03*
X-5708661D03*
X-6102362D03*
X-6496063D03*
X-6889764D03*
X-7283465D03*
X-7677165D03*
X-8070866D03*
X-8464567D03*
X-8858268D03*
X-9251969D03*
X-9645669D03*
X-984252D03*
X-590551D03*
X-196850D03*
X-1377953Y-4330709D03*
X-1771654D03*
X-2165354D03*
X-2559055D03*
X-2952756D03*
X-3346457D03*
X-3740157D03*
X-4133858D03*
X-4527559D03*
X-4921260D03*
X-5314961D03*
X-5708661D03*
X-6102362D03*
X-6496063D03*
X-6889764D03*
X-7283465D03*
X-7677165D03*
X-8070866D03*
X-8464567D03*
X-8858268D03*
X-9251969D03*
X-9645669D03*
X-984252D03*
X-590551D03*
X-196850D03*
X-1377953Y-4724409D03*
X-1771654D03*
X-2165354D03*
X-2559055D03*
X-2952756D03*
X-3346457D03*
X-3740157D03*
X-4133858D03*
X-4527559D03*
X-4921260D03*
X-5314961D03*
X-5708661D03*
X-6102362D03*
X-6496063D03*
X-6889764D03*
X-7283465D03*
X-7677165D03*
X-8070866D03*
X-8464567D03*
X-8858268D03*
X-9251969D03*
X-9645669D03*
X-984252D03*
X-590551D03*
X-196850D03*
X-1377953Y-5118110D03*
X-1771654D03*
X-2165354D03*
X-2559055D03*
X-2952756D03*
X-3346457D03*
X-3740157D03*
X-4133858D03*
X-4527559D03*
X-4921260D03*
X-5314961D03*
X-5708661D03*
X-6102362D03*
X-6496063D03*
X-6889764D03*
X-7283465D03*
X-7677165D03*
X-8070866D03*
X-8464567D03*
X-8858268D03*
X-9251969D03*
X-9645669D03*
X-984252D03*
X-590551D03*
X-196850D03*
X-1377953Y-5511811D03*
X-1771654D03*
X-2165354D03*
X-2559055D03*
X-2952756D03*
X-3346457D03*
X-3740157D03*
X-4133858D03*
X-4527559D03*
X-4921260D03*
X-5314961D03*
X-5708661D03*
X-6102362D03*
X-6496063D03*
X-6889764D03*
X-7283465D03*
X-7677165D03*
X-8070866D03*
X-8464567D03*
X-8858268D03*
X-9251969D03*
X-9645669D03*
X-984252D03*
X-590551D03*
X-196850D03*
X-1377953Y-5905512D03*
X-1771654D03*
X-2165354D03*
X-2559055D03*
X-2952756D03*
X-3346457D03*
X-3740157D03*
X-4133858D03*
X-4527559D03*
X-4921260D03*
X-5314961D03*
X-5708661D03*
X-6102362D03*
X-6496063D03*
X-6889764D03*
X-7283465D03*
X-7677165D03*
X-8070866D03*
X-8464567D03*
X-8858268D03*
X-9251969D03*
X-9645669D03*
X-984252D03*
X-590551D03*
X-196850D03*
X-1377953Y-6299213D03*
X-1771654D03*
X-2165354D03*
X-2559055D03*
X-2952756D03*
X-3346457D03*
X-3740157D03*
X-4133858D03*
X-4527559D03*
X-4921260D03*
X-5314961D03*
X-5708661D03*
X-6102362D03*
X-6496063D03*
X-6889764D03*
X-7283465D03*
X-7677165D03*
X-8070866D03*
X-8464567D03*
X-8858268D03*
X-9251969D03*
X-9645669D03*
X-984252D03*
X-590551D03*
X-196850D03*
X-1377953Y-6692913D03*
X-1771654D03*
X-2165354D03*
X-2559055D03*
X-2952756D03*
X-3346457D03*
X-3740157D03*
X-4133858D03*
X-4527559D03*
X-4921260D03*
X-5314961D03*
X-5708661D03*
X-6102362D03*
X-6496063D03*
X-6889764D03*
X-7283465D03*
X-7677165D03*
X-8070866D03*
X-8464567D03*
X-8858268D03*
X-9251969D03*
X-9645669D03*
X-984252D03*
X-590551D03*
X-196850D03*
X-1377953Y-7086614D03*
X-1771654D03*
X-2165354D03*
X-2559055D03*
X-2952756D03*
X-3346457D03*
X-3740157D03*
X-4133858D03*
X-4527559D03*
X-4921260D03*
X-5314961D03*
X-5708661D03*
X-6102362D03*
X-6496063D03*
X-6889764D03*
X-7283465D03*
X-7677165D03*
X-8070866D03*
X-8464567D03*
X-8858268D03*
X-9251969D03*
X-9645669D03*
X-984252D03*
X-590551D03*
X-196850D03*
X-1377953Y-7480315D03*
X-1771654D03*
X-2165354D03*
X-2559055D03*
X-2952756D03*
X-3346457D03*
X-3740157D03*
X-4133858D03*
X-4527559D03*
X-4921260D03*
X-5314961D03*
X-5708661D03*
X-6102362D03*
X-6496063D03*
X-6889764D03*
X-7283465D03*
X-7677165D03*
X-8070866D03*
X-8464567D03*
X-8858268D03*
X-9251969D03*
X-984252D03*
X-590551D03*
X-196850D03*
X157480Y0D03*
X472441D03*
X787402D03*
X1102362D03*
X157480Y314961D03*
X472441D03*
X787402D03*
X1102362D03*
X157480Y629921D03*
X472441D03*
X787402D03*
X1102362D03*
X157480Y944882D03*
X472441D03*
X787402D03*
X1102362D03*
X157480Y1259843D03*
X472441D03*
X787402D03*
X1102362D03*
X157480Y-314961D03*
X472441D03*
X787402D03*
X1102362D03*
X157480Y-629921D03*
X472441D03*
X787402D03*
X1102362D03*
X157480Y-944882D03*
X472441D03*
X787402D03*
X1102362D03*
X157480Y-1259843D03*
X472441D03*
X787402D03*
X1102362D03*
X-157480Y0D03*
X-472441D03*
X-787402D03*
X-1102362D03*
X-157480Y314961D03*
X-472441D03*
X-787402D03*
X-1102362D03*
X-157480Y629921D03*
X-472441D03*
X-787402D03*
X-1102362D03*
X-157480Y944882D03*
X-472441D03*
X-787402D03*
X-1102362D03*
X-157480Y1259843D03*
X-472441D03*
X-787402D03*
X-1102362D03*
X-157480Y-314961D03*
X-472441D03*
X-787402D03*
X-1102362D03*
X-157480Y-629921D03*
X-472441D03*
X-787402D03*
X-1102362D03*
X-157480Y-944882D03*
X-472441D03*
X-787402D03*
X-1102362D03*
X-157480Y-1259843D03*
X-472441D03*
X-787402D03*
X-1102362D03*
D11*
X9448819Y7283465D03*
X1574803Y196850D03*
X1968504D03*
X2362205D03*
X2755906D03*
X3149606D03*
X3543307D03*
X3937008D03*
X4330709D03*
X4724409D03*
X5118110D03*
X5511811D03*
X5905512D03*
X6299213D03*
X6692913D03*
X7086614D03*
X7480315D03*
X7874016D03*
X8267717D03*
X8661417D03*
X9055118D03*
X9448819D03*
X1574803Y590551D03*
X1968504D03*
X2362205D03*
X2755906D03*
X3149606D03*
X3543307D03*
X3937008D03*
X4330709D03*
X4724409D03*
X5118110D03*
X5511811D03*
X5905512D03*
X6299213D03*
X6692913D03*
X7086614D03*
X7480315D03*
X7874016D03*
X8267717D03*
X8661417D03*
X9055118D03*
X9448819D03*
X1574803Y984252D03*
X1968504D03*
X2362205D03*
X2755906D03*
X3149606D03*
X3543307D03*
X3937008D03*
X4330709D03*
X4724409D03*
X5118110D03*
X5511811D03*
X5905512D03*
X6299213D03*
X6692913D03*
X7086614D03*
X7480315D03*
X7874016D03*
X8267717D03*
X8661417D03*
X9055118D03*
X9448819D03*
X1574803Y1377953D03*
X1968504D03*
X2362205D03*
X2755906D03*
X3149606D03*
X3543307D03*
X3937008D03*
X4330709D03*
X4724409D03*
X5118110D03*
X5511811D03*
X5905512D03*
X6299213D03*
X6692913D03*
X7086614D03*
X7480315D03*
X7874016D03*
X8267717D03*
X8661417D03*
X9055118D03*
X9448819D03*
X1181102Y1771654D03*
X1574803D03*
X1968504D03*
X2362205D03*
X2755906D03*
X3149606D03*
X3543307D03*
X3937008D03*
X4330709D03*
X4724409D03*
X5118110D03*
X5511811D03*
X5905512D03*
X6299213D03*
X6692913D03*
X7086614D03*
X7480315D03*
X7874016D03*
X8267717D03*
X8661417D03*
X9055118D03*
X9448819D03*
X787402D03*
X393701D03*
X0D03*
X1181102Y2165354D03*
X1574803D03*
X1968504D03*
X2362205D03*
X2755906D03*
X3149606D03*
X3543307D03*
X3937008D03*
X4330709D03*
X4724409D03*
X5118110D03*
X5511811D03*
X5905512D03*
X6299213D03*
X6692913D03*
X7086614D03*
X7480315D03*
X7874016D03*
X8267717D03*
X8661417D03*
X9055118D03*
X9448819D03*
X787402D03*
X393701D03*
X0D03*
X1181102Y2559055D03*
X1574803D03*
X1968504D03*
X2362205D03*
X2755906D03*
X3149606D03*
X3543307D03*
X3937008D03*
X4330709D03*
X4724409D03*
X5118110D03*
X5511811D03*
X5905512D03*
X6299213D03*
X6692913D03*
X7086614D03*
X7480315D03*
X7874016D03*
X8267717D03*
X8661417D03*
X9055118D03*
X9448819D03*
X787402D03*
X393701D03*
X0D03*
X1181102Y2952756D03*
X1574803D03*
X1968504D03*
X2362205D03*
X2755906D03*
X3149606D03*
X3543307D03*
X3937008D03*
X4330709D03*
X4724409D03*
X5118110D03*
X5511811D03*
X5905512D03*
X6299213D03*
X6692913D03*
X7086614D03*
X7480315D03*
X7874016D03*
X8267717D03*
X8661417D03*
X9055118D03*
X9448819D03*
X787402D03*
X393701D03*
X0D03*
X1181102Y3346457D03*
X1574803D03*
X1968504D03*
X2362205D03*
X2755906D03*
X3149606D03*
X3543307D03*
X3937008D03*
X4330709D03*
X4724409D03*
X5118110D03*
X5511811D03*
X5905512D03*
X6299213D03*
X6692913D03*
X7086614D03*
X7480315D03*
X7874016D03*
X8267717D03*
X8661417D03*
X9055118D03*
X9448819D03*
X787402D03*
X393701D03*
X0D03*
X1181102Y3740157D03*
X1574803D03*
X1968504D03*
X2362205D03*
X2755906D03*
X3149606D03*
X3543307D03*
X3937008D03*
X4330709D03*
X4724409D03*
X5118110D03*
X5511811D03*
X5905512D03*
X6299213D03*
X6692913D03*
X7086614D03*
X7480315D03*
X7874016D03*
X8267717D03*
X8661417D03*
X9055118D03*
X9448819D03*
X787402D03*
X393701D03*
X0D03*
X1181102Y4133858D03*
X1574803D03*
X1968504D03*
X2362205D03*
X2755906D03*
X3149606D03*
X3543307D03*
X3937008D03*
X4330709D03*
X4724409D03*
X5118110D03*
X5511811D03*
X5905512D03*
X6299213D03*
X6692913D03*
X7086614D03*
X7480315D03*
X7874016D03*
X8267717D03*
X8661417D03*
X9055118D03*
X9448819D03*
X787402D03*
X393701D03*
X0D03*
X1181102Y4527559D03*
X1574803D03*
X1968504D03*
X2362205D03*
X2755906D03*
X3149606D03*
X3543307D03*
X3937008D03*
X4330709D03*
X4724409D03*
X5118110D03*
X5511811D03*
X5905512D03*
X6299213D03*
X6692913D03*
X7086614D03*
X7480315D03*
X7874016D03*
X8267717D03*
X8661417D03*
X9055118D03*
X9448819D03*
X787402D03*
X393701D03*
X0D03*
X1181102Y4921260D03*
X1574803D03*
X1968504D03*
X2362205D03*
X2755906D03*
X3149606D03*
X3543307D03*
X3937008D03*
X4330709D03*
X4724409D03*
X5118110D03*
X5511811D03*
X5905512D03*
X6299213D03*
X6692913D03*
X7086614D03*
X7480315D03*
X7874016D03*
X8267717D03*
X8661417D03*
X9055118D03*
X9448819D03*
X787402D03*
X393701D03*
X0D03*
X1181102Y5314961D03*
X1574803D03*
X1968504D03*
X2362205D03*
X2755906D03*
X3149606D03*
X3543307D03*
X3937008D03*
X4330709D03*
X4724409D03*
X5118110D03*
X5511811D03*
X5905512D03*
X6299213D03*
X6692913D03*
X7086614D03*
X7480315D03*
X7874016D03*
X8267717D03*
X8661417D03*
X9055118D03*
X9448819D03*
X787402D03*
X393701D03*
X0D03*
X1181102Y5708661D03*
X1574803D03*
X1968504D03*
X2362205D03*
X2755906D03*
X3149606D03*
X3543307D03*
X3937008D03*
X4330709D03*
X4724409D03*
X5118110D03*
X5511811D03*
X5905512D03*
X6299213D03*
X6692913D03*
X7086614D03*
X7480315D03*
X7874016D03*
X8267717D03*
X8661417D03*
X9055118D03*
X9448819D03*
X787402D03*
X393701D03*
X0D03*
X1181102Y6102362D03*
X1574803D03*
X1968504D03*
X2362205D03*
X2755906D03*
X3149606D03*
X3543307D03*
X3937008D03*
X4330709D03*
X4724409D03*
X5118110D03*
X5511811D03*
X5905512D03*
X6299213D03*
X6692913D03*
X7086614D03*
X7480315D03*
X7874016D03*
X8267717D03*
X8661417D03*
X9055118D03*
X9448819D03*
X787402D03*
X393701D03*
X0D03*
X1181102Y6496063D03*
X1574803D03*
X1968504D03*
X2362205D03*
X2755906D03*
X3149606D03*
X3543307D03*
X3937008D03*
X4330709D03*
X4724409D03*
X5118110D03*
X5511811D03*
X5905512D03*
X6299213D03*
X6692913D03*
X7086614D03*
X7480315D03*
X7874016D03*
X8267717D03*
X8661417D03*
X9055118D03*
X9448819D03*
X787402D03*
X393701D03*
X0D03*
X1181102Y6889764D03*
X1574803D03*
X1968504D03*
X2362205D03*
X2755906D03*
X3149606D03*
X3543307D03*
X3937008D03*
X4330709D03*
X4724409D03*
X5118110D03*
X5511811D03*
X5905512D03*
X6299213D03*
X6692913D03*
X7086614D03*
X7480315D03*
X7874016D03*
X8267717D03*
X8661417D03*
X9055118D03*
X9448819D03*
X787402D03*
X393701D03*
X0D03*
X1181102Y7283465D03*
X1574803D03*
X1968504D03*
X2362205D03*
X2755906D03*
X3149606D03*
X3543307D03*
X3937008D03*
X4330709D03*
X4724409D03*
X5118110D03*
X5511811D03*
X5905512D03*
X6299213D03*
X6692913D03*
X7086614D03*
X7480315D03*
X7874016D03*
X8267717D03*
X8661417D03*
X9055118D03*
X787402D03*
X393701D03*
X0D03*
X9448819Y7677165D03*
X1181102D03*
X1574803D03*
X1968504D03*
X2362205D03*
X2755906D03*
X3149606D03*
X3543307D03*
X3937008D03*
X4330709D03*
X4724409D03*
X5118110D03*
X5511811D03*
X5905512D03*
X6299213D03*
X6692913D03*
X7086614D03*
X7480315D03*
X7874016D03*
X8267717D03*
X8661417D03*
X9055118D03*
X787402D03*
X393701D03*
X0D03*
X9448819Y-7283465D03*
X1574803Y-196850D03*
X1968504D03*
X2362205D03*
X2755906D03*
X3149606D03*
X3543307D03*
X3937008D03*
X4330709D03*
X4724409D03*
X5118110D03*
X5511811D03*
X5905512D03*
X6299213D03*
X6692913D03*
X7086614D03*
X7480315D03*
X7874016D03*
X8267717D03*
X8661417D03*
X9055118D03*
X9448819D03*
X1574803Y-590551D03*
X1968504D03*
X2362205D03*
X2755906D03*
X3149606D03*
X3543307D03*
X3937008D03*
X4330709D03*
X4724409D03*
X5118110D03*
X5511811D03*
X5905512D03*
X6299213D03*
X6692913D03*
X7086614D03*
X7480315D03*
X7874016D03*
X8267717D03*
X8661417D03*
X9055118D03*
X9448819D03*
X1574803Y-984252D03*
X1968504D03*
X2362205D03*
X2755906D03*
X3149606D03*
X3543307D03*
X3937008D03*
X4330709D03*
X4724409D03*
X5118110D03*
X5511811D03*
X5905512D03*
X6299213D03*
X6692913D03*
X7086614D03*
X7480315D03*
X7874016D03*
X8267717D03*
X8661417D03*
X9055118D03*
X9448819D03*
X1574803Y-1377953D03*
X1968504D03*
X2362205D03*
X2755906D03*
X3149606D03*
X3543307D03*
X3937008D03*
X4330709D03*
X4724409D03*
X5118110D03*
X5511811D03*
X5905512D03*
X6299213D03*
X6692913D03*
X7086614D03*
X7480315D03*
X7874016D03*
X8267717D03*
X8661417D03*
X9055118D03*
X9448819D03*
X1181102Y-1771654D03*
X1574803D03*
X1968504D03*
X2362205D03*
X2755906D03*
X3149606D03*
X3543307D03*
X3937008D03*
X4330709D03*
X4724409D03*
X5118110D03*
X5511811D03*
X5905512D03*
X6299213D03*
X6692913D03*
X7086614D03*
X7480315D03*
X7874016D03*
X8267717D03*
X8661417D03*
X9055118D03*
X9448819D03*
X787402D03*
X393701D03*
X0D03*
X1181102Y-2165354D03*
X1574803D03*
X1968504D03*
X2362205D03*
X2755906D03*
X3149606D03*
X3543307D03*
X3937008D03*
X4330709D03*
X4724409D03*
X5118110D03*
X5511811D03*
X5905512D03*
X6299213D03*
X6692913D03*
X7086614D03*
X7480315D03*
X7874016D03*
X8267717D03*
X8661417D03*
X9055118D03*
X9448819D03*
X787402D03*
X393701D03*
X0D03*
X1181102Y-2559055D03*
X1574803D03*
X1968504D03*
X2362205D03*
X2755906D03*
X3149606D03*
X3543307D03*
X3937008D03*
X4330709D03*
X4724409D03*
X5118110D03*
X5511811D03*
X5905512D03*
X6299213D03*
X6692913D03*
X7086614D03*
X7480315D03*
X7874016D03*
X8267717D03*
X8661417D03*
X9055118D03*
X9448819D03*
X787402D03*
X393701D03*
X0D03*
X1181102Y-2952756D03*
X1574803D03*
X1968504D03*
X2362205D03*
X2755906D03*
X3149606D03*
X3543307D03*
X3937008D03*
X4330709D03*
X4724409D03*
X5118110D03*
X5511811D03*
X5905512D03*
X6299213D03*
X6692913D03*
X7086614D03*
X7480315D03*
X7874016D03*
X8267717D03*
X8661417D03*
X9055118D03*
X9448819D03*
X787402D03*
X393701D03*
X0D03*
X1181102Y-3346457D03*
X1574803D03*
X1968504D03*
X2362205D03*
X2755906D03*
X3149606D03*
X3543307D03*
X3937008D03*
X4330709D03*
X4724409D03*
X5118110D03*
X5511811D03*
X5905512D03*
X6299213D03*
X6692913D03*
X7086614D03*
X7480315D03*
X7874016D03*
X8267717D03*
X8661417D03*
X9055118D03*
X9448819D03*
X787402D03*
X393701D03*
X0D03*
X1181102Y-3740157D03*
X1574803D03*
X1968504D03*
X2362205D03*
X2755906D03*
X3149606D03*
X3543307D03*
X3937008D03*
X4330709D03*
X4724409D03*
X5118110D03*
X5511811D03*
X5905512D03*
X6299213D03*
X6692913D03*
X7086614D03*
X7480315D03*
X7874016D03*
X8267717D03*
X8661417D03*
X9055118D03*
X9448819D03*
X787402D03*
X393701D03*
X0D03*
X1181102Y-4133858D03*
X1574803D03*
X1968504D03*
X2362205D03*
X2755906D03*
X3149606D03*
X3543307D03*
X3937008D03*
X4330709D03*
X4724409D03*
X5118110D03*
X5511811D03*
X5905512D03*
X6299213D03*
X6692913D03*
X7086614D03*
X7480315D03*
X7874016D03*
X8267717D03*
X8661417D03*
X9055118D03*
X9448819D03*
X787402D03*
X393701D03*
X0D03*
X1181102Y-4527559D03*
X1574803D03*
X1968504D03*
X2362205D03*
X2755906D03*
X3149606D03*
X3543307D03*
X3937008D03*
X4330709D03*
X4724409D03*
X5118110D03*
X5511811D03*
X5905512D03*
X6299213D03*
X6692913D03*
X7086614D03*
X7480315D03*
X7874016D03*
X8267717D03*
X8661417D03*
X9055118D03*
X9448819D03*
X787402D03*
X393701D03*
X0D03*
X1181102Y-4921260D03*
X1574803D03*
X1968504D03*
X2362205D03*
X2755906D03*
X3149606D03*
X3543307D03*
X3937008D03*
X4330709D03*
X4724409D03*
X5118110D03*
X5511811D03*
X5905512D03*
X6299213D03*
X6692913D03*
X7086614D03*
X7480315D03*
X7874016D03*
X8267717D03*
X8661417D03*
X9055118D03*
X9448819D03*
X787402D03*
X393701D03*
X0D03*
X1181102Y-5314961D03*
X1574803D03*
X1968504D03*
X2362205D03*
X2755906D03*
X3149606D03*
X3543307D03*
X3937008D03*
X4330709D03*
X4724409D03*
X5118110D03*
X5511811D03*
X5905512D03*
X6299213D03*
X6692913D03*
X7086614D03*
X7480315D03*
X7874016D03*
X8267717D03*
X8661417D03*
X9055118D03*
X9448819D03*
X787402D03*
X393701D03*
X0D03*
X1181102Y-5708661D03*
X1574803D03*
X1968504D03*
X2362205D03*
X2755906D03*
X3149606D03*
X3543307D03*
X3937008D03*
X4330709D03*
X4724409D03*
X5118110D03*
X5511811D03*
X5905512D03*
X6299213D03*
X6692913D03*
X7086614D03*
X7480315D03*
X7874016D03*
X8267717D03*
X8661417D03*
X9055118D03*
X9448819D03*
X787402D03*
X393701D03*
X0D03*
X1181102Y-6102362D03*
X1574803D03*
X1968504D03*
X2362205D03*
X2755906D03*
X3149606D03*
X3543307D03*
X3937008D03*
X4330709D03*
X4724409D03*
X5118110D03*
X5511811D03*
X5905512D03*
X6299213D03*
X6692913D03*
X7086614D03*
X7480315D03*
X7874016D03*
X8267717D03*
X8661417D03*
X9055118D03*
X9448819D03*
X787402D03*
X393701D03*
X0D03*
X1181102Y-6496063D03*
X1574803D03*
X1968504D03*
X2362205D03*
X2755906D03*
X3149606D03*
X3543307D03*
X3937008D03*
X4330709D03*
X4724409D03*
X5118110D03*
X5511811D03*
X5905512D03*
X6299213D03*
X6692913D03*
X7086614D03*
X7480315D03*
X7874016D03*
X8267717D03*
X8661417D03*
X9055118D03*
X9448819D03*
X787402D03*
X393701D03*
X0D03*
X1181102Y-6889764D03*
X1574803D03*
X1968504D03*
X2362205D03*
X2755906D03*
X3149606D03*
X3543307D03*
X3937008D03*
X4330709D03*
X4724409D03*
X5118110D03*
X5511811D03*
X5905512D03*
X6299213D03*
X6692913D03*
X7086614D03*
X7480315D03*
X7874016D03*
X8267717D03*
X8661417D03*
X9055118D03*
X9448819D03*
X787402D03*
X393701D03*
X0D03*
X1181102Y-7283465D03*
X1574803D03*
X1968504D03*
X2362205D03*
X2755906D03*
X3149606D03*
X3543307D03*
X3937008D03*
X4330709D03*
X4724409D03*
X5118110D03*
X5511811D03*
X5905512D03*
X6299213D03*
X6692913D03*
X7086614D03*
X7480315D03*
X7874016D03*
X8267717D03*
X8661417D03*
X9055118D03*
X787402D03*
X393701D03*
X0D03*
X9448819Y-7677165D03*
X1181102D03*
X1574803D03*
X1968504D03*
X2362205D03*
X2755906D03*
X3149606D03*
X3543307D03*
X3937008D03*
X4330709D03*
X4724409D03*
X5118110D03*
X5511811D03*
X5905512D03*
X6299213D03*
X6692913D03*
X7086614D03*
X7480315D03*
X7874016D03*
X8267717D03*
X8661417D03*
X9055118D03*
X787402D03*
X393701D03*
X0D03*
X-9448819Y7283465D03*
X-1574803Y196850D03*
X-1968504D03*
X-2362205D03*
X-2755906D03*
X-3149606D03*
X-3543307D03*
X-3937008D03*
X-4330709D03*
X-4724409D03*
X-5118110D03*
X-5511811D03*
X-5905512D03*
X-6299213D03*
X-6692913D03*
X-7086614D03*
X-7480315D03*
X-7874016D03*
X-8267717D03*
X-8661417D03*
X-9055118D03*
X-9448819D03*
X-1574803Y590551D03*
X-1968504D03*
X-2362205D03*
X-2755906D03*
X-3149606D03*
X-3543307D03*
X-3937008D03*
X-4330709D03*
X-4724409D03*
X-5118110D03*
X-5511811D03*
X-5905512D03*
X-6299213D03*
X-6692913D03*
X-7086614D03*
X-7480315D03*
X-7874016D03*
X-8267717D03*
X-8661417D03*
X-9055118D03*
X-9448819D03*
X-1574803Y984252D03*
X-1968504D03*
X-2362205D03*
X-2755906D03*
X-3149606D03*
X-3543307D03*
X-3937008D03*
X-4330709D03*
X-4724409D03*
X-5118110D03*
X-5511811D03*
X-5905512D03*
X-6299213D03*
X-6692913D03*
X-7086614D03*
X-7480315D03*
X-7874016D03*
X-8267717D03*
X-8661417D03*
X-9055118D03*
X-9448819D03*
X-1574803Y1377953D03*
X-1968504D03*
X-2362205D03*
X-2755906D03*
X-3149606D03*
X-3543307D03*
X-3937008D03*
X-4330709D03*
X-4724409D03*
X-5118110D03*
X-5511811D03*
X-5905512D03*
X-6299213D03*
X-6692913D03*
X-7086614D03*
X-7480315D03*
X-7874016D03*
X-8267717D03*
X-8661417D03*
X-9055118D03*
X-9448819D03*
X-1181102Y1771654D03*
X-1574803D03*
X-1968504D03*
X-2362205D03*
X-2755906D03*
X-3149606D03*
X-3543307D03*
X-3937008D03*
X-4330709D03*
X-4724409D03*
X-5118110D03*
X-5511811D03*
X-5905512D03*
X-6299213D03*
X-6692913D03*
X-7086614D03*
X-7480315D03*
X-7874016D03*
X-8267717D03*
X-8661417D03*
X-9055118D03*
X-9448819D03*
X-787402D03*
X-393701D03*
X-1181102Y2165354D03*
X-1574803D03*
X-1968504D03*
X-2362205D03*
X-2755906D03*
X-3149606D03*
X-3543307D03*
X-3937008D03*
X-4330709D03*
X-4724409D03*
X-5118110D03*
X-5511811D03*
X-5905512D03*
X-6299213D03*
X-6692913D03*
X-7086614D03*
X-7480315D03*
X-7874016D03*
X-8267717D03*
X-8661417D03*
X-9055118D03*
X-9448819D03*
X-787402D03*
X-393701D03*
X-1181102Y2559055D03*
X-1574803D03*
X-1968504D03*
X-2362205D03*
X-2755906D03*
X-3149606D03*
X-3543307D03*
X-3937008D03*
X-4330709D03*
X-4724409D03*
X-5118110D03*
X-5511811D03*
X-5905512D03*
X-6299213D03*
X-6692913D03*
X-7086614D03*
X-7480315D03*
X-7874016D03*
X-8267717D03*
X-8661417D03*
X-9055118D03*
X-9448819D03*
X-787402D03*
X-393701D03*
X-1181102Y2952756D03*
X-1574803D03*
X-1968504D03*
X-2362205D03*
X-2755906D03*
X-3149606D03*
X-3543307D03*
X-3937008D03*
X-4330709D03*
X-4724409D03*
X-5118110D03*
X-5511811D03*
X-5905512D03*
X-6299213D03*
X-6692913D03*
X-7086614D03*
X-7480315D03*
X-7874016D03*
X-8267717D03*
X-8661417D03*
X-9055118D03*
X-9448819D03*
X-787402D03*
X-393701D03*
X-1181102Y3346457D03*
X-1574803D03*
X-1968504D03*
X-2362205D03*
X-2755906D03*
X-3149606D03*
X-3543307D03*
X-3937008D03*
X-4330709D03*
X-4724409D03*
X-5118110D03*
X-5511811D03*
X-5905512D03*
X-6299213D03*
X-6692913D03*
X-7086614D03*
X-7480315D03*
X-7874016D03*
X-8267717D03*
X-8661417D03*
X-9055118D03*
X-9448819D03*
X-787402D03*
X-393701D03*
X-1181102Y3740157D03*
X-1574803D03*
X-1968504D03*
X-2362205D03*
X-2755906D03*
X-3149606D03*
X-3543307D03*
X-3937008D03*
X-4330709D03*
X-4724409D03*
X-5118110D03*
X-5511811D03*
X-5905512D03*
X-6299213D03*
X-6692913D03*
X-7086614D03*
X-7480315D03*
X-7874016D03*
X-8267717D03*
X-8661417D03*
X-9055118D03*
X-9448819D03*
X-787402D03*
X-393701D03*
X-1181102Y4133858D03*
X-1574803D03*
X-1968504D03*
X-2362205D03*
X-2755906D03*
X-3149606D03*
X-3543307D03*
X-3937008D03*
X-4330709D03*
X-4724409D03*
X-5118110D03*
X-5511811D03*
X-5905512D03*
X-6299213D03*
X-6692913D03*
X-7086614D03*
X-7480315D03*
X-7874016D03*
X-8267717D03*
X-8661417D03*
X-9055118D03*
X-9448819D03*
X-787402D03*
X-393701D03*
X-1181102Y4527559D03*
X-1574803D03*
X-1968504D03*
X-2362205D03*
X-2755906D03*
X-3149606D03*
X-3543307D03*
X-3937008D03*
X-4330709D03*
X-4724409D03*
X-5118110D03*
X-5511811D03*
X-5905512D03*
X-6299213D03*
X-6692913D03*
X-7086614D03*
X-7480315D03*
X-7874016D03*
X-8267717D03*
X-8661417D03*
X-9055118D03*
X-9448819D03*
X-787402D03*
X-393701D03*
X-1181102Y4921260D03*
X-1574803D03*
X-1968504D03*
X-2362205D03*
X-2755906D03*
X-3149606D03*
X-3543307D03*
X-3937008D03*
X-4330709D03*
X-4724409D03*
X-5118110D03*
X-5511811D03*
X-5905512D03*
X-6299213D03*
X-6692913D03*
X-7086614D03*
X-7480315D03*
X-7874016D03*
X-8267717D03*
X-8661417D03*
X-9055118D03*
X-9448819D03*
X-787402D03*
X-393701D03*
X-1181102Y5314961D03*
X-1574803D03*
X-1968504D03*
X-2362205D03*
X-2755906D03*
X-3149606D03*
X-3543307D03*
X-3937008D03*
X-4330709D03*
X-4724409D03*
X-5118110D03*
X-5511811D03*
X-5905512D03*
X-6299213D03*
X-6692913D03*
X-7086614D03*
X-7480315D03*
X-7874016D03*
X-8267717D03*
X-8661417D03*
X-9055118D03*
X-9448819D03*
X-787402D03*
X-393701D03*
X-1181102Y5708661D03*
X-1574803D03*
X-1968504D03*
X-2362205D03*
X-2755906D03*
X-3149606D03*
X-3543307D03*
X-3937008D03*
X-4330709D03*
X-4724409D03*
X-5118110D03*
X-5511811D03*
X-5905512D03*
X-6299213D03*
X-6692913D03*
X-7086614D03*
X-7480315D03*
X-7874016D03*
X-8267717D03*
X-8661417D03*
X-9055118D03*
X-9448819D03*
X-787402D03*
X-393701D03*
X-1181102Y6102362D03*
X-1574803D03*
X-1968504D03*
X-2362205D03*
X-2755906D03*
X-3149606D03*
X-3543307D03*
X-3937008D03*
X-4330709D03*
X-4724409D03*
X-5118110D03*
X-5511811D03*
X-5905512D03*
X-6299213D03*
X-6692913D03*
X-7086614D03*
X-7480315D03*
X-7874016D03*
X-8267717D03*
X-8661417D03*
X-9055118D03*
X-9448819D03*
X-787402D03*
X-393701D03*
X-1181102Y6496063D03*
X-1574803D03*
X-1968504D03*
X-2362205D03*
X-2755906D03*
X-3149606D03*
X-3543307D03*
X-3937008D03*
X-4330709D03*
X-4724409D03*
X-5118110D03*
X-5511811D03*
X-5905512D03*
X-6299213D03*
X-6692913D03*
X-7086614D03*
X-7480315D03*
X-7874016D03*
X-8267717D03*
X-8661417D03*
X-9055118D03*
X-9448819D03*
X-787402D03*
X-393701D03*
X-1181102Y6889764D03*
X-1574803D03*
X-1968504D03*
X-2362205D03*
X-2755906D03*
X-3149606D03*
X-3543307D03*
X-3937008D03*
X-4330709D03*
X-4724409D03*
X-5118110D03*
X-5511811D03*
X-5905512D03*
X-6299213D03*
X-6692913D03*
X-7086614D03*
X-7480315D03*
X-7874016D03*
X-8267717D03*
X-8661417D03*
X-9055118D03*
X-9448819D03*
X-787402D03*
X-393701D03*
X-1181102Y7283465D03*
X-1574803D03*
X-1968504D03*
X-2362205D03*
X-2755906D03*
X-3149606D03*
X-3543307D03*
X-3937008D03*
X-4330709D03*
X-4724409D03*
X-5118110D03*
X-5511811D03*
X-5905512D03*
X-6299213D03*
X-6692913D03*
X-7086614D03*
X-7480315D03*
X-7874016D03*
X-8267717D03*
X-8661417D03*
X-9055118D03*
X-787402D03*
X-393701D03*
X-9448819Y7677165D03*
X-1181102D03*
X-1574803D03*
X-1968504D03*
X-2362205D03*
X-2755906D03*
X-3149606D03*
X-3543307D03*
X-3937008D03*
X-4330709D03*
X-4724409D03*
X-5118110D03*
X-5511811D03*
X-5905512D03*
X-6299213D03*
X-6692913D03*
X-7086614D03*
X-7480315D03*
X-7874016D03*
X-8267717D03*
X-8661417D03*
X-9055118D03*
X-787402D03*
X-393701D03*
X-9448819Y-7283465D03*
X-1574803Y-196850D03*
X-1968504D03*
X-2362205D03*
X-2755906D03*
X-3149606D03*
X-3543307D03*
X-3937008D03*
X-4330709D03*
X-4724409D03*
X-5118110D03*
X-5511811D03*
X-5905512D03*
X-6299213D03*
X-6692913D03*
X-7086614D03*
X-7480315D03*
X-7874016D03*
X-8267717D03*
X-8661417D03*
X-9055118D03*
X-9448819D03*
X-1574803Y-590551D03*
X-1968504D03*
X-2362205D03*
X-2755906D03*
X-3149606D03*
X-3543307D03*
X-3937008D03*
X-4330709D03*
X-4724409D03*
X-5118110D03*
X-5511811D03*
X-5905512D03*
X-6299213D03*
X-6692913D03*
X-7086614D03*
X-7480315D03*
X-7874016D03*
X-8267717D03*
X-8661417D03*
X-9055118D03*
X-9448819D03*
X-1574803Y-984252D03*
X-1968504D03*
X-2362205D03*
X-2755906D03*
X-3149606D03*
X-3543307D03*
X-3937008D03*
X-4330709D03*
X-4724409D03*
X-5118110D03*
X-5511811D03*
X-5905512D03*
X-6299213D03*
X-6692913D03*
X-7086614D03*
X-7480315D03*
X-7874016D03*
X-8267717D03*
X-8661417D03*
X-9055118D03*
X-9448819D03*
X-1574803Y-1377953D03*
X-1968504D03*
X-2362205D03*
X-2755906D03*
X-3149606D03*
X-3543307D03*
X-3937008D03*
X-4330709D03*
X-4724409D03*
X-5118110D03*
X-5511811D03*
X-5905512D03*
X-6299213D03*
X-6692913D03*
X-7086614D03*
X-7480315D03*
X-7874016D03*
X-8267717D03*
X-8661417D03*
X-9055118D03*
X-9448819D03*
X-1181102Y-1771654D03*
X-1574803D03*
X-1968504D03*
X-2362205D03*
X-2755906D03*
X-3149606D03*
X-3543307D03*
X-3937008D03*
X-4330709D03*
X-4724409D03*
X-5118110D03*
X-5511811D03*
X-5905512D03*
X-6299213D03*
X-6692913D03*
X-7086614D03*
X-7480315D03*
X-7874016D03*
X-8267717D03*
X-8661417D03*
X-9055118D03*
X-9448819D03*
X-787402D03*
X-393701D03*
X-1181102Y-2165354D03*
X-1574803D03*
X-1968504D03*
X-2362205D03*
X-2755906D03*
X-3149606D03*
X-3543307D03*
X-3937008D03*
X-4330709D03*
X-4724409D03*
X-5118110D03*
X-5511811D03*
X-5905512D03*
X-6299213D03*
X-6692913D03*
X-7086614D03*
X-7480315D03*
X-7874016D03*
X-8267717D03*
X-8661417D03*
X-9055118D03*
X-9448819D03*
X-787402D03*
X-393701D03*
X-1181102Y-2559055D03*
X-1574803D03*
X-1968504D03*
X-2362205D03*
X-2755906D03*
X-3149606D03*
X-3543307D03*
X-3937008D03*
X-4330709D03*
X-4724409D03*
X-5118110D03*
X-5511811D03*
X-5905512D03*
X-6299213D03*
X-6692913D03*
X-7086614D03*
X-7480315D03*
X-7874016D03*
X-8267717D03*
X-8661417D03*
X-9055118D03*
X-9448819D03*
X-787402D03*
X-393701D03*
X-1181102Y-2952756D03*
X-1574803D03*
X-1968504D03*
X-2362205D03*
X-2755906D03*
X-3149606D03*
X-3543307D03*
X-3937008D03*
X-4330709D03*
X-4724409D03*
X-5118110D03*
X-5511811D03*
X-5905512D03*
X-6299213D03*
X-6692913D03*
X-7086614D03*
X-7480315D03*
X-7874016D03*
X-8267717D03*
X-8661417D03*
X-9055118D03*
X-9448819D03*
X-787402D03*
X-393701D03*
X-1181102Y-3346457D03*
X-1574803D03*
X-1968504D03*
X-2362205D03*
X-2755906D03*
X-3149606D03*
X-3543307D03*
X-3937008D03*
X-4330709D03*
X-4724409D03*
X-5118110D03*
X-5511811D03*
X-5905512D03*
X-6299213D03*
X-6692913D03*
X-7086614D03*
X-7480315D03*
X-7874016D03*
X-8267717D03*
X-8661417D03*
X-9055118D03*
X-9448819D03*
X-787402D03*
X-393701D03*
X-1181102Y-3740157D03*
X-1574803D03*
X-1968504D03*
X-2362205D03*
X-2755906D03*
X-3149606D03*
X-3543307D03*
X-3937008D03*
X-4330709D03*
X-4724409D03*
X-5118110D03*
X-5511811D03*
X-5905512D03*
X-6299213D03*
X-6692913D03*
X-7086614D03*
X-7480315D03*
X-7874016D03*
X-8267717D03*
X-8661417D03*
X-9055118D03*
X-9448819D03*
X-787402D03*
X-393701D03*
X-1181102Y-4133858D03*
X-1574803D03*
X-1968504D03*
X-2362205D03*
X-2755906D03*
X-3149606D03*
X-3543307D03*
X-3937008D03*
X-4330709D03*
X-4724409D03*
X-5118110D03*
X-5511811D03*
X-5905512D03*
X-6299213D03*
X-6692913D03*
X-7086614D03*
X-7480315D03*
X-7874016D03*
X-8267717D03*
X-8661417D03*
X-9055118D03*
X-9448819D03*
X-787402D03*
X-393701D03*
X-1181102Y-4527559D03*
X-1574803D03*
X-1968504D03*
X-2362205D03*
X-2755906D03*
X-3149606D03*
X-3543307D03*
X-3937008D03*
X-4330709D03*
X-4724409D03*
X-5118110D03*
X-5511811D03*
X-5905512D03*
X-6299213D03*
X-6692913D03*
X-7086614D03*
X-7480315D03*
X-7874016D03*
X-8267717D03*
X-8661417D03*
X-9055118D03*
X-9448819D03*
X-787402D03*
X-393701D03*
X-1181102Y-4921260D03*
X-1574803D03*
X-1968504D03*
X-2362205D03*
X-2755906D03*
X-3149606D03*
X-3543307D03*
X-3937008D03*
X-4330709D03*
X-4724409D03*
X-5118110D03*
X-5511811D03*
X-5905512D03*
X-6299213D03*
X-6692913D03*
X-7086614D03*
X-7480315D03*
X-7874016D03*
X-8267717D03*
X-8661417D03*
X-9055118D03*
X-9448819D03*
X-787402D03*
X-393701D03*
X-1181102Y-5314961D03*
X-1574803D03*
X-1968504D03*
X-2362205D03*
X-2755906D03*
X-3149606D03*
X-3543307D03*
X-3937008D03*
X-4330709D03*
X-4724409D03*
X-5118110D03*
X-5511811D03*
X-5905512D03*
X-6299213D03*
X-6692913D03*
X-7086614D03*
X-7480315D03*
X-7874016D03*
X-8267717D03*
X-8661417D03*
X-9055118D03*
X-9448819D03*
X-787402D03*
X-393701D03*
X-1181102Y-5708661D03*
X-1574803D03*
X-1968504D03*
X-2362205D03*
X-2755906D03*
X-3149606D03*
X-3543307D03*
X-3937008D03*
X-4330709D03*
X-4724409D03*
X-5118110D03*
X-5511811D03*
X-5905512D03*
X-6299213D03*
X-6692913D03*
X-7086614D03*
X-7480315D03*
X-7874016D03*
X-8267717D03*
X-8661417D03*
X-9055118D03*
X-9448819D03*
X-787402D03*
X-393701D03*
X-1181102Y-6102362D03*
X-1574803D03*
X-1968504D03*
X-2362205D03*
X-2755906D03*
X-3149606D03*
X-3543307D03*
X-3937008D03*
X-4330709D03*
X-4724409D03*
X-5118110D03*
X-5511811D03*
X-5905512D03*
X-6299213D03*
X-6692913D03*
X-7086614D03*
X-7480315D03*
X-7874016D03*
X-8267717D03*
X-8661417D03*
X-9055118D03*
X-9448819D03*
X-787402D03*
X-393701D03*
X-1181102Y-6496063D03*
X-1574803D03*
X-1968504D03*
X-2362205D03*
X-2755906D03*
X-3149606D03*
X-3543307D03*
X-3937008D03*
X-4330709D03*
X-4724409D03*
X-5118110D03*
X-5511811D03*
X-5905512D03*
X-6299213D03*
X-6692913D03*
X-7086614D03*
X-7480315D03*
X-7874016D03*
X-8267717D03*
X-8661417D03*
X-9055118D03*
X-9448819D03*
X-787402D03*
X-393701D03*
X-1181102Y-6889764D03*
X-1574803D03*
X-1968504D03*
X-2362205D03*
X-2755906D03*
X-3149606D03*
X-3543307D03*
X-3937008D03*
X-4330709D03*
X-4724409D03*
X-5118110D03*
X-5511811D03*
X-5905512D03*
X-6299213D03*
X-6692913D03*
X-7086614D03*
X-7480315D03*
X-7874016D03*
X-8267717D03*
X-8661417D03*
X-9055118D03*
X-9448819D03*
X-787402D03*
X-393701D03*
X-1181102Y-7283465D03*
X-1574803D03*
X-1968504D03*
X-2362205D03*
X-2755906D03*
X-3149606D03*
X-3543307D03*
X-3937008D03*
X-4330709D03*
X-4724409D03*
X-5118110D03*
X-5511811D03*
X-5905512D03*
X-6299213D03*
X-6692913D03*
X-7086614D03*
X-7480315D03*
X-7874016D03*
X-8267717D03*
X-8661417D03*
X-9055118D03*
X-787402D03*
X-393701D03*
X-9448819Y-7677165D03*
X-1181102D03*
X-1574803D03*
X-1968504D03*
X-2362205D03*
X-2755906D03*
X-3149606D03*
X-3543307D03*
X-3937008D03*
X-4330709D03*
X-4724409D03*
X-5118110D03*
X-5511811D03*
X-5905512D03*
X-6299213D03*
X-6692913D03*
X-7086614D03*
X-7480315D03*
X-7874016D03*
X-8267717D03*
X-8661417D03*
X-9055118D03*
X-787402D03*
X-393701D03*
D12*
X0Y157480D03*
X314961D03*
X629921D03*
X944882D03*
X0Y472441D03*
X314961D03*
X629921D03*
X944882D03*
X0Y787402D03*
X314961D03*
X629921D03*
X944882D03*
X0Y1102362D03*
X314961D03*
X629921D03*
X944882D03*
X0Y1417323D03*
X314961D03*
X629921D03*
X944882D03*
X1240157Y157480D03*
Y472441D03*
Y787402D03*
Y1102362D03*
Y1417323D03*
X0Y-157480D03*
X314961D03*
X629921D03*
X944882D03*
X0Y-472441D03*
X314961D03*
X629921D03*
X944882D03*
X0Y-787402D03*
X314961D03*
X629921D03*
X944882D03*
X0Y-1102362D03*
X314961D03*
X629921D03*
X944882D03*
X0Y-1417323D03*
X314961D03*
X629921D03*
X944882D03*
X1240157Y-157480D03*
Y-472441D03*
Y-787402D03*
Y-1102362D03*
Y-1417323D03*
X-314961Y157480D03*
X-629921D03*
X-944882D03*
X-314961Y472441D03*
X-629921D03*
X-944882D03*
X-314961Y787402D03*
X-629921D03*
X-944882D03*
X-314961Y1102362D03*
X-629921D03*
X-944882D03*
X-314961Y1417323D03*
X-629921D03*
X-944882D03*
X-1240157Y157480D03*
Y472441D03*
Y787402D03*
Y1102362D03*
Y1417323D03*
X-314961Y-157480D03*
X-629921D03*
X-944882D03*
X-314961Y-472441D03*
X-629921D03*
X-944882D03*
X-314961Y-787402D03*
X-629921D03*
X-944882D03*
X-314961Y-1102362D03*
X-629921D03*
X-944882D03*
X-314961Y-1417323D03*
X-629921D03*
X-944882D03*
X-1240157Y-157480D03*
Y-472441D03*
Y-787402D03*
Y-1102362D03*
Y-1417323D03*
%LPC*%
D13*
X10039370Y8070866D03*
Y-8070866D03*
X-10039370Y8070866D03*
Y-8070866D03*
%LPD*%
M02*